/* XPM */
static char *result[] = {
/* columns rows colors chars-per-pixel */
"48 48 112 2 ",
"   c #885B36",
".  c #8A5D36",
"X  c #8E5F35",
"o  c #946334",
"O  c #9A6832",
"+  c #9B6832",
"@  c #9E7A39",
"#  c #9F7C39",
"$  c #B4792D",
"%  c #A26D31",
"&  c #A16D34",
"*  c #A27237",
"=  c #A37436",
"-  c #A47A3A",
";  c #A47B3A",
":  c #A47B3D",
">  c #A5843A",
",  c #A5823D",
"<  c #A5843C",
"1  c #A5843D",
"2  c #AD8E3B",
"3  c #B4983C",
"4  c #C0822B",
"5  c #C2832B",
"6  c #CF8C28",
"7  c #D1952E",
"8  c #D6982D",
"9  c #DD9928",
"0  c #DC9A2A",
"q  c #C0AA3E",
"w  c #C7B43F",
"e  c #F0A322",
"r  c #F1A322",
"t  c #F0A223",
"y  c #F0A323",
"u  c #F1AA27",
"i  c #F2AA27",
"p  c #F2AC28",
"a  c #F3AC28",
"s  c #F2AD29",
"d  c #F3B52E",
"f  c #F3B72F",
"g  c #F5BC33",
"h  c #F4BE34",
"j  c #F5BE34",
"k  c #F5BE35",
"l  c #F5BF35",
"z  c #F6BE35",
"x  c #F5C036",
"c  c #F7C63A",
"v  c #F6C73B",
"b  c #F6C83B",
"n  c #F6C83C",
"m  c #F7C93C",
"M  c #F7CB3E",
"N  c #F7CC3E",
"B  c #F7CD3F",
"V  c #F8CD3F",
"C  c #F9E63D",
"Z  c #FAE63D",
"A  c #CAB740",
"S  c #CBBA40",
"D  c #DFD543",
"F  c #F8CF41",
"G  c #F9CF41",
"H  c #E5DC43",
"J  c #F7D142",
"K  c #F9DA46",
"L  c #FADF46",
"P  c #FAD948",
"I  c #FBD948",
"U  c #F9DA48",
"Y  c #F9DB48",
"T  c #F9DA49",
"R  c #FADA48",
"E  c #FADC48",
"W  c #FADD48",
"Q  c #F9DE48",
"!  c #F9DF48",
"~  c #FADF48",
"^  c #E7E044",
"/  c #F0E147",
"(  c #FAE241",
")  c #F9E541",
"_  c #FAE247",
"`  c #F5E946",
"'  c #FBEE47",
"]  c #FBEF47",
"[  c #FAE148",
"{  c #FAE248",
"}  c #FAE348",
"|  c #FBE648",
" . c #FBE748",
".. c #FBE848",
"X. c #FAE948",
"o. c #FCEB48",
"O. c #FCEE48",
"+. c #F7F746",
"@. c #F7F747",
"#. c #FBF447",
"$. c #FCF447",
"%. c #FCF746",
"&. c #FCFB47",
"*. c #FDFC47",
"=. c #FDFF47",
"-. c #FCF048",
";. c #FDF248",
":. c #FCF348",
">. c #FCF748",
",. c #FDF748",
"<. c #FDF948",
"1. c #FDFC48",
/* pixels */
"                                                                                                ",
"                                                                                                ",
"                                                                                                ",
"                                                                                                ",
"                                                                                                ",
"                                                                                                ",
"                                                                                                ",
"                                                                                                ",
"                                                                                                ",
"                                                                                                ",
"                                                                                                ",
"                                                                                                ",
"                                    > 2 2 2 2 2 2 2 2 2 2 @                                     ",
"                                    D =.=.=.=.=.=.=.=.=.=.H                                     ",
"                                    D =.=.=.=.=.=.=.=.=.=.H                                     ",
"                              q ^ ^ / | | | | | | | | | | -.^ ^ 3                               ",
"                              w =.=.X.U U U U U U U U U U ..=.=.A                               ",
"                        . . . w =.=.X.U U Y Y Y Y Y U U U  .=.=.S . .                           ",
"                        1 +.+.` ! ! Q U U ,.*.*.*.*.%.U U U ! ! ;.@.+.#                         ",
"                        < =.=.] U U U U U <.=.=.=.=.&.U U U U U O.=.=.>                         ",
"                        , *.1.' U U W ~ ~ >.*.*.*.*.&.~ ~ E U U o.*.*.>                         ",
"                        : U U Y U U :.=.=._ U U U U { =.=.$.U U U U Y ;                         ",
"                        : U U U U U :.=.=.} U T U U [ =.=.#.U U U U U -                         ",
"                        : U U U U U ( Z Z L U U T U K C C ) U U U U U -                         ",
"                        : U U U U U f t e G U U U U J e y d U U U U U -                         ",
"                        : U U U U U f t e F U U U U J e y d U U U U U -                         ",
"                        * l l N U U m k z j l l l l x l l v U U N z l =                         ",
"                        & e e g U U U U U s e e e e p U U U U U h r e %                         ",
"                        & e e g U U U U U s e e e e a U U U U U h e e %                         ",
"                        X $ $ 8 d d V U U V n n n n M U U B d d 7 $ $ o                         ",
"                              4 e e c U U U U U U U U U U b e e 5                               ",
"                              4 e e c P I R R P R R P U R b e e 5                               ",
"                              X + + 9 i i i i i u i u i i 0 + + O                               ",
"                                    6 e e e e e e e e e e 6                                     ",
"                                    6 e e e e e e e e e e 6                                     ",
"                                                                                                ",
"                                                                                                ",
"                                                                                                ",
"                                                                                                ",
"                                                                                                ",
"                                                                                                ",
"                                                                                                ",
"                                                                                                ",
"                                                                                                ",
"                                                                                                ",
"                                                                                                ",
"                                                                                                ",
"                                                                                                "
};
