/* XPM */
static char *result[] = {
/* columns rows colors chars-per-pixel */
"48 48 37 1 ",
"  c #885B36",
". c #8A5C36",
"X c #D89227",
"o c #DC9526",
"O c #DD9526",
"+ c #D89528",
"@ c #DD9B29",
"# c #D99E2B",
"$ c #DD9D28",
"% c #DCA836",
"& c #EBA023",
"* c #F0A322",
"= c #F1A825",
"- c #F1B027",
"; c #E0AB35",
": c #F4BE34",
"> c #DEBC44",
", c #DFBC44",
"< c #DFBD44",
"1 c #DACF42",
"2 c #E3C245",
"3 c #E4C245",
"4 c #E1D543",
"5 c #E1D044",
"6 c #E6D645",
"7 c #E2D943",
"8 c #E6DA45",
"9 c #F9D947",
"0 c #F9D948",
"q c #F9DA48",
"w c #E7E044",
"e c #E7E045",
"r c #F6F546",
"t c #FCF347",
"y c #FCF847",
"u c #FDFF47",
"i c #FCF348",
/* pixels */
"                                                ",
"                                                ",
"                                                ",
"                                                ",
"                                                ",
"                                                ",
"                                                ",
"                                                ",
"                                                ",
"                                                ",
"                                                ",
"                                                ",
"                                                ",
"                     wrrrr1                     ",
"                     wuuuu7                     ",
"                     8yyyy4                     ",
"                     3qqqq>                     ",
"                     3qqqq>                     ",
"                     2qqqq>                     ",
"                     2qqqq>                     ",
"                     3qqqq>                     ",
"                     6ittt5                     ",
"                     wuuuu7                     ",
"                     euuuu7                     ",
"                     $----#                     ",
"                     o****X                     ",
"                     @====+                     ",
"                     30090,                     ",
"                     3qqqq<                     ",
"                     3qqqq<                     ",
"                     3qqqq<                     ",
"                     3qqqq<                     ",
"                     ;::::%                     ",
"                     O****X                     ",
"                     X&&&&X                     ",
"                      .....                     ",
"                                                ",
"                                                ",
"                                                ",
"                                                ",
"                                                ",
"                                                ",
"                                                ",
"                                                ",
"                                                ",
"                                                ",
"                                                ",
"                                                "
};
