/* XPM */
static char *result[] = {
/* columns rows colors chars-per-pixel */
"48 48 114 2 ",
"   c #885B36",
".  c #895C36",
"X  c #8C5E35",
"o  c #8D5E35",
"O  c #8F5F35",
"+  c #8F6035",
"@  c #8E6337",
"#  c #8F6537",
"$  c #906737",
"%  c #9C6932",
"&  c #9F7B39",
"*  c #AC732F",
"=  c #AE752F",
"-  c #B5792E",
";  c #B87C2D",
":  c #B97C2D",
">  c #A06B31",
",  c #A26D31",
"<  c #AC8E3B",
"1  c #B2963C",
"2  c #B4993D",
"3  c #B69B3D",
"4  c #B89E3D",
"5  c #C5872C",
"6  c #CA8729",
"7  c #CB8729",
"8  c #C8852A",
"9  c #C8862A",
"0  c #CB8829",
"q  c #F09F22",
"w  c #CEA03A",
"e  c #CCA33E",
"r  c #C8B53F",
"t  c #EFA222",
"y  c #F3A122",
"u  c #F1A222",
"i  c #F0A322",
"p  c #F0A323",
"a  c #F2A222",
"s  c #F3A223",
"d  c #F4A122",
"f  c #F4A223",
"g  c #F1A724",
"h  c #F2A826",
"j  c #F3A927",
"k  c #F2AB27",
"l  c #F3AE2A",
"z  c #F3AF2A",
"x  c #F4AD2A",
"c  c #F5B32E",
"v  c #F5B52F",
"b  c #F6B52F",
"n  c #F4B730",
"m  c #F4BB32",
"M  c #F5BF35",
"N  c #F6BF35",
"B  c #F5BF36",
"V  c #F5C338",
"C  c #F6C338",
"Z  c #F6C63A",
"A  c #F6C73B",
"S  c #F6C83B",
"D  c #F7C93C",
"F  c #F7CE3F",
"G  c #CCA841",
"H  c #CFAA41",
"J  c #CDAF41",
"K  c #CFB041",
"L  c #CBB840",
"P  c #CDBC40",
"I  c #CEBE40",
"U  c #D1C140",
"Y  c #D1C141",
"T  c #D2C341",
"R  c #F7CF40",
"E  c #F8CE40",
"W  c #F7D242",
"Q  c #F8D242",
"!  c #F9D545",
"~  c #F9D947",
"^  c #F9D948",
"/  c #FAD948",
"(  c #F8DA48",
")  c #F9DA48",
"_  c #F9DB48",
"`  c #FADA48",
"'  c #FADA49",
"]  c #F9DC48",
"[  c #FADC48",
"{  c #F9DE48",
"}  c #FAE847",
"|  c #FBEA47",
" . c #FBEE47",
".. c #FBEF47",
"X. c #FAE148",
"o. c #FAE448",
"O. c #FBE648",
"+. c #FBE848",
"@. c #FBE948",
"#. c #FBEB48",
"$. c #FBEB49",
"%. c #FBEC48",
"&. c #FBED48",
"*. c #FBEF48",
"=. c #FBF347",
"-. c #FCF547",
";. c #FDFA47",
":. c #FCFB47",
">. c #FBFD47",
",. c #FDFD46",
"<. c #FDFE47",
"1. c #FDFF47",
"2. c #FCF048",
"3. c #FCF748",
/* pixels */
"                                                                                                ",
"                                                                                                ",
"                                                                                                ",
"                                                                                                ",
"                                                                                                ",
"                                                                                                ",
"                                                                                                ",
"                                                                                                ",
"                                                                                                ",
"                                                                                                ",
"                                                                                                ",
"                                                                                                ",
"                                      # # # # # # # # #                                         ",
"                                      1 1.1.1.1.1.1.1.1.&                                       ",
"                                      1 1.1.1.1.1.1.1.1.&                                       ",
"                                . 3 4 U 1.1.;.-.-.-.-.-.r 4 4                                   ",
"                                $ 1.1.1.1.1.2.) ) ) ) ) :.1.>.@                                 ",
"                                $ 1.1.1.1.1.2.) ) ) ) ) :.1.>.@                                 ",
"                            2 L T *.&.&.&.&.O.) ) } .... .%...P L <                             ",
"                            Y 1.<.[ ) ) ) ) ) ) ) =.1.1.X.) { 1.1.I                             ",
"                            Y 1.<.[ ) ) ) ) ' ) ) =.1.1.X.) { 1.1.I                             ",
"                            K o.o.) ) ) ) ) @.3.3.$.o.o.] ) _ o.o.J                             ",
"                            H ) ) ) ) ) ) ) #.1.1.@.) ) ) ) ) ) ) G                             ",
"                            H ) ) ) ) ) ) ) | ,.,.+.) ) ) ) ) ) ) G                             ",
"                            H ) ) ) ) ) ) ) C g g S ) ) ) ) ) ) ) G                             ",
"                            H ) ) ) ) ) ) ) C i p Z ) ) ) ) ) ) ) G                             ",
"                            w E E E E Q ) ) D z l N R R ^ ) ~ E E e                             ",
"                            7 y y y y x ) ) ) ) ) n i i Q ) ! f y 8                             ",
"                            7 y y d y x ) ) ) ) ) n i i W ) ! s y 8                             ",
"                            * 6 0 u u h C V F ) ) A m m B V M 6 6 -                             ",
"                                + i i i i i m ) ( / ) ) k i t o                                 ",
"                                + i i i i i m ) ) / ` ) k i t o                                 ",
"                                O : : 9 a a j v v b b c 5 ; =                                   ",
"                                      , y y y y y y y y %                                       ",
"                                      > q q q q q q q q %                                       ",
"                                        X X X X X X X X X                                       ",
"                                                                                                ",
"                                                                                                ",
"                                                                                                ",
"                                                                                                ",
"                                                                                                ",
"                                                                                                ",
"                                                                                                ",
"                                                                                                ",
"                                                                                                ",
"                                                                                                ",
"                                                                                                ",
"                                                                                                "
};
