/* XPM */
static char *result[] = {
/* columns rows colors chars-per-pixel */
"48 48 106 2 ",
"   c #885B36",
".  c #895C36",
"X  c #8D5E35",
"o  c #8F5F35",
"O  c #8F6537",
"+  c #BD7E2C",
"@  c #BC7F2C",
"#  c #BE7F2C",
"$  c #A06B31",
"%  c #A26C31",
"&  c #A26D31",
"*  c #A5833A",
"=  c #AC8E3B",
"-  c #AD8E3B",
";  c #B4983C",
":  c #BBA33D",
">  c #C0812B",
",  c #CA862A",
"<  c #CD8A29",
"1  c #CE8D2B",
"2  c #D28C28",
"3  c #D38C28",
"4  c #D28D28",
"5  c #D38D28",
"6  c #D79027",
"7  c #D89027",
"8  c #CEA73F",
"9  c #C9B43F",
"0  c #F1A022",
"q  c #F3A122",
"w  c #F1A222",
"e  c #F0A322",
"r  c #F0A323",
"t  c #F2A222",
"y  c #F3A223",
"u  c #F1AB26",
"i  c #F2AA27",
"p  c #F3AB27",
"a  c #F2AA28",
"s  c #F2AD28",
"d  c #F3AD29",
"f  c #F4AC29",
"g  c #F3B62F",
"h  c #F3B72F",
"j  c #F4B830",
"k  c #F4BA31",
"l  c #F4BA32",
"z  c #F5BA32",
"x  c #F6BB33",
"c  c #F6C237",
"v  c #F5C238",
"b  c #F5C539",
"n  c #F6C438",
"m  c #F6C539",
"M  c #F6C53A",
"N  c #F6C63A",
"B  c #F6C73B",
"V  c #F6C93A",
"C  c #F7CE3F",
"Z  c #CEAA41",
"A  c #CFB241",
"S  c #CAB740",
"D  c #CBB940",
"F  c #CDBC40",
"G  c #DBB243",
"H  c #DCBA48",
"J  c #D1C141",
"K  c #DDC249",
"L  c #DFD647",
"P  c #F7D141",
"I  c #F8D243",
"U  c #F9D243",
"Y  c #F8D343",
"T  c #F9D645",
"R  c #F9D746",
"E  c #FAD948",
"W  c #F8DA48",
"Q  c #F9DA48",
"!  c #F9DB48",
"~  c #FADA48",
"^  c #FADA49",
"/  c #F9DC48",
"(  c #F9DD48",
")  c #F9DE48",
"_  c #FBEE47",
"`  c #FAE248",
"'  c #FAE548",
"]  c #FBE548",
"[  c #FAE648",
"{  c #FAEA48",
"}  c #FBEA48",
"|  c #FBEB48",
" . c #FBED48",
".. c #FBEE48",
"X. c #FBEF48",
"o. c #FCEF48",
"O. c #FBF047",
"+. c #FBF247",
"@. c #FCF547",
"#. c #FCF647",
"$. c #FCFA47",
"%. c #FDFE46",
"&. c #FDFE47",
"*. c #FDFF47",
"=. c #FCF148",
"-. c #FDFC48",
/* pixels */
"                                                                                                ",
"                                                                                                ",
"                                                                                                ",
"                                                                                                ",
"                                                                                                ",
"                                                                                                ",
"                                                                                                ",
"                                                                                                ",
"                                                                                                ",
"                                                                                                ",
"                                                                                                ",
"                                                                                                ",
"                                      O O O O O O O O O                                         ",
"                                      * *.*.*.*.*.*.*.*.=                                       ",
"                                      * *.*.*.*.*.*.*.*.=                                       ",
"                                  ; ; 9 @.@.@.@.@.-.*.*.F ; ;                                   ",
"                                O *.*.$.Q Q Q Q Q =.*.*.*.*.*.O                                 ",
"                                O *.*.$.Q Q Q Q Q =.*.*.*.*.*.O                                 ",
"                            : S J O. .o..._ [ Q Q [ ........o.D S -                             ",
"                            L *.*.) Q ` *.*.+.Q Q Q Q Q Q Q ( &.*.J                             ",
"                            L *.*.) Q ` *.*.+.Q Q ^ Q Q Q Q ( &.*.J                             ",
"                            K [ ' ! Q / [ [ X.#.#.] Q Q Q Q ! ' ' A                             ",
"                            H Q Q Q Q Q Q Q } *.*.| Q Q Q Q Q Q Q Z                             ",
"                            H Q Q Q Q Q Q Q { &.%.} Q Q Q Q Q Q Q Z                             ",
"                            H Q Q Q Q Q Q Q M u u V Q Q Q Q Q Q Q Z                             ",
"                            H Q Q Q Q Q Q Q b r e n Q Q Q Q Q Q Q Z                             ",
"                            G I Y Q Q R Y Y N a i m Q Q Y I I I U 8                             ",
"                            6 q y T Q P e e j Q Q Q Q Q f q q q q ,                             ",
"                            7 q y T Q P e e j Q Q Q Q Q f q q q q ,                             ",
"                            # 3 5 v B N h g c Q Q C B B p t w 2 4 +                             ",
"                                o e e s Q Q ~ W Q l e e e e e o                                 ",
"                                o e e s Q Q E Q Q k e e e e e o                                 ",
"                                . @ > 1 z x x x x d t w < > >                                   ",
"                                      % q q q q q q q q &                                       ",
"                                      $ 0 0 0 0 0 0 0 0 &                                       ",
"                                        o o o o o o o o X                                       ",
"                                                                                                ",
"                                                                                                ",
"                                                                                                ",
"                                                                                                ",
"                                                                                                ",
"                                                                                                ",
"                                                                                                ",
"                                                                                                ",
"                                                                                                ",
"                                                                                                ",
"                                                                                                ",
"                                                                                                "
};
