/* XPM */
static char *result[] = {
/* columns rows colors chars-per-pixel */
"48 48 186 2 ",
"   c #2F2F2E",
".  c #362E2F",
"X  c #30312F",
"o  c #2F2C34",
"O  c #312E33",
"+  c #322A3E",
"@  c #323431",
"#  c #3B3531",
"$  c #313832",
"%  c #3E3A35",
"&  c #6C1C32",
"*  c #741A33",
"=  c #7D1D35",
"-  c #44292F",
";  c #492630",
":  c #592233",
">  c #433934",
",  c #682837",
"<  c #752B36",
"1  c #36523D",
"2  c #5C4237",
"3  c #654A3C",
"4  c #69483A",
"5  c #704D3E",
"6  c #362845",
"7  c #34264A",
"8  c #392A48",
"9  c #362353",
"0  c #3C2558",
"q  c #3B3A58",
"w  c #3B1D66",
"e  c #3C1C68",
"r  c #3C1576",
"t  c #3B1E76",
"y  c #3C167E",
"u  c #3C1B7B",
"i  c #3F2165",
"p  c #3C2077",
"a  c #4C354A",
"s  c #422857",
"d  c #411E6C",
"f  c #441C74",
"g  c #431A7D",
"h  c #422367",
"j  c #385D42",
"k  c #3C4756",
"l  c #3C6B49",
"z  c #3D7C4F",
"x  c #414E58",
"c  c #665842",
"v  c #775445",
"b  c #72564A",
"n  c #596A49",
"m  c #646A4A",
"M  c #777759",
"N  c #882137",
"B  c #862638",
"V  c #8C2238",
"C  c #912A39",
"Z  c #9E293B",
"A  c #875B4B",
"S  c #955D49",
"D  c #A9564F",
"F  c #92654B",
"G  c #916451",
"H  c #817958",
"J  c #BF6153",
"K  c #995F6D",
"L  c #947E64",
"P  c #C05C4E",
"I  c #C36F55",
"U  c #3E8050",
"Y  c #438955",
"T  c #538C57",
"R  c #47955B",
"E  c #5D905B",
"W  c #44A15E",
"Q  c #679966",
"!  c #45A560",
"~  c #49A062",
"^  c #49AD65",
"/  c #58A86A",
"(  c #4CB56A",
")  c #4FB86C",
"_  c #50BD6F",
"`  c #5DB67A",
"'  c #65A166",
"]  c #998267",
"[  c #A38A6C",
"{  c #99A575",
"}  c #AAA468",
"|  c #CE9575",
" . c #E59363",
".. c #E89A69",
"X. c #3E0F88",
"o. c #3D1484",
"O. c #3D1981",
"+. c #3E1289",
"@. c #420F8D",
"#. c #421486",
"$. c #401B82",
"%. c #4A1A86",
"&. c #42138C",
"*. c #4A178D",
"=. c #411888",
"-. c #4B1A8C",
";. c #501C88",
":. c #450F93",
">. c #4A0F95",
",. c #4B0F9A",
"<. c #451292",
"1. c #491295",
"2. c #4A1990",
"3. c #4D129B",
"4. c #51139E",
"5. c #541C9B",
"6. c #552187",
"7. c #5C258B",
"8. c #563587",
"9. c #542D94",
"0. c #55269B",
"q. c #58259E",
"w. c #5D3A96",
"e. c #5C339C",
"r. c #602990",
"t. c #643193",
"y. c #613D9E",
"u. c #5514A2",
"i. c #5A15A5",
"p. c #5619A2",
"a. c #5C1BA5",
"s. c #5D16A9",
"d. c #5E1AA9",
"f. c #601DA7",
"g. c #6017AB",
"h. c #621BAD",
"j. c #671DB1",
"k. c #691DB3",
"l. c #5C25A2",
"z. c #5B29A1",
"x. c #5E30A0",
"c. c #612DA5",
"v. c #6422AC",
"b. c #652BAA",
"n. c #6536A6",
"m. c #643AA2",
"M. c #6A33AC",
"N. c #6C23B3",
"B. c #6E2AB2",
"V. c #7125B6",
"C. c #722BB6",
"Z. c #7224B9",
"A. c #762ABA",
"S. c #7A2CBD",
"D. c #6E34B1",
"F. c #7333B4",
"G. c #7735B8",
"H. c #7C34BC",
"J. c #5E458E",
"K. c #5C4191",
"L. c #654C94",
"P. c #62429A",
"I. c #675391",
"U. c #7B2BC0",
"Y. c #7F30C0",
"T. c #823CBE",
"R. c #8336C2",
"E. c #863BC2",
"W. c #8A3CC5",
"Q. c #8B39C8",
"!. c #779D8C",
"~. c #78A78F",
"^. c #939399",
"/. c #BE9680",
"(. c #87AC9A",
"). c #9299A4",
"_. c #9EA3AB",
"`. c #ADADAB",
"'. c #AEB2BA",
"]. c #B2C9BA",
"[. c #F4C997",
"{. c #FFD19C",
"}. c #BABDC3",
"|. c #C1C1C4",
" X c #CACBCF",
".X c #D4D4D7",
/* pixels */
"M.M.M.D.D.F.E.H.T.M.M.D.y.m.y.y.P.y.y.M.n.G.G.G.D.M.B.w.K.P.M.D.M.H.H.H.n.m.m.L.L.L.L.L.L.y.y.y.",
"M.3.4.i.a.a.C.B.V.i.u.4.>.>.>.<.&.@.1.>.,.h.h.j.s.u.s.X.+.+.3.p.p.v.v.N.3.:.>.*.#.#.#.@.X.@.@.e.",
"M.3.4.a.a.d.B.B.N.5.u.i.>.>.>.@.@.@.1.1.,.h.g.h.u.s.u.X.+.+.3.p.4.h.k.k.3.:.>.&.#.#.#.X.o.X.@.e.",
"T.B.C.R.E.Y.p.a.a.B.V.N.4.,.3.@.#.@.#.#.+.+.,.:.:.X.:.X.o.O.O.+.+.3.p.u.,.:.,.1.>.&.@.@.@.@.:.e.",
"E.N.A.E.Y.Y.p.p.i.N.V.V.,.,.,.+.o.o.+.=.O.<.+.<.+.+.+.O.y u o.o.o.3.4.u.4.3.>.<.@.1.1.*.*.<.>.e.",
"H.V.C.Y.Y.Y.p.a.a.N.V.N.3.,.>.X.o.o.=.+.O.<.<.<.+.+.+.+.y y O.+.#.3.4.u.3.3.>.:.:.*.1.<.*.3.>.e.",
"H.v.d.4.3.p.N.N.N.d.g.g.#.o.X.r u y <.1.1.p.a.a.N.v.j.+.+.+.3.3.3.i.i.i.>.@.&.#.#.#.>.4.,.4.,.c.",
"H.N.j.4.3.4.N.N.N.f.f.s.y #.#.X.o.o.:.1.3.a.s.s.k.N.N.1.,.+.3.3.4.i.5.i.<.#.@.#.&.#.@.>.,.3.4.c.",
"G.k.j.4.3.4.N.N.N.a.a.a.o.#.#.y y #.,.,.,.s.g.s.k.k.k.>.:.@.3.4.5.5.a.i.@.@.@.&.+.X.+.+.,.u.3.c.",
"P.+.+.<.<.<.p.p.5.O.o.$.#.#.#.3.,.3.S.Z.S.u.u.u.g.g.g.0 7 7 6 6 a t.H.H.j.h.h.<.<.+.+.o.+.+.,.c.",
"y.+.+.<.2.<.5.4.4.o.&.#.&.*.*.4.4.4.S.T.S.u.4.4.g.d.h.9   .       g H.H.v.h.h.&.X.+.O.O.O.+.:.c.",
"P.X.+.<.*.<.4.p.4.o.#.&.&.*.*.u.4.4.S.T.S.i.4.i i 0 0 a : : : . . 8.H.T.v.h.h.*.X.X.O.O.O.+.+.e.",
"I.u O.+.+.=.O.o.O.O.#.*.4.4.p.E.R.E.i.i.s.=.&.6       : * * * ;   d 3.1.C.C.C.j.d.s.=.O.O.O.O.K.",
"I.t p =.=.O.O.&.&.#.#.*.u.3.3.W.Q.Q.i.u.u.9 7 , < < < * * : ; s d #.>.3.D.A.G.v.d.d.=.O.p p p J.",
"I.p t +.=.+.O.&.&.#.*.=.4.,.u.E.W.W.i.4.u.+   B Z Z Z = * -   d -.>.1.3.B.G.G.h.v.d.=.y O.O.O.K.",
"y.+.+.1.1.1.=.<.&.3.,.4.R.T.R.a.v.a.#.0 7 , < Z Z Z Z N * -   d *.#.=.$.1.4.1.B.A.A.h.d.d.2.O.K.",
"y.+.&.1.,.,.:.<.>.4.,.3.T.W.W.f.5.a.y O   B Z Z Z Z Z = * -   w #.;.-.%.>.,.3.N.C.A.N.h.h.,.+.e.",
"y.<.+.>.,.,.<.<.<.3.3.4.E.W.E.h h s 9 ; : N N N N N V * * -   w #.-.-.%.>.,.>.B.C.A.j.h.h.,.+.e.",
"D.i.i.s.g.s.,.1.1.k.N.v.f.f.g.O     O & * * * * * * * * * ;   f 3.&.#.#.#.=.#.3.4.u.h.k.j.u.,.c.",
"F.i.s.s.j.g.,.:.<.N.N.N.p.h s ] [ @   N V V V C V V V = * S G a 0 r @.@.&.#.#.<.3.,.h.k.k.u.3.z.",
"D.i.s.g.h.g.,.:.>.N.N.N.p.  @ [.{.#   C Z Z Z Z Z Z Z = * I  .4   w X.X.&.=.#.1.1.,.h.k.j.u.u.b.",
"M.4.4.<.1.1.+.o.o.1.3.2.3.O X ] ] L L J P K K K K K K D D S F n l q w g #.o.o.O.#.#.1.3.,.,.+.x.",
"M.3.1.&.+.<.O.y O.*.*.*.1.O       [.{... .^.).).).).).|  .c   z ! j   d #.o.o.u O.O.<.<.,.+.X.x.",
"M.3.3.&.<.+.y u y &.&.<.>.O o l l ] [ /.| '.'.'.'.).).|  .3   z ! j   e o.o.O.O.O.O.<.<.+.,.,.z.",
"M.3.3.@.@.@.o.y O.2.<.2.1.  @ ) _ @ O ^.). X.X.X.X_.(.|  .c   z ! j X w g y y u O.O.1.,.3.,.3.c.",
"M.4.3.:.@.@.o.O.O.<.2.<.1.O   ) _ @   ).'..X.X|.}.(.~.{ } n l U ! j X w y y y y O.+.,.4.4.4.4.b.",
"M.4.3.@.:.X.o.O.O.<.1.<.1.  @ ) _ $   |..X.X.X_.).~._ _ _ ^ ! ! W 1 . d #.g r y O.o.3.4.3.u.3.b.",
"M.4.3.>.,.:.:.X.<.a.a.a.h.    ( ( $ O |..X.X.X(.!.` _ ( ( ( ^ U z q 9 g :.@.@.>.:.+.u.s.u.u.4.c.",
"M.4.4.3.,.,.,.:.1.j.j.h.v.O   ! ! $   }..X.X.X' W _ _ ^ ! ( _ l   d 4.4.>.>.>.>.,.1.i.s.d.u.4.b.",
"M.4.4.1.,.3.,.:.<.v.h.j.k.s s z U $   |..X`.`.Q E ' ' T T Y Y k 0 g 4.4.>.>.:.1.1.,.d.s.d.u.,.b.",
"m.&.=.<.+.+.o.O.O.3.3.3.S.U.H.        |..Xb 4 A F G G v 4 >   6.j.g.h.s.&.+.o.$.$.O.1.1.1.*.$.w.",
"P.O.+.+.X.o.o.t p *.2.<.E.E.E.0 8   X `.].M m M H H M m c %   7.Z.k.k.h.#.o.O.u u u +.<.<.o.o.w.",
"P.+.$.&.X.X.y u u *.*.<.R.R.R.U.A.+   R ! _ _ _ _ ) _ ^ ^ j   7.Z.j.j.h.$.o.o.u t u X.:.<.+.O.K.",
"m.<.1.3.4.,.+.o.o.o.$.g q.q.l.Z.U.@   Y T R ! ! ~ / / R Y x 7 r.Z.4.*.*.g u t O.+.+.,.u.u.:.<.e.",
"n.1.3.i.s.u.&.o.o.u p p +.<.+.U.U.+   3 4 #     . > 4 #   7.S.U.S.*.#.o.p p t +.+.+.u.s.s.3.1.x.",
"n.3.3.i.s.u.@.#.o.u p u <.+.+.A.U.@   4 5 #     X 4 5 #   7.A.S.S.*.o.o.t p u #.+.<.u.s.s.u.1.c.",
"D.4.4.g.j.g.a.h.v.<.+.+.O.$.$.0.5.O   A F #     . v G 2   ;.q.5.5.g O.u O.+.=.v.C.N.k.h.g.u.,.z.",
"D.u.s.j.k.k.Z.Z.V.<.+.+.u p p +.+.6 6 b v 8 6 6 + v A a 6 %.+.+.o.p p p +.<.<.U.Q.Q.Z.k.k.u.,.c.",
"D.u.s.j.k.k.Z.Z.V.<.&.+.O.u p +.#.=.C.+ $ -.u.3.,.6   ;.a.d.+.O.o.u p u &.<.<.H.Q.Q.Z.k.k.u.,.c.",
"D.u.u.s.s.s.Z.Z.Z.d.h.d.=.o.O.O.u u a.6 + #.,.,.<.9 + r 1.1.$.p t o.+.#.d.v.k.S.T.S.a.3.u.4.,.c.",
"b.u.u.4.4.4.A.A.U.Z.Z.Z.<.+.+.r u p +.+.1.+.:.+.:.<.+.+.+.+.u t t +.&.<.Z.A.U.S.Z.A.1.@.:.,.,.c.",
"D.u.u.4.3.p.A.U.A.Z.Z.k.<.+.+.u u u <.<.1.+.+.+.+.+.<.+.+.+.t u u +.<.<.Z.U.U.S.S.A.3.:.:.>.,.c.",
"n.,.1.3.1.3.l.d.d.Z.Z.Z.4.u.4.#.O.O.+.<.+.<.<.+.:.:.<.+.o.o.O.O.o.p.s.h.V.Z.Z.a.i.5.*.+.&.@.<.x.",
"m.+.:.1.1.1.3.3.3.A.S.S.s.s.i.#.O.+.+.<.<.1.1.1.:.<.+.o.o.o.o.+.+.v.Z.Z.k.k.k.1.@.@.X.X.+.&.&.e.",
"m.+.<.3.1.1.3.3.3.C.A.Z.s.s.i.@.X.+.<.+.<.1.,.1.<.1.>.+.X.+.+.+.+.N.N.Z.k.k.k.<.X.X.X.+.+.#.&.e.",
"K.O.$.3.1.3.p.p.p.v.h.d.u.u.4.:.+.X.:.1.<.i.i.i.i.i.i.&.+.+.1.,.1.h.N.k.i.i.p.<.<.<.+.X.#.y g w.",
"J.p O.2.1.3.d.d.h.4.p.u.,.4.4.>.X.:.3.:.1.j.k.k.k.k.k.>.+.+.3.u.u.h.h.j.<.:.:.<.+.+.+.+.+.u t K.",
"L.8.w.z.l.l.B.B.B.c.l.v.l.l.a.0.0.0.l.l.l.B.C.A.A.C.C.q.0.z.z.z.l.N.C.B.q.0.q.9.9.9.9.9.9.8.8.I."
};
