/* XPM */
static char *result[] = {
/* columns rows colors chars-per-pixel */
"48 48 157 2 ",
"   c #2F2F2E",
".  c #332E2E",
"X  c #3C2B2F",
"o  c #33312F",
"O  c #3D2E30",
"+  c #352C3D",
"@  c #373632",
"#  c #3A3531",
"$  c #651F32",
"%  c #741A33",
"&  c #7B1C34",
"*  c #402A2F",
"=  c #412E30",
"-  c #532431",
";  c #5B2231",
":  c #652333",
">  c #6D2C35",
",  c #742B36",
"<  c #7C2B37",
"1  c #37523E",
"2  c #604438",
"3  c #69483A",
"4  c #352943",
"5  c #392944",
"6  c #34264B",
"7  c #3D2D4A",
"8  c #372356",
"9  c #392453",
"0  c #3C2459",
"q  c #3B1E76",
"w  c #3C167E",
"e  c #3C1B7B",
"r  c #3F2065",
"t  c #3C2077",
"y  c #402847",
"u  c #40264D",
"i  c #462657",
"p  c #462D5E",
"a  c #411D7D",
"s  c #442564",
"d  c #4A2D63",
"f  c #4A256E",
"g  c #502E6E",
"h  c #483A67",
"j  c #54316C",
"k  c #5B387B",
"l  c #564D43",
"z  c #6A4C44",
"x  c #665B4B",
"c  c #705245",
"v  c #785243",
"b  c #42764F",
"n  c #64644E",
"m  c #636850",
"M  c #664272",
"N  c #862136",
"B  c #892137",
"V  c #8E2338",
"C  c #812B38",
"Z  c #97273A",
"A  c #99273A",
"S  c #9E293B",
"D  c #86373B",
"F  c #AC564B",
"G  c #93644B",
"H  c #916451",
"J  c #97725E",
"K  c #B1675F",
"L  c #B97467",
"P  c #579E64",
"I  c #52B36B",
"U  c #50BD6F",
"Y  c #A48A6C",
"T  c #E18D61",
"R  c #E59363",
"E  c #3E0F88",
"W  c #3D1484",
"Q  c #3C1981",
"!  c #3E1289",
"~  c #410F8D",
"^  c #421486",
"/  c #441884",
"(  c #4A1884",
")  c #42138B",
"_  c #4A168D",
"`  c #421889",
"'  c #4A1A8C",
"]  c #551F8D",
"[  c #450F93",
"{  c #490F95",
"}  c #4B0F9A",
"|  c #451192",
" . c #491295",
".. c #4C1A93",
"X. c #4D129B",
"o. c #4F1A98",
"O. c #551B96",
"+. c #51139E",
"@. c #541A9C",
"#. c #5A1C9D",
"$. c #593E8E",
"%. c #5A2D9D",
"&. c #593596",
"*. c #5D3E94",
"=. c #5C349C",
"-. c #5F3B99",
";. c #613D9E",
":. c #5413A2",
">. c #5A15A6",
",. c #5619A2",
"<. c #5A1AA4",
"1. c #5D16A9",
"2. c #5E1BA9",
"3. c #601DA4",
"4. c #6017AC",
"5. c #621BAD",
"6. c #661DB1",
"7. c #691DB3",
"8. c #5E2BA3",
"9. c #5D31A0",
"0. c #6020A0",
"q. c #612DA6",
"w. c #6E2DA4",
"e. c #6621AE",
"r. c #6924AF",
"t. c #642CA9",
"y. c #6A2EAE",
"u. c #6234A3",
"i. c #633BA2",
"p. c #6731A9",
"a. c #6A33AC",
"s. c #7331AB",
"d. c #6C23B3",
"f. c #6E2CB1",
"g. c #7125B6",
"h. c #732DB5",
"j. c #7224B9",
"k. c #752AB9",
"l. c #792BBD",
"z. c #6E32B1",
"x. c #7332B5",
"c. c #7835B7",
"v. c #7531B8",
"b. c #7C34BC",
"n. c #5C4291",
"m. c #614495",
"M. c #644C93",
"N. c #62439B",
"B. c #675391",
"V. c #7A2AC0",
"C. c #813BBE",
"Z. c #8336C2",
"A. c #863BC2",
"S. c #893CC5",
"D. c #8B39C8",
"F. c #EFB58C",
"G. c #FFD19C",
/* pixels */
"a.p.p.z.z.z.V.C.C.p.a.y.;.u.;.;.;.&.q.q.p.v.v.v.z.y.y.-.-.*.p.p.p.v.b.v.u.u.u.m.M.m.m.m.n.;.=.;.",
"a.X.X.>.<.2.h.x.g.@.:.:.{ { { ~ ^ ~  . . .2.6.2.>.>.>.E ! E o.+.,.6.d.d. .[ { ) ^ ^ ^ ^ E ^ ~ =.",
"z.@.,.5.0.e.d.f.r.<.<.>.{ { } ~ ~ E  . . .2.2.2.:.:.:.E W W X.+.X.6.6.5.X.[ { _ _ ^ E W W ~ ~ =.",
"C.h.g.Z.Z.V.,.,.<.g.g.d.} } +.~ ! ^ ^ / ! | [ | E [ [ W Q Q ! ! !  .:.:. .} } [ |  .~ ~ ~ ~ [ =.",
"C.g.k.A.Z.V.8.:.<.g.g.g.X.} } W W W ! ` Q | | | ! ! ! Q Q w W ! ! X.:.:.+.} { ~ ~ { .. ._ {  .=.",
"C.d.d.V.V.b.2.>.<.d.d.d. .{ { E W W ! ` ` | | | ) ) ! ! Q w ! ! ^ +.:.:.} +.{ [ ~ ) _  ._ { X.=.",
"b.d.5.X.X.+.d.e.d.2.4.2.Q E E w Q w [  .o.,.<.<.e.d.6.[ [ ! o.o.+.@.>.>._ ~ ) ^ ^ ^ { X.} } +.8.",
"b.6.6.X.+.:.d.d.r.3.4.2.W ^ w E W W [  . .4 + <.7.d.d.} [ ! o.X.+.@.<.>.| ^ ) ) ) ^ { { } } +.q.",
"c.5.5.X.@.@.e.d.5.<.<.<.Q ^ E ^ a ^ X.o.X.. . <.6.7.7.} [ |  .X.o.<.2.2._ ) ) ) ) ! ! ! } :.+.8.",
"N.! ! | | | @.,.@.w Q Q / ) ^ +.} +.h.7 7 $ $ 5 6 1.1.,.X.X. . . .h.b.b.7.5.6.| ~ E E Q ! ! } p.",
"N.! ! | | | @.,.@.W ^ ^ ) _ _ ,.+.+.h.o   % % .   #.5.:.:.:. . . .x.b.b.5.6.2.| E ! Q Q Q ! ! 8.",
"N.! ! | ' | X.X.X.W E ^ _ ' | :.:.:.h.    % % .   @.1.:.:.:.} }  .f.b.b.d.0.6.| ~ ! Q Q Q ! ! 9.",
"B.e e ! ! ` Q W ! Q / ^ :.:.:.S.D.S.#..   % % . . w ^ X. . .| _ ) | X.X.f.k.k.e.4.5./ e Q t Q n.",
"B.q t ! ` Q Q ) ^ ^ / _ +.} X.A.D.S.@.    % % < C 5 6 ) { { ..' ' {  . .f.v.x.e.5.2.` w Q t t n.",
"B.q e ` ` ` Q ) ) ) _ _ :.,.+.A.A.A.@.. . % % S S X   ^ { { .._ _ |  . .f.x.k.e.5.2.' Q Q Q e n.",
"-.! !  . . .) | [ +.X.X.Z.S.Z.2.@.7 4 $ ; % % S S X   w ^ ^ _ ^ _ ( ` /  .X. .f.k.k.6.2.2...Q -.",
"i.! ) { } } ) | | }  .X.A.S.A.<.@.  . % % % % A S X . e / ! / W ^ ' ' ( X.X. .r.k.k.7.5.5.} ! -.",
"i.! | { +.} [ |  .:.X.X.A.A.A.<.#.  . % % % % A S C < y 6 w ^ ^ ^ ' ' '  .X.X.r.h.k.7.5.5.} ! 9.",
"z.<.>.4.4.4.} } } d.d.d.<.<.<.W w   . % % % % S S S S = . a X.+.+.) ) ^ ^ ^ ^ | X.} 5.6.7.:.+.8.",
"x.1.>.4.6.4.} [ { d.d.d.<.<.>.^ W   . % % V V S S S S < , u 9 _ +.~ E ~ ^ ^ ^  .X.} 6.7.7.:.} t.",
"z.<.>.4.4.4.} [ [ d.d.d.<.<.<.W W . . % % S S S S S S S S *   ( +.~ E E ^ ^ / | X.} 6.6.6.:.+.8.",
"a.X.X.) | | Q w Q ) _ |  .} { 8 9 ; ; % % S S S S S S S S * . ' +.+.+.} ^ W W Q Q W | [ } [ ! 9.",
"a.X.X.) ) ~ Q Q Q ) ) | X.} {   . % % % % S S S S S S S S =   ' :.+.+.+.E W Q Q Q Q | | [ [ ! 9.",
"p.X.X.) [ ~ Q e e ) | _  .{  .  . % % % % S S N N S S S S : ; u 0 ) } } W W Q w Q Q | | [ [ [ 9.",
"a.@.X.~ ~ ~ W Q w ..| | .. . .. . % % % % S S & % A S S S & % O   w ~ { ^ w w w Q W X.} +.X.X.t.",
"a.} X.[ [ E E Q Q | .._  .X.)   . % % % % S S % % A S S S & % O   w ~ ~ w w a w Q W } +.+.:.X.t.",
"a.+.} ~ E [ W w Q | _ ..X. ._   . % % % % S S % % A S S S & % X   w [ [ ^ w w w Q !  .+.+.+.} t.",
"a.:.+.} } } [ E | 4.4.5.3.f s - - % % % % B B % % N B A S & % ; - i r _ { | | | | | >.>.1.:.+.q.",
"y.+.:. .} } } [ { 5.5.5.%.  o % % % % % % % % % % % % Z S & % % % =   ( { { [ { } } <.2.2.:.+.t.",
"y.+.+.X.} } } [ { 5.6.5.3.. . m n % % % % % % % % % % N B & % x m #   ( { { [  .} | >.1.2.:.+.t.",
"N.! ) ! ! ! Q e a  ... .s.. o U I % % % % % % % % % % % % > % P U 1 . ] ^ E / Q w Q | | | ) W -.",
"N.Q Q ! ! ! Q q e _ | | c.k $.b b F F B B N B B B B B B B K L m b h f #.! W Q e t q ) ) | W e n.",
"N.! Q ) E E W e e ) | | A.A.b.o @ R T S S S S S S S S S S F.G.l   ] 5.5.` Q Q q w e E [ ! ! Q *.",
"i. . .,.:.+.E W W Q t / o.o...g j G G > > D D > > > > D D J Y M g a ) _ a q e W ! ) +.:.>.} | 9.",
"u.} X.>.>.>.^ W W e t t ! | ` l.k.      o 3 3 o       2 3 #   w.l._ ^ Q e t q ! ! ! :.1.>.+.} 8.",
"u.} X.>.>.>.~ ) ^ w q q ` ! ! l.l.d d     v v o     o 3 v @   w.l._ W ^ q q q ! ) | :.1.>.X.} 9.",
"z.:.:.6.6.7.5.7.e.| ! ! Q Q Q ....o.f.    H H @       v H = o a ' t e e ! ) _ f.l.l.7.6.6.:.} 8.",
"z.>.>.6.7.7.j.j.g. .! ! t t t ` ! ` f.p p c c 0 9 9 8 z c h 6 w / e t t ! | | V.D.D.j.7.7.:.} q.",
"z.:.>.6.7.7.d.j.g. .| ) Q e t ` ! ! k.j.k.     . . .X.4 o O.` Q W e e e | | | b.S.D.g.6.7.:.} q.",
"z.:.:.>.:.1.j.l.g.e.6.5.` W W Q e Q o.o.@.6 8  .| | | 8 6 / e e e Q ! ) e.d.d.l.C.l.<.X.X.X.} q.",
"y.:.:.+.X.,.k.j.V.j.j.7.| W ! e e q ! | | ! [ ! ! | ) ! ! ! e q q ! ) | j.V.V.l.j.l.X.~ ~ } } q.",
"y.:.:.:.X.,.j.V.g.j.j.j.| ) ! w e e | |  .! ! ! | E | ! ! ! e e e ) | [ g.V.V.l.l.j.@.~ ~ { } q.",
"9. . .}  .X.<.,.<.g.k.j.:.:.:./ Q Q ) | !  .[ ! [ [ | W W W Q Q W 2.6.5.j.7.g.@.+.o.~ ~ ! [ | %.",
"i.! !  . . .X.o.X.k.V.l.1.1.1.^ Q ! ! ! ! o. . .[ | | W W Q W W W d.j.j.j.7.7.| ~ ^ E W W ^ ) =.",
"i.! .... . .X.X.X.k.k.j.>.>.1.~ E E ! ! |  . .}  . .{ W ! ! ! ! ! 5.g.g.7.7.7. .) ~ ! E W ) ) =.",
"N.Q Q .. .X.<.<.<.2.2.2.:.:.:.[ [ E } } | 1.1.2.1.1.4.) [ ! |  .| 6.7.6.,.+.:.[ ~ ! E ) ^ Q Q n.",
"n.q Q o.X.X.5.2.8.:.:.:.} } } { ! [  . . .6.7.7.7.7.7.{ ! [ } :.:.5.6.5. .[ [ ) ^ E E ~ ) w q m.",
"B.n.*.8.q.q.f.f.z.e.t.r.0.8.8.%.%.8.8.8.8.k.k.v.k.v.h.8.9.8.8.8.q.f.x.k.8.%.%.&.&.&.&.&.&.$.$.B."
};
