/* XPM */
static char *result[] = {
/* columns rows colors chars-per-pixel */
"48 48 135 2 ",
"   c #2F2F2E",
".  c #332E2E",
"X  c #342D36",
"o  c #3D2E30",
"O  c #342F38",
"+  c #382B3C",
"@  c #3A3531",
"#  c #631F32",
"$  c #741A33",
"%  c #7E1E35",
"&  c #402A2F",
"*  c #4C2630",
"=  c #422E30",
"-  c #5A2331",
";  c #632132",
":  c #662C34",
">  c #742B36",
",  c #7E2B37",
"<  c #342747",
"1  c #332943",
"2  c #382C44",
"3  c #35264B",
"4  c #392748",
"5  c #3B2A4C",
"6  c #392255",
"7  c #3D235B",
"8  c #3A1E6B",
"9  c #3A1E75",
"0  c #3C167E",
"q  c #3C1B7B",
"w  c #392267",
"e  c #3C2076",
"r  c #40264C",
"t  c #432552",
"y  c #4B266C",
"u  c #512665",
"i  c #502578",
"p  c #564D43",
"a  c #852136",
"s  c #8B2237",
"d  c #802A37",
"f  c #8E2338",
"g  c #822A38",
"h  c #932539",
"j  c #99273A",
"k  c #9E293B",
"l  c #933B40",
"z  c #9A4C50",
"x  c #B37453",
"c  c #B77A56",
"v  c #BC8F72",
"b  c #E18D61",
"n  c #E59363",
"m  c #3E0F88",
"M  c #3D1484",
"N  c #3C1981",
"B  c #3E1289",
"V  c #420F8D",
"C  c #421586",
"Z  c #441985",
"A  c #491982",
"S  c #42138C",
"D  c #4A168E",
"F  c #421889",
"G  c #4B1A8C",
"H  c #450F93",
"J  c #490F95",
"K  c #4B0F9A",
"L  c #451192",
"P  c #491295",
"I  c #4C1892",
"U  c #4D129B",
"Y  c #4F1898",
"T  c #51139E",
"R  c #551A9C",
"E  c #591B9C",
"W  c #4D218A",
"Q  c #593E8E",
"!  c #5A2D9D",
"~  c #593596",
"^  c #5D3E94",
"/  c #5C349C",
"(  c #5F3B99",
")  c #613D9E",
"_  c #5413A2",
"`  c #5A15A6",
"'  c #5619A2",
"]  c #5A1AA4",
"[  c #5D16A9",
"{  c #5E1BA9",
"}  c #611DA6",
"|  c #6017AC",
" . c #621BAD",
".. c #661DB1",
"X. c #691DB3",
"o. c #5E2BA3",
"O. c #5D31A0",
"+. c #612DA6",
"@. c #6621AE",
"#. c #6924AF",
"$. c #642CA9",
"%. c #6A2FAE",
"&. c #6234A3",
"*. c #633BA2",
"=. c #6731A9",
"-. c #6A33AC",
";. c #7132A5",
":. c #7434A9",
">. c #7836AF",
",. c #6C23B3",
"<. c #6E2CB1",
"1. c #7124B6",
"2. c #732DB5",
"3. c #7224B9",
"4. c #752AB9",
"5. c #792BBD",
"6. c #6E32B1",
"7. c #7332B5",
"8. c #7835B7",
"9. c #7531B8",
"0. c #7C33BC",
"q. c #5C438D",
"w. c #5C4291",
"e. c #614495",
"r. c #644C93",
"t. c #62439B",
"y. c #675391",
"u. c #7A2AC0",
"i. c #813BBE",
"p. c #8336C3",
"a. c #863BC2",
"s. c #893CC5",
"d. c #8B39C8",
"f. c #EFB58C",
"g. c #FFD19C",
/* pixels */
"-.=.$.6.6.6.u.i.i.-.%.%.&./ ) ) ) ~ +.) O.9.9.9.6.%.%./ ( ^ =.=.=.8.0.0.&.&.&.e.r.e.e.e.^ ( / ) ",
"-.U R ` ` { <.7.,.R _ _ H U J V V V J J K  ... .` ` ` m B B U R ' ..@.,.U H J S C C C C m C V / ",
"6.R ' { @.$.<.,.<.` ` ` P J J V m V J P K { | { _ ` _ m B B U U U  .....U H K D D C C m C V V / ",
"i.2.1.p.p.u.' ` ] 1.,.2.T K T S B S C C B B P P B B H m N N N B B U T _ J L K H H L V V V V V ! ",
"a.1.1.p.u.u.] ' ` 1.,.1.J K J M M M B M F L L B B B B N N 0 M M B U _ _ T J J V V H G P D H P ) ",
"i.1.,.0.0.0.] ] ` ,.,.,.U J J m N M F F B D L L L B B M N N B B B T T _ T T J V V D P P P P J / ",
"8.@...U U R ,.,.,.{ | ] M M m 0 N 0 H P I ` ] { @.,...P H B Y U T ' ` [ D V V C C C J T T K T +.",
"0.X...U U _ ,.,.,.} } } M C C m M M H J P     ' X.X.,.K H B Y Y Y R ' ` V C V D S C V J J T K +.",
"8. . .U Y T #.#.@.' ] ] C C 0 C M M Y T P   . ` ..X.X.K L L U U Y ' { ] D V S S L B B B K T _ $.",
"t.B B L L L ' R R N N N C S C T T T 2.O O $ $ X O { | T U U P P P 7.0.i.X. . .P m B m M N B K &.",
"w.B B L D L T T U M S S S G D _ T T 2.    $ $ .   R [ _ _ _ K L P 2.0.0.X.@.} L m B N N N B B O.",
") B B L L D Y R R M C B S D D ' _ _ 2.    $ $ .   ' [ ` _ _ L K P 2.0.8.@.}  .L V B M N N B B O.",
"y.q q B B F N M M M Z S T _ _ s.s.s.E .   $ $ . . M S P U U F S S P U P 2.2.4. .[ { F 0 e N e w.",
"y.e e B F N N S S C Z G _ K U a.a.s.R     $ $ .   0 B J H U I G G J P U <.9.9.@.@.{ F 0 N e N w.",
"y.e q F F F N B S S G S ' _ _ a.a.a.R .   $ $ .   q S H J H I G D H J P %.4.9.@.@.@.F Z N N N w.",
"*.B B P P P L L S K U T p.a.a.] E 5 < # # $ $ , g + + 0 S S D C Z G Z Z P Y P #.2.4. .| { Y N w.",
"( L B U K K H L P K K U a.s.i.] E     $ $ $ $ j k o   9 C M C M C G G G P J K #.4.4.X.|  .K B O.",
"O.B S J K K L L P T U U i.a.a.{ E     $ $ $ $ j k o . 9 F S C C C G G G P J P #.2.4.X. . .U B O.",
"8.' ` | | | K J J ,.,.,.} ] ] C 0   . $ $ $ $ k k o . q S S K T T S C S C C C P U U  ....._ K $.",
"6.{ [ | ..| K H J ,.,.,.] ] ' M C   . $ $ $ $ j k d > r 3 0 U T T V C m S Z C P U U ..X..._ K o.",
"7.` ` { | | K H L ,.,.,.' ` ' C M . . $ $ $ $ k k k k = . 0 Y T T V m V S Z C P K K | ...._ K $.",
"-.U Y L L V M q M D I S U K U H V   . $ $ f f s a j k =   Z T T _ K K T C M M N N M L P K P B O.",
"=.U U S L S N N N S S S P K K H V   . $ $ k k $ $ j k = . C T T K _ T K B M M q N N L L m K B O.",
"-.U U B H S 0 q q L S L P K K 6 6 - - $ $ k k $ $ j k > > t 7 G _ _ K K m 0 C q N N L L K B K O.",
"-.T U V V H M N N L I L P P D   . $ $ $ $ k k $ $ j k k k = X ;.i.U H H C 0 0 q N M K T T U U $.",
"-.T U H V m M N N I L D P P D   . $ $ $ $ k k f s k k k k =   :.p.U V H 0 0 0 q N N K T T _ U +.",
"-.T U V B m m 0 N P I I Y U P   . $ $ $ $ k k k k k k k k o   :.p.T H H 0 0 0 0 N M K U T T _ +.",
"=._ T K K K H m L { [ [  . .{   . $ $ $ $ k k h s j k k k > : u y I T T J J V J L P ` ` [ _ U $.",
"-.T T U T K K m H .. . .X.X.} . . $ $ $ $ k k $ $ j k k k k k =   A T T J H H J H K ] { [ _ T $.",
"-.T T U T K B K H ......@.i y * * $ $ $ $ k k $ $ k k k k k k = . G T T J J H P K K ` [ { _ T +.",
"*.M F B m B B N q Y P Y ;.. . $ $ $ $ $ $ k k $ $ j k k k k k = . W  .| S C M q q N L I L S M ^ ",
"t.N M B B B N q 9 S D D >.  . $ $ $ $ $ $ f h $ $ s h k k k k - * u A } C M M q q q B B L M q ^ ",
") N M F m m 0 9 q S B P 7.    $ $ $ $ $ $ $ $ $ $ $ $ h k k k > $ & . A S N N q q 9 m H H B N w.",
"*.U U _ _ T m B M Z i q W   . $ $ $ $ $ $ $ $ $ $ $ $ s f h h % $ & . 8 e e q B B S T _ _ K L O.",
"&.U U _ ` ` S B M q 9 e q   . $ $ $ $ $ $ $ $ $ $ $ $ $ $ $ > > $ &   8 q e 9 M B B _ [ ` T U o.",
"=.U U ` ` _ V S C q q q Z < 4 ; # l l , a % % % % % % a a z z > ; r < 8 q 9 9 B S L _ [ ` U K O.",
"-._ _ ...... .,...I B M N q e . @ n b k k k k l k k k k k f.g.p   w N e B S D <.5.4.X.X..._ K o.",
"6._ ` ..X.X.3.3.,.L B B q q e < 2 c x g g g a , g g g g g v v t + w e e B L P 5.s.d.3.X.X._ K +.",
"6._ { ..X.X.X.3.1.K L L q q q Z M .     X                     9 M q 9 q L L H 0.s.s.3.X.X._ K +.",
"6._ _ ` ` ` 3.5.4. . ...S M M q 9 1 < 3 3 3 3 3 < < < < < < 1 9 9 M B S @.,.,.u.u.i.' U U K K +.",
"%._ _ T U _ 1.5.5.3.3.3.L B B q q e B P B B P B B L B B B B q q 9 B S L 3.u.u.5.3.5.Y V H K K +.",
"%._ _ _ U ' 4.5.3.,.3.X.L B B 0 q q L B B P B B L m L B M B q 9 q S H H 1.u.u.4.5.3.T V V J K +.",
"O.P P U P U ' ' { 1.5.1._ _ T C N M S S P P P H H H L M M M M N M {  . .,.3.,.` T Y S m B S S o.",
"O.B B P P P U U U 4.u.5.| ` [ F M B F B B P P B H L L M N M M M B @.3.3.3.X.X.D V V C m B S S / ",
"*.B I L L P U U R 3.4.3.[ ` [ V m B L L B K K U P P J B m B B M B @.1.1.X.X.X.U V S m B M F S / ",
"r.F N Y U Y ` ] ` ] { [ _ _ _ V H m H L L [ [ [ [ [ | S B B U K P  .X.X.' T T L S B V m M N q ^ ",
"w.q N Y U U { } { T _ _ K K K J m H U P U ..X.X.X.X.X.J B H T _ _  ... .J H H S V M V V S q q q.",
"y.w.w.O.o.+.2.6.7.$.$.@.+.o.+.! ! ! o.o.o.2.9.4.9.9.4.! O.O.o.o.$.<.9.2.! ! ! ~ ~ ~ ~ / ~ Q Q y."
};
