/* XPM */
static char *result[] = {
/* columns rows colors chars-per-pixel */
"48 48 124 2 ",
"   c #2F2F2E",
".  c #342F2F",
"X  c #3A2C2F",
"o  c #332D35",
"O  c #3D2E30",
"+  c #332B3C",
"@  c #3D2A3C",
"#  c #343037",
"$  c #651F32",
"%  c #6C1D32",
"&  c #741A33",
"*  c #7D1E35",
"=  c #402A2F",
"-  c #4B2730",
";  c #442830",
":  c #4B2D31",
">  c #40293D",
",  c #522D32",
"<  c #6B2233",
"1  c #342942",
"2  c #3A2D47",
"3  c #3A3141",
"4  c #392451",
"5  c #37205C",
"6  c #391E64",
"7  c #3B1E6C",
"8  c #3C1C75",
"9  c #3C167E",
"0  c #3C1C7B",
"q  c #362161",
"w  c #3C2077",
"e  c #482645",
"r  c #481E6F",
"t  c #411B75",
"y  c #431D7B",
"u  c #822A38",
"i  c #892A39",
"p  c #962639",
"a  c #99273A",
"s  c #902A39",
"d  c #9E293B",
"f  c #3F0F89",
"g  c #3D1484",
"h  c #3D1981",
"j  c #3E1289",
"k  c #410F8D",
"l  c #421486",
"z  c #401B81",
"x  c #42138C",
"c  c #4A178D",
"v  c #411888",
"b  c #4B198C",
"n  c #450F93",
"m  c #490F96",
"M  c #4B0F9A",
"N  c #461192",
"B  c #491295",
"V  c #4D1892",
"C  c #4D129B",
"Z  c #511E97",
"A  c #51139E",
"S  c #541C9C",
"D  c #5D2B85",
"F  c #532189",
"G  c #5D2B8B",
"H  c #55378D",
"J  c #543A88",
"K  c #562091",
"L  c #552D95",
"P  c #56269C",
"I  c #56289B",
"U  c #59289E",
"Y  c #553092",
"T  c #5D3B96",
"R  c #5C339C",
"E  c #5E3A98",
"W  c #6A3395",
"Q  c #623D9E",
"!  c #70379D",
"~  c #5413A2",
"^  c #5A15A6",
"/  c #5619A2",
"(  c #5B1AA5",
")  c #5D16A9",
"_  c #5E1AAA",
"`  c #6117AB",
"'  c #621BAD",
"]  c #671DB1",
"[  c #6A1DB2",
"{  c #5C26A3",
"}  c #5E2FA2",
"|  c #5D30A1",
" . c #6127A7",
".. c #612EA5",
"X. c #6422AC",
"o. c #642EA8",
"O. c #6E2AAC",
"+. c #6536A6",
"@. c #633AA2",
"#. c #6A33AC",
"$. c #6C23B3",
"%. c #6E2AB1",
"&. c #7124B6",
"*. c #722BB6",
"=. c #782FB5",
"-. c #7324BA",
";. c #7529BA",
":. c #7A2CBE",
">. c #6E34B1",
",. c #7332B5",
"<. c #7C34BB",
"1. c #5E458E",
"2. c #5C4191",
"3. c #604397",
"4. c #654C95",
"5. c #62429B",
"6. c #675391",
"7. c #7B2BC1",
"8. c #7E30C0",
"9. c #823CBE",
"0. c #8336C3",
"q. c #853AC2",
"w. c #893CC4",
"e. c #8B39C8",
/* pixels */
"#.#.#.>.>.>.9.9.9.#.>.>.@.@.! Q 3.Q @.+.+.,.<.<.#.>.>.E 2.2.>.>.#.<.<.<.@.@.@.4.4.4.4.4.3.Q Q Q ",
"#.C C ^ ( _ %.*.*.A A A m m m k l k B m B ' ] ' ) ~ ) f j j C ~ ~ ] X.$.C N m c l l l l g f k R ",
"#.A ~ _ ( _ %.$.&.S ~ ~ m m m k f x B B C _ ` ` ~ ) ~ f j j S C ~ X.$.] C n M x x l l f j l k R ",
"9.%.%.0.q.8.( ( / *.&.*.C A A k j j x x j n n N f n f j h h j j j C C ~ C n m B m n k k k k n R ",
"9.*.*.0.0.8./ / / &.&.$.M M m j g g v j v x N N j j j g 9 0 g j l C A ~ A M m n k B B c c B B R ",
"9.$.&.0.8.<./ ^ ( &.$.&.m M m f g g j v h V j N j j j j 9 9 h g l A ~ ~ M M m k k c B c c m m R ",
"<.] ' A C C $.$.$.( ` ` l l f 9 h 9 N N B / / _ ] ] ] j j j C C A ~ ^ ^ V n c l l l m C C M A } ",
"<.[ ] C A ~ $.$.$.( ' ( g l 9 f g g n B B _ ) ) ] $.7.j M j C S A S / A c k k l k l n m M M A ..",
"<.] ] A C A $.$.$.{ _ ( g l l l g g M m B ^ ) ) ] [ [ M j j A A A / / ( c k x x j j j j C ~ C ..",
"2.j j N N N / S C h g g l l l M M M :.:.:.~ ~ ~ ) ' ) A ~ M n M B ,.<.<.[ ` ' B N j j h j j C } ",
"2.j j N x V A S A g l l c c c ~ A A :.9.0.~ A ~ ) _ ' ^ / ~ M M B =.<.<.X.' ' N f j g h h j B | ",
"Q f j N c N S ~ S g x j v c c ~ ~ A :.:.=..     + _ ) ~ ~ ~ M n B ,.<.<.' X.' x f f g g h j j | ",
"6.h 0 j j v h g g 9 l l A ~ ~ q.e.w.~ ^ S .       x x C M C x x l V C B *.=.;.' _ _ v 9 h w h 2.",
"6.0 w v v h h x x l c v ~ C C w.w.w.( A A     d d   . k n B V V c B M C %.:.,.X._ _ v 9 w h w 1.",
"6.w 0 j j j h j x l l c A C C q.w.w.( A A .   d d     N B B V b b m C B %.,.,.X.X.' v 9 h h h 2.",
"2.x j B C V v N k A A C 0.q.q._ K # o o o & % d d     g x x b v b l v l V A C %.*.;.' _ _ j h 3.",
"@.j x M M M N N N A C C q.w.w.( F # .   . & & d d     z v j l j l b b b c M B $.=.*.[ ' ' M j R ",
"| x j m M M x N M C M C ! 3 @ + > % % % & a a d d s s o o o o 9 l b b b B M C $.*.;.[ ' ' C j R ",
">.( ^ ) ` ` m m M X.X.$.F   .   X & & & & d d d d d d .     . c A x x x l x l B A A ' ] ] ~ M ..",
",.( ) ) ] ` 7 1 1 2 2 2 e < $ $ % & & p p d d d d d d i i i i @ 1 1 + + + t l N C M ] [ ] ~ M ..",
",.^ ^ ) ` ` t           X & & & & & * d d d d d d d d d d d d O .         7 g N M M ' $.] ~ M o.",
"#.S C N B B 5 . ; < $ , < & & & & & & * * * * d d d d d d d d i u u u < $ @ 1 0 h j N C M M j | ",
"+.C B x k x 5   - & & & & & & & & & & & & & & d d d d d d d d d d d d u & ;   7 h h j M j M f | ",
"#.C C N k k 9 7 4 ; X ; = = = ; - & & & & & & * * d d d d , : : : - - = = o   7 h h N n M f M | ",
"#.A C k k k g 9 q               X & & & & & & & & d d d d o .   . .   .     . 7 h h M C M M M } ",
"#.A A n k k g 9 8 t 8 r t 8 t t r ; ; ; ; ; ; ; ; , , , , D W W W t 8 8 6 6 6 0 h g M A ~ A A o.",
"#.A C k n f g h h N V V B B B A c . o                     O.0.0.0.A n n g t 9 9 g g M A ~ M A o.",
"#.A M m M m N f k _ ^ _ ' ' ` B k 7 t t t t t 8 t t t G G *.' _ ' ~ M M k n k m n j ~ ^ ) ~ A o.",
"#.C C C M C M f m ' ' ' ] ] [ N m n m M m C M M M M C *.;.;.( ~ ~ A A A m m n B M M / _ ) ~ A ..",
"#.~ ~ C M M M M m ' ] ] ] [ ] B m n n M C M M C C M M -.:.;./ ~ ~ ~ A A m m m B B M ) _ _ ^ A ..",
"@.v x x j j g h z Z Z A :.<.:.[ [ [ m n n ) ) ) _ ' ] _ _ ' ] [ [ ` ` ` x j h z z h N B B x v E ",
"5.h h j j j 9 0 0 x x x 0.e.e.-.-.-.M m m ) ) ` $.$.$.~ ~ ~ [ &.&.[ [ ` x 9 9 0 0 9 j x N h 9 T ",
"5.j h v f f 9 0 0 x x V 0.q.0.:.7.-.M m n ) ) ) [ [ [ ) ~ ^ [ -.&.] ] ` x h h 0 0 0 f n N j h 2.",
"@.N N ~ ~ M f j g h h z P S / -.7.7.] ] [ ~ ~ ~ ) ) ) [ [ [ :.-.-.A c c y w 0 h g f M ~ ~ m N R ",
"+.M C ) ^ ^ x j l 0 w w j N x :.7.7.-.7.7.~ ~ ~ ~ ~ ~ [ &.-.;.7.:.c l g w w 8 g j n ~ ) ) C M | ",
"+.M C ^ ^ ~ k l j 8 8 w v j j :.7.7.-.-.-.~ ~ M ~ ~ ~ [ -.&.7.7.:.c g g w w 0 x j j ~ ) ^ C C | ",
"#.C ~ ` ] ] ` X.X.x j j h z z P S S ;.;.-.~ C ~ M M M ] ] ] P Z Z y 0 0 g j x X.*.$.[ ] ] ~ M { ",
">.^ ^ ] [ [ &.-.-.N j j h w w j h j &.;.;.~ A C M M M ) ` ) j j g 0 w w x x n <.e.e.&.[ ] ~ C ..",
">.^ ^ ] [ [ [ -.-.N N j 0 0 w j j j -.*.;.~ ~ ~ M M M ) ) _ j h g 0 w 0 N N N <.e.e.&.[ [ ~ M ..",
">.~ ~ ^ ^ ) -.-.-.{ _ ' x g h h 0 9 { / / N B n M n n m M M h h 0 g g x _ $.' :.8.:.( A A C M ..",
">.~ ~ C C ~ *.;.7.-.-.[ N j j 8 0 0 j j n j j N j N j j j g 0 0 0 j j N $.7.:.:.:.-.B x n m M ..",
"#.~ ~ ~ ~ ~ ;.;.7.[ -.&.N x j 9 0 0 N N N x j j N f N j j j 0 0 0 j N n &.7.7.:.;.:.A k k M M ..",
"} C B C N C ( _ _ -.;.-.A A A l h g x N N N N N n n N j g g h h h ^ ' ' [ 7.&.( S S N f j x N ..",
"| j N B B N C C C -.:.;.) ) ) x h h j j j B B B n N j g g h j h g ' -.-.[ [ [ B k x j j f x x R ",
"Q b j Z N N A C C *.;.&.) ) ) k j j j N x N M M N n B j j j j j j $.$.-.$.[ [ B n j f j j x x R ",
"2.v v C C C / { ( ' ' _ A ~ ~ k n f m N N ) ) ) ) ) ^ x f j n M B ' [ $.~ ~ ~ B x f j f g y 0 T ",
"4.0 z V B A _ _ ' S ~ ~ M A A n f n C N C ] [ [ [ [ [ m f j C A ~ ' ' ] B n n x f j x x x 0 0 1.",
"4.J H } { { %.%.O. . .X.{ { { P P P { { { %.*.*.*.;.*.U | I { { { %.%.*.U P P L Y L L L Y H J 4."
};
