/* XPM */
static char *result[] = {
/* columns rows colors chars-per-pixel */
"48 48 138 2 ",
"   c #2F2F2E",
".  c #322E2E",
"X  c #382C2F",
"o  c #302E31",
"O  c #312C3C",
"+  c #382E3F",
"@  c #6B1D32",
"#  c #741A33",
"$  c #791C34",
"%  c #4A2730",
"&  c #4C2C36",
"*  c #44253F",
"=  c #502731",
"-  c #5B2231",
";  c #592D33",
":  c #55223E",
">  c #5D2C3B",
",  c #602032",
"<  c #602C34",
"1  c #772B36",
"2  c #7B2A37",
"3  c #35254E",
"4  c #3B244E",
"5  c #342848",
"6  c #3B294E",
"7  c #362452",
"8  c #392454",
"9  c #37215D",
"0  c #3D265A",
"q  c #391F64",
"w  c #3D1E6A",
"e  c #3B1D75",
"r  c #3C167E",
"t  c #3C1C7B",
"y  c #392161",
"u  c #3C2077",
"i  c #3D2078",
"p  c #42285D",
"a  c #401B6E",
"s  c #401C7F",
"d  c #4D2F64",
"f  c #462569",
"g  c #513566",
"h  c #4B2275",
"j  c #4D217C",
"k  c #552B7B",
"l  c #5D367B",
"z  c #872437",
"x  c #8F2438",
"c  c #942539",
"v  c #99273A",
"b  c #942A3A",
"n  c #9E293B",
"m  c #3E0F88",
"M  c #3D1484",
"N  c #3D1981",
"B  c #3E1289",
"V  c #410F8D",
"C  c #421486",
"Z  c #411B82",
"A  c #42138B",
"S  c #4A168E",
"D  c #47188C",
"F  c #4B198D",
"G  c #521D8B",
"H  c #450F93",
"J  c #4A0F96",
"K  c #4B0F9A",
"L  c #461192",
"P  c #491295",
"I  c #4D1A94",
"U  c #4D129B",
"Y  c #4E1C98",
"T  c #511697",
"R  c #551D92",
"E  c #51139E",
"W  c #531B9D",
"Q  c #532481",
"!  c #55358E",
"~  c #563B8C",
"^  c #552D95",
"/  c #55279C",
"(  c #562A9B",
")  c #592D9C",
"_  c #563195",
"`  c #593695",
"'  c #5C3C94",
"]  c #5D379D",
"[  c #5F3C9A",
"{  c #64249E",
"}  c #613A9C",
"|  c #5414A2",
" . c #5A15A6",
".. c #5618A3",
"X. c #5A1AA4",
"o. c #5C15A9",
"O. c #5F1BAA",
"+. c #6017AB",
"@. c #621BAC",
"#. c #681DAF",
"$. c #671DB1",
"%. c #6A1EB3",
"&. c #5D26A3",
"*. c #5D29A3",
"=. c #5F35A0",
"-. c #6027A7",
";. c #6129A6",
":. c #6A2BA3",
">. c #6522AD",
",. c #6924AE",
"<. c #672FAA",
"1. c #6A2EAE",
"2. c #6233A4",
"3. c #6731A9",
"4. c #6A31AC",
"5. c #6C23B3",
"6. c #6C2BB0",
"7. c #6F21B8",
"8. c #7124B6",
"9. c #722CB6",
"0. c #7425BA",
"q. c #7827BD",
"w. c #752AB9",
"e. c #7A2BBD",
"r. c #6E31B1",
"t. c #7432B6",
"y. c #7633B8",
"u. c #7C33BC",
"i. c #5F4196",
"p. c #624E8F",
"a. c #614495",
"s. c #624A92",
"d. c #7B2BC1",
"f. c #813BBE",
"g. c #8436C3",
"h. c #863BC2",
"j. c #893CC5",
"k. c #8B39C8",
/* pixels */
"4.3.3.r.r.r.f.f.f.<.1.1.} 2.} } } } :.2.2.y.y.y.6.4.6.] i.' 3.3.3.u.u.u.2.2.2.a.s.s.a.a.a.' ] } ",
"3.U E ..X.O.6.9.8.W E | J J J A V C P P P @.$.@. . . .m B B U E | @.,.,.U L J A A C C C m B V ) ",
"4.W ..O.O.>.5.5.,.X.....P J J V V m P P P f 6 G | |  .m B B U U E @.@.%.U H K S D C m m m V V ^ ",
"f.8.0.g.g.u.X...X.8.8.8.U U U V B B B B B 7 o w H m V M N N B N A K | E U P H J V P V A A A H ) ",
"f.9.w.g.f.u.| | X.8.8.5.J J J m M M B y 5 & , * 5 e B N r t M M C U E | E U J H V P P S P S P ) ",
"f.5.8.u.u.w.X.o. .5.5.5.P J J m M N B 7 o - # %   u B M N r B B A E | | U U J H V S F P P J U ) ",
"y.$.@.U U ..5.5.,.@.@.o.M M m r N r L 8 o - # %   j %.P L L Y E E W E +.S A A A C C J E K K E *.",
"u.$.@.U E | 5.5.,.@.+.X.r C C m M M H 8   - # %   Q %.K B B U Y T W +.E J V A C V C V J J K E &.",
"y.@.@.U U W 5.,.,.O.X.O.Z C C C m M U 8   - # %   Q %.P H H U U E W O.X.J V V A B B B B K U U *.",
"[ B B L L P | W U N r r C C C K K E e.d   - # %   j o.| K U P P S r.u.f.#.@.@.P V B m M B B K *.",
"[ B B L D P W E U M A C A D I ..E E e.d   - # %   j @. ...| P P J 9.u.u.,.>.@.S m B N N N B K ) ",
"[ m A L D P U W W M C B D S S | E | e.d   - # %   j O.| | | J K P t.u.u.,.@.@.P m B N N N B B ( ",
"p.e N B C N N M M Z D C E E | j.j.l 6 : , @ # %   w A J K P A D D S J P 6.y.w.,.@.@.A r N t t ~ ",
"p.e i N D N N A C C D D E E U j.j.g . - # # # %   q B J J J I S D J J U 1.t.w.>.O.O.D r i N i ~ ",
"p.e t B B N N B V A D S | | E h.h.g   - # # # %   q C H J J I F F J P P ,.9.t.,.@.O.D N N i t i.",
"] B A P U P L L A E K E g.j.h.X.X.p   - # # # %   9 t C C A C D C D D C I U U ,.9.w.5.@.O.Y N _ ",
"] B L P K K V L P E K E j.j.h.X...p   - # # # z z & O w M N A Z C F F Z J U U ,.9.w.#.@.@.U B ) ",
"] A A J K K L L J E K E h.j.f...X.0   - # # # x n ;   y B B C B C F F F P J U ,.9.9.%.@.@.U B ) ",
"r.X.o.o.@.o.K P P 5.,.,.+.W X.C M 3   - # x c v n ;   q B A U E U S C V C C C P U E @.%.$.| K *.",
"t.o.o.o.$.+.K H J 5.5.8.W +...Z B 3   - # c n n n ;   q B C U E E V C C C C C P K K +.%.$.o.| *.",
"r. .X.+.$.o.K L P 5.5.,...X...M B 3   - # x n n v ;   w A B U U K V V V C C C H U K O.%.$. .U *.",
"<.U U V L L M r M I I L U K J J H 7   - # x n n n ;   f P U U W | | K U C m r r N A L K K H B ( ",
"2.U U A L A r t M A V A J K J H H 7 o - # x n n n ; o y U U | | E K E K V r m r N N A L H B K *.",
"3.U U V L A r r r S A A U K K H H 7   - # x n n n ; o y P P U E | E K K m m r r N N A P H H B *.",
"3.E U V V V M r r L S A U U J E E 8   - # x n n n ;   k 5.5.u.e.f.U H H C s r r N M P U E U E ;.",
"<.E U H V V B r M I I L I P P U E 8   - # x n n n ;   k 9.w.g.h.g.E H V C r s s N N P E E E E -.",
"<.E U V V V M r M A I L P U P E E T D 4 X 2 n n n b b > + :.g.g.g.E H H s s r s N M K U K | K -.",
"<.E U J K J H V H O.X.O.@.@.@.H J J P 8 . 1 n n n n n >   { @.O.+.| K E H H V V L H | o.o.| E -.",
"<.E U K U K H H P @.$.$.$.$.$.J H H K 8   1 n n n n n <   :.X.| | E E E J J H P K K ..o.o. .E -.",
"<.| U K K U J H J $.$.@.$.$.$.H H P J 8 . 1 n n n n n <   :.....| E E E J J J P P K | O.O.| E *.",
"] C C D L B M t s I U T g.e.d.7.$.$.J 8   - $ x n n n < o R $.%.%.#.@.+.A B M s t N L P P D C ` ",
"a.N N B B M r t s A A I g.j.g.0.0.d.J 8 . - # x n n n > . G %.8.7.%.%.@.A r M t i t A A L N r ` ",
"=.N B B m m r t t A A I g.h.g.0.d.%.K 8   - # $ $ $ $ = . S 7.8.7.#.#.#.A M N t t t V H L B N ~ ",
"=.P P ..E U C M M Z s s W W W e.d.d.%.f   - # # # # # = . / 0.q.0.T A S i t t N M B K | | P L ) ",
"3.P U o. .| A B m e e i D B A d.d.d.d.0.8.8 . , # # # %   { e.e.e.D C M u u t M B B |  . .E K *.",
"=.U U | o.| V A C t e t B B D e.d.d.0.0.0.0   - # # # %   :.e.e.e.F M M i u e M A L | o.o.E P *.",
"6.| | $.$.+.@.>.>.B B M N Z Z Y Y Y w.9.9.0   - # % . h @.@.Y I I s t N N B A ,.w.w.%.#.@.| K &.",
"r.| o.$.%.%.8.0.7.L m B N i i N B B w.w.0.0   - # %   h +.@.A B M h i t B B L e.k.k.0.%.%. .K *.",
"r. .o.$.%.$.8.0.7.P A L N i N N B B 9.9.w.0   - # % . h o.O.A N M i e i L H P y.k.j.w.$.$. .K *.",
"3.| |  .o.o.0.0.w.@.>.@.B N B N t r W ..W 8   - # %   y P P t t t B B B &.%.%.q.e.f.X.E U U K ;.",
"1.| | E U ..w.w.q.7.0.%.A B B e t e L L L 3   - @ %   y B B t e t B A A %.d.e.e.q.q.W V H J K &.",
"1.| | E U | w.q.q.7.0.%.H A B t t t A L B 3 o - # %   y B B t e t B H H 8.d.d.e.e.0.T V V J U &.",
"=.K P P U U &.o.&.0.w.0.E E E B N N A A L 7   - # %   y M M N N N | O.@.8.0.8.X.W W S V B V P ) ",
"=.B L P P P U U U q.e.e.o.o.o.C M N A A B 8   ; # %   9 M M M M B ,.0.0.%.%.%.P V V m B B A A ) ",
"=.B L P P P U U T 9.0.0.X.o.o.V m B A A A J J 3   a P C B M B B B >.8.0.%.%.%.U V m B B B C A ) ",
"i.N Z P P U ..X.X.@.@.@.| | | V V H L H L  .o.f   s +.V m B L P P @.$.$. .E ..P A A m m C N N ~ ",
"i.e Z Y U U O.>.O.E | E U U K J H H U J U @.%.%.#.#.#.J L L U E | +.$.@.K H J V V B m V B e t i.",
"p.~ _ *.&.-.1.6.6.;.-.-.&.O.&./ / / / &./ 9.9.w.9.9.9.( / / *.*.&.6.9.9.) / / ^ ^ ! ^ ^ ^ ! ~ p."
};
