/* XPM */
static char *result[] = {
/* columns rows colors chars-per-pixel */
"48 48 107 2 ",
"   c #2F2F2E",
".  c #342E2E",
"X  c #2F2E30",
"o  c #312E33",
"O  c #721A33",
"+  c #4D2630",
"@  c #532431",
"#  c #632C34",
"$  c #6B2C35",
"%  c #632B3B",
"&  c #342255",
"*  c #36215C",
"=  c #3C225D",
"-  c #3C1F62",
";  c #3F1E69",
":  c #3B1D77",
">  c #3C167E",
",  c #3C1B7B",
"<  c #3B2161",
"1  c #3C2077",
"2  c #411F6A",
"3  c #401E7E",
"4  c #43206E",
"5  c #462371",
"6  c #4F2577",
"7  c #522B75",
"8  c #52277A",
"9  c #572C7D",
"0  c #852236",
"q  c #8A2237",
"w  c #97293A",
"e  c #9E293B",
"r  c #3E0F88",
"t  c #3D1484",
"y  c #3C1981",
"u  c #3E1289",
"i  c #410F8E",
"p  c #421486",
"a  c #401985",
"s  c #481987",
"d  c #42138B",
"f  c #4A178D",
"g  c #431889",
"h  c #4B1A8D",
"j  c #450E93",
"k  c #490F96",
"l  c #4B0F9A",
"z  c #461192",
"x  c #491295",
"c  c #4C1A94",
"v  c #4D129B",
"b  c #51139E",
"n  c #521B9C",
"m  c #573D8B",
"M  c #583C8D",
"N  c #572B9D",
"B  c #592C9D",
"V  c #573295",
"C  c #593495",
"Z  c #5E3E96",
"A  c #5C339C",
"S  c #5F3D9A",
"D  c #613D9D",
"F  c #5413A2",
"G  c #5A15A6",
"H  c #5619A1",
"J  c #5A1AA4",
"K  c #5D16A9",
"L  c #5F1AAA",
"P  c #6017AB",
"I  c #621BAD",
"U  c #661CB1",
"Y  c #6A1DB3",
"T  c #5E2AA3",
"R  c #5D30A1",
"E  c #612DA5",
"W  c #6621AE",
"Q  c #632BA8",
"!  c #692FAE",
"~  c #6235A3",
"^  c #6439A4",
"/  c #6631A9",
"(  c #6A33AC",
")  c #6C23B3",
"_  c #6F2CB1",
"`  c #7124B6",
"'  c #732DB6",
"]  c #7324BA",
"[  c #752ABA",
"{  c #7A2BBE",
"}  c #6E32B1",
"|  c #7332B4",
" . c #7633B8",
".. c #7C33BC",
"X. c #5E458E",
"o. c #5C4191",
"O. c #624595",
"+. c #644C93",
"@. c #63439B",
"#. c #675391",
"$. c #7B2BC0",
"%. c #7F31C1",
"&. c #813BBE",
"*. c #8436C3",
"=. c #863BC2",
"-. c #893CC5",
";. c #8B39C8",
/* pixels */
"( / / } _ } ..&.&.! ! _ D D D D D C ~ E R  . . .! ! ! R o.o.! ! /  .....~ ~ ~ O.+.+.O.O.O.D A D ",
"( v b H J L _ ' ` G b b k k k i i i v f x I U U G G K r u u v H H W ) W v j k d p p r p > i i B ",
"( b H L W L ) _ ! n G n k k k i i i k x x L P I F F G r u u v n b I U U v j k f d p p r p i i A ",
"&.' [ *.*.%.H J J ` ` ` v b b i p p p p u j j j u j r u y y t u u v F F x k k k x d i i i i i B ",
"&.` ' *...%.H G J ) ` ` l l k r t u a g u d z u u u u y > > y u p b b F v v v j i x f c f k k D ",
"&.` ) %.....H H J ) ) ) v k k r y y u g u f z z z z u u > y t u p b b F v v k i i f x x f k j A ",
"..W I b v F ) ) ) I P J t t p > t > z x n H K G W ) Y u j u v v b G G P f i i p d p k v v b b Q ",
"..W I v b F ) ) W I I P t p > r > r j k x H K L Y ) ` j j u c n b n b b f i d d d p j j k l l Q ",
"..I I v v b ) W W T J J t p p p r p v v v K K G Y Y U l u u F v v J J J f i d d z r u u l F v / ",
"@.u u z z z H b H y t t t d p v l b { { { F F F K P K F F l x l x | ..&.Y I I x r u u y t u l R ",
"@.u u z f f b n n t p p s f f F b b &.{ &.F F F P P I G F F l l x ' ....W T P i r u t t y u u / ",
"@.u u z f z n b v t d u d f c H F b { { $.F b F K P P F F F l u z | ....) I I x r u y y y u u R ",
"#., , u u a y u t a d d b F F -.;.-.G b F d d u d u d v v v d d p c v x ' '  .I L L g > y y 1 X.",
"#.: 1 u u a y d p p s s F l v =.-.-.n G H u t u u d u z j l c c f v k v _  .' W L I d , 1 y y X.",
"#.: , u a u y u i p f s F F b =.-.=.P b F u u u u p u z j k c c f j k k _ ' ' W I I s t y 1 y o.",
"S u u x n x g z i b v b *.=.=.J G G 3 3 y , , , : , , d d d s a s s p a c v v _ ' ' W L L c y C ",
"S z d k l l z z x v v v &.-.-.J n P 3 > > , : , : : , y t u u y p h h s x k x ) [ ' U I P v u S ",
"R u d k l l i z x b k v -.-.-.J P n > > > , , , : : , y t u p a p h h s k v x ) [ [ U I I v u R ",
"| J G P U K k v k ) ) ) J J J p p t > t t - - - * t y u u g v b b d d p p p p x v v I Y Y F F T ",
"} K K K U P k j j ) ) ) J J H p r r r t r     . X y t r g d v b b i p i s p p x v l I Y Y F l T ",
"| L J P U K k z k ) ) ) J J H p t p r * & @ @ .   y y u u u v F b i p i p p p j v l U U U F l Q ",
"^ b v z j z t t y z d c v l k j j i r o X O O X   x x c v x F v b b l l p t t > y d z v l k u R ",
"/ v v d j d y , , f d z l l l j j j r o   O O .   * = = = = < = - = = b p r 3 r y y z z j u l R ",
"/ v v d d i t > , d x d k l l j j j r o   O O .                       l r > > > y y d z j j u R ",
"( n l i i i t > > z f f x v v - - = * @ @ q q $ $ $ $ $ $ $ $ $ $ . . j r > > > y y v v v v v E ",
"( b l j i i t y y z c z x x n o .   . $ O e e e e e e e e e e e e . . i 3 > > > y u v l F b b Q ",
"( b b i r r t y y c c c x 2 - @ # # $ q q e e e e e e $ # # # $ $ * - j > 3 > 3 y t l b F l b Q ",
"( b b k l k j j d P P P I o . w e e e e e e e e e e e .         . b l b k j j j z z H K K F v E ",
"( b b l l l l u x I U I U 6 8 % # # @ # # @ # 0 0 # # 7 9 9 5 4 2 F b b k k j k k v G K L F v Q ",
"( b b v b l l l j I I U U Y Y o               O O     ` [ { J F F b b b k k j k v k J J L F F Q ",
"^ u u d r u t y 3 v c v ..&.$.7 7 7 4 = -     O O .   n K J Y Y Y U I P d p a , , > x x x d u S ",
"@.y y u u u > : , d f j *.*.;.] { ] k j j     O O   . n F F Y ` ` Y Y I i > > , , , d d d u , Z ",
"@.y u u r r y , , d z c *.=.*.] $.] l k k X   + + 6 8 G F F Y ` Y U U I d y t : : , j j z u , Z ",
"^ x x H F l r u t y : a c n n { $.$.U Y ) X       G F Y Y Y { { $.v d f : 1 : u u d l F F j z A ",
"~ v v G G G u u p : : 1 u u g $.$.$.] $.$.: 2 2 ; F F Y ] ] { { { f p > 1 1 1 u u u F K G l k E ",
"^ k v K G G d d d , : : d z u [ $.$.] [ ] F b b F F F ] ] ] { ..[ f > p : 1 : d g j F K G F k ~ ",
"} b F U U U U W W z u u y a y c n c | ] ] F F v l l l U U U c c c 3 , , u u d ) ' [ Y U U F l T ",
"} G G U Y Y ` ] ` x u u 1 1 1 g u u ' ] [ F v b l l l P P K d t t 3 1 1 d g j ..;.;.] Y Y F l Q ",
"} G G U Y U ` ` ` z z u y , 1 d t u ] [ ] F F b l l l G K K d u t : : , d j x ..;.;.] U Y F l E ",
"} F F G F K ` ] [ U I U g y y y y y n n H z j x j j j j k x , , : t d d I ) Y { ..{ J b v v k E ",
"! F F b v F [ [ [ ] ] Y z u t , 1 , u z u u u j z r z u u u : , , u d z Y $.$.{ { { v i i l l Q ",
"} F F v v F [ [ ] ` ` ] z u u , , , z z x z u u u z u u u u , , , u z j ] $.$.{ { ] v j d k v E ",
"R c z v v v H J J ] ] ] F F F d y y d u u z z j j j u u y y y y t J P I Y ] ` n n b d u u i z A ",
"R u z x x x v v v [ $.[ K K G d y u u z u v z c j z j t u y t t u W ] ] ] Y Y x r r u u t d i A ",
"D g c z x z v v n [ [ ] J K G i r r z u d x v v v z x t u r u u u ) ) ` Y Y Y x j r r t t d d A ",
"@.a y c x v J J J J P K F F b j r j j k z G K K K K K j r u k l x I ) Y H v F z d d r d d y , o.",
"X.: a n k b I I I b b b v l b j j r v k v U Y Y Y Y Y x u u F F F L U I k j j d r u i i d , : O.",
"#.m M T E E ! ' ! E E W E T W B N N T T T _ { ' ' ' ' B T R T T T _ ' ' T B B V C C V V V M m +."
};
