/* XPM */
static char *result[] = {
/* columns rows colors chars-per-pixel */
"48 48 98 2 ",
"   c #2F2F2E",
".  c #392D2F",
"X  c #312E32",
"o  c #312A3E",
"O  c #741A33",
"+  c #492730",
"@  c #342746",
"#  c #39294B",
"$  c #3C1D77",
"%  c #3C167E",
"&  c #3C1B7B",
"*  c #3C2077",
"=  c #422747",
"-  c #441C69",
";  c #411C72",
":  c #401E7E",
">  c #4E1F7D",
",  c #4F207E",
"<  c #811F35",
"1  c #822A38",
"2  c #9E293B",
"3  c #3F0F88",
"4  c #3D1484",
"5  c #3D1981",
"6  c #3F1289",
"7  c #410F8E",
"8  c #421486",
"9  c #421A83",
"0  c #42138B",
"q  c #49168D",
"w  c #421889",
"e  c #4B1A8D",
"r  c #450F93",
"t  c #490F96",
"y  c #4B0F9A",
"u  c #451192",
"i  c #491295",
"p  c #4D1A92",
"a  c #4D129B",
"s  c #51139E",
"d  c #531C9B",
"f  c #562584",
"g  c #533987",
"h  c #54348D",
"j  c #542D94",
"k  c #55269B",
"l  c #59279F",
"z  c #5E3E96",
"x  c #5C349C",
"c  c #5E3C9A",
"v  c #613C9B",
"b  c #5413A2",
"n  c #5A15A6",
"m  c #561AA2",
"M  c #5A1AA4",
"N  c #5D16AA",
"B  c #5F1AA9",
"V  c #6117AB",
"C  c #621BAC",
"Z  c #661DB1",
"A  c #691EB2",
"S  c #5C25A3",
"D  c #5E2FA2",
"F  c #5D30A1",
"G  c #6026A7",
"H  c #612DA5",
"J  c #6422AC",
"K  c #6A26AE",
"L  c #662FA9",
"P  c #6A2EAF",
"I  c #6234A3",
"U  c #6731A9",
"Y  c #6931AC",
"T  c #6C23B3",
"R  c #6D2AB1",
"E  c #6F21B8",
"W  c #7124B6",
"Q  c #722AB6",
"!  c #7324BA",
"~  c #7529BA",
"^  c #7B2CBE",
"/  c #6E31B1",
"(  c #7532B6",
")  c #7633B8",
"_  c #7C33BC",
"`  c #7F3ABD",
"'  c #5E458E",
"]  c #5D4192",
"[  c #634E8F",
"{  c #624595",
"}  c #634B92",
"|  c #7B2BC1",
" . c #7F30C0",
".. c #813BBE",
"X. c #8436C4",
"o. c #853AC2",
"O. c #893CC4",
"+. c #8B39C8",
/* pixels */
"Y U Y / / / o.` ..Y P Y v I v v v v H H D ) ) ) P P P c c z U L U ) ) _ I I I { } } { { v z x v ",
"U a a m n B Q R Q s s s t y t 7 7 7 t q a C C Z n b n 6 6 6 s b b T T T a u t 0 8 8 0 8 % 0 7 x ",
"Y s m B S B R R K M n b i t t 7 7 7 i i a B C N b b b 3 6 6 a s a C Z A a r t q q 8 8 3 3 7 7 x ",
"..Q ~ X.X.^ m n M W W R y s a 0 3 8 8 w 6 y 6 y 6 r r 4 4 4 5 5 6 a b b y t r i u 0 7 7 7 7 r x ",
" .W ~ o.X.) m n n W W T y y r 4 4 4 w 6 5 u u 6 6 6 6 5 & & 4 6 8 s s b s y t 7 7 t i q q t i x ",
"` R Q  . .~ n n M W R T y t r 3 4 4 0 5 6 i u u u 6 6 6 4 & 6 6 w s s b s s t 7 7 q i q q t i x ",
") K C a a b T T K V V n % 0 3 % % % u i p n n m T T Z 6 y 6 i a s d n n u 7 q 8 0 8 t s s s y H ",
") A C s a b T T K C V n 3 : 8 % 4 4 u i i B B B Z T E y 6 6 i d s n s b q 0 7 8 0 8 u r t y s G ",
") Z B s s m T T J M M M % 8 8 3 % 8 y y y N N N Z A A y 6 6 a b s M M M u 0 7 8 0 6 u 6 y b s D ",
"c 6 6 u u u b d s 5 5 5 8 w 0 s y s ^ ^ ^ b b b N C N a b a r y q ( _ ..A V C t 3 6 4 4 4 6 y F ",
"F 6 6 u u q s d d 4 8 8 w q q b b b ....^ b b b N Z N N b b y y t ( ^ ..Z J C q 3 3 4 % 5 6 y F ",
"] 6 6 u q i d b a 4 0 0 q q q b y b ^ ^ ^ b b b C N V b b b r y i ( _ ..J C C 0 3 6 5 5 4 6 6 F ",
"} & 5 6 5 5 5 6 4 9 w 8 b s m O.+...n s b 0 6 0 0 0 0 a a a 0 w w i i i Q ( ^ C B B w % 5 * 5 ] ",
"[ * * 6 6 w 5 6 0 8 w q b s s O.+.+.d n m 4 6 4 6 8 6 r r i p p q i y i K ( ( J B C w % * 5 * ] ",
"[ * & w w 5 5 0 0 8 q q b s b O.+.+.n s b 6 4 6 6 6 0 r t t p q e t y i R ( ( J J C w % 5 * * ] ",
"c 6 6 i i i u u 7 s a s o.o.X.M d d 8 : 5 & 5 % $ $ $ 0 0 0 w w 8 8 w 9 p s a K Q ~ J V B i 5 c ",
"F 6 0 t y y u i u b y s O.O...M V V : % % & & * $ $ $ 5 5 6 5 6 8 e e 9 t s a K ~ ( A V V a 6 x ",
"c 6 u t y y 0 u i a y a O.O...M d d & % 5 & * 5 $ & $ 4 6 6 8 8 8 e e 9 t a a K ~ ~ A C C y 6 F ",
"/ n n N V N t r a A T K M V M 8 8 8 3 % 4 6 8 4 5 % 5 6 6 0 a s s 0 0 0 8 8 8 i s s C A Z b y D ",
"/ n N V Z N a r i T T K M M M 8 3 3 4 4 4 0 0 0 4 4 4 6 u 8 a s a 0 0 0 8 8 8 t y s C A A b s L ",
"( n M V C N y u a T T T n M n 8 3 3 4 4 4 6 6 6 5 5 4 6 6 6 s s s 7 3 0 w 8 8 i y y Z A Z b y D ",
"U a a u u u 8 4 4 p p u i i i 7 r 7 6 6 3 4 4 4 6 i i i i i b d s s y y 0 4 4 5 4 9 u a y y 6 F ",
"U a a 0 u 0 % & % i 0 0 y y y r r r 3 3 % o o o @ i i a i i a b b y y y 6 % % & % 5 0 u r r 6 F ",
"U a a 0 u 0 % & % 0 u 0 y y y t r r 3 3 %         i i i a i a b b y b y 6 4 4 % 5 5 u u r u r F ",
"U s a r 7 7 4 % 5 0 p u i a y i s s : @ = 1 1 1 1 # # K R R ^ ^ ..y r r 8 % % % 5 4 y y s y y D ",
"P s y 7 7 7 4 % 4 0 i q i i i s s s 8   . 2 2 2 2   X W ! ~ X.X.X.a 7 u 3 ; % % 4 4 a s s s s L ",
"U s y 7 3 6 4 % 4 p p p i i i s s s >   . < < < 1   X R Q ~ X.X.X.a r 7 3 ; : 8 5 4 y s s s s L ",
"L s s t y y u 6 u B n B C C C t t t 8   . O O O O   X Q ~ ~ B B V b y b u 7 r 7 i 6 b N N s s G ",
"U a a y y y y 6 t C C Z Z A Z r r r u - - + + + + $ $ ~ ~ ~ m b b s s b t t r i i i n B B b s L ",
"L b b a s y y y t C Z C A Z Z r r t y y q         a a E ~ | m b b s s s t t t i y t n B B b s G ",
"F w 6 u 6 6 6 5 : s a s ^ ..X.Z A Z t r 7 , , , f C Z B B B A A A V C V 0 6 4 5 9 5 u i i q 4 c ",
"{ 5 5 6 6 4 % $ & q q q X.X.X.! ! ! t t t V V V T T E b b b A E E A A V 0 % 5 & $ & 6 u 0 4 4 z ",
"c 5 w 6 3 3 % $ & 0 u p X.X.X.| | A y y y n V V A A E b b b E W W A Z C w 4 4 & $ % 3 r 6 6 5 ] ",
"I u u b b y 3 4 4 5 * 9 k d m ! | | A A A b b b N N N A A A ! ~ | i i q 5 * $ 5 4 6 s b b y u F ",
"D a a n n b 0 6 8 $ $ * w 0 u _ | | ! | ! b b y b b b A ! ! | | ^ w 4 4 * * * 4 6 6 n n N a a F ",
"U y s n n b 0 8 8 & $ & w 6 u | | | ! E ! b b b y b b E E Q | | ^ q % 4 $ * $ 6 6 u b n N a a F ",
"U b b Z Z V C J S u 4 6 5 5 9 k k d Q E E s a b y y s Z Z Z d p p : & & 6 8 8 T Q W A Z Z b y S ",
"/ b N Z A A W ! E u 3 6 & * * 6 6 0 Q | E b b a y y y N N N 6 5 9 : * & 0 0 u ^ +.+.W A Z b y H ",
"/ N N A A A W ! E u 0 0 % $ & 0 5 0 Q ~ ~ b b b y y y n N N 6 5 4 & * & 0 u u _ +.+.W T A b y H ",
"U b b b N N ! ! ! C J B 6 5 4 5 5 5 m m m r u a y r r y y y 5 5 & 4 4 8 B T Z ^ X._ n s s a y H ",
"P b b a s m ! | ~ ! E A u 6 4 $ $ & 6 u 6 6 u 6 6 u 6 6 6 6 & $ $ 6 0 u W | | ^ ! ~ i 7 r t y L ",
"P b b b a m ~ ! ! ! ! W u 0 3 & $ & u u u u 6 6 r 6 u 6 6 6 $ $ & 6 u u W | ^ ~ ~ ~ s 7 7 y y H ",
"D i u a a a B S B ~ ! ! s s s 4 5 4 6 u 6 u u 6 r u u 4 4 4 5 5 4 m V V A ! W M M d 0 6 0 0 u x ",
"F u u a u i a a b ~ ~ ~ N N N 4 6 5 w 6 u i i i u r u 4 4 5 6 5 6 T ! ! E A A i 7 7 7 6 3 7 7 x ",
"F w w a i i a a s ~ ~ ! N N n 7 6 6 6 u 0 t y a r i u 6 6 6 6 6 6 T R W A A A i 7 0 3 6 4 0 0 x ",
"] 5 w i i a m m M J C V s b s 7 r 3 y r u n n n n n n 0 6 6 u u u Z A A b m n i 0 3 6 6 8 5 % z ",
"' & 9 p a s C B M d b s y s s r 3 6 a i a Z Z A A A A r 6 r b b s C Z Z a r 7 0 7 6 3 7 8 & $ } ",
"} g h D S S P R R G G G l G M k k k S S S R ~ Q ~ Q ~ k k k S S S R ! R k k k j j j j k j h g [ "
};
