/* XPM */
static char *result[] = {
/* columns rows colors chars-per-pixel */
"48 48 184 2 ",
"   c #2F2F2E",
".  c #332E2E",
"X  c #35322E",
"o  c #3A342F",
"O  c #3F3631",
"+  c #323E34",
"@  c #353D34",
"#  c #631F32",
"$  c #671E32",
"%  c #6B1D32",
"&  c #701B33",
"*  c #741A33",
"=  c #771B33",
"-  c #791C34",
";  c #40372F",
":  c #4E2630",
">  c #452830",
",  c #502731",
"<  c #5B2A33",
"1  c #592D33",
"2  c #5B2D33",
"3  c #423833",
"4  c #453A30",
"5  c #463B35",
"6  c #493930",
"7  c #493A33",
"8  c #4A3C30",
"9  c #4E3E31",
"0  c #4F3F37",
"q  c #4B3E38",
"w  c #523E35",
"e  c #6D2133",
"r  c #602C34",
"t  c #36543E",
"y  c #3F523D",
"u  c #414D3B",
"i  c #524031",
"p  c #534131",
"a  c #544131",
"s  c #554231",
"d  c #564231",
"f  c #5B4532",
"g  c #5B4237",
"h  c #514238",
"j  c #5E4338",
"k  c #5A4538",
"l  c #5B453B",
"z  c #5A463E",
"x  c #5C473C",
"c  c #5E483B",
"v  c #40523B",
"b  c #604732",
"n  c #614832",
"m  c #654933",
"M  c #654A33",
"N  c #664A33",
"B  c #674A33",
"V  c #684B33",
"C  c #6C4D33",
"Z  c #6F4F34",
"A  c #664A3E",
"S  c #69483A",
"D  c #6A4D38",
"F  c #745134",
"G  c #7D5535",
"H  c #396344",
"J  c #3A6A47",
"K  c #3F6946",
"L  c #3B714A",
"P  c #3D704B",
"I  c #3C754C",
"U  c #3F754E",
"Y  c #3F764E",
"T  c #3E774E",
"R  c #5D5552",
"E  c #674D40",
"W  c #6A4F43",
"Q  c #6A5D4D",
"!  c #775242",
"~  c #735442",
"^  c #745446",
"/  c #7E5A43",
"(  c #795748",
")  c #516646",
"_  c #51744C",
"`  c #57764D",
"'  c #59724B",
"]  c #407B50",
"[  c #427F53",
"{  c #547F51",
"}  c #6B7B5A",
"|  c #796864",
" . c #787879",
".. c #8F2739",
"X. c #912438",
"o. c #922539",
"O. c #942539",
"+. c #962639",
"@. c #97293A",
"#. c #9B283A",
"$. c #9E293B",
"%. c #825835",
"&. c #885B36",
"*. c #875D4B",
"=. c #8A6148",
"-. c #90644A",
";. c #9B6B4E",
":. c #916451",
">. c #907559",
",. c #B97053",
"<. c #B77A56",
"1. c #837C6E",
"2. c #917E7A",
"3. c #AB7B6C",
"4. c #C97557",
"5. c #438455",
"6. c #468555",
"7. c #4E8253",
"8. c #418F57",
"9. c #548856",
"0. c #5A8E5A",
"q. c #42965A",
"w. c #449E5D",
"e. c #66835C",
"r. c #6C865A",
"t. c #738D5F",
"y. c #74915B",
"u. c #648966",
"i. c #749F7B",
"p. c #45A560",
"a. c #47A963",
"s. c #49AA64",
"d. c #49AE66",
"f. c #4BB168",
"g. c #4BB268",
"h. c #4DB76B",
"j. c #4FBA6D",
"k. c #50BD6F",
"l. c #63A37B",
"z. c #67A07E",
"x. c #8A965E",
"c. c #978065",
"v. c #819E61",
"b. c #8E9D61",
"n. c #A48A6C",
"m. c #AB8F6F",
"M. c #CE865C",
"N. c #DA8D60",
"B. c #E59363",
"V. c #9D7B81",
"C. c #957D8A",
"Z. c #7F9C93",
"A. c #74A98C",
"S. c #9D8D87",
"D. c #928A8D",
"F. c #849B97",
"G. c #8E9A97",
"H. c #B28C88",
"J. c #A59186",
"K. c #A29898",
"L. c #A69D9D",
"P. c #9299A4",
"I. c #9DADAC",
"U. c #A8A6AB",
"Y. c #BDAFA1",
"T. c #AFB3BA",
"R. c #B2B6BD",
"E. c #B3B7BE",
"W. c #C09680",
"Q. c #D49D85",
"!. c #D5A890",
"~. c #DDB096",
"^. c #E7A784",
"/. c #A0C684",
"(. c #E0C19E",
"). c #FFD19C",
"_. c #BFC2C7",
"`. c #CDC9C6",
"'. c #C1C3C9",
"]. c #C4C5CA",
"[. c #D5CDC5",
"{. c #CCCDD1",
"}. c #D4D4D7",
"|. c #E1D3C5",
/* pixels */
"&.&.&.&.&.&.&.&.&.&.&.&.&.&.&.&.&.&.&.&.&.&.&.&.&.&.&.&.&.&.&.&.&.&.&.&.&.&.&.&.&.&.&.&.&.&.&.&.",
"&.&.&.&.&.&.&.&.&.&.&.&.&.&.&.&.&.&.&.&.&.&.&.&.&.&.&.&.&.&.&.&.&.&.&.&.&.&.&.&.&.&.&.&.&.&.&.&.",
"&.&.&.&.&.&.&.&.&.&.&.&.&.&.&.&.&.&.&.&.&.&.&.&.&.&.&.&.&.&.&.&.&.&.&.&.&.&.&.&.&.&.&.&.&.&.&.&.",
"&.&.&.&.&.&.&.&.&.&.&.&.&.&.&.&.&.&.&.&.&.&.&.&.&.&.&.&.&.&.&.&.&.&.&.&.&.&.&.&.&.&.&.&.&.&.&.&.",
"&.&.&.&.&.&.&.&.&.&.&.&.&.&.&.&.&.&.&.&.&.&.&.&.&.&.&.&.&.&.&.&.&.&.&.&.&.&.&.&.&.&.&.&.&.&.&.&.",
"&.&.&.&.&.&.&.&.&.&.&.&.&.&.&.&.&.&.&.&.&.&.&.&.&.&.&.&.&.&.&.&.&.&.&.&.&.&.&.&.&.&.&.&.&.&.&.&.",
"&.&.&.&.&.&.&.&.&.&.&.&.&.&.&.&.&.&.&.&.&.&.&.&.&.&.&.&.&.&.&.&.&.&.&.&.&.&.&.&.&.&.&.&.&.&.&.&.",
"&.&.&.&.&.&.&.&.&.&.&.&.&.&.&.&.&.&.&.&.&.&.&.&.&.&.&.&.&.&.&.&.&.&.&.&.&.&.&.&.&.&.&.&.&.&.&.&.",
"&.&.&.&.&.&.&.&.&.&.&.&.&.&.&.&.&.&.&.G G G G &.&.&.&.&.&.&.&.&.&.&.&.&.&.&.&.&.&.&.&.&.&.&.&.&.",
"&.&.&.&.&.&.&.&.&.&.&.&.&.&.&.&.&.&.&.4       C &.&.&.&.&.&.&.&.&.&.&.&.&.&.&.&.&.&.&.&.&.&.&.&.",
"&.&.&.&.&.&.&.&.&.&.&.&.&.&.&.&.&.%.%.6 . . . N %.&.&.&.&.&.&.&.&.&.&.&.&.&.&.&.&.&.&.&.&.&.&.&.",
"&.&.&.&.&.&.&.&.&.&.&.&.&.&.&.&.&.;   # * * * >   M &.&.&.&.&.&.&.&.&.&.&.&.&.&.&.&.&.&.&.&.&.&.",
"&.&.&.&.&.&.&.&.&.&.&.&.&.&.&.&.&.;   # * * * >   M &.&.&.&.&.&.&.&.&.&.&.&.&.&.&.&.&.&.&.&.&.&.",
"&.&.&.&.&.&.&.&.&.&.&.&.&.&.&.&.&.;   # * o.$.$.$.2   b &.&.&.&.&.&.&.&.&.&.&.&.&.&.&.&.&.&.&.&.",
"&.&.&.&.&.&.&.&.&.&.&.&.&.&.&.&.&.;   # * o.$.$.$.2   b &.&.&.&.&.&.&.&.&.&.&.&.&.&.&.&.&.&.&.&.",
"&.&.&.&.&.&.&.&.&.&.&.&.&.&.&.o X e & ..#.#.$.$.$.$.@.1 X n &.&.&.&.&.&.&.&.&.&.&.&.&.&.&.&.&.&.",
"&.&.&.&.&.&.&.&.&.&.&.&.&.&.&.o   $ * O.$.$.$.$.$.$.$.r   f &.&.&.&.&.&.&.&.&.&.&.&.&.&.&.&.&.&.",
"&.&.&.&.&.&.&.&.&.&.&.&.&.; o e % & * = - - - - - - - ,   f &.&.&.&.&.&.&.&.&.&.&.&.&.&.&.&.&.&.",
"&.&.&.&.&.&.&.&.&.&.&.&.&.X   % * * * * * * * * * * * :   f &.&.&.&.&.&.&.&.&.&.&.&.&.&.&.&.&.&.",
"&.&.&.&.&.&.&.&.&.&.&.&.&.X   % * X.+.+.+.+.+.+.+.+.+.<   f &.&.&.&.&.&.&.&.&.&.&.&.&.&.&.&.&.&.",
"&.&.&.&.&.&.&.&.&.&.&.&.&.X   % * +.$.$.$.$.$.$.$.$.$.r   f &.&.&.&.&.&.&.&.&.&.&.&.&.&.&.&.&.&.",
"&.&.&.&.&.&.&.&.&.&.&.&.&.X   ,.4.V.C.C.C.Q.^.^.^.H.C.3.<./ 4 B &.&.&.&.&.&.&.&.&.&.&.&.&.&.&.&.",
"&.&.&.&.&.&.&.&.&.&.&.&.&.X   M.B.K.P.P.P.(.).).).Y.P.W.B.=.  d &.&.&.&.&.&.&.&.&.&.&.&.&.&.&.&.",
"&.&.&.&.&.&.&.&.&.&.&.&.&.X   M.B.K.P.E._.[.|.|.|.`._.!.B.=.  d &.&.&.&.&.&.&.&.&.&.&.&.&.&.&.&.",
"&.&.&.&.&.&.&.&.&.&.&.&.&.X   M.B.K.P.].}.}.}.}.}.}.}.~.B.=.  d &.&.&.&.&.&.&.&.&.&.&.&.&.&.&.&.",
"&.&.&.&.&.&.&.&.&.&.&.&.&.X   y.v.G.P.].}.}.}.}.}.}.}.J.~ h   d &.&.&.&.&.&.&.&.&.&.&.&.&.&.&.&.",
"&.&.&.&.&.&.&.&.&.&.&.&.&.X   q.p.F.P.].}.}.}.}.}.}.}. .      d &.&.&.&.&.&.&.&.&.&.&.&.&.&.&.&.",
"&.&.&.&.&.&.&.&.&.&.&.d d J L s.g.l.z.I.T.{.}.}.}.}.}. .  t L v d Z &.&.&.&.&.&.&.&.&.&.&.&.&.&.",
"&.&.&.&.&.&.&.&.&.&.%.    w.p.j.k.a.p.Z.P.'.}.}.}.}.}. .  J p.L   d &.&.&.&.&.&.&.&.&.&.&.&.&.&.",
"&.&.&.&.&.&.&.&.&.&.%.    w.p.] U _ ` 1.2.U.R.R.R.L.S.R   P f.T   d &.&.&.&.&.&.&.&.&.&.&.&.&.&.",
"&.&.&.&.&.&.&.&.&.&.%.    w.p.+   j S *.:.D.P.P.P.| S 7   Y k.[   d &.&.&.&.&.&.&.&.&.&.&.&.&.&.",
"&.&.&.&.&.&.&.&.&.&.%.    x.b.@   ) ' r.t.i.A.A.A.u.' u   } /.e.  d &.&.&.&.&.&.&.&.&.&.&.&.&.&.",
"&.&.&.&.&.&.&.&.&.&.%.    N.B.5   8.p.h.k.k.k.k.k.d.p.H   c.).n.  d &.&.&.&.&.&.&.&.&.&.&.&.&.&.",
"&.&.&.&.&.&.&.&.&.&.%.p p -.;.D p K I 9.0.6.5.5.5.7.{ y   Q m.>.p V &.&.&.&.&.&.&.&.&.&.&.&.&.&.",
"&.&.&.&.&.&.&.&.&.&.&.&.&.X   G &.;   g S O       w S 7       d &.&.&.&.&.&.&.&.&.&.&.&.&.&.&.&.",
"&.&.&.&.&.&.&.&.&.&.&.&.&.a 9 G &.;   A ! 3       l ! 0   ; 9 m &.&.&.&.&.&.&.&.&.&.&.&.&.&.&.&.",
"&.&.&.&.&.&.&.&.&.&.&.&.&.&.&.&.&.;   ( :.q       W :.z   f &.&.&.&.&.&.&.&.&.&.&.&.&.&.&.&.&.&.",
"&.&.&.&.&.&.&.&.&.&.&.&.&.&.&.&.&.s 8 E ^ k 8 8 8 x ^ c 8 B &.&.&.&.&.&.&.&.&.&.&.&.&.&.&.&.&.&.",
"&.&.&.&.&.&.&.&.&.&.&.&.&.&.&.&.&.&.&.4   Z &.&.&.i   b &.&.&.&.&.&.&.&.&.&.&.&.&.&.&.&.&.&.&.&.",
"&.&.&.&.&.&.&.&.&.&.&.&.&.&.&.&.&.&.&.d 4 F &.&.&.n 4 C &.&.&.&.&.&.&.&.&.&.&.&.&.&.&.&.&.&.&.&.",
"&.&.&.&.&.&.&.&.&.&.&.&.&.&.&.&.&.&.&.&.&.&.&.&.&.&.&.&.&.&.&.&.&.&.&.&.&.&.&.&.&.&.&.&.&.&.&.&.",
"&.&.&.&.&.&.&.&.&.&.&.&.&.&.&.&.&.&.&.&.&.&.&.&.&.&.&.&.&.&.&.&.&.&.&.&.&.&.&.&.&.&.&.&.&.&.&.&.",
"&.&.&.&.&.&.&.&.&.&.&.&.&.&.&.&.&.&.&.&.&.&.&.&.&.&.&.&.&.&.&.&.&.&.&.&.&.&.&.&.&.&.&.&.&.&.&.&.",
"&.&.&.&.&.&.&.&.&.&.&.&.&.&.&.&.&.&.&.&.&.&.&.&.&.&.&.&.&.&.&.&.&.&.&.&.&.&.&.&.&.&.&.&.&.&.&.&.",
"&.&.&.&.&.&.&.&.&.&.&.&.&.&.&.&.&.&.&.&.&.&.&.&.&.&.&.&.&.&.&.&.&.&.&.&.&.&.&.&.&.&.&.&.&.&.&.&.",
"&.&.&.&.&.&.&.&.&.&.&.&.&.&.&.&.&.&.&.&.&.&.&.&.&.&.&.&.&.&.&.&.&.&.&.&.&.&.&.&.&.&.&.&.&.&.&.&.",
"&.&.&.&.&.&.&.&.&.&.&.&.&.&.&.&.&.&.&.&.&.&.&.&.&.&.&.&.&.&.&.&.&.&.&.&.&.&.&.&.&.&.&.&.&.&.&.&.",
"&.&.&.&.&.&.&.&.&.&.&.&.&.&.&.&.&.&.&.&.&.&.&.&.&.&.&.&.&.&.&.&.&.&.&.&.&.&.&.&.&.&.&.&.&.&.&.&."
};
