/* XPM */
static char *result[] = {
/* columns rows colors chars-per-pixel */
"48 48 166 2 ",
"   c #2F2F2E",
".  c #332E2E",
"X  c #382E2F",
"o  c #32302F",
"O  c #2F2E30",
"+  c #322E34",
"@  c #323531",
"#  c #393431",
"$  c #313A33",
"%  c #3B3835",
"&  c #3C3C3B",
"*  c #741A33",
"=  c #482730",
"-  c #5D2131",
";  c #752B36",
":  c #782B37",
">  c #334137",
",  c #45433B",
"<  c #674739",
"1  c #69483A",
"2  c #3A1F5B",
"3  c #352747",
"4  c #35264A",
"5  c #362155",
"6  c #3C2653",
"7  c #3C2758",
"8  c #3D225C",
"9  c #3C1D68",
"0  c #3B1E76",
"q  c #3C167E",
"w  c #3C1C7B",
"e  c #3D2760",
"r  c #3C2077",
"t  c #412C58",
"y  c #421F69",
"u  c #401B7F",
"i  c #472865",
"p  c #4E2C6C",
"a  c #54346F",
"s  c #532C73",
"d  c #3A6A47",
"f  c #3B6D49",
"g  c #3C724B",
"h  c #664C42",
"j  c #7A5444",
"k  c #406E4B",
"l  c #58764D",
"z  c #417B51",
"x  c #842036",
"c  c #8E2338",
"v  c #9E293B",
"b  c #885F4A",
"n  c #B25E4F",
"m  c #8E634D",
"M  c #916451",
"N  c #8B765E",
"B  c #917C62",
"V  c #976775",
"C  c #976876",
"Z  c #C66451",
"A  c #5C8455",
"S  c #439B5C",
"D  c #708158",
"F  c #738C5E",
"G  c #45A35F",
"H  c #719060",
"J  c #45A560",
"K  c #4AAB65",
"L  c #4BB268",
"P  c #4DB66B",
"I  c #50BD6F",
"U  c #66A17D",
"Y  c #8D955E",
"T  c #989165",
"R  c #97857E",
"E  c #A7896C",
"W  c #93AD6F",
"Q  c #DA8D60",
"!  c #E39263",
"~  c #3E0F88",
"^  c #3D1484",
"/  c #3D1981",
"(  c #3E1289",
")  c #420F8D",
"_  c #411586",
"`  c #411A82",
"'  c #481987",
"]  c #42138C",
"[  c #4A168E",
"{  c #411888",
"}  c #4C1B8C",
"|  c #450F93",
" . c #4A0F95",
".. c #4B0F9A",
"X. c #461292",
"o. c #4A1295",
"O. c #4A1990",
"+. c #4D129B",
"@. c #511997",
"#. c #51139E",
"$. c #541C9B",
"%. c #5C1C9D",
"&. c #533789",
"*. c #542D94",
"=. c #55269B",
"-. c #57259C",
";. c #5D3A96",
":. c #5C339C",
">. c #613D9E",
",. c #5514A2",
"<. c #5A15A5",
"1. c #5619A2",
"2. c #5B1AA5",
"3. c #5D16A9",
"4. c #5E1AA9",
"5. c #601DA7",
"6. c #6017AB",
"7. c #621BAD",
"8. c #671DB1",
"9. c #6A1DB3",
"0. c #5C25A2",
"q. c #5D2FA2",
"w. c #6122A4",
"e. c #612DA5",
"r. c #6422AC",
"t. c #682BAA",
"y. c #712EAC",
"u. c #6536A6",
"i. c #643AA2",
"p. c #6A33AC",
"a. c #7031AB",
"s. c #6C23B3",
"d. c #6E2AB2",
"f. c #7125B6",
"g. c #722BB6",
"h. c #7224B9",
"j. c #752AB9",
"k. c #7A2CBD",
"l. c #6E34B1",
"z. c #7333B4",
"x. c #7936B5",
"c. c #7C34BC",
"v. c #5E458E",
"b. c #5C4191",
"n. c #654C94",
"m. c #62429A",
"M. c #675391",
"N. c #7B2BC0",
"B. c #7F30C0",
"V. c #823CBE",
"C. c #8236C1",
"Z. c #863BC2",
"A. c #8A3CC5",
"S. c #8B39C8",
"D. c #6DAD86",
"F. c #B59789",
"G. c #8CBA99",
"H. c #9299A4",
"J. c #AEB2BA",
"K. c #E7BE8F",
"L. c #A6C785",
"P. c #FFD19C",
"I. c #B7BAC0",
"U. c #BABDC3",
"Y. c #CFCED0",
"T. c #D4D4D7",
/* pixels */
"p.p.p.l.l.l.Z.V.V.p.p.p.i.i.>.>.m.>.i.u.u.z.z.z.l.l.s.>.b.m.p.p.p.x.c.c.i.i.i.n.n.n.n.n.m.m.>.>.",
"p.+.#.<.2.4.d.d.s.%.,.,. . . .) ) ]  .o...7.8.8.3.<.3.~ ( ( +.1.,.8.s.s.+.X. .[ ' _ _ ~ q ) ) :.",
"p.+.#.2.2.4.d.f.f.#.,.,. . . .) ) ) +.o...7.7.7.3.3.3.~ ( ( +.1.#.r.9.9.+.| | ] [ _ ~ ~ ^ ) | :.",
"V.d.g.C.Z.B.1.2.2.f.f.s.#...#.) ( ] _ _ ( ( ..| ~ ~ ~ ~ / ^ / ( ( +.#.,.......X.X.] ) ) ) ) ) :.",
"Z.f.g.Z.B.B.1.1.2.f.d.f..... .~ ^ ^ { ( { O.X.X.( ( ( / / q / ( ( +.#.,.#... .| ) X.O.o.[  .X.:.",
"V.d.f.B.B.B.1.1.1.f.f.s.+.....~ / ^ / ( ( X.( X.( ( ( ( q q / ( ( +.#.,.#... .) ) X.X.[ X. . .:.",
"c.8.4.,.+.1.s.s.9.6.6.3.^ ^ ~ q ^ q X.o.O.1.1.<.8.s.8.( ( ( ( 1.#.1.<.<. .[ [ _ _ ]  .#.#.#...e.",
"c.8.8.#.+.,.s.s.s.5.5.5.^ _ _ q q ^ X. .o.3.4.3.8.s.s.....( +.+.+.1.1.<.) _ ) _ [ _ )  . .+.#.e.",
"x.8.8.#.+.#.s.s.s.4.4.2.^ _ ^ _ q _ .... .3.3.3.8.9.s.| ( X.o.#.@.1.2.,.X.] ] ] ] ( ( ( ..+.#.q.",
"m.( ( X.X.X.1.1.#./ q / ` ] _ ......k.h.k.,.,.,.6.6.7.4 5 4 3 3 3 a.c.c.8.7.7.X.X.~ ( ^ / ....q.",
">.( ( X.X.O.#.$.#.^ { ] ] [ [ #.,.,.k.C.V.,.#.,.6.6.6.O     @     a.c.c.r.7.5.X.~ ~ / / ^ ( ..q.",
"m.~ ( X.O.X.$.#.#.^ _ _ ' [ [ ,.,...k.k.V.,.#.5 e 7 7 - - - -     a.c.c.r.7.7.X.~ ^ ^ / / ( ( :.",
"M.w / ( ( { / ( ^ ` { ] ,.#.1.Z.C.V.6.<.<.] ]         * * * * @ . [ +.+.g.g.g.7.4.4.{ ^ / / / b.",
"M.0 r { { / / ] ] _ ' ] ,.+.+.Z.S.S.%.,.1.4 4 : : : : * * = = y 9 o.o.+.d.z.k.r.4.4.{ q r r r b.",
"M.r w ( { ( / ] ] _ ' ' ,.+.,.Z.A.A.,.,.#.  . v v v v * * .   ' [ o...o.l.x.j.r.7.5.{ q / / / b.",
";.{ ( o.o.o.{ X.] +...#.c.C.C.4.5.5._ 4 4 ; ; v v v v * * . . ` ] { ' ` +.+.$.d.g.g.7.4.4.O./ b.",
"i.( ] o.....X.X.| ,...o.V.A.V.2.%.,.w . @ v v v v v v * * .   q _ } ' '  ...+.d.g.j.8.7.6.+.( :.",
";.( X. .....) o.X.+...+.A.A.A.4.$.t 3 - - x x x x x x * * . O u _ } } ' X.+. .d.g.j.8.7.6...( :.",
"z.1.<.<.6.6...| o.9.s.s.5.5.2.` u   . * * * * * * * * * * . O  .#.] ] ] _ _ _ +.#.1.7.9.8.,...q.",
"z.3.3.6.8.6...X. .s.s.s.2.1.<.( q   . c c c c c c c c * * . . o.#.) _ _ [ _ _  .....6.9.8.,.,.e.",
"l.<.3.6.6.6...| X.s.s.s.<.2.%._ q . o v v v v v v v v * * . . O.#.) ~ ) _ _ ( O.+...7.8.8.<...e.",
"p.#.+.O.o.o.] ^ ( @.O.O.#.#. .5 6 E E Z Z C C C V V V n n X   @.,.......{ ( / ^ _ {  .+...| ( q.",
"p.+.o.X.] ] / w q ] X.X. ...]   = P.P.! ! H.H.H.H.H.H.! ! #    .#.#.#..._ ^ / q / w X.X.| ..( :.",
"p.+.o.] X.] ^ / w ] X.]  . .X.9 i B N F.F.I.I.I.J.H.H.! ! X . #.#.#.....~ ^ q q / ^ X.X...( ..q.",
"p.+.+.| ) | ^ q / ] O.O.o.o. .#.[ + > H.H.T.T.T.T.H.H.! ! #   y.k.+.X.| ( q q q / ^ o.+.#.....e.",
"p.#...) ) ~ ^ / / X.O.X.o.+.X.e t @ & U.U.T.T.J.J.D.D.W W g g a a O.X.| ^ q u q / ^ +.+.,...,.e.",
"p.,...| ~ ~ ^ / ^ X.O.o.o. ._   .   = T.T.T.T.H.H.I I I I G G o + ] )  .u q u q / ^ ..+.#.#.#.t.",
"p.+.#. .....| ~ X.2.2.2.2.i 7 g d   , T.T.T.T.U U I I L L L P g f t 2 o. .) ) X.X.X.,.3.3.#...e.",
"p.,.#.....+...( X.8.8.7.0.  $ J S   & T.T.T.T.K G I I G G I I G G $ o O. . .X.o. ...3.2.3.1...t.",
"p.#.#.o.........o.8.7.8.w.O > I G O & T.T.R R l D F F l l k g G G $ o [  . . .o. . .3.4.4.,.,.e.",
"i.( { X.~ ( ( / ` @.@.@.g.o > I K . & T.Y.< 1 M M M m 1 1 o o S G $ . $.] ( ( q / ( o.O.+.[ { ;.",
"m.^ ( ( ( ~ / 0 w ] X.] x.  , L.W + & G.G.A A H H H H l l o   Y Y % . %.( ^ / w 0 w ( X.] ( / ;.",
"m.( / { ~ ~ q 0 w ] ] O.x.. , P.K.    J J I I I I I I J G @   Q ! = @ -.{ q ^ w 0 w ] | X.( / b.",
"i.X.O.#.#...( ( ^ ` u ` =.5 7 E T     l A z z g z A A g d p s b m 6 5 ` u w w / ( ( ..,.#.| X.:.",
"u.+.+.3.3.,.~ ( ( 0 0 r ] { w       # 1 <         < < @ O s.N.+ . u ^ ^ r r 0 ( ( X.,.<.3.+.o.e.",
"u.....<.3.,.) _ _ w w r ] ( ( p p   # j j       @ j j   + s.N.s p u ^ ^ 0 0 0 ] ( ] ,.<.<.#.+.q.",
"p.#.,.3.8.6.6.r.0.X.^ ^ / / ` =.} o $ M b O O O   M M O O 4.$.-.$.u w w _ ( { r.d.f.9.7.7.#...e.",
"l.,.3.8.9.9.h.h.h.X.~ ( w w r { ^ 5 p 1 h 2 e e 8 h h i i 3.{ ^ ^ w r r ] ] X.B.S.S.f.9.9.,...e.",
"l.<.<.8.9.9.h.h.h. .] X.w w w { ( ( t.O O ,.,...O.O   2.3.3.] ^ / w r w ] X.X.c.S.S.f.9.9.<...e.",
"l.,.,.<.3.3.f.h.j.4.5.6._ ^ ^ / / / @.5 e  .....X.5 5 o.X.o./ w w ^ ( _ 4.r.8.N.V.k.3.#.#.....e.",
"l.,.,.+.+.,.h.N.N.h.h.9.X.( ( w 0 w ( ( X.( ( ( ] | ( ( ( ( 0 0 w ( ] ] h.N.N.k.h.h.+.) ) ....e.",
"p.,.,.,.+.#.h.N.j.h.h.h.X.] ( w w r X.X.X.X.X.( ) ( X.( ( ( w 0 w ] X.X.h.N.N.k.k.k.+.| ] ....e.",
"u.| +.+.+.+.0.0.3.j.j.h.#.#.#.( / / { X.( X.( ( | X.X.^ ^ ^ w ^ ^ $.4.6.9.h.h.5.<.#.O.] ] ) | q.",
"u.( ( X.o.o.+.+...j.N.h.3.3.3._ ^ ( ( ( O.X.+...X.| X.^ ^ ^ ( ( ( 8.h.h.h.9.9.X.) _ ~ ~ ( ] ] :.",
">.( ( +. .o.+.+.+.g.j.j.3.3.3.) ~ ( ( X.] o.....| o. .( ( ( ( ( ( s.s.f.9.9.9.X.) ~ ( ( ^ ] ] :.",
"m.( { O.o.o.3.1.2.r.7.4.#.,.,.) | ~  .| X.,.3.3.<.<.<.] | ( X.X.X.7.s.9.<.1.<.X.] ] ~ ~ _ / q ;.",
"v.0 / $.+.+.7.0.4.,.,.#.#...#. .~ | o...o.8.9.9.9.9.9.X.( ( +.,.+.7.7.8.o.| | ] ] ~ ] ) _ w r v.",
"n.&.&.q.0.0.d.d.d.0.r.w.0.0.2.-.=.=.0.0.0.d.g.g.j.g.j.-.=.q.0.0.0.d.g.f.-.=.=.*.*.*.*.*.*.&.&.n."
};
