/* XPM */
static char *result[] = {
/* columns rows colors chars-per-pixel */
"48 48 167 2 ",
"   c #2C342A",
".  c #30362F",
"X  c #37392B",
"o  c #3D3B2C",
"O  c #343B32",
"+  c #363934",
"@  c #3B3C35",
"#  c #383F36",
"$  c #3A3C39",
"%  c #3F3E3E",
"&  c #3F3F3E",
"*  c #433E2D",
"=  c #403E3A",
"-  c #49402E",
";  c #4E432E",
":  c #52442F",
">  c #54452F",
",  c #55452F",
"<  c #544633",
"1  c #5A4730",
"2  c #5F4A31",
"3  c #5B4834",
"4  c #544B3A",
"5  c #584839",
"6  c #5D4A39",
"7  c #604A31",
"8  c #614A31",
"9  c #614B31",
"0  c #664D32",
"q  c #674D32",
"w  c #6B4F32",
"e  c #6D5032",
"r  c #685139",
"t  c #6C543C",
"y  c #705133",
"u  c #715133",
"i  c #775434",
"p  c #7C5634",
"a  c #7D5634",
"s  c #7E5735",
"d  c #444144",
"f  c #4C454C",
"g  c #4E464F",
"h  c #53484E",
"j  c #4B514A",
"k  c #4D504C",
"l  c #524853",
"z  c #534F53",
"x  c #594F59",
"c  c #5C4E5D",
"v  c #575B56",
"b  c #5E505F",
"n  c #5C5D5B",
"m  c #615342",
"M  c #5C605B",
"N  c #605062",
"B  c #615062",
"V  c #625762",
"C  c #635164",
"Z  c #645465",
"A  c #615B61",
"S  c #635D63",
"D  c #6B556D",
"F  c #6E5F6F",
"G  c #6F5872",
"H  c #725B74",
"J  c #745B77",
"K  c #785E7B",
"L  c #795D7C",
"P  c #7A5F7D",
"I  c #7B5F7E",
"U  c #616260",
"Y  c #616560",
"T  c #656465",
"R  c #6A6665",
"E  c #6D606E",
"W  c #6E666F",
"Q  c #6A6A69",
"!  c #6D6B6D",
"~  c #726F6D",
"^  c #7D637A",
"/  c #7C647F",
"(  c #717070",
")  c #727272",
"_  c #777777",
"`  c #7E7C7E",
"'  c #825935",
"]  c #835935",
"[  c #885B36",
"{  c #807F7F",
"}  c #7D6180",
"|  c #7D6580",
" . c #7F6582",
".. c #826585",
"X. c #806684",
"o. c #836587",
"O. c #836887",
"+. c #836A86",
"@. c #846B87",
"#. c #856C87",
"$. c #856E87",
"%. c #856D88",
"&. c #896A8C",
"*. c #896B8C",
"=. c #886F8C",
"-. c #817E81",
";. c #89728B",
":. c #89748B",
">. c #89728C",
",. c #8D6E91",
"<. c #8F6F92",
"1. c #8F6F93",
"2. c #8F7894",
"3. c #907094",
"4. c #917594",
"5. c #927495",
"6. c #927496",
"7. c #937796",
"8. c #96779A",
"9. c #957999",
"0. c #977C9B",
"q. c #987C9C",
"w. c #958F8B",
"e. c #918991",
"r. c #968298",
"t. c #99869B",
"y. c #99809C",
"u. c #9A879C",
"i. c #9C8B9E",
"p. c #9B929C",
"a. c #9E939F",
"s. c #9F9D9F",
"d. c #9F8EA0",
"f. c #9E90A0",
"g. c #9F95A0",
"h. c #9F99A0",
"j. c #9D9AA3",
"k. c #A08FA2",
"l. c #A191A3",
"z. c #A097A1",
"x. c #A494A5",
"c. c #A494A6",
"v. c #A59CA6",
"b. c #A99BAB",
"n. c #AC9DAD",
"m. c #A9A7A9",
"M. c #AEA5AF",
"N. c #AFA3B0",
"B. c #B3A7B4",
"V. c #B4ABB5",
"C. c #B7ABB8",
"Z. c #B9ACBA",
"A. c #B3B5BB",
"S. c #B9B0BA",
"D. c #B9B1BA",
"F. c #BEB5BF",
"G. c #C0B7C7",
"H. c #C1B9C2",
"J. c #C2BBC3",
"K. c #C4BEC5",
"L. c #C4B9CD",
"P. c #CCC6CD",
"I. c #CCCDD5",
"U. c #D3CDD4",
"Y. c #D6D2E0",
"T. c #DAD4E5",
"R. c #F1F0FD",
/* pixels */
"[ [ [ [ [ [ [ [ [ [ [ [ [ [ [ [ [ [ [ [ [ [ [ [ [ [ [ [ [ [ [ [ [ [ [ [ [ [ [ [ [ [ [ [ [ [ [ [ ",
"[ [ [ [ [ [ [ [ [ [ [ [ [ [ [ [ [ [ [ [ [ [ [ [ [ [ [ [ [ [ [ [ [ [ [ [ [ [ [ [ [ [ [ [ [ [ [ [ ",
"[ [ [ [ [ [ [ [ [ [ [ [ [ [ [ [ [ [ [ [ [ [ [ [ [ [ [ [ [ [ [ [ [ [ [ [ [ [ [ [ [ [ [ [ [ [ [ [ ",
"[ [ [ [ [ [ [ [ [ [ [ [ [ [ [ [ [ [ [ [ [ [ [ [ [ [ [ [ [ [ [ [ [ [ [ [ [ [ [ [ [ [ [ [ [ [ [ [ ",
"[ [ [ [ [ [ [ [ [ [ [ [ [ [ [ [ [ [ [ [ [ [ [ [ [ [ [ [ [ [ [ [ [ [ [ [ [ [ [ [ [ [ [ [ [ [ [ [ ",
"[ [ [ [ [ [ [ [ [ [ [ [ [ [ [ [ [ [ [ [ [ [ [ [ [ [ [ [ [ [ [ [ [ [ [ [ [ [ [ [ [ [ [ [ [ [ [ [ ",
"[ [ [ [ [ [ [ [ [ [ [ [ [ [ [ [ [ [ [ [ [ [ [ [ [ [ [ [ [ [ [ [ [ [ [ [ [ [ [ [ [ [ [ [ [ [ [ [ ",
"[ [ [ [ [ [ [ [ [ [ [ [ [ [ [ [ [ [ [ [ [ [ [ [ [ [ [ [ [ [ [ [ [ [ [ [ [ [ [ [ [ [ [ [ [ [ [ [ ",
"[ [ [ [ [ [ [ [ [ [ [ [ [ [ [ [ [ [ [ [ [ [ [ [ [ [ [ [ [ [ [ [ [ [ [ [ [ [ [ [ [ [ [ [ [ [ [ [ ",
"[ [ [ [ [ [ [ [ [ [ [ [ [ [ [ [ [ [ [ [ [ [ [ [ [ [ [ [ [ [ [ [ [ [ [ [ [ [ [ [ [ [ [ [ [ [ [ [ ",
"[ [ [ [ [ [ [ [ [ [ [ [ [ [ [ [ [ [ [ [ [ [ [ [ [ [ [ [ [ [ [ [ [ [ [ [ [ [ [ [ [ [ [ [ [ [ [ [ ",
"[ [ [ [ [ [ [ [ [ [ [ [ [ [ [ [ [ [ [ [ [ [ > > > > > > > > > p [ [ [ [ [ [ [ [ [ [ [ [ [ [ [ [ ",
"[ [ [ [ [ [ [ [ [ [ [ [ [ [ [ [ [ [ [ [ [ [                   w [ [ [ [ [ [ [ [ [ [ [ [ [ [ [ [ ",
"[ [ [ [ [ [ [ [ [ [ [ [ [ [ [ [ [ [ [ [ - o | | | | | | | H D = o a [ [ [ [ [ [ [ [ [ [ [ [ [ [ ",
"[ [ [ [ [ [ [ [ [ [ [ [ [ [ [ [ [ [ [ [ o   3.3.3.3.3.3.3.o.L d   i [ [ [ [ [ [ [ [ [ [ [ [ [ [ ",
"[ [ [ [ [ [ [ [ [ [ [ [ [ [ [ [ [ [ ; X ^ O.3.3.3.3.3.3.3.<.,.P G @ X [ [ [ [ [ [ [ [ [ [ [ [ [ ",
"[ [ [ [ [ [ [ [ [ [ [ [ [ [ [ [ ] ] 4 # / 1.1.8.8.8.8.1.1.6.6...I % . ] [ [ [ [ [ [ [ [ [ [ [ [ ",
"[ [ [ [ [ [ [ [ [ [ [ [ [ [ [ [ ,   A.R.2.L L =.R.R.R.L.L i.S.x.u. .L   X [ [ [ [ [ [ [ [ [ [ [ ",
"[ [ [ [ [ [ [ [ [ [ [ [ [ [ [ [ ,   j.T.2.L L X.T.Y.I.G.%.d.S.b.k. .L   X [ [ [ [ [ [ [ [ [ [ [ ",
"[ [ [ [ [ [ [ [ [ [ [ [ [ [ [ [ ,   B L L L L L L C   U S.S.S.S.S.#.L   X [ [ [ [ [ [ [ [ [ [ [ ",
"[ [ [ [ [ [ [ [ [ [ [ [ [ [ [ [ 0 - h N N N N N N V Y { H.H.H.B.N.+.L   X [ [ [ [ [ [ [ [ [ [ [ ",
"[ [ [ [ [ [ [ [ [ [ [ [ [ [ [ [ [ [ -             M U.U.U.U.U.n.u. .L   X [ [ [ [ [ [ [ [ [ [ [ ",
"[ [ [ [ [ [ [ [ [ [ [ [ [ [ [ [ [ [ w 1 X   T T T -.D.D.D.D.D.t.>.b l 1 7 [ [ [ [ [ [ [ [ [ [ [ ",
"[ [ [ [ [ [ [ [ [ [ [ [ [ [ [ [ [ [ [ [ o   g.g.g.g.g.g.g.g.g.$.L $   [ [ [ [ [ [ [ [ [ [ [ [ [ ",
"[ [ [ [ [ [ [ [ [ [ [ [ [ [ [ [ [ [ 2 : ~ ` M.M.M.M.M.f.:.W n z f 3 9 [ [ [ [ [ [ [ [ [ [ [ [ [ ",
"[ [ [ [ [ [ [ [ [ [ [ [ [ [ [ [ [ [ -   h.S.S.S.S.S.S.l.L g       i [ [ [ [ [ [ [ [ [ [ [ [ [ [ ",
"[ [ [ [ [ [ [ [ [ [ [ [ [ [ [ [ 8 * w.m.K.P.P.P.P.C.;.E % 6 u u u ' [ [ [ [ [ [ [ [ [ [ [ [ [ [ ",
"[ [ [ [ [ [ [ [ [ [ [ [ [ [ [ [ ,   s.U.U.U.U.U.U.Z.L c   2 [ [ [ [ [ [ [ [ [ [ [ [ [ [ [ [ [ [ ",
"[ [ [ [ [ [ [ [ [ [ [ [ [ [ 7 X R e.p.v.v.v.q.9.@.F + 5 p ' [ [ [ [ [ [ [ [ [ [ [ [ [ [ [ [ [ [ ",
"[ [ [ [ [ [ [ [ [ [ [ [ ] ] r O ! z.z.z.a.a.1.*.J C   - ] [ [ [ [ [ [ [ [ [ [ [ [ [ [ [ [ [ [ [ ",
"[ [ [ [ [ [ [ [ [ [ [ [ e   Q S.S.S.S.S.0.3.L G           2 [ [ [ [ [ [ [ [ [ [ [ [ [ [ [ [ [ [ ",
"[ [ [ [ [ [ [ [ [ [ ' i t j _ F.F.F.F.F.y.5.} K & & & & & < i i i i i [ [ [ [ [ [ [ [ [ [ [ [ [ ",
"[ [ [ [ [ [ [ [ [ [ p   M U.U.U.U.U.U.U.c.u.3.3.3.3.3.3.3.x           [ [ [ [ [ [ [ [ [ [ [ [ [ ",
"[ [ [ [ [ [ [ [ [ [ p   v J.J.J.J.J.J.J.b.x.7.4.&.&.&.&.&.Z d d d d d w y [ [ [ [ [ [ [ [ [ [ [ ",
"[ [ [ [ [ [ [ [ [ [ p   k g.g.g.g.g.g.g.V.S.u.r.L L L L L L L L L L L   X [ [ [ [ [ [ [ [ [ [ [ ",
"[ [ [ [ [ [ [ [ [ [ ' 1 m T T T T T T T ( ) S A l l l l l l l l l l l   X [ [ [ [ [ [ [ [ [ [ [ ",
"[ [ [ [ [ [ [ [ [ [ [ [ e                                               X [ [ [ [ [ [ [ [ [ [ [ ",
"[ [ [ [ [ [ [ [ [ [ [ [ s q q q q q q q q q q q q q q q q q q q q q q q e [ [ [ [ [ [ [ [ [ [ [ ",
"[ [ [ [ [ [ [ [ [ [ [ [ [ [ [ [ [ [ [ [ [ [ [ [ [ [ [ [ [ [ [ [ [ [ [ [ [ [ [ [ [ [ [ [ [ [ [ [ ",
"[ [ [ [ [ [ [ [ [ [ [ [ [ [ [ [ [ [ [ [ [ [ [ [ [ [ [ [ [ [ [ [ [ [ [ [ [ [ [ [ [ [ [ [ [ [ [ [ ",
"[ [ [ [ [ [ [ [ [ [ [ [ [ [ [ [ [ [ [ [ [ [ [ [ [ [ [ [ [ [ [ [ [ [ [ [ [ [ [ [ [ [ [ [ [ [ [ [ ",
"[ [ [ [ [ [ [ [ [ [ [ [ [ [ [ [ [ [ [ [ [ [ [ [ [ [ [ [ [ [ [ [ [ [ [ [ [ [ [ [ [ [ [ [ [ [ [ [ ",
"[ [ [ [ [ [ [ [ [ [ [ [ [ [ [ [ [ [ [ [ [ [ [ [ [ [ [ [ [ [ [ [ [ [ [ [ [ [ [ [ [ [ [ [ [ [ [ [ ",
"[ [ [ [ [ [ [ [ [ [ [ [ [ [ [ [ [ [ [ [ [ [ [ [ [ [ [ [ [ [ [ [ [ [ [ [ [ [ [ [ [ [ [ [ [ [ [ [ ",
"[ [ [ [ [ [ [ [ [ [ [ [ [ [ [ [ [ [ [ [ [ [ [ [ [ [ [ [ [ [ [ [ [ [ [ [ [ [ [ [ [ [ [ [ [ [ [ [ ",
"[ [ [ [ [ [ [ [ [ [ [ [ [ [ [ [ [ [ [ [ [ [ [ [ [ [ [ [ [ [ [ [ [ [ [ [ [ [ [ [ [ [ [ [ [ [ [ [ ",
"[ [ [ [ [ [ [ [ [ [ [ [ [ [ [ [ [ [ [ [ [ [ [ [ [ [ [ [ [ [ [ [ [ [ [ [ [ [ [ [ [ [ [ [ [ [ [ [ ",
"[ [ [ [ [ [ [ [ [ [ [ [ [ [ [ [ [ [ [ [ [ [ [ [ [ [ [ [ [ [ [ [ [ [ [ [ [ [ [ [ [ [ [ [ [ [ [ [ "
};
