/* XPM */
static char *result[] = {
/* columns rows colors chars-per-pixel */
"48 48 151 2 ",
"   c #2C342A",
".  c #2F352A",
"X  c #32362B",
"o  c #37392B",
"O  c #3D3B2C",
"+  c #3F3C2C",
"@  c #323831",
"#  c #363934",
"$  c #383B37",
"%  c #3C3D3B",
"&  c #3F3F3E",
"*  c #403C2C",
"=  c #433E2D",
"-  c #3F443E",
";  c #49402E",
":  c #4B412E",
">  c #4C412E",
",  c #4D422E",
"<  c #4E422E",
"1  c #4E432E",
"2  c #50432F",
"3  c #54452F",
"4  c #494134",
"5  c #4D4337",
"6  c #4F453A",
"7  c #5A4730",
"8  c #5C4830",
"9  c #5D4E3A",
"0  c #604A31",
"q  c #644C31",
"w  c #6B4F32",
"e  c #6D5032",
"r  c #6F5033",
"t  c #715133",
"y  c #755333",
"u  c #775434",
"i  c #7C5634",
"p  c #7E5735",
"a  c #494449",
"s  c #4E464E",
"d  c #53484F",
"f  c #4F544E",
"g  c #524853",
"h  c #5A4F5A",
"j  c #5C4E5D",
"k  c #5D4E5E",
"l  c #565A54",
"z  c #575856",
"x  c #595A59",
"c  c #63505A",
"v  c #615D58",
"b  c #5F605E",
"n  c #5F4F60",
"m  c #645266",
"M  c #615861",
"N  c #68546A",
"B  c #69546B",
"V  c #6B556D",
"C  c #6B5A6D",
"Z  c #6D596F",
"A  c #705872",
"S  c #715D73",
"D  c #745A77",
"F  c #765C79",
"G  c #775C7A",
"H  c #795D7C",
"J  c #7A5D7D",
"K  c #646563",
"L  c #656465",
"P  c #6F656F",
"I  c #6B6D6A",
"U  c #6E706D",
"Y  c #72716B",
"T  c #716871",
"R  c #776179",
"E  c #727272",
"W  c #747174",
"Q  c #767275",
"!  c #747474",
"~  c #805835",
"^  c #825935",
"/  c #885B36",
"(  c #7F807F",
")  c #7D6280",
"_  c #7D6580",
"`  c #7E6480",
"'  c #816783",
"]  c #836A86",
"[  c #846987",
"{  c #856D88",
"}  c #8B6C8F",
"|  c #817E81",
" . c #817F81",
".. c #827F82",
"X. c #877289",
"o. c #88708B",
"O. c #8A728C",
"+. c #8C798E",
"@. c #907094",
"#. c #907294",
"$. c #927596",
"%. c #947F96",
"&. c #848184",
"*. c #868386",
"=. c #8B888B",
"-. c #8F8C8F",
";. c #958097",
":. c #948396",
">. c #958797",
",. c #968198",
"<. c #968298",
"1. c #99849B",
"2. c #9A879C",
"3. c #9D8B9F",
"4. c #9B8E9C",
"5. c #9E8CA0",
"6. c #9F95A0",
"7. c #A08FA2",
"8. c #A18EA7",
"9. c #A190A3",
"0. c #A390A9",
"q. c #A897AE",
"w. c #A898A9",
"e. c #A998B0",
"r. c #ACA2AD",
"t. c #ACA3AD",
"y. c #ADA0AE",
"u. c #B1A6B3",
"i. c #B2A7B4",
"p. c #B0ADB0",
"a. c #B4ABB5",
"s. c #B5ABB6",
"d. c #B8AEB9",
"f. c #B8AFB9",
"g. c #B9B0BA",
"h. c #BBB2BC",
"j. c #BEB6BF",
"k. c #BFB8C0",
"l. c #C5BFC6",
"z. c #C8C1C9",
"x. c #CBC4CC",
"c. c #CDC6CE",
"v. c #CDC7CE",
"b. c #D3CDD4",
"n. c #DCD8E7",
"m. c #DDDBE8",
"M. c #DFDFEA",
"N. c #E2DEED",
"B. c #E5E4F0",
"V. c #E9E7F5",
"C. c #EEECFA",
/* pixels */
"/ / / / / / / / / / / / / / / / / / / / / / / / / / / / / / / / / / / / / / / / / / / / / / / / ",
"/ / / / / / / / / / / / / / / / / / / / / / / / / / / / / / / / / / / / / / / / / / / / / / / / ",
"/ / / / / / / / / / / / / / / / / / / / / / / / / / / / / / / / / / / / / / / / / / / / / / / / ",
"/ / / / / / / / / / / / / / / / / / / / / / / / / / / / / / / / / / / / / / / / / / / / / / / / ",
"/ / / / / / / / / / / / / / / / / / / / / / / / / / / / / / / / / / / / / / / / / / / / / / / / ",
"/ / / / / / / / / / / / / / / / / / / / / / / / / / / / / / / / / / / / / / / / / / / / / / / / ",
"/ / / / / / / / / / / / / / / / / / / / / / / / / / / / / / / / / / / / / / / / / / / / / / / / ",
"/ / / / / / / / / / / / / / / / / / / / / / / / / / / / / / / / / / / / / / / / / / / / / / / / ",
"/ / / / / / / / / / / / / / / / / / / / / / / / / / / / / / / / / / / / / / / / / / / / / / / / ",
"/ / / / / / / / / / / / / / / / / / / / / / / / / / / / / / / / / / / / / / / / / / / / / / / / ",
"/ / / / / / / / / / / / / / / / / / / / / / / / / / / / / / / / / / / / / / / / / / / / / / / / ",
"/ / / / / / / / / / / / i 7 7 7 7 7 7 7 7 7 ^ / / / / / / / / / / / / / / / / / / / / / / / / / ",
"/ / / / / / / / / / / / u                   i / / / / / / / / / / / / / / / / / / / / / / / / / ",
"/ / / / / / / / / / ^ ; 6 S S S S S S S S S 4 < / / / / / / / / / / / / / / / / / / / / / / / / ",
"/ / / / / / / / / / i   & @.@.@.@.@.@.@.@.@.$ o / / / / / / / / / / / / / / / / / / / / / / / / ",
"/ / / / / / / / / ; 6 R R @.@.@.@.@.@.@.@.@._ C = 3 / / / / / / / / / / / / / / / / / / / / / / ",
"/ / / / / / / / / X $ @.@.@.@.@.@.@.@.@.@.@.@.[   O / / / / / / / / / / / / / / / / / / / / / / ",
"/ / / / / / / * . M.n.J J J e.C.C.C.0.J y.d.3.,.G N . 1 / / / / / / / / / / / / / / / / / / / / ",
"/ / / / / / / +   m.N.H H H 8.V.B.B.q.) y.g.7.<.H V   > / / / / / / / / / / / / / / / / / / / / ",
"/ / / / / / / +   D H H H H H H g   *.g.g.g.g.u.H V   > / / / / / / / / / / / / / / / / / / / / ",
"/ / / / / / / 2 + m B B B B B B M f -.j.j.j.i.y.H V   > / / / / / / / / / / / / / / / / / / / / ",
"/ / / / / / / / / X             ( b.b.b.b.b.9.<.H V   > / / / / / / / / / / / / / / / / / / / / ",
"/ / / / / / / / / 3 1 1 =   - z =.k.k.k.k.k.;.X.j c 1 0 / / / / / / / / / / / / / / / / / / / / ",
"/ / / / / / / / / / / / u   x 6.6.6.6.6.6.6.` A   O / / / / / / / / / / / / / / / / / / / / / / ",
"/ / / / / / / / / / / / u   b r.r.r.r.r.:.+.h d 7 0 / / / / / / / / / / / / / / / / / / / / / / ",
"/ / / / / / / / / / / / u   K g.g.g.g.g.{ H # o / / / / / / / / / / / / / / / / / / / / / / / / ",
"/ / / / / / / / / / / / u   I x.x.x.x.x.o.H # o / / / / / / / / / / / / / / / / / / / / / / / / ",
"/ / / / / / / / / / / / u   U b.b.b.b.b.O.H # o / / / / / / / / / / / / / / / / / / / / / / / / ",
"/ / / / / / / / / / / / / t 9 l  .t.t.t.4.>.Z k = 3 / / / / / / / / / / / / / / / / / / / / / / ",
"/ / / / / / / / / / / / / / q   L 6.6.6.6.6.` A   O / / / / / / / / / / / / / / / / / / / / / / ",
"/ / / / / / / / / / / / / / q   E f.f.f.f.f.' A     . . . . . . . . . p / / / / / / / / / / / / ",
"/ / / / / / / / / / / / / / q   ! h.h.h.h.h.] F @ @ @ @ @ @ @ @ @ @ @ u ^ ^ ^ ^ / / / / / / / / ",
"/ / / / / / / / / / / / / / q   ( b.b.b.b.b.9.1.@.@.@.@.@.@.@.@.@.@.@.$         : / / / / / / / ",
"/ / / / / / / / / / / / / / e + Y p.l.z.c.v.w.5.$.#.} } } } } } } } } a % % % % 5 y ~ / / / / / ",
"/ / / / / / / / / / / / / / / / 7   Q 6.a.g.g.s.2.%.H H H H H H H H H H H H H H n   7 / / / / / ",
"/ / / / / / / / / / / / / / / / w 1 v W | &.&...T P j j j j j j j j j j j j j j s   7 / / / / / ",
"/ / / / / / / / / / / / / / / / / / ,                                               7 / / / / / ",
"/ / / / / / / / / / / / / / / / / / r 8 8 8 8 8 8 8 8 8 8 8 8 8 8 8 8 8 8 8 8 8 8 8 r / / / / / ",
"/ / / / / / / / / / / / / / / / / / / / / / / / / / / / / / / / / / / / / / / / / / / / / / / / ",
"/ / / / / / / / / / / / / / / / / / / / / / / / / / / / / / / / / / / / / / / / / / / / / / / / ",
"/ / / / / / / / / / / / / / / / / / / / / / / / / / / / / / / / / / / / / / / / / / / / / / / / ",
"/ / / / / / / / / / / / / / / / / / / / / / / / / / / / / / / / / / / / / / / / / / / / / / / / ",
"/ / / / / / / / / / / / / / / / / / / / / / / / / / / / / / / / / / / / / / / / / / / / / / / / ",
"/ / / / / / / / / / / / / / / / / / / / / / / / / / / / / / / / / / / / / / / / / / / / / / / / ",
"/ / / / / / / / / / / / / / / / / / / / / / / / / / / / / / / / / / / / / / / / / / / / / / / / ",
"/ / / / / / / / / / / / / / / / / / / / / / / / / / / / / / / / / / / / / / / / / / / / / / / / ",
"/ / / / / / / / / / / / / / / / / / / / / / / / / / / / / / / / / / / / / / / / / / / / / / / / ",
"/ / / / / / / / / / / / / / / / / / / / / / / / / / / / / / / / / / / / / / / / / / / / / / / / "
};
