/* XPM */
static char *result[] = {
/* columns rows colors chars-per-pixel */
"48 48 151 2 ",
"   c #2C342A",
".  c #2D342A",
"X  c #2D342B",
"o  c #37392B",
"O  c #38392B",
"+  c #3C3B2C",
"@  c #3D3B2C",
"#  c #373A31",
"$  c #373A35",
"%  c #373A36",
"&  c #383B37",
"*  c #3B3C35",
"=  c #3A3C39",
"-  c #413D2D",
";  c #413E32",
":  c #3F443E",
">  c #49402E",
",  c #51442F",
"<  c #444039",
"1  c #45413F",
"2  c #44423F",
"3  c #554637",
"4  c #584630",
"5  c #5A4730",
"6  c #604A31",
"7  c #634B31",
"8  c #644C31",
"9  c #654C31",
"0  c #694E32",
"q  c #6B4F32",
"w  c #6F5033",
"e  c #68523D",
"r  c #715133",
"t  c #735233",
"y  c #745333",
"u  c #775434",
"i  c #7B5634",
"p  c #7C5634",
"a  c #454144",
"s  c #464246",
"d  c #474E47",
"f  c #4B444B",
"g  c #4B474B",
"h  c #4E464E",
"j  c #4C4F4A",
"k  c #4C4A4C",
"l  c #4E4E4E",
"z  c #575549",
"x  c #50524F",
"c  c #584B53",
"v  c #574B58",
"b  c #5A4D5B",
"n  c #565056",
"m  c #5C585C",
"M  c #64615A",
"N  c #675469",
"B  c #6B566D",
"V  c #6F5872",
"C  c #755D78",
"Z  c #795D7C",
"A  c #795E7C",
"S  c #7A5E7D",
"D  c #666565",
"F  c #69626A",
"G  c #686768",
"H  c #6A6A69",
"J  c #6B6B69",
"K  c #6B6A6B",
"L  c #6F6E68",
"P  c #6D6B6C",
"I  c #6F716E",
"U  c #79617B",
"Y  c #757774",
"T  c #767576",
"R  c #7C797C",
"E  c #815835",
"W  c #825935",
"Q  c #875B36",
"!  c #885B36",
"~  c #7D6180",
"^  c #7E6380",
"/  c #7D6580",
"(  c #806383",
")  c #806584",
"_  c #826685",
"`  c #826985",
"'  c #836887",
"]  c #856E87",
"[  c #87688A",
"{  c #856D88",
"}  c #827E82",
"|  c #867388",
" . c #88708B",
".. c #89728C",
"X. c #8A728C",
"o. c #8B738F",
"O. c #8D778F",
"+. c #8D798F",
"@. c #8D6D91",
"#. c #8D7191",
"$. c #907094",
"%. c #907295",
"&. c #947997",
"*. c #947799",
"=. c #967999",
"-. c #967D98",
";. c #8D898D",
":. c #958097",
">. c #9A879C",
",. c #9A859F",
"<. c #909090",
"1. c #9B989B",
"2. c #9F9D9F",
"3. c #9D81A2",
"4. c #9E8AA0",
"5. c #9F95A0",
"6. c #A08FA2",
"7. c #A494A5",
"8. c #A596A7",
"9. c #A298A3",
"0. c #A399A4",
"q. c #A697A8",
"w. c #A899A9",
"e. c #A99BAA",
"r. c #A99FAA",
"t. c #AB9EAD",
"y. c #A99EAE",
"u. c #AFA5B0",
"i. c #AFA9B7",
"p. c #B1A6B2",
"a. c #B1A8B2",
"s. c #B2A9B3",
"d. c #B6ADB7",
"f. c #B7AFB7",
"g. c #B2A3B9",
"h. c #B7AFB8",
"j. c #B3B5BB",
"k. c #B9B0BA",
"l. c #BDB4BE",
"z. c #BDBAC5",
"x. c #C1B9C2",
"c. c #C3BAC4",
"v. c #C3BCC4",
"b. c #C6BDC7",
"n. c #C8C1C9",
"m. c #C9C1CA",
"M. c #CBC2D5",
"N. c #CECFD8",
"B. c #D0C9D1",
"V. c #D3CDD4",
"C. c #F1F0FD",
/* pixels */
"! ! ! ! ! ! ! ! ! ! ! ! ! ! ! ! ! ! ! ! ! ! ! ! ! ! ! ! ! ! ! ! ! ! ! ! ! ! ! ! ! ! ! ! ! ! ! ! ",
"! ! ! ! ! ! ! ! ! ! ! ! ! ! ! ! ! ! ! ! ! ! ! ! ! ! ! ! ! ! ! ! ! ! ! ! ! ! ! ! ! ! ! ! ! ! ! ! ",
"! ! ! ! ! ! ! ! ! ! ! ! ! ! ! ! ! ! ! ! ! ! ! ! ! ! ! ! ! ! ! ! ! ! ! ! ! ! ! ! ! ! ! ! ! ! ! ! ",
"! ! ! ! ! ! ! ! ! ! ! ! ! ! ! ! ! ! ! ! ! ! ! ! ! ! ! ! ! ! ! ! ! ! ! ! ! ! ! ! ! ! ! ! ! ! ! ! ",
"! ! ! ! ! ! ! ! ! ! ! ! ! ! ! ! ! ! ! ! ! ! ! ! ! ! ! ! ! ! ! ! ! ! ! ! ! ! ! ! ! ! ! ! ! ! ! ! ",
"! ! ! ! ! ! ! ! ! ! ! ! ! ! ! ! ! ! ! ! ! ! ! ! ! ! ! ! ! ! ! ! ! ! ! ! ! ! ! ! ! ! ! ! ! ! ! ! ",
"! ! ! ! ! ! ! ! ! ! ! ! ! ! ! ! ! ! ! ! ! ! ! ! ! ! ! ! ! ! ! ! ! ! ! ! ! ! ! ! ! ! ! ! ! ! ! ! ",
"! ! ! ! ! ! ! ! ! ! ! ! ! ! ! ! ! ! ! ! ! ! ! ! ! ! ! ! ! ! ! ! ! ! ! ! ! ! ! ! ! ! ! ! ! ! ! ! ",
"! ! ! ! ! ! ! ! ! ! ! ! ! ! ! ! ! ! ! ! ! ! ! ! ! ! ! ! ! ! ! ! ! ! ! ! ! ! ! ! ! ! ! ! ! ! ! ! ",
"! ! ! ! ! ! ! ! ! ! ! ! ! ! ! ! ! ! ! ! ! ! ! ! ! ! ! ! ! ! ! ! ! ! ! ! ! ! ! ! ! ! ! ! ! ! ! ! ",
"! ! ! ! ! ! ! ! ! ! ! ! ! ! ! ! ! ! ! ! ! ! ! ! ! ! ! ! ! ! ! ! ! ! ! ! ! ! ! ! ! ! ! ! ! ! ! ! ",
"! ! ! ! ! ! ! ! W > > > > > > > > > p ! ! ! ! ! ! ! ! ! ! ! ! ! ! ! ! ! ! ! ! ! ! ! ! ! ! ! ! ! ",
"! ! ! ! ! ! ! ! p                   u ! ! ! ! ! ! ! ! ! ! ! ! ! ! ! ! ! ! ! ! ! ! ! ! ! ! ! ! ! ",
"! ! ! ! ! ! ! O < ' ' ' ' ' ' ' C V * O Q ! ! ! ! ! ! ! ! ! ! ! ! ! ! ! ! ! ! ! ! ! ! ! ! ! ! ! ",
"! ! ! ! ! ! !   & $.$.$.$.$.$.$.( Z =   Q ! ! ! ! ! ! ! ! ! ! ! ! ! ! ! ! ! ! ! ! ! ! ! ! ! ! ! ",
"! ! ! ! ! +   $.$.$.$.$.$.$.$.$.$.$.~ Z X o ! ! ! ! ! ! ! ! ! ! ! ! ! ! ! ! ! ! ! ! ! ! ! ! ! ! ",
"! ! ! i i z d @.@.@.*.3.3.3.%.@.=.=._ ^ % # i E ! ! ! ! ! ! ! ! ! ! ! ! ! ! ! ! ! ! ! ! ! ! ! ! ",
"! ! ! >   N.C.Z Z Z ,.C.C.C.g.Z 8.k.6.>.Z V   - ! ! ! ! ! ! ! ! ! ! ! ! ! ! ! ! ! ! ! ! ! ! ! ! ",
"! ! ! >   i.M.Z Z Z o.M.z.j.y.O.e.k.w.7.Z V   - ! ! ! ! ! ! ! ! ! ! ! ! ! ! ! ! ! ! ! ! ! ! ! ! ",
"! ! ! >   B Z Z Z Z Z Z v   T k.k.k.k.k.S V   - ! ! ! ! ! ! ! ! ! ! ! ! ! ! ! ! ! ! ! ! ! ! ! ! ",
"! ! ! 8 , c b b b b b b F I 1.v.v.v.s.u.S V   - ! ! ! ! ! ! ! ! ! ! ! ! ! ! ! ! ! ! ! ! ! ! ! ! ",
"! ! ! ! ! +             Y V.V.V.V.V.r.5.A V   - ! ! ! ! ! ! ! ! ! ! ! ! ! ! ! ! ! ! ! ! ! ! ! ! ",
"! ! ! ! ! 9 6 6 5   : P } d.d.d.d.d.9.5.A V   - ! ! ! ! ! ! ! ! ! ! ! ! ! ! ! ! ! ! ! ! ! ! ! ! ",
"! ! ! ! ! ! ! ! p   j 5.5.5.5.5.5.5.5.5.A V   - ! ! ! ! ! ! ! ! ! ! ! ! ! ! ! ! ! ! ! ! ! ! ! ! ",
"! ! ! ! ! ! ! ! W q e x R a.a.a.a.a.+.] a 1 q t ! ! ! ! ! ! ! ! ! ! ! ! ! ! ! ! ! ! ! ! ! ! ! ! ",
"! ! ! ! ! ! ! ! ! ! w   H k.k.k.k.k.{ Z X o ! ! ! ! ! ! ! ! ! ! ! ! ! ! ! ! ! ! ! ! ! ! ! ! ! ! ",
"! ! ! ! ! ! ! ! ! ! w   Y B.B.B.B.B. .Z X o ! ! ! ! ! ! ! ! ! ! ! ! ! ! ! ! ! ! ! ! ! ! ! ! ! ! ",
"! ! ! ! ! ! ! ! ! ! w   Y V.V.V.V.V.X.Z X o ! ! ! ! ! ! ! ! ! ! ! ! ! ! ! ! ! ! ! ! ! ! ! ! ! ! ",
"! ! ! ! ! ! ! ! ! ! ! ! 6   G 5.5.5.5.5.A V   - ! ! ! ! ! ! ! ! ! ! ! ! ! ! ! ! ! ! ! ! ! ! ! ! ",
"! ! ! ! ! ! ! ! ! ! ! ! 6   K 0.0.0.0.0.` U $ ; i i i i i i i i i i i i E ! ! ! ! ! ! ! ! ! ! ! ",
"! ! ! ! ! ! ! ! ! ! ! ! 6   T k.k.k.k.k.k.p.Z N                         @ ! ! ! ! ! ! ! ! ! ! ! ",
"! ! ! ! ! ! ! ! ! ! ! ! r > M ;.f.x.x.x.x.l.:.| l k g g g g g g g g g g 2 q q q q q W ! ! ! ! ! ",
"! ! ! ! ! ! ! ! ! ! ! ! ! ! 4   2.V.V.V.V.V.V.b.>.-.$.$.$.$.$.$.$.$.$.$./           0 ! ! ! ! ! ",
"! ! ! ! ! ! ! ! ! ! ! ! ! ! q , L <.<.<.n.m.m.c.q.4.&.#.[ [ [ [ [ [ [ [ ) f f f f f 3 7 E ! ! ! ",
"! ! ! ! ! ! ! ! ! ! ! ! ! ! ! ! >       h.k.k.k.k.t.>...Z Z Z Z Z Z Z Z Z Z Z Z Z Z s   u ! ! ! ",
"! ! ! ! ! ! ! ! ! ! ! ! ! ! ! ! r 6 6 6 J H H H H D m n h h h h h h h h h h h h h h =   u ! ! ! ",
"! ! ! ! ! ! ! ! ! ! ! ! ! ! ! ! ! ! ! ! .                                               u ! ! ! ",
"! ! ! ! ! ! ! ! ! ! ! ! ! ! ! ! ! ! ! ! y y y y y y y y y y y y y y y y y y y y y y y y W ! ! ! ",
"! ! ! ! ! ! ! ! ! ! ! ! ! ! ! ! ! ! ! ! ! ! ! ! ! ! ! ! ! ! ! ! ! ! ! ! ! ! ! ! ! ! ! ! ! ! ! ! ",
"! ! ! ! ! ! ! ! ! ! ! ! ! ! ! ! ! ! ! ! ! ! ! ! ! ! ! ! ! ! ! ! ! ! ! ! ! ! ! ! ! ! ! ! ! ! ! ! ",
"! ! ! ! ! ! ! ! ! ! ! ! ! ! ! ! ! ! ! ! ! ! ! ! ! ! ! ! ! ! ! ! ! ! ! ! ! ! ! ! ! ! ! ! ! ! ! ! ",
"! ! ! ! ! ! ! ! ! ! ! ! ! ! ! ! ! ! ! ! ! ! ! ! ! ! ! ! ! ! ! ! ! ! ! ! ! ! ! ! ! ! ! ! ! ! ! ! ",
"! ! ! ! ! ! ! ! ! ! ! ! ! ! ! ! ! ! ! ! ! ! ! ! ! ! ! ! ! ! ! ! ! ! ! ! ! ! ! ! ! ! ! ! ! ! ! ! ",
"! ! ! ! ! ! ! ! ! ! ! ! ! ! ! ! ! ! ! ! ! ! ! ! ! ! ! ! ! ! ! ! ! ! ! ! ! ! ! ! ! ! ! ! ! ! ! ! ",
"! ! ! ! ! ! ! ! ! ! ! ! ! ! ! ! ! ! ! ! ! ! ! ! ! ! ! ! ! ! ! ! ! ! ! ! ! ! ! ! ! ! ! ! ! ! ! ! ",
"! ! ! ! ! ! ! ! ! ! ! ! ! ! ! ! ! ! ! ! ! ! ! ! ! ! ! ! ! ! ! ! ! ! ! ! ! ! ! ! ! ! ! ! ! ! ! ! ",
"! ! ! ! ! ! ! ! ! ! ! ! ! ! ! ! ! ! ! ! ! ! ! ! ! ! ! ! ! ! ! ! ! ! ! ! ! ! ! ! ! ! ! ! ! ! ! ! ",
"! ! ! ! ! ! ! ! ! ! ! ! ! ! ! ! ! ! ! ! ! ! ! ! ! ! ! ! ! ! ! ! ! ! ! ! ! ! ! ! ! ! ! ! ! ! ! ! "
};
