/* XPM */
static char *result[] = {
/* columns rows colors chars-per-pixel */
"48 48 155 2 ",
"   c #2C342A",
".  c #2E352A",
"X  c #32362B",
"o  c #36382B",
"O  c #3D3B2C",
"+  c #323831",
"@  c #363934",
"#  c #393B37",
"$  c #3A3C39",
"%  c #3B3C3A",
"&  c #3F3E3E",
"*  c #433E2D",
"=  c #3A4039",
"-  c #3E433C",
";  c #3F403E",
":  c #3F453E",
">  c #49402E",
",  c #4C422E",
"<  c #54452F",
"1  c #41443F",
"2  c #41473F",
"3  c #5A4730",
"4  c #5E4930",
"5  c #604A31",
"6  c #624B31",
"7  c #654C31",
"8  c #674D32",
"9  c #684D32",
"0  c #6A4E32",
"q  c #6E5032",
"w  c #6E5033",
"e  c #6D5037",
"r  c #6F5137",
"t  c #6D533A",
"y  c #6C543C",
"u  c #715133",
"i  c #745233",
"p  c #765334",
"a  c #775434",
"s  c #785434",
"d  c #7A5534",
"f  c #7C5634",
"g  c #7C573A",
"h  c #424041",
"j  c #424640",
"k  c #454A43",
"l  c #464B45",
"z  c #4E464E",
"x  c #4F474F",
"c  c #4C4F4B",
"v  c #4E494E",
"b  c #574840",
"n  c #5B4B42",
"m  c #524853",
"M  c #514A52",
"N  c #544E55",
"B  c #574F57",
"V  c #594C58",
"C  c #584E58",
"Z  c #5C4E5D",
"A  c #5E4F5F",
"S  c #535752",
"D  c #5E525F",
"F  c #605545",
"G  c #655866",
"H  c #6A566C",
"J  c #6F5872",
"K  c #715973",
"L  c #715D73",
"P  c #795D7C",
"I  c #646966",
"U  c #676A66",
"Y  c #78767B",
"T  c #7E7D7E",
"R  c #825935",
"E  c #845935",
"W  c #865A36",
"Q  c #885B36",
"!  c #7D6280",
"~  c #7D6580",
"^  c #7F6582",
"/  c #806783",
"(  c #816484",
")  c #816784",
"_  c #836686",
"`  c #816884",
"'  c #836887",
"]  c #836A86",
"[  c #826F86",
"{  c #856D88",
"}  c #896B8D",
"|  c #807B80",
" . c #89728C",
".. c #8A758C",
"X. c #8E7A90",
"o. c #8F7994",
"O. c #907094",
"+. c #907494",
"@. c #927495",
"#. c #937796",
"$. c #967F99",
"%. c #987E9B",
"&. c #878887",
"*. c #8D868D",
"=. c #8D8A92",
"-. c #938195",
";. c #958197",
":. c #9C829F",
">. c #9A879C",
",. c #9B869E",
"<. c #8E9293",
"1. c #989698",
"2. c #9D939D",
"3. c #9F8DA0",
"4. c #9E8BA4",
"5. c #9F95A0",
"6. c #9B9EA1",
"7. c #A08FA2",
"8. c #A68DAC",
"9. c #A091A2",
"0. c #A493A6",
"q. c #A596A7",
"w. c #A798A9",
"e. c #A899A9",
"r. c #A899AA",
"t. c #A89EA9",
"y. c #AC9CAD",
"u. c #AC94B2",
"i. c #AAA1AB",
"p. c #ACA3AD",
"a. c #ADA1AF",
"s. c #AEA2AF",
"d. c #B3A6B4",
"f. c #B1A8B2",
"g. c #B1A9B2",
"h. c #B0ADB0",
"j. c #B4ABB5",
"k. c #B5AAB6",
"l. c #B8ADB9",
"z. c #B8AFB9",
"x. c #B4B0B4",
"c. c #B9B0BA",
"v. c #B9B1BA",
"b. c #BBB2BC",
"n. c #BAADC2",
"m. c #BCB0C5",
"M. c #C2BAC3",
"N. c #C6BEC7",
"B. c #C7C0C8",
"V. c #C9C2CA",
"C. c #CFCAD0",
"Z. c #CFC7D9",
"A. c #D3CDD4",
"S. c #EEEDFA",
"D. c #F1F0FD",
/* pixels */
"Q Q Q Q Q Q Q Q Q Q Q Q Q Q Q Q Q Q Q Q Q Q Q Q Q Q Q Q Q Q Q Q Q Q Q Q Q Q Q Q Q Q Q Q Q Q Q Q ",
"Q Q Q Q Q Q Q Q Q Q Q Q Q Q Q Q Q Q Q Q Q Q Q Q Q Q Q Q Q Q Q Q Q Q Q Q Q Q Q Q Q Q Q Q Q Q Q Q ",
"Q Q Q Q Q Q Q Q Q Q Q Q Q Q Q Q Q Q Q Q Q Q Q Q Q Q Q Q Q Q Q Q Q Q Q Q Q Q Q Q Q Q Q Q Q Q Q Q ",
"Q Q Q Q Q Q Q Q Q Q Q Q Q Q Q Q Q Q Q Q Q Q Q Q Q Q Q Q Q Q Q Q Q Q Q Q Q Q Q Q Q Q Q Q Q Q Q Q ",
"Q Q Q Q Q Q Q Q Q Q Q Q Q Q Q Q Q Q Q Q Q Q Q Q Q Q Q Q Q Q Q Q Q Q Q Q Q Q Q Q Q Q Q Q Q Q Q Q ",
"Q Q Q Q Q Q Q Q Q Q Q Q Q Q Q Q Q Q Q Q Q Q Q Q Q Q Q Q Q Q Q Q Q Q Q Q Q Q Q Q Q Q Q Q Q Q Q Q ",
"Q Q Q Q Q Q Q Q Q Q Q Q Q Q Q Q Q Q Q Q Q Q Q Q Q Q Q Q Q Q Q Q Q Q Q Q Q Q Q Q Q Q Q Q Q Q Q Q ",
"Q Q Q Q Q Q Q Q Q Q Q Q Q Q Q Q Q Q Q Q Q Q Q Q Q Q Q Q Q Q Q Q Q Q Q Q Q Q Q Q Q Q Q Q Q Q Q Q ",
"Q Q Q Q Q Q Q Q Q Q Q Q Q Q Q Q Q Q Q Q Q Q Q Q Q Q Q Q Q Q Q Q Q Q Q Q Q Q Q Q Q Q Q Q Q Q Q Q ",
"Q Q Q Q Q Q Q Q Q Q Q Q Q Q Q Q Q Q Q Q Q Q Q Q Q Q Q Q Q Q Q Q Q Q Q Q Q Q Q Q Q Q Q Q Q Q Q Q ",
"Q Q Q Q Q Q Q Q Q Q Q Q Q Q Q Q Q Q Q Q Q Q Q Q Q Q Q Q Q Q Q Q Q Q Q Q Q Q Q Q Q Q Q Q Q Q Q Q ",
"Q Q Q Q Q Q Q Q Q Q Q Q Q Q Q Q Q Q Q Q Q Q Q Q Q Q 7 * * * * * * * * < Q Q Q Q Q Q Q Q Q Q Q Q ",
"Q Q Q Q Q Q Q Q Q Q Q Q Q Q Q Q Q Q Q Q Q Q Q Q Q Q 5                 O Q Q Q Q Q Q Q Q Q Q Q Q ",
"Q Q Q Q Q Q Q Q Q Q Q Q Q Q Q Q Q Q Q Q Q Q Q Q p   C O.O.O.O.O.O.O.O.~   > Q Q Q Q Q Q Q Q Q Q ",
"Q Q Q Q Q Q Q Q Q Q Q Q Q Q Q Q Q Q Q Q Q Q R R g + C O.O.O.O.O.O.O.O.' + * R Q Q Q Q Q Q Q Q Q ",
"Q Q Q Q Q Q Q Q Q Q Q Q Q Q Q Q Q Q Q Q Q Q f   ; O.O.O.O.O.O.O.O.O.O.O.O.L   3 Q Q Q Q Q Q Q Q ",
"Q Q Q Q Q Q Q Q Q Q Q Q Q Q Q Q Q Q Q Q Q q e h v #.%.:.+.} 8.u.u.u.} } } [ I F q E Q Q Q Q Q Q ",
"Q Q Q Q Q Q Q Q Q Q Q Q Q Q Q Q Q Q Q Q Q X @ P ^ >.e.c.;.P Z.D.D.S.P P P 4.D.<.  8 Q Q Q Q Q Q ",
"Q Q Q Q Q Q Q Q Q Q Q Q Q Q Q Q Q Q Q Q Q X @ P ] e.a.c.q.;.=.6.m.n.P P P o.m.Y   8 Q Q Q Q Q Q ",
"Q Q Q Q Q Q Q Q Q Q Q Q Q Q Q Q Q Q Q Q Q X @ P { c.c.c.c.c.S   J P P P P P P m   8 Q Q Q Q Q Q ",
"Q Q Q Q Q Q Q Q Q Q Q Q Q Q Q Q Q Q Q Q Q X @ P ` r.l.B.B.B.1.&.N x x x x x x b 4 d Q Q Q Q Q Q ",
"Q Q Q Q Q Q Q Q Q Q Q Q Q Q Q Q Q Q Q Q Q X @ P ^ >.d.A.A.A.A.A.2             3 Q Q Q Q Q Q Q Q ",
"Q Q Q Q Q Q Q Q Q Q Q Q Q Q Q Q Q Q Q Q Q i 7 & z ) -.p.p.p.p.p.*.|   O u u u f Q Q Q Q Q Q Q Q ",
"Q Q Q Q Q Q Q Q Q Q Q Q Q Q Q Q Q Q Q Q Q Q f   % P ..5.5.5.5.5.5.2.  O Q Q Q Q Q Q Q Q Q Q Q Q ",
"Q Q Q Q Q Q Q Q Q Q Q Q Q Q Q Q Q Q Q Q Q Q Q a 7 $ Z / 9.j.j.j.j.f.  O Q Q Q Q Q Q Q Q Q Q Q Q ",
"Q Q Q Q Q Q Q Q Q Q Q Q Q Q Q Q Q Q Q Q Q Q Q Q p   z P 3.b.b.b.b.z.  O Q Q Q Q Q Q Q Q Q Q Q Q ",
"Q Q Q Q Q Q Q Q Q Q Q Q Q Q Q Q Q Q Q Q Q Q Q Q p   z P y.A.A.A.A.C.  O Q Q Q Q Q Q Q Q Q Q Q Q ",
"Q Q Q Q Q Q Q Q Q Q Q Q Q Q Q Q Q Q Q Q Q Q R a r $ B / w.V.V.V.x.h.O > Q Q Q Q Q Q Q Q Q Q Q Q ",
"Q Q Q Q Q Q Q Q Q Q Q Q Q Q Q Q Q Q Q Q Q Q f   % P ..5.5.5.5.5.= . Q Q Q Q Q Q Q Q Q Q Q Q Q Q ",
"Q Q Q Q Q Q Q Q Q Q Q Q Q s 9 9 9 9 9 9 9 9 6   % P X.t.t.t.t.t.= . Q Q Q Q Q Q Q Q Q Q Q Q Q Q ",
"Q Q Q Q Q Q Q Q Q Q Q Q Q 7                     % P ;.c.c.c.c.c.- . Q Q Q Q Q Q Q Q Q Q Q Q Q Q ",
"Q Q Q Q Q Q Q Q 6 3 3 3 3 n D D D D D D D D D D G  .0.N.N.N.N.N.: . Q Q Q Q Q Q Q Q Q Q Q Q Q Q ",
"Q Q Q Q Q Q Q Q o         M O.O.O.O.O.O.O.O.O.O.@.>.d.A.A.A.A.A.2 . Q Q Q Q Q Q Q Q Q Q Q Q Q Q ",
"Q Q Q Q Q Q 4 , V A A A A H ( ( ( ( ( ( ( ( _ $.,.s.k.M.v.g.T U y 0 Q Q Q Q Q Q Q Q Q Q Q Q Q Q ",
"Q Q Q Q Q Q >   K P P P P P P P P P P P P P ! >.7.c.c.c.i.5.c   f Q Q Q Q Q Q Q Q Q Q Q Q Q Q Q ",
"Q Q Q Q Q Q >   # $ $ $ $ $ $ $ $ $ $ $ $ $ $ 1 1 l l l k j t a R Q Q Q Q Q Q Q Q Q Q Q Q Q Q Q ",
"Q Q Q Q Q Q >                                               w Q Q Q Q Q Q Q Q Q Q Q Q Q Q Q Q Q ",
"Q Q Q Q Q Q Q W W W W W W W W W W W W W W W W W W W W W W W W Q Q Q Q Q Q Q Q Q Q Q Q Q Q Q Q Q ",
"Q Q Q Q Q Q Q Q Q Q Q Q Q Q Q Q Q Q Q Q Q Q Q Q Q Q Q Q Q Q Q Q Q Q Q Q Q Q Q Q Q Q Q Q Q Q Q Q ",
"Q Q Q Q Q Q Q Q Q Q Q Q Q Q Q Q Q Q Q Q Q Q Q Q Q Q Q Q Q Q Q Q Q Q Q Q Q Q Q Q Q Q Q Q Q Q Q Q ",
"Q Q Q Q Q Q Q Q Q Q Q Q Q Q Q Q Q Q Q Q Q Q Q Q Q Q Q Q Q Q Q Q Q Q Q Q Q Q Q Q Q Q Q Q Q Q Q Q ",
"Q Q Q Q Q Q Q Q Q Q Q Q Q Q Q Q Q Q Q Q Q Q Q Q Q Q Q Q Q Q Q Q Q Q Q Q Q Q Q Q Q Q Q Q Q Q Q Q ",
"Q Q Q Q Q Q Q Q Q Q Q Q Q Q Q Q Q Q Q Q Q Q Q Q Q Q Q Q Q Q Q Q Q Q Q Q Q Q Q Q Q Q Q Q Q Q Q Q ",
"Q Q Q Q Q Q Q Q Q Q Q Q Q Q Q Q Q Q Q Q Q Q Q Q Q Q Q Q Q Q Q Q Q Q Q Q Q Q Q Q Q Q Q Q Q Q Q Q ",
"Q Q Q Q Q Q Q Q Q Q Q Q Q Q Q Q Q Q Q Q Q Q Q Q Q Q Q Q Q Q Q Q Q Q Q Q Q Q Q Q Q Q Q Q Q Q Q Q ",
"Q Q Q Q Q Q Q Q Q Q Q Q Q Q Q Q Q Q Q Q Q Q Q Q Q Q Q Q Q Q Q Q Q Q Q Q Q Q Q Q Q Q Q Q Q Q Q Q ",
"Q Q Q Q Q Q Q Q Q Q Q Q Q Q Q Q Q Q Q Q Q Q Q Q Q Q Q Q Q Q Q Q Q Q Q Q Q Q Q Q Q Q Q Q Q Q Q Q ",
"Q Q Q Q Q Q Q Q Q Q Q Q Q Q Q Q Q Q Q Q Q Q Q Q Q Q Q Q Q Q Q Q Q Q Q Q Q Q Q Q Q Q Q Q Q Q Q Q "
};
