/* XPM */
static char *result[] = {
/* columns rows colors chars-per-pixel */
"48 48 209 2 ",
"   c #2C342A",
".  c #2D352A",
"X  c #2D352B",
"o  c #2E362C",
"O  c #2F362C",
"+  c #2F362D",
"@  c #30362E",
"#  c #31372F",
"$  c #35382B",
"%  c #35392F",
"&  c #393A2C",
"*  c #3A3A2C",
"=  c #3C3B2C",
"-  c #3D3B2C",
";  c #333832",
":  c #353934",
">  c #363B34",
",  c #373A36",
"<  c #373D35",
"1  c #383B36",
"2  c #3A3B38",
"3  c #3D3D3C",
"4  c #3D3E3C",
"5  c #403D2D",
"6  c #413D2D",
"7  c #403F3F",
"8  c #48402E",
"9  c #4B412E",
"0  c #52442F",
"q  c #55452F",
"w  c #56462F",
"e  c #594730",
"r  c #5E4930",
"t  c #504439",
"y  c #50463C",
"u  c #594C3A",
"i  c #604A31",
"p  c #614B31",
"a  c #654C31",
"s  c #664C31",
"d  c #664D32",
"f  c #684D32",
"g  c #694E32",
"h  c #6B4F32",
"j  c #6D4F32",
"k  c #6F5133",
"l  c #705133",
"z  c #725133",
"x  c #735233",
"c  c #745233",
"v  c #745333",
"b  c #705134",
"n  c #765334",
"m  c #765434",
"M  c #785434",
"N  c #795434",
"B  c #7A5534",
"V  c #7B5534",
"C  c #7C5634",
"Z  c #7D5635",
"A  c #7D5735",
"S  c #7F5735",
"D  c #7E5739",
"F  c #434042",
"G  c #444143",
"H  c #424640",
"J  c #444643",
"K  c #464246",
"L  c #474446",
"P  c #4D4441",
"I  c #454944",
"U  c #4C454C",
"Y  c #4C454D",
"T  c #4F474F",
"R  c #4B4F49",
"E  c #574E40",
"W  c #4D534C",
"Q  c #504751",
"!  c #564A57",
"~  c #554D55",
"^  c #584A50",
"/  c #5C4C52",
"(  c #584E58",
")  c #5B5E5A",
"_  c #5E585F",
"`  c #6A5C4C",
"'  c #70695E",
"]  c #5F4F60",
"[  c #625063",
"{  c #625163",
"}  c #645266",
"|  c #69556C",
" . c #6A556C",
".. c #735D76",
"X. c #785C7B",
"o. c #795D7C",
"O. c #676666",
"+. c #666B68",
"@. c #6C6C6B",
"#. c #79627C",
"$. c #7D627F",
"%. c #7C647F",
"&. c gray44",
"*. c #747374",
"=. c #7C777C",
"-. c #7B7B7A",
";. c #825835",
":. c #835935",
">. c #845935",
",. c #865A36",
"<. c #885B36",
"1. c #7C6080",
"2. c #7D6280",
"3. c #7E6481",
"4. c #7F6481",
"5. c #806783",
"6. c #806384",
"7. c #816384",
"8. c #826585",
"9. c #806684",
"0. c #836586",
"q. c #826884",
"w. c #836985",
"e. c #806A84",
"r. c #846887",
"t. c #866789",
"y. c #856F88",
"u. c #876E8B",
"i. c #896A8D",
"p. c #8A6C8D",
"a. c #886F8C",
"s. c #8B6D8E",
"d. c #8B6C8F",
"f. c #817C81",
"g. c #8B718E",
"h. c #8E6E92",
"j. c #8E6F92",
"k. c #907094",
"l. c #907394",
"z. c #927396",
"x. c #937796",
"c. c #907C92",
"v. c #927995",
"b. c #947997",
"n. c #937E96",
"m. c #967D99",
"M. c #947E99",
"N. c #977F99",
"B. c #828281",
"V. c #878187",
"C. c #8B838F",
"Z. c #8C878C",
"A. c #8D8C8C",
"S. c #968398",
"D. c #99849B",
"F. c #99869B",
"G. c #9C839F",
"H. c #9A879C",
"J. c #9A889C",
"K. c #9A899C",
"L. c #9B899D",
"P. c #9B8A9D",
"I. c #9D8B9F",
"U. c #9A9296",
"Y. c #99909A",
"T. c #99949A",
"R. c #9D919F",
"E. c #989B9D",
"W. c #9B80A0",
"Q. c #9F95A0",
"!. c #9C96A1",
"~. c #A494A6",
"^. c #A09EA0",
"/. c #A798A9",
"(. c #A89AAA",
"). c #A89EA9",
"_. c #AA9CAB",
"`. c #AC9EAD",
"'. c #AC9EAE",
"]. c #AC96B3",
"[. c #A9A5A9",
"{. c #ACA3AD",
"}. c #AEA1AF",
"|. c #AEA2AF",
" X c #ACA4AC",
".X c #ADAAAD",
"XX c #B0A7B1",
"oX c #B1A4B2",
"OX c #B1A8B2",
"+X c #B3A8B5",
"@X c #B5ABB6",
"#X c #B6ADB7",
"$X c #B3A9BA",
"%X c #B7ADB8",
"&X c #B8AFB9",
"*X c #B5B7BD",
"=X c #B9B0BA",
"-X c #BBADC2",
";X c #BBADC3",
":X c #C1B6C2",
">X c #C4BBC5",
",X c #C4BDC5",
"<X c #C6BBC8",
"1X c #C8C0C9",
"2X c #C8C1C9",
"3X c #C9C2CA",
"4X c #D2CCD3",
"5X c #D3CDD4",
"6X c #F1F0FD",
/* pixels */
"<.<.<.<.<.<.<.<.<.<.<.<.<.<.<.<.<.<.<.<.<.<.<.<.<.<.<.<.<.<.<.<.<.<.<.<.<.<.<.<.<.<.<.<.<.<.<.<.",
"<.<.<.<.<.<.<.<.<.<.<.<.<.<.<.<.<.<.<.<.<.<.<.<.<.<.<.<.<.<.<.<.<.<.<.<.<.<.<.<.<.<.<.<.<.<.<.<.",
"<.<.<.<.<.<.<.<.<.<.<.<.<.<.<.<.<.<.<.<.<.<.<.<.<.<.<.<.<.<.<.<.<.<.<.<.<.<.<.<.<.<.<.<.<.<.<.<.",
"<.<.<.<.<.<.<.<.<.<.<.<.<.<.<.<.<.<.<.<.<.<.<.<.<.<.<.<.<.<.<.<.<.<.<.<.<.<.<.<.<.<.<.<.<.<.<.<.",
"<.<.<.<.<.<.<.<.<.<.<.<.<.<.<.<.<.<.<.<.<.<.<.<.<.<.<.<.<.<.<.<.<.<.<.<.<.<.<.<.<.<.<.<.<.<.<.<.",
"<.<.<.<.<.<.<.<.<.<.<.<.<.<.<.<.<.<.<.<.<.<.<.<.<.<.<.<.<.<.<.<.<.<.<.<.<.<.<.<.<.<.<.<.<.<.<.<.",
"<.<.<.<.<.<.<.<.<.<.<.<.<.<.<.<.<.<.<.<.<.<.<.<.<.<.<.<.<.<.<.<.<.<.<.<.<.<.<.<.<.<.<.<.<.<.<.<.",
"<.<.<.<.<.<.<.<.<.<.<.<.<.<.<.<.<.<.<.<.<.<.<.<.<.<.<.<.<.<.<.<.<.<.<.<.<.<.<.<.<.<.<.<.<.<.<.<.",
"<.<.<.<.<.<.<.<.<.<.<.<.<.<.<.<.<.<.<.<.<.<.<.<.<.<.<.<.<.<.<.<.<.<.<.<.<.<.<.<.<.<.<.<.<.<.<.<.",
"<.<.<.<.<.<.<.<.<.<.<.<.<.<.<.<.<.<.<.<.<.<.<.<.<.<.<.<.<.<.<.<.<.<.<.<.<.<.<.<.<.<.<.<.<.<.<.<.",
"<.<.<.<.<.<.<.<.<.<.<.<.<.<.<.<.<.<.<.<.<.<.<.<.<.<.<.<.<.<.<.<.<.<.<.<.<.<.<.<.<.<.<.<.<.<.<.<.",
"<.<.<.<.<.<.<.<.<.<.<.<.<.<.<.<.<.<.<.,.5 = = = = = = = = v <.<.<.<.<.<.<.<.<.<.<.<.<.<.<.<.<.<.",
"<.<.<.<.<.<.<.<.<.<.<.<.<.<.<.<.<.<.>.;.% # # # # # # @ @ s >.<.<.<.<.<.<.<.<.<.<.<.<.<.<.<.<.<.",
"<.<.<.<.<.<.<.<.<.<.<.<.<.<.<.<.<.<.6 O p.j.j.j.j.j.j.8.X.G . S <.<.<.<.<.<.<.<.<.<.<.<.<.<.<.<.",
"<.<.<.<.<.<.<.<.<.<.<.<.<.<.<.<.B B y 4 s.k.k.k.k.k.k.t.1.Q , k B <.<.<.<.<.<.<.<.<.<.<.<.<.<.<.",
"<.<.<.<.<.<.<.<.<.<.<.<.<.<.<.<.8   #.k.k.k.k.k.k.k.k.k.k.6.o.:   >.<.<.<.<.<.<.<.<.<.<.<.<.<.<.",
"<.<.<.<.<.<.<.<.<.<.<.<.<.<.N j ' +.e.i.i.l.].].].W.i.x.G.g.w.U F g z <.<.<.<.<.<.<.<.<.<.<.<.<.",
"<.<.<.<.<.<.<.<.<.<.<.<.<.<.e   *X6XM.o.o.u.6X6X6X;Xo.P.=X~.H.2.o.+ * <.<.<.<.<.<.<.<.<.<.<.<.<.",
"<.<.<.<.<.<.<.<.<.<.<.<.<.<.e   C.-Xa.o.o.9.-X$XE.!.S._.=X|.(.3.o.+ * <.<.<.<.<.<.<.<.<.<.<.<.<.",
"<.<.<.<.<.<.<.<.<.<.<.<.<.<.e   [ o.o.o.o.o.o.|   @.=X=X=X=X=X5.o.+ * <.<.<.<.<.<.<.<.<.<.<.<.<.",
"<.<.<.<.<.<.<.<.<.<.<.<.<.<.n p P Y Y Y Y Y Y _ A.^.2X2X2XoX/.4.o.+ * <.<.<.<.<.<.<.<.<.<.<.<.<.",
"<.<.<.<.<.<.<.<.<.<.<.<.<.<.<.<.8             W 5X5X5X5X5X'.H.2.o.+ * <.<.<.<.<.<.<.<.<.<.<.<.<.",
"<.<.<.<.<.<.<.<.<.<.<.<.<.<.<.<.V l & X =.f.f.V.{.{.{.{.{.c.q.L 7 b x <.<.<.<.<.<.<.<.<.<.<.<.<.",
"<.<.<.<.<.<.<.<.<.<.<.<.<.<.<.<.<.<.6 o Y.Q.Q.Q.Q.Q.Q.Q.Q.y.o.:   >.<.<.<.<.<.<.<.<.<.<.<.<.<.<.",
"<.<.<.<.<.<.<.<.<.<.<.<.<.<.<.<.9 $ U. X#X%X%X%X%XJ.$.~ < > ; D S ,.<.<.<.<.<.<.<.<.<.<.<.<.<.<.",
"<.<.<.<.<.<.<.<.<.<.<.<.<.<.<.<.8   T.=X=X=X=X=X&XL.X.T . . . Z <.<.<.<.<.<.<.<.<.<.<.<.<.<.<.<.",
"<.<.<.<.<.<.<.<.<.<.<.<.<.<.<.<.8   .X5X5X5X5X:Xo.!   r <.<.<.<.<.<.<.<.<.<.<.<.<.<.<.<.<.<.<.<.",
"<.<.<.<.<.<.<.<.<.<.<.<.<.<.A m E H [.3X3X1X<X+X .^ - d <.<.<.<.<.<.<.<.<.<.<.<.<.<.<.<.<.<.<.<.",
"<.<.<.<.<.<.<.<.<.<.<.<.<.<.e   =.Q.Q.Q.Q.R.k.%.  w <.<.<.<.<.<.<.<.<.<.<.<.<.<.<.<.<.<.<.<.<.<.",
"<.<.<.<.<.<.<.<.<.<.<.<.M g ` ) Z.).).).K.F.k.r.K t g g g g g <.<.<.<.<.<.<.<.<.<.<.<.<.<.<.<.<.",
"<.<.<.<.<.<.<.<.<.<.<.<.f   *.=X=X=X=X&Xz.k.k.d.o.!           Z <.<.<.<.<.<.<.<.<.<.<.<.<.<.<.<.",
"<.<.<.<.<.<.<.<.<.<.<.<.f   -.,X,X,X,X>Xm.b.k.h.0...( ( ( ( ( q i i i i h <.<.<.<.<.<.<.<.<.<.<.",
"<.<.<.<.<.<.<.<.<.<.<.<.f   B.5X5X5X5X4XI.D.k.k.k.k.k.k.k.k.k.1         8 <.<.<.<.<.<.<.<.<.<.<.",
"<.<.<.<.<.<.<.<.<.<.<.<.f   &.OXOXOXOXXX}.`.N.v.7.7.7.7.7.7.7.} ] ] ] ] / 9 a <.<.<.<.<.<.<.<.<.",
"<.<.<.<.<.<.<.<.<.<.<.<.f   O.Q.Q.Q.Q.Q.&X@XH.n.o.o.o.o.o.o.o.o.o.o.o.o.{   0 <.<.<.<.<.<.<.<.<.",
"<.<.<.<.<.<.<.<.<.<.<.<.>.c u I I I I I R R J J 3 3 3 3 3 3 3 3 3 3 3 3 2   0 <.<.<.<.<.<.<.<.<.",
"<.<.<.<.<.<.<.<.<.<.<.<.<.<.e                                               0 <.<.<.<.<.<.<.<.<.",
"<.<.<.<.<.<.<.<.<.<.<.<.<.<.:.C C C C C C C C C C C C C C C C C C C C C C C C <.<.<.<.<.<.<.<.<.",
"<.<.<.<.<.<.<.<.<.<.<.<.<.<.<.<.<.<.<.<.<.<.<.<.<.<.<.<.<.<.<.<.<.<.<.<.<.<.<.<.<.<.<.<.<.<.<.<.",
"<.<.<.<.<.<.<.<.<.<.<.<.<.<.<.<.<.<.<.<.<.<.<.<.<.<.<.<.<.<.<.<.<.<.<.<.<.<.<.<.<.<.<.<.<.<.<.<.",
"<.<.<.<.<.<.<.<.<.<.<.<.<.<.<.<.<.<.<.<.<.<.<.<.<.<.<.<.<.<.<.<.<.<.<.<.<.<.<.<.<.<.<.<.<.<.<.<.",
"<.<.<.<.<.<.<.<.<.<.<.<.<.<.<.<.<.<.<.<.<.<.<.<.<.<.<.<.<.<.<.<.<.<.<.<.<.<.<.<.<.<.<.<.<.<.<.<.",
"<.<.<.<.<.<.<.<.<.<.<.<.<.<.<.<.<.<.<.<.<.<.<.<.<.<.<.<.<.<.<.<.<.<.<.<.<.<.<.<.<.<.<.<.<.<.<.<.",
"<.<.<.<.<.<.<.<.<.<.<.<.<.<.<.<.<.<.<.<.<.<.<.<.<.<.<.<.<.<.<.<.<.<.<.<.<.<.<.<.<.<.<.<.<.<.<.<.",
"<.<.<.<.<.<.<.<.<.<.<.<.<.<.<.<.<.<.<.<.<.<.<.<.<.<.<.<.<.<.<.<.<.<.<.<.<.<.<.<.<.<.<.<.<.<.<.<.",
"<.<.<.<.<.<.<.<.<.<.<.<.<.<.<.<.<.<.<.<.<.<.<.<.<.<.<.<.<.<.<.<.<.<.<.<.<.<.<.<.<.<.<.<.<.<.<.<.",
"<.<.<.<.<.<.<.<.<.<.<.<.<.<.<.<.<.<.<.<.<.<.<.<.<.<.<.<.<.<.<.<.<.<.<.<.<.<.<.<.<.<.<.<.<.<.<.<.",
"<.<.<.<.<.<.<.<.<.<.<.<.<.<.<.<.<.<.<.<.<.<.<.<.<.<.<.<.<.<.<.<.<.<.<.<.<.<.<.<.<.<.<.<.<.<.<.<."
};
