/* XPM */
static char *result[] = {
/* columns rows colors chars-per-pixel */
"48 48 169 2 ",
"   c #2C342A",
".  c #2E352C",
"X  c #32362B",
"o  c #33372B",
"O  c #31372F",
"+  c #37392B",
"@  c #30382F",
"#  c #323730",
"$  c #353B33",
"%  c #353C33",
"&  c #363934",
"*  c #373E35",
"=  c #3A3C39",
"-  c #3F3E3E",
";  c #3E3F3E",
":  c #3F3F3E",
">  c #433E2D",
",  c #443E2D",
"<  c #403E3A",
"1  c #394037",
"2  c #49402E",
"3  c #4E432E",
"4  c #54452F",
"5  c #56462F",
"6  c #4F443C",
"7  c #574630",
"8  c #5B4A34",
"9  c #51453C",
"0  c #5B4A3C",
"q  c #604A31",
"w  c #614B33",
"e  c #654C31",
"r  c #664D31",
"t  c #654D36",
"y  c #6A4E32",
"u  c #6F5033",
"i  c #715133",
"p  c #775434",
"a  c #795534",
"s  c #7A5534",
"d  c #7B5634",
"f  c #7C5634",
"g  c #434740",
"h  c #454244",
"j  c #454944",
"k  c #494348",
"l  c #494349",
"z  c #4E464E",
"x  c #5C4A42",
"c  c #51494C",
"v  c #50544F",
"b  c #524853",
"n  c #574D51",
"m  c #554A55",
"M  c #554B55",
"N  c #564F56",
"B  c #584B54",
"V  c #574B58",
"C  c #584C59",
"Z  c #5E4E59",
"A  c #525450",
"S  c #545453",
"D  c #575856",
"F  c #665D51",
"G  c #5D635F",
"H  c #60645F",
"J  c #615062",
"K  c #625463",
"L  c #655266",
"P  c #665367",
"I  c #645666",
"U  c #635D63",
"Y  c #6E5A70",
"T  c #6F5872",
"R  c #795D7C",
"E  c #7A5E7D",
"W  c #616260",
"Q  c #626262",
"!  c #656465",
"~  c #676A66",
"^  c #696569",
"/  c #6A686A",
"(  c #6B6D6A",
")  c #6D6C6C",
"_  c #726174",
"`  c #766078",
"'  c #776179",
"]  c #727272",
"[  c #815835",
"{  c #825935",
"}  c #845936",
"|  c #865A36",
" . c #885B36",
".. c #7D6080",
"X. c #7D6180",
"o. c #7F6582",
"O. c #806383",
"+. c #816784",
"@. c #846787",
"#. c #836887",
"$. c #826F84",
"%. c #87698B",
"&. c #856D88",
"*. c #8B6C8E",
"=. c #8B6E8F",
"-. c #877289",
";. c #89728B",
":. c #8A728C",
">. c #8A738D",
",. c #8C758E",
"<. c #8D778F",
"1. c #8D6E91",
"2. c #8F6F92",
"3. c #8F6F93",
"4. c #8F7093",
"5. c #8F7A92",
"6. c #907094",
"7. c #917194",
"8. c #917195",
"9. c #927396",
"0. c #927495",
"q. c #937796",
"w. c #947997",
"e. c #957799",
"r. c #848184",
"t. c #958696",
"y. c #968D97",
"u. c #978499",
"i. c #99829C",
"p. c #9A839D",
"a. c #9A869C",
"s. c #9A879C",
"d. c #9D8C9F",
"f. c #9E939F",
"g. c #9E979F",
"h. c #9F95A0",
"j. c #A08FA2",
"k. c #A38DA5",
"l. c #A097A1",
"z. c #A197A2",
"x. c #A494A5",
"c. c #A596A7",
"v. c #A399A4",
"b. c #A793A9",
"n. c #AD9DB4",
"m. c #ADA1AF",
"M. c #ADA4AE",
"N. c #AFA3B1",
"B. c #AFA6B0",
"V. c #B0A4B1",
"C. c #B1A5B2",
"Z. c #B4A7B6",
"A. c #B0A9B1",
"S. c #B4B1B5",
"D. c #B9B0BA",
"F. c #BAB3BB",
"G. c #BEB5BF",
"H. c #BCB0C5",
"J. c #C0B8C1",
"K. c #C1B9C2",
"L. c #C4BAC5",
"P. c #C4B9CD",
"I. c #CCC6CD",
"U. c #CBC2D5",
"Y. c #CCCDD5",
"T. c #D3CDD4",
"R. c #D1CFDB",
"E. c #DAD4E5",
"W. c #F1F0FD",
/* pixels */
" . . . . . . . . . . . . . . . . . . . . . . . . . . . . . . . . . . . . . . . . . . . . . . . .",
" . . . . . . . . . . . . . . . . . . . . . . . . . . . . . . . . . . . . . . . . . . . . . . . .",
" . . . . . . . . . . . . . . . . . . . . . . . . . . . . . . . . . . . . . . . . . . . . . . . .",
" . . . . . . . . . . . . . . . . . . . . . . . . . . . . . . . . . . . . . . . . . . . . . . . .",
" . . . . . . . . . . . . . . . . . . . . . . . . . . . . . . . . . . . . . . . . . . . . . . . .",
" . . . . . . . . . . . . . . . . . . . . . . . . . . . . . . . . . . . . . . . . . . . . . . . .",
" . . . . . . . . . . . . . . . . . . . . . . . . . . . . . . . . . . . . . . . . . . . . . . . .",
" . . . . . . . . . . . . . . . . . . . . . . . . . . . . . . . . . . . . . . . . . . . . . . . .",
" . . . . . . . . . . . . . . . . . . . . . . . . . . . . . . . . . . . . . . . . . . . . . . . .",
" . . . . . . . . . . . . . . . . . . . . . . . . . . . . . . . . . . . . . . . . . . . . . . . .",
" . . . . . . . . . . . . . . . . . . . . . . . . . . . . . . . . . . . . . . . . . . . . . . . .",
" . . . . . . . . . . . . . . . . . . .q 4 4 4 4 4 4 4 4 i  . . . . . . . . . . . . . . . . . . .",
" . . . . . . . . . . . . . . . . . . .,                 5  . . . . . . . . . . . . . . . . . . .",
" . . . . . . . . . . . . . . . . .q > Z P ` ' ' ' ' ' ' n > i  . . . . . . . . . . . . . . . . .",
" . . . . . . . . . . . . . . . . .4   L R 1.6.6.6.6.6.6.K   e  . . . . . . . . . . . . . . . . .",
" . . . . . . . . . . . . . . .q + B T @.1.2.6.6.6.6.6.6.3.#.c + p  . . . . . . . . . . . . . . .",
" . . . . . . . . . . . . .| | w . C E *.8.4.4.9.9.9.4.4.4.4.N @ u |  . . . . . . . . . . . . . .",
" . . . . . . . . . . . . .y   z R ,.s.C.D.+.R W.W.W.U.R R R P.W.G   [  . . . . . . . . . . . . .",
" . . . . . . . . . . . . .y   z R 5.j.C.D.<.&.Y.R.E.H.R R R n.E.G   [  . . . . . . . . . . . . .",
" . . . . . . . . . . . . .y   z R d.D.D.D.D.D.  = R R R R R R R -   [  . . . . . . . . . . . . .",
" . . . . . . . . . . . . .y   z R u.N.G.K.K.K.H v J J J J J J J 9 2 [  . . . . . . . . . . . . .",
" . . . . . . . . . . . . .y   z R ,.s.L.T.T.T.T.S.              i  . . . . . . . . . . . . . . .",
" . . . . . . . . . . . . .a 7 6 m _ >.m.F.F.F.F.A.Q Q Q j   2 7 s  . . . . . . . . . . . . . . .",
" . . . . . . . . . . . . . . .q   V R t.h.h.h.h.h.h.h.h./   e  . . . . . . . . . . . . . . . . .",
" . . . . . . . . . . . . . . .f e x l S D $.-.B.B.B.B.B.g.r.F 3 p  . . . . . . . . . . . . . . .",
" . . . . . . . . . . . . . . . . .4       T R D.D.D.D.D.D.D.W   i  . . . . . . . . . . . . . . .",
" . . . . . . . . . . . . . . . . .f i i i < - ;.a.I.I.I.I.I.~   i  . . . . . . . . . . . . . . .",
" . . . . . . . . . . . . . . . . . . . . .+   R :.T.T.T.T.T.(   i  . . . . . . . . . . . . . . .",
" . . . . . . . . . . . . . . . . . . . . .| [ # h e.p.v.v.v.l.y.g o }  . . . . . . . . . . . . .",
" . . . . . . . . . . . . . . . . .{ { { { { { O ; 6.w.f.z.z.z.z.A % d {  . . . . . . . . . . . .",
" . . . . . . . . . . . . . . . . .4           R ..6.6.6.k.D.D.D.D.D.* X  . . . . . . . . . . . .",
" . . . . . . . . . . .{ p p p p p 0 : : : : : X.O.6.7.0.b.G.G.G.G.G.* X  . . . . . . . . . . . .",
" . . . . . . . . . . .f           I 6.6.6.6.6.6.6.6.q.s.Z.T.T.T.T.T.1 X  . . . . . . . . . . . .",
" . . . . . . . . . .r t k k k k k Y %.%.%.%.%.%.=.w.i.c.V.J.J.J.J.J.1 X  . . . . . . . . . . . .",
" . . . . . . . . . .  & R R R R R R R R R R R R o.s.x.D.M.h.h.h.h.h.$ X  . . . . . . . . . . . .",
" . . . . . . . . . .  O b b b b b b b b b b b b M U ^ ] ) ! ! ! ! ! 8 q  . . . . . . . . . . . .",
" . . . . . . . . . .                                                [  . . . . . . . . . . . . .",
" . . . . . . . . . .e e e e e e e e e e e e e e e e e e e e e e e e }  . . . . . . . . . . . . .",
" . . . . . . . . . . . . . . . . . . . . . . . . . . . . . . . . . . . . . . . . . . . . . . . .",
" . . . . . . . . . . . . . . . . . . . . . . . . . . . . . . . . . . . . . . . . . . . . . . . .",
" . . . . . . . . . . . . . . . . . . . . . . . . . . . . . . . . . . . . . . . . . . . . . . . .",
" . . . . . . . . . . . . . . . . . . . . . . . . . . . . . . . . . . . . . . . . . . . . . . . .",
" . . . . . . . . . . . . . . . . . . . . . . . . . . . . . . . . . . . . . . . . . . . . . . . .",
" . . . . . . . . . . . . . . . . . . . . . . . . . . . . . . . . . . . . . . . . . . . . . . . .",
" . . . . . . . . . . . . . . . . . . . . . . . . . . . . . . . . . . . . . . . . . . . . . . . .",
" . . . . . . . . . . . . . . . . . . . . . . . . . . . . . . . . . . . . . . . . . . . . . . . .",
" . . . . . . . . . . . . . . . . . . . . . . . . . . . . . . . . . . . . . . . . . . . . . . . .",
" . . . . . . . . . . . . . . . . . . . . . . . . . . . . . . . . . . . . . . . . . . . . . . . ."
};
