/* XPM */
static char *result[] = {
/* columns rows colors chars-per-pixel */
"48 48 184 2 ",
"   c #2C342A",
".  c #2E352C",
"X  c #2E362C",
"o  c #2F372D",
"O  c #30362A",
"+  c #32362B",
"@  c #36382B",
"#  c #37392B",
"$  c #3D3B2C",
"%  c #363930",
"&  c #373930",
"*  c #363934",
"=  c #383D36",
"-  c #3D3C35",
";  c #3A3C39",
":  c #3C3C3B",
">  c #3C3D3B",
",  c #3D3D3C",
"<  c #3F3F3E",
"1  c #413D2D",
"2  c #433E2D",
"3  c #453E2D",
"4  c #3A4039",
"5  c #3C423A",
"6  c #3E433C",
"7  c #49402E",
"8  c #4A412E",
"9  c #4B412E",
"0  c #4E432E",
"q  c #55452F",
"w  c #414135",
"e  c #464034",
"r  c #43413E",
"t  c #484138",
"y  c #5A4730",
"u  c #5B4830",
"i  c #604A31",
"p  c #644C31",
"a  c #654C31",
"s  c #664D31",
"d  c #674D32",
"f  c #6B4F32",
"g  c #6D5032",
"h  c #6E5033",
"j  c #6F5033",
"k  c #715133",
"l  c #745333",
"z  c #755333",
"x  c #755334",
"c  c #775434",
"v  c #7B5534",
"b  c #7C5634",
"n  c #7D5635",
"m  c #444144",
"M  c #424841",
"N  c #4E464E",
"B  c #4D484D",
"V  c #504641",
"C  c #574841",
"Z  c #504846",
"A  c #514851",
"S  c #524850",
"D  c #574B58",
"F  c #594E5A",
"G  c #5C4E5D",
"H  c #5B5750",
"J  c #565A54",
"K  c #5A5C55",
"L  c #5B5B5A",
"P  c #67565E",
"I  c #5F625D",
"U  c #5F4F61",
"Y  c #665367",
"T  c #645666",
"R  c #6F5C71",
"E  c #705872",
"W  c #715D73",
"Q  c #735A75",
"!  c #745A77",
"~  c #795D7C",
"^  c #7C5F7F",
"/  c #666366",
"(  c #6A6A69",
")  c #7A627D",
"_  c #7B607E",
"`  c #7C627F",
"'  c #7B657D",
"]  c #767A79",
"[  c #805735",
"{  c #805835",
"}  c #825935",
"|  c #855A36",
" . c #865A36",
".. c #885B36",
"X. c #837D76",
"o. c #7E6181",
"O. c #7D6580",
"+. c #7E6480",
"@. c #7F6682",
"#. c #7D7481",
"$. c #806383",
"%. c #806684",
"&. c #816784",
"*. c #836586",
"=. c #846C87",
"-. c #856788",
";. c #866889",
":. c #87698B",
">. c #876E8A",
",. c #876F8A",
"<. c #896A8C",
"1. c #886F8C",
"2. c #837285",
"3. c #8C798E",
"4. c #8C6D90",
"5. c #8C7090",
"6. c #8D7491",
"7. c #8F7994",
"8. c #907094",
"9. c #917694",
"0. c #917D93",
"q. c #947B97",
"w. c #967D98",
"e. c #89838A",
"r. c #918392",
"t. c #958197",
"y. c #938F96",
"u. c #958E95",
"i. c #978099",
"p. c #99849B",
"a. c #9A879C",
"s. c #988F99",
"d. c #988C9D",
"f. c #9B8C9D",
"g. c #9D8C9F",
"h. c #8D9192",
"j. c #9A919B",
"k. c #9C909D",
"l. c #9C919E",
"z. c #9F999F",
"x. c #9F95A0",
"c. c #A48FA7",
"v. c #A28BA8",
"b. c #A191A3",
"n. c #A197A2",
"m. c #A596A7",
"M. c #A098A1",
"N. c #A298A3",
"B. c #A49BA5",
"V. c #A59BA6",
"C. c #A59CA6",
"Z. c #A694AC",
"A. c #A899A9",
"S. c #A99BAA",
"D. c #AB9EAD",
"F. c #AC9CAD",
"G. c #AAA1AB",
"H. c #ACA2AD",
"J. c #ADA4AE",
"K. c #ADA9AE",
"L. c #AFACAF",
"P. c #AFA0B0",
"I. c #AFA6B0",
"U. c #B1A6B2",
"Y. c #B1A8B2",
"T. c #B3AFB3",
"R. c #B4A9B5",
"E. c #B5ABB6",
"W. c #BAAABC",
"Q. c #AFB1B7",
"!. c #B4B0B4",
"~. c #B8B2B9",
"^. c #B9B0BA",
"/. c #BEB3BF",
"(. c #BFB7C0",
"). c #BCB0C5",
"_. c #BFB8C0",
"`. c #C0AFC8",
"'. c #C5BBC6",
"]. c #CBC4CC",
"[. c #CCC7CD",
"{. c #CDC7CE",
"}. c #D3CDD4",
"|. c #F1F0FD",
/* pixels */
"................................................................................................",
"................................................................................................",
"................................................................................................",
"................................................................................................",
"................................................................................................",
"................................................................................................",
"................................................................................................",
"................................................................................................",
"................................................................................................",
"................................................................................................",
"................................................................................................",
".............................. .O                 x ............................................",
"............................c z r < < < < < < > ; p c ..........................................",
"............................$ . 4.8.8.8.8.8.8.*.~ :   b ........................................",
"........................k f Z B 4.8.8.8.8.8.8.:.$.A m i h ......................................",
"........................9   O.8.8.8.8.8.8.8.8.8.8.o.~ * + ......................................",
"....................k u X.h.6.-.-.5.`.`.`.v.-.q.c.0.3.F S u s ..................................",
"....................y   Q.|.7.~ ~ 1.|.|.|.).~ g.^.B.x.+.!   2 ..................................",
"....................y   #.Z.%.~ ~ %.Z.d.] y.b.U.^.Y.I.@.!   2 ..................................",
"....................y   U ~ ~ ~ ~ ~ ~ Y   ( ^.^.^.^.^.&.!   2 ..................................",
"....................[ l e , , , , , , / L.T.{.{.{.H.V.@.!   2 ..................................",
"........................9             J }.}.}.}.}.G.x.+.!   2 ..................................",
"..........................} } { O 4 s.s.N.N.N.N.N.=._ = & } } ..................................",
".............................. .O 5 n.n.n.n.n.l.k.' Q - @ ......................................",
".............................. .O 6 ^.^.^.^.^.t.~ :   b ........................................",
"............................c j K I (.(.(.R.S.2.Y t 2 b ........................................",
"............................$ o [.}.}.}.}.F.~ N   x ............................................",
"........................g a H L ~._._./.W.r.G V 0 v ............................................",
"........................9   e.x.x.x.x.f.8.T   i ................................................",
"........................9   u.J.J.J.J.m.8.` D C q q q q q q q q d ..............................",
"........................9   z.^.^.^.^.P.8.;.~ N                 8 ..............................",
"........................9   K.].].].]./.i.9.<.) W W W W W W W W P 7 7 7 7 7 } ..................",
"........................9   !.}.}.}.}.'.a.w.8.8.8.8.8.8.8.8.8.8.R           b ..................",
"........................| n w M M.C.C.H.E.A.p.>.^ ^ ^ ^ ^ ^ ^ ^ ^ E E E E E % # ................",
"............................$ X j.x.x.C.^.D.a.,.~ ~ ~ ~ ~ ~ ~ ~ ~ ~ ~ ~ ~ ~ *   ................",
".............................. .O                                               ................",
".............................. .3 1 1 1 1 1 1 1 1 1 1 1 1 1 1 1 1 1 1 1 1 1 1 1 ................",
"................................................................................................",
"................................................................................................",
"................................................................................................",
"................................................................................................",
"................................................................................................",
"................................................................................................",
"................................................................................................",
"................................................................................................",
"................................................................................................",
"................................................................................................",
"................................................................................................"
};
