/* XPM */
static char *result[] = {
/* columns rows colors chars-per-pixel */
"48 48 167 2 ",
"   c #2C342A",
".  c #32362B",
"X  c #31372F",
"o  c #3A3A2C",
"O  c #3B3A2C",
"+  c #3D3B2C",
"@  c #353934",
"#  c #363935",
"$  c #363A35",
"%  c #383E36",
"&  c #3A3C39",
"*  c #413D2D",
"=  c #433F35",
"-  c #443F35",
";  c #3A4039",
":  c #3D443C",
">  c #49402E",
",  c #4E432E",
"<  c #4F432F",
"1  c #50432F",
"2  c #52442F",
"3  c #484137",
"4  c #424338",
"5  c #49473A",
"6  c #594730",
"7  c #5A4730",
"8  c #5A4932",
"9  c #5D4930",
"0  c #604A31",
"q  c #624B31",
"w  c #654C31",
"e  c #674D32",
"r  c #6A4E32",
"t  c #6B4F32",
"y  c #6B4F37",
"u  c #6D5032",
"i  c #6F5033",
"p  c #715133",
"a  c #775434",
"s  c #7C5634",
"d  c #7D5634",
"f  c #7E5735",
"g  c #444144",
"h  c #454344",
"j  c #474347",
"k  c #434A43",
"l  c #494C47",
"z  c #4B454C",
"x  c #4E464E",
"c  c #5B4B41",
"v  c #564A4F",
"b  c #4E514C",
"n  c #4F534E",
"m  c #504950",
"M  c #524853",
"N  c #524B52",
"B  c #5D4D57",
"V  c #584D59",
"C  c #5C4D5D",
"Z  c #5C4E5D",
"A  c #565156",
"S  c #5C515D",
"D  c #5D515D",
"F  c #5C585C",
"G  c gray37",
"H  c #605D60",
"J  c #6B556D",
"K  c #6C566E",
"L  c #6D576F",
"P  c #68586A",
"I  c #6D596F",
"U  c #725B74",
"Y  c #745A77",
"T  c #775D7A",
"R  c #795D7C",
"E  c #636362",
"W  c #656465",
"Q  c #6A6A69",
"!  c #6B6D6A",
"~  c #6C6E6B",
"^  c #7B7A7B",
"/  c #805835",
"(  c #815835",
")  c #825935",
"_  c #835935",
"`  c #865A36",
"'  c #885B36",
"]  c #7F6282",
"[  c #7D6480",
"{  c #7D6580",
"}  c #7E6581",
"|  c #806383",
" . c #816784",
".. c #836586",
"X. c #836A86",
"o. c #87688A",
"O. c #876B8A",
"+. c #856D88",
"@. c #8A6C8D",
"#. c #8B6D8E",
"$. c #867189",
"%. c #89728B",
"&. c #8D778F",
"*. c #8C798E",
"=. c #8C6D90",
"-. c #8D6E91",
";. c #8F6F92",
":. c #8F7994",
">. c #907094",
",. c #917395",
"<. c #927696",
"1. c #947997",
"2. c #947A97",
"3. c #947698",
"4. c #957798",
"5. c #947699",
"6. c #9B7FA0",
"7. c #858185",
"8. c #8F8E8E",
"9. c #928194",
"0. c #938195",
"q. c #97829C",
"w. c #9A879C",
"e. c #988F99",
"r. c #9C8A9F",
"t. c #9E8D9F",
"y. c #919091",
"u. c #9B929C",
"i. c #9D87A0",
"p. c #9D90A2",
"a. c #9F95A0",
"s. c #A08EA2",
"d. c #A596A7",
"f. c #A298A3",
"g. c #A299A3",
"h. c #A59CA6",
"j. c #A69DA7",
"k. c #A798A8",
"l. c #A79EA8",
"z. c #A899A9",
"x. c #A99BAA",
"c. c #A99FAA",
"v. c #AA98AC",
"b. c #AC9EAE",
"n. c #AF9FB1",
"m. c #AD9DB4",
"M. c #A4A0A5",
"N. c #AFA6B0",
"B. c #B0A6B1",
"V. c #B3A8B4",
"C. c #B3AAB4",
"Z. c #B4B0B4",
"A. c #B9B0BA",
"S. c #B9B1BA",
"D. c #BEB3BF",
"F. c #BEB6BF",
"G. c #BCB8BD",
"H. c #BAB5C2",
"J. c #BFB7C0",
"K. c #C3BBC4",
"L. c #C0C1C8",
"P. c #CEC8CF",
"I. c #CEC9D8",
"U. c #D3CDD4",
"Y. c #D3CBDD",
"T. c #D0D1DA",
"R. c #F1F0FD",
/* pixels */
"' ' ' ' ' ' ' ' ' ' ' ' ' ' ' ' ' ' ' ' ' ' ' ' ' ' ' ' ' ' ' ' ' ' ' ' ' ' ' ' ' ' ' ' ' ' ' ' ",
"' ' ' ' ' ' ' ' ' ' ' ' ' ' ' ' ' ' ' ' ' ' ' ' ' ' ' ' ' ' ' ' ' ' ' ' ' ' ' ' ' ' ' ' ' ' ' ' ",
"' ' ' ' ' ' ' ' ' ' ' ' ' ' ' ' ' ' ' ' ' ' ' ' ' ' ' ' ' ' ' ' ' ' ' ' ' ' ' ' ' ' ' ' ' ' ' ' ",
"' ' ' ' ' ' ' ' ' ' ' ' ' ' ' ' ' ' ' ' ' ' ' ' ' ' ' ' ' ' ' ' ' ' ' ' ' ' ' ' ' ' ' ' ' ' ' ' ",
"' ' ' ' ' ' ' ' ' ' ' ' ' ' ' ' ' ' ' ' ' ' ' ' ' ' ' ' ' ' ' ' ' ' ' ' ' ' ' ' ' ' ' ' ' ' ' ' ",
"' ' ' ' ' ' ' ' ' ' ' ' ' ' ' ' ' ' ' ' ' ' ' ' ' ' ' ' ' ' ' ' ' ' ' ' ' ' ' ' ' ' ' ' ' ' ' ' ",
"' ' ' ' ' ' ' ' ' ' ' ' ' ' ' ' ' ' ' ' ' ' ' ' ' ' ' ' ' ' ' ' ' ' ' ' ' ' ' ' ' ' ' ' ' ' ' ' ",
"' ' ' ' ' ' ' ' ' ' ' ' ' ' ' ' ' ' ' ' ' ' ' ' ' ' ' ' ' ' ' ' ' ' ' ' ' ' ' ' ' ' ' ' ' ' ' ' ",
"' ' ' ' ' ' ' ' ' ' ' ' ' ' ' ' ' ' ' ' ' ' ' ' ' ' ' ' ' ' ' ' ' ' ' ' ' ' ' ' ' ' ' ' ' ' ' ' ",
"' ' ' ' ' ' ' ' ' ' ' ' ' ' ' ' ' ' ' ' ' ' ' ' ' ' ' ' ' ' ' ' ' ' ' ' ' ' ' ' ' ' ' ' ' ' ' ' ",
"' ' ' ' ' ' ' ' ' ' ' ' ' ' ' ' ' ' ' ' ' ' ' ' ' ' ' ' ' ' ' ' ' ' ' ' ' ' ' ' ' ' ' ' ' ' ' ' ",
"' ' ' ' ' ' ' ' ' ' ' ' ' ' ' ' ' ' ' ' ' ' ( , , , , , , , , , / ' ' ' ' ' ' ' ' ' ' ' ' ' ' ' ",
"' ' ' ' ' ' ' ' ' ' ' ' ' ' ' ' ' ' ' ' ' ' s                   f ' ' ' ' ' ' ' ' ' ' ' ' ' ' ' ",
"' ' ' ' ' ' ' ' ' ' ' ' ' ' ' ' ' ' ' ' ' + 3 J U { { { { { { { - + ' ' ' ' ' ' ' ' ' ' ' ' ' ' ",
"' ' ' ' ' ' ' ' ' ' ' ' ' ' ' ' ' ' ' ' '   # R | >.>.>.>.>.>.>.$   ' ' ' ' ' ' ' ' ' ' ' ' ' ' ",
"' ' ' ' ' ' ' ' ' ' ' ' ' ' ' ' ' ' ' o . Y T ;.;.>.>.>.>.>.>.>.=.@.. * ' ' ' ' ' ' ' ' ' ' ' ' ",
"' ' ' ' ' ' ' ' ' ' ' ' ' ' ' ' ' d d = @ [  .4.,.-.5.6.6.6.-.-.-.-.k 4 d _ ' ' ' ' ' ' ' ' ' ' ",
"' ' ' ' ' ' ' ' ' ' ' ' ' ' ' ' ' >   L R a.g.A.d.R m.R.R.R.q.R R R R.T.  > ' ' ' ' ' ' ' ' ' ' ",
"' ' ' ' ' ' ' ' ' ' ' ' ' ' ' ' ' >   L R h.l.A.x.%.p.L.I.Y.:.R R R Y.H.  > ' ' ' ' ' ' ' ' ' ' ",
"' ' ' ' ' ' ' ' ' ' ' ' ' ' ' ' ' >   L R A.A.A.A.A.^   Z R R R R R R K   > ' ' ' ' ' ' ' ' ' ' ",
"' ' ' ' ' ' ' ' ' ' ' ' ' ' ' ' ' >   L R N.C.K.K.K.M.~ A C C C C C C B < 0 ' ' ' ' ' ' ' ' ' ' ",
"' ' ' ' ' ' ' ' ' ' ' ' ' ' ' ' ' >   L R a.j.U.U.U.U.U.!             O ' ' ' ' ' ' ' ' ' ' ' ' ",
"' ' ' ' ' ' ' ' ' ' ' ' ' ' ' ' ' t 7 v M *.9.S.S.S.S.S.7.W ;   2 7 7 q ' ' ' ' ' ' ' ' ' ' ' ' ",
"' ' ' ' ' ' ' ' ' ' ' ' ' ' ' ' ' ' ' o   R } a.a.a.a.a.a.a.l   f ' ' ' ' ' ' ' ' ' ' ' ' ' ' ' ",
"' ' ' ' ' ' ' ' ' ' ' ' ' ' ' ' ' ' ' u e j m $.0.B.B.B.B.B.b   f ' ' ' ' ' ' ' ' ' ' ' ' ' ' ' ",
"' ' ' ' ' ' ' ' ' ' ' ' ' ' ' ' ' ' ' ' '   # R &.A.A.A.A.A.n   f ' ' ' ' ' ' ' ' ' ' ' ' ' ' ' ",
"' ' ' ' ' ' ' ' ' ' ' ' ' ' ' ' ' ' ' ' ' a r & M +.b.P.P.P.G.Z.5 + ' ' ' ' ' ' ' ' ' ' ' ' ' ' ",
"' ' ' ' ' ' ' ' ' ' ' ' ' ' ' ' ' ' ' ' ' ' s   g R s.U.U.U.U.U.:   ' ' ' ' ' ' ' ' ' ' ' ' ' ' ",
"' ' ' ' ' ' ' ' ' ' ' ' ' ' ' ' ' ' ' ' ' ' ' ) w X D 3.t.f.f.f.u.e.. * ' ' ' ' ' ' ' ' ' ' ' ' ",
"' ' ' ' ' ' ' ' ' ' ' ' ' ' ' f d d d d d d d d y @ S >.r.f.f.f.f.f.  O ' ' ' ' ' ' ' ' ' ' ' ' ",
"' ' ' ' ' ' ' ' ' ' ' ' ' ' ' 1                 g R ..>.v.A.A.A.A.A.  O ' ' ' ' ' ' ' ' ' ' ' ' ",
"' ' ' ' ' ' ' ' ' ' p p p p p c h h h h h h h h V ] O.<.n.J.J.J.J.J.  O ' ' ' ' ' ' ' ' ' ' ' ' ",
"' ' ' ' ' ' ' ' ' )           P >.>.>.>.>.>.>.>.>.>.2.w.D.U.U.U.U.U.  O ' ' ' ' ' ' ' ' ' ' ' ' ",
"' ' ' ' ' ' ' ' q 9 z z z z z I o.o.o.o.o.o.o.o.#.1.i.k.V.F.F.F.y.8.2 6 ' ' ' ' ' ' ' ' ' ' ' ' ",
"' ' ' ' ' ' ' '   X R R R R R R R R R R R R R R X.w.z.A.c.a.a.a.%   ' ' ' ' ' ' ' ' ' ' ' ' ' ' ",
"' ' ' ' ' ' ' '   X x x x x x x x x x x x x x x N F H Q E G G G 8 0 ' ' ' ' ' ' ' ' ' ' ' ' ' ' ",
"' ' ' ' ' ' ' '                                                 f ' ' ' ' ' ' ' ' ' ' ' ' ' ' ' ",
"' ' ' ' ' ' ' ' i i i i i i i i i i i i i i i i i i i i i i i i ` ' ' ' ' ' ' ' ' ' ' ' ' ' ' ' ",
"' ' ' ' ' ' ' ' ' ' ' ' ' ' ' ' ' ' ' ' ' ' ' ' ' ' ' ' ' ' ' ' ' ' ' ' ' ' ' ' ' ' ' ' ' ' ' ' ",
"' ' ' ' ' ' ' ' ' ' ' ' ' ' ' ' ' ' ' ' ' ' ' ' ' ' ' ' ' ' ' ' ' ' ' ' ' ' ' ' ' ' ' ' ' ' ' ' ",
"' ' ' ' ' ' ' ' ' ' ' ' ' ' ' ' ' ' ' ' ' ' ' ' ' ' ' ' ' ' ' ' ' ' ' ' ' ' ' ' ' ' ' ' ' ' ' ' ",
"' ' ' ' ' ' ' ' ' ' ' ' ' ' ' ' ' ' ' ' ' ' ' ' ' ' ' ' ' ' ' ' ' ' ' ' ' ' ' ' ' ' ' ' ' ' ' ' ",
"' ' ' ' ' ' ' ' ' ' ' ' ' ' ' ' ' ' ' ' ' ' ' ' ' ' ' ' ' ' ' ' ' ' ' ' ' ' ' ' ' ' ' ' ' ' ' ' ",
"' ' ' ' ' ' ' ' ' ' ' ' ' ' ' ' ' ' ' ' ' ' ' ' ' ' ' ' ' ' ' ' ' ' ' ' ' ' ' ' ' ' ' ' ' ' ' ' ",
"' ' ' ' ' ' ' ' ' ' ' ' ' ' ' ' ' ' ' ' ' ' ' ' ' ' ' ' ' ' ' ' ' ' ' ' ' ' ' ' ' ' ' ' ' ' ' ' ",
"' ' ' ' ' ' ' ' ' ' ' ' ' ' ' ' ' ' ' ' ' ' ' ' ' ' ' ' ' ' ' ' ' ' ' ' ' ' ' ' ' ' ' ' ' ' ' ' ",
"' ' ' ' ' ' ' ' ' ' ' ' ' ' ' ' ' ' ' ' ' ' ' ' ' ' ' ' ' ' ' ' ' ' ' ' ' ' ' ' ' ' ' ' ' ' ' ' ",
"' ' ' ' ' ' ' ' ' ' ' ' ' ' ' ' ' ' ' ' ' ' ' ' ' ' ' ' ' ' ' ' ' ' ' ' ' ' ' ' ' ' ' ' ' ' ' ' "
};
