/* XPM */
static char *result[] = {
/* columns rows colors chars-per-pixel */
"48 48 161 2 ",
"   c #2C342A",
".  c #2F362D",
"X  c #32362B",
"o  c #35382B",
"O  c #37392B",
"+  c #323731",
"@  c #333B32",
"#  c #373A35",
"$  c #363E35",
"%  c #3A3C39",
"&  c #3C3D3C",
"*  c #433E2D",
"=  c #403E3A",
"-  c #3D433C",
";  c #49402E",
":  c #4B412E",
">  c #51442F",
",  c #54452F",
"<  c #41463F",
"1  c #584630",
"2  c #5A4730",
"3  c #5F4A35",
"4  c #55473E",
"5  c #614B31",
"6  c #634B31",
"7  c #654C31",
"8  c #694E32",
"9  c #6A4E32",
"0  c #6B4F32",
"q  c #6F5033",
"w  c #715133",
"e  c #745233",
"r  c #745333",
"t  c #765334",
"y  c #775434",
"u  c #7A5534",
"i  c #7B5634",
"p  c #7A5537",
"a  c #7B5637",
"s  c #7C5634",
"d  c #414740",
"f  c #444443",
"g  c #454344",
"h  c #464245",
"j  c #474347",
"k  c #474946",
"l  c #494349",
"z  c #4A444A",
"x  c #4B444B",
"c  c #4D4D4C",
"v  c #514747",
"b  c #554E41",
"n  c #5B4B46",
"m  c #594B4F",
"M  c #53544F",
"N  c #554A55",
"B  c #574B58",
"V  c #584E58",
"C  c #535053",
"Z  c #555355",
"A  c #575856",
"S  c #5E535E",
"D  c #625B50",
"F  c #5F605E",
"G  c #6C6255",
"H  c #5F4F60",
"J  c #645460",
"K  c #665367",
"L  c #6C5D6D",
"P  c #6F5872",
"I  c #715C73",
"U  c #715D73",
"Y  c #745A77",
"T  c #795D7C",
"R  c #7A5F7D",
"E  c gray38",
"W  c #616260",
"Q  c #656465",
"!  c #656863",
"~  c #6B6D6A",
"^  c #776179",
"/  c #787977",
"(  c #777C7B",
")  c #787C7B",
"_  c #805835",
"`  c #825935",
"'  c #845935",
"]  c #855A36",
"[  c #865A36",
"{  c #885B36",
"}  c #806483",
"|  c #816D83",
" . c #826884",
".. c #836887",
"X. c #846B87",
"o. c #87688A",
"O. c #87698B",
"+. c #876A8B",
"@. c #856D88",
"#. c #866E89",
"$. c #867088",
"%. c #877289",
"&. c #8B758D",
"*. c #8C778E",
"=. c #8D6E91",
"-. c #8F6F92",
";. c #8F6F93",
":. c #8E7991",
">. c #8F7992",
",. c #907094",
"<. c #917295",
"1. c #927396",
"2. c #917695",
"3. c #917C93",
"4. c #947997",
"5. c #947F96",
"6. c #947598",
"7. c #8A868A",
"8. c #948B94",
"9. c #97839A",
"0. c #99849B",
"q. c #9A879C",
"w. c #9B8C9D",
"e. c #9D8C9F",
"r. c #909090",
"t. c #969196",
"y. c #9D919E",
"u. c #9F8DA1",
"i. c #9E8BA4",
"p. c #9F95A0",
"a. c #A08FA2",
"s. c #A594A7",
"d. c #A09BA1",
"f. c #A298A3",
"g. c #A399A4",
"h. c #A99AAA",
"j. c #AA9AAC",
"k. c #AB9EAD",
"l. c #AC9CAD",
"z. c #AD9DB4",
"x. c #ADA1AF",
"c. c #AFA6B0",
"v. c #B0A7B1",
"b. c #B5ABB6",
"n. c #B5B0B6",
"m. c #B9B0BA",
"M. c #B9B1BA",
"N. c #BBB2BC",
"B. c #BCB4BD",
"V. c #BAB7C2",
"C. c #BFB7C0",
"Z. c #C2BAC3",
"A. c #C9C1CA",
"S. c #CCCDD5",
"D. c #D0C9D1",
"F. c #D3CDD4",
"G. c #D1C8DA",
"H. c #DAD4E5",
"J. c #DFDAEA",
"K. c #E5E1F0",
"L. c #F1F0FD",
/* pixels */
"{ { { { { { { { { { { { { { { { { { { { { { { { { { { { { { { { { { { { { { { { { { { { { { { { ",
"{ { { { { { { { { { { { { { { { { { { { { { { { { { { { { { { { { { { { { { { { { { { { { { { { ",
"{ { { { { { { { { { { { { { { { { { { { { { { { { { { { { { { { { { { { { { { { { { { { { { { { ",
"{ { { { { { { { { { { { { { { { { { { { { { { { { { { { { { { { { { { { { { { { { { { { { { { { ",
"{ { { { { { { { { { { { { { { { { { { { { { { { { { { { { { { { { { { { { { { { { { { { { { { { ",
"{ { { { { { { { { { { { { { { { { { { { { { { { { { { { { { { { { { { { { { { { { { { { { { { { ",
"{ { { { { { { { { { { { { { { { { { { { { { { { { { { { { { { { { { { { { { { { { { { { { { { { ",
"{ { { { { { { { { { { { { { { { { { { { { { { { { { { { { { { { { { { { { { { { { { { { { { { { ",
"{ { { { { { { { { { { { { { { { { { { { { { { { { { { { { { { { { { { { { { { { { { { { { { { { ",
"{ { { { { { { { { { { { { { { { { { { { { { { { { { { { { { { { { { { { { { { { { { { { { { { { ",
"{ { { { { { { { { { { { { { { { { { { { { { { { { { { { { { { { { { { { { { { { { { { { { { { { ",
"{ { { { { { { { { { { { { { { { { { { { { { { { { { { { { { 0 , , , , , , , , 7 { { { { { { { { ",
"{ { { { { { { { { { { { { { { { { { { { { { { { { { { { { { ,                 ; { { { { { { { { ",
"{ { { { { { { { { { { { { { { { { { { { { { { { { { { { q * m K I ^ ^ ^ ^ ^ ^ J * 7 { { { { { { ",
"{ { { { { { { { { { { { { { { { { { { { { { { { { { { { 8   B T O.,.,.,.,.,.,.U   , { { { { { { ",
"{ { { { { { { { { { { { { { { { { { { { { { { { { { y O v P } =.-.,.,.,.,.,.,.,...V O 9 { { { { ",
"{ { { { { { { { { { { { { { { { { { { { { { { { [ ] p . j R +.<.;.;.6.6.6.1.;.;.;.L @ 5 ] { { { ",
"{ { { { { { { { { { { { { { { { { { { { { { { { _   % T X.q.k.m.3.T J.L.L.K.T T T z.L.)   e { { ",
"{ { { { { { { { { { { { { { { { { { { { { { { { _   % T #.a.x.m.e.@.V.S.H.G.T T T i.H.(   e { { ",
"{ { { { { { { { { { { { { { { { { { { { { { { { _   % T :.m.m.m.m.m.d   T T T T T T T z   e { { ",
"{ { { { { { { { { { { { { { { { { { { { { { { { _   % T &.v.N.Z.Z.Z./ ! H H H H H H H n : u { { ",
"{ { { { { { { { { { { { { { { { { { { { { { { { _   % T $.p.B.F.F.F.F.F.              7 { { { { ",
"{ { { { { { { { { { { { { { { { { { { { { { { { _   % T $.p.c.M.M.M.M.M.Q E   O 2 2 2 t { { { { ",
"{ { { { { { { { { { { { { { { { { { { { { { { { _   % T $.p.p.p.p.p.p.p.p.8.  ; { { { { { { { { ",
"{ { { { { { { { { { { { { { { { { { { { { { { { ' 7 3 l S %.w.c.c.c.c.c.A M 7 w { { { { { { { { ",
"{ { { { { { { { { { { { { { { { { { { { { { { { { { y   h T e.m.m.m.m.m.  o { { { { { { { { { { ",
"{ { { { { { { { { { { { { { { { { { { { { { { { { { y   h T j.D.D.D.D.D.  o { { { { { { { { { { ",
"{ { { { { { { { { { { { { { { { { { { { { { { { { { y   h T l.F.F.F.F.F.  o { { { { { { { { { { ",
"{ { { { { { { { { { { { { { { { { { { { { { { { _ X = Y | y.y.f.f.f.< $ ` ` { { { { { { { { { { ",
"{ { { { { { { { { { { { i i i i i i i i i i i i a # f  .*.g.g.g.g.g.-   { { { { { { { { { { { { ",
"{ { { { { { { { { { { {                         + T @.m.m.m.m.m.m.m.d   { { { { { { { { { { { { ",
"{ { { { { { s w w w w w g g g g g g g g g g g k c >.9.C.C.C.C.C.d.t.b * { { { { { { { { { { { { ",
"{ { { { { { 1           ,.,.,.,.,.,.,.,.,.,.,.0.u.F.F.F.F.F.F.F.~   u { { { { { { { { { { { { { ",
"{ { { { y 6 4 x x x x x o.o.o.o.o.o.o.o.o.2.4.s.h.A.A.A.n.r.r.r.G > s { { { { { { { { { { { { { ",
"{ { { { 7   N T T T T T T T T T T T T T T 5.q.b.m.m.m.m.7.      7 { { { { { { { { { { { { { { { ",
"{ { { { 7   & l l l l l l l l l l l l l l C Z F W W W W D 7 7 7 s { { { { { { { { { { { { { { { ",
"{ { { { 7                                               : { { { { { { { { { { { { { { { { { { { ",
"{ { { { [ r r r r r r r r r r r r r r r r r r r r r r r y { { { { { { { { { { { { { { { { { { { ",
"{ { { { { { { { { { { { { { { { { { { { { { { { { { { { { { { { { { { { { { { { { { { { { { { { ",
"{ { { { { { { { { { { { { { { { { { { { { { { { { { { { { { { { { { { { { { { { { { { { { { { { ",
"{ { { { { { { { { { { { { { { { { { { { { { { { { { { { { { { { { { { { { { { { { { { { { { { { ",
"{ { { { { { { { { { { { { { { { { { { { { { { { { { { { { { { { { { { { { { { { { { { { { { { { ",
"{ { { { { { { { { { { { { { { { { { { { { { { { { { { { { { { { { { { { { { { { { { { { { { { { ",
"{ { { { { { { { { { { { { { { { { { { { { { { { { { { { { { { { { { { { { { { { { { { { { { { { ",
"{ { { { { { { { { { { { { { { { { { { { { { { { { { { { { { { { { { { { { { { { { { { { { { { { ",
"{ { { { { { { { { { { { { { { { { { { { { { { { { { { { { { { { { { { { { { { { { { { { { { { { ",
"{ { { { { { { { { { { { { { { { { { { { { { { { { { { { { { { { { { { { { { { { { { { { { { { { ",
"{ { { { { { { { { { { { { { { { { { { { { { { { { { { { { { { { { { { { { { { { { { { { { { { { "
};
