/* XPM */
static char *result[] = {
/* columns rows colors chars-per-pixel */
"48 48 146 2 ",
"   c #2F2F2E",
".  c #322E2E",
"X  c #332E2E",
"o  c #332F2E",
"O  c #352F2F",
"+  c #362F2F",
"@  c #382E2F",
"#  c #30302E",
"$  c #31302E",
"%  c #31302F",
"&  c #32312E",
"*  c #33312F",
"=  c #34312E",
"-  c #34322E",
";  c #35322E",
":  c #37332F",
">  c #38302F",
",  c #39312F",
"<  c #3A342F",
"1  c #3C362F",
"2  c #3D362F",
"3  c #3F372F",
"4  c #353230",
"5  c #303631",
"6  c #3A3531",
"7  c #3B3531",
"8  c #313832",
"9  c #363932",
"0  c #313C33",
"q  c #373F34",
"w  c #3C3935",
"e  c #3E3B36",
"r  c #6B1D32",
"t  c #701B33",
"y  c #721A33",
"u  c #741A33",
"i  c #751A33",
"p  c #771B33",
"a  c #731C33",
"s  c #40372F",
"d  c #453A30",
"f  c #453B32",
"g  c #443E37",
"h  c #7C2336",
"j  c #7D2337",
"k  c #664739",
"l  c #67473A",
"z  c #674E3C",
"x  c #674F3D",
"c  c #69483A",
"v  c #69493B",
"b  c #6A493B",
"n  c #6A4A3C",
"m  c #6D4A3C",
"M  c #684E3D",
"N  c #7E5635",
"B  c #7F5735",
"V  c #6E5847",
"C  c #705144",
"Z  c #9A273A",
"A  c #94283A",
"S  c #97293A",
"D  c #98293A",
"F  c #9B283A",
"G  c #9C283B",
"H  c #9E293B",
"J  c #9D313D",
"K  c #A3313E",
"L  c #815835",
"P  c #825835",
"I  c #835936",
"U  c #845936",
"Y  c #855936",
"T  c #865A36",
"R  c #885B36",
"E  c #9C3142",
"W  c #9D3143",
"Q  c #855E4D",
"!  c #875F4D",
"~  c #8B614F",
"^  c #8D6250",
"/  c #8F6350",
"(  c #8B6852",
")  c #8D6A53",
"_  c #916451",
"`  c #42965A",
"'  c #42975A",
"]  c #489358",
"[  c #449E5D",
"{  c #449F5E",
"}  c #49995B",
"|  c #489E5D",
" . c #489F5E",
".. c #4E9C5D",
"X. c #45A05E",
"o. c #4AA05F",
"O. c #45A560",
"+. c #45A660",
"@. c #46A761",
"#. c #4FA460",
"$. c #46A862",
"%. c #4BAA66",
"&. c #4CAB67",
"*. c #53AD68",
"=. c #53AE68",
"-. c #4DB169",
";. c #4EB36A",
":. c #4EB46B",
">. c #4FBA6D",
",. c #4FBB6E",
"<. c #54B66C",
"1. c #55B76D",
"2. c #59B56E",
"3. c #50BC6E",
"4. c #50BD6F",
"5. c #5BBE72",
"6. c #C38059",
"7. c #CE865C",
"8. c #DA8D60",
"9. c #DA9665",
"0. c #DC9664",
"q. c #E59363",
"w. c #E39365",
"e. c #E09367",
"r. c #E69666",
"t. c #E1976A",
"y. c #8C939D",
"u. c #8A9A9D",
"i. c #919B9E",
"p. c #8E9BA1",
"a. c #9097A0",
"s. c #9799A0",
"d. c #9599A2",
"f. c #9299A4",
"g. c #969DA7",
"h. c #9B9CA3",
"j. c #D8B387",
"k. c #E5BD8E",
"l. c #F2C795",
"z. c #FFD19C",
"x. c #C2C8C6",
"c. c #CBCBCD",
"v. c #CCCACC",
"b. c #CBD1D0",
"n. c #D0D0D4",
"m. c #D4D4D7",
/* pixels */
"R R R R R R R R R R R R R R R R R R R R R R R R R R R R R R R R R R R R R R R R R R R R R R R R ",
"R R R R R R R R R R R R R R R R R R R R R R R R R R R R R R R R R R R R R R R R R R R R R R R R ",
"R R R R R R R R R R R R R R R R R R R R R R R R R R R R R R R R R R R R R R R R R R R R R R R R ",
"R R R R R R R R R R R R R R R R R R R R R R R R R R R R R R R R R R R R R R R R R R R R R R R R ",
"R R R R R R R R R R R R R R R R R R R R R R R R R R R R R R R R R R R R R R R R R R R R R R R R ",
"R R R R R R R R R R R R R R R R R R R R R R R R R R R R R R R R R R R R R R R R R R R R R R R R ",
"R R R R R R R R R R R R R R R R R R R R R R R R R R R R R R R R R R R R R R R R R R R R R R R R ",
"R R R R R R R R R R R R R R R R R R R R R R R R R R R R R R R R R R R R R R R R R R R R R R R R ",
"R R R R R R R R R R R R R R R R R R R R R R R R R R R R R R R R R R R R R R R R R R R R R R R R ",
"R R R R R R R R R R R R R R R R R R R R R R R R R R Y $         ; R R R R R R R R R R R R R R R ",
"R R R R R R R R R R R R R R R R R R R R R R R P P P B O X X X   ; R R R R R R R R R R R R R R R ",
"R R R R R R R R R R R R R R R R R R R R R R R       . y u u t   ; R R R R R R R R R R R R R R R ",
"R R R R R R R R R R R R R R R R R R R R R P P + + + @ y u t r ; < R R R R R R R R R R R R R R R ",
"R R R R R R R R R R R R R R R R R R R R R ;   H H H G i u   ; R R R R R R R R R R R R R R R R R ",
"R R R R R R R R R R R R R R R R R R R U U , o H H H G i u   ; R R R R R R R R R R R R R R R R R ",
"R R R R R R R R R R R R R R R R R R R =   S H H H H G i u   ; R R R R R R R R R R R R R R R R R ",
"R R R R R R R R R R R R R R R R R P P > X A F F F F Z i u   ; R R R R R R R R R R R R R R R R R ",
"R R R R R R R R R R R R R R R R R ;   t u u u u u u u u u   ; R R R R R R R R R R R R R R R R R ",
"R R R R R R R R R R R R R R R R R ;   a p p p p p p p u u   ; R R R R R R R R R R R R R R R R R ",
"R R R R R R R R R R R R R R R R R ;   D H H H H H H G i u   ; R R R R R R R R R R R R R R R R R ",
"R R R R R R R R R R R R R R R L L g e J K W W W W W E j h   ; R R R R R R R R R R R R R R R R R ",
"R R R R R R R R R R R R R R R ;   l.z.r.q.s.f.f.f.f.d.w.q.  ; R R R R R R R R R R R R R R R R R ",
"R R R R R R R R R R R R R R R < ; k.l.t.e.h.g.g.g.f.d.w.q.  ; R R R R R R R R R R R R R R R R R ",
"R R R R R R R R R R R R R R R R R ;   y.f.n.m.m.m.f.d.w.q.  ; R R R R R R R R R R R R R R R R R ",
"R R R R R R R R R R R R R R R P P ;   a.g.n.m.n.n.p.i.9.0.5 9 P P R R R R R R R R R R R R R R R ",
"R R R R R R R R R R R R R R R ;       c.m.m.m.f.f.4.4.4.4.O.[   ; R R R R R R R R R R R R R R R ",
"R R R R R R R R R R R R R N N q 0     c.m.m.m.u.u.4.4.>.>.$.X.0 q N I R R R R R R R R R R R R R ",
"R R R R R R R R R R R R R <   [ O.5   c.m.m.m.O.O.4.3.+.O.4.,.O.[   < R R R R R R R R R R R R R ",
"R R R R R R R R R R R R R <   { @.5   c.m.v.v.o.o.1.<. .| ;.-.O.[   < R R R R R R R R R R R R R ",
"R R R R R R R R R R R R R <   :.4.8   c.m.C c _ _ _ / b c   5 O.[   < R R R R R R R R R R R R R ",
"R R R R R R R R R R R R R <   2.5.8   x.b.V x ) ) ) ( M z   5 #...  < R R R R R R R R R R R R R ",
"R R R R R R R R R R R R R <   l.z.w   [ O.,.4.4.4.4.3.+.O.  6 q.8.  < R R R R R R R R R R R R R ",
"R R R R R R R R R R R R R d < j.k.w   ] } %.&.&.&.=.*.' ` < f 7.6.< s R R R R R R R R R R R R R ",
"R R R R R R R R R R R R R R R ;       k c *       c l #   R P   ; R R R R R R R R R R R R R R R ",
"R R R R R R R R R R R R R R R 1 :     v m *       m n #   R P : 1 R R R R R R R R R R R R R R R ",
"R R R R R R R R R R R R R R R R R ;   ~ _ 4       _ ^ %   R R R R R R R R R R R R R R R R R R R ",
"R R R R R R R R R R R R R R R R R < ; Q ~ 7 ; ; ; ~ ! : ; R R R R R R R R R R R R R R R R R R R ",
"R R R R R R R R R R R R R R R R R R R -   P R R R   & T R R R R R R R R R R R R R R R R R R R R ",
"R R R R R R R R R R R R R R R R R R R 3 < P R R R < 2 T R R R R R R R R R R R R R R R R R R R R ",
"R R R R R R R R R R R R R R R R R R R R R R R R R R R R R R R R R R R R R R R R R R R R R R R R ",
"R R R R R R R R R R R R R R R R R R R R R R R R R R R R R R R R R R R R R R R R R R R R R R R R ",
"R R R R R R R R R R R R R R R R R R R R R R R R R R R R R R R R R R R R R R R R R R R R R R R R ",
"R R R R R R R R R R R R R R R R R R R R R R R R R R R R R R R R R R R R R R R R R R R R R R R R ",
"R R R R R R R R R R R R R R R R R R R R R R R R R R R R R R R R R R R R R R R R R R R R R R R R ",
"R R R R R R R R R R R R R R R R R R R R R R R R R R R R R R R R R R R R R R R R R R R R R R R R ",
"R R R R R R R R R R R R R R R R R R R R R R R R R R R R R R R R R R R R R R R R R R R R R R R R ",
"R R R R R R R R R R R R R R R R R R R R R R R R R R R R R R R R R R R R R R R R R R R R R R R R ",
"R R R R R R R R R R R R R R R R R R R R R R R R R R R R R R R R R R R R R R R R R R R R R R R R "
};
