/* XPM */
static char *result[] = {
/* columns rows colors chars-per-pixel */
"48 48 173 2 ",
"   c #2F2F2E",
".  c #332E2E",
"X  c #392C2F",
"o  c #34312F",
"O  c #332E35",
"+  c #3B2D35",
"@  c #332C3C",
"#  c #3B3431",
"$  c #373935",
"%  c #651F32",
"&  c #731A33",
"*  c #7E1E35",
"=  c #432D30",
"-  c #402A3B",
";  c #453B35",
":  c #334537",
">  c #36543E",
",  c #59453A",
"<  c #66473B",
"1  c #6A493B",
"2  c #704D3E",
"3  c #372B45",
"4  c #3B2D46",
"5  c #3E235E",
"6  c #3C1D75",
"7  c #3C167E",
"8  c #3C1C7B",
"9  c #3C2076",
"0  c #402E4E",
"q  c #483743",
"w  c #483353",
"e  c #441D74",
"r  c #401E7F",
"t  c #4C2F74",
"y  c #4C217A",
"u  c #375C41",
"i  c #3A6446",
"p  c #494746",
"a  c #505050",
"s  c #735549",
"d  c #4A664A",
"f  c #5F6345",
"g  c #716E56",
"h  c #7D7D59",
"j  c #8E2338",
"k  c #892A39",
"l  c #942839",
"z  c #9E293B",
"x  c #835D4C",
"c  c #B55F4E",
"v  c #95674C",
"b  c #8D6250",
"n  c #926552",
"m  c #BA7A5A",
"M  c #91716B",
"N  c #976876",
"B  c #A06D75",
"V  c #3F8753",
"C  c #428C57",
"Z  c #518653",
"A  c #48975B",
"S  c #66925A",
"D  c #499E61",
"F  c #6F9E69",
"G  c #45A560",
"H  c #49AA65",
"J  c #55A363",
"K  c #4FBB6E",
"L  c #50BD6F",
"P  c #73A061",
"I  c #9D9B64",
"U  c #A48A6C",
"Y  c #CE865C",
"T  c #CF8572",
"R  c #D58772",
"E  c #D99873",
"W  c #E49364",
"Q  c #E2A07A",
"!  c #82C37C",
"~  c #3F0F88",
"^  c #3D1484",
"/  c #3D1981",
"(  c #3E1289",
")  c #410F8D",
"_  c #421485",
"`  c #431984",
"'  c #491B83",
"]  c #42138C",
"[  c #49178D",
"{  c #411889",
"}  c #4B1A8C",
"|  c #511D8D",
" . c #450F93",
".. c #4A0F96",
"X. c #4B0F9A",
"o. c #451191",
"O. c #4A1295",
"+. c #4C1991",
"@. c #4D129A",
"#. c #4E1899",
"$. c #51139E",
"%. c #541C98",
"&. c #4F298F",
"*. c #592889",
"=. c #4F3286",
"-. c #4F2793",
";. c #542494",
":. c #54219B",
">. c #5C3B96",
",. c #5C349C",
"<. c #5D3A99",
"1. c #65338C",
"2. c #60369F",
"3. c #613D9B",
"4. c #5413A2",
"5. c #5A15A5",
"6. c #5718A2",
"7. c #5B1AA4",
"8. c #5D16A9",
"9. c #5E1AAA",
"0. c #6017AC",
"q. c #621BAC",
"w. c #671DB1",
"e. c #6A1DB3",
"r. c #5B21A3",
"t. c #5E2FA3",
"y. c #5E30A1",
"u. c #622EA5",
"i. c #6521AC",
"p. c #6A25AF",
"a. c #652DA9",
"s. c #692EAE",
"d. c #6234A3",
"f. c #6631A9",
"g. c #6931AB",
"h. c #7839AB",
"j. c #6B23B2",
"k. c #6E2BB2",
"l. c #7124B6",
"z. c #7129B5",
"x. c #7324B9",
"c. c #762BB9",
"v. c #7A2BBD",
"b. c #6D31B1",
"n. c #7632B7",
"m. c #7632B8",
"M. c #7D35BC",
"N. c #7D39B9",
"B. c #5E478D",
"V. c #5C4191",
"C. c #624694",
"Z. c #634A92",
"A. c #7A2BC0",
"S. c #7F30C0",
"D. c #833CBC",
"F. c #8234C2",
"G. c #8739C5",
"H. c #893CC5",
"J. c #789E8B",
"K. c #7FA395",
"L. c #908C8E",
"P. c #8D9AA0",
"I. c #9299A4",
"U. c #B1A7A4",
"Y. c #B6B8BD",
"T. c #CFAB82",
"R. c #F5CC9D",
"E. c #FFD19C",
"W. c #E8D2B9",
"Q. c #B9BCC2",
"!. c #BEC0C6",
"~. c #CECED2",
"^. c #D4D4D7",
/* pixels */
"g.f.g.b.b.n.N.N.N.g.s.g.d.d.2.3.3.3.y.d.t.m.m.m.s.s.s.y.V.V.s.g.g.m.N.M.d.d.d.C.Z.Z.C.C.C.<.,.d.",
"f.@.$.5.7.q.z.z.j.%.4.$...O...) ) ) X.O.@.q.w.w.5.5.5.( ( ( 4.4.4.w.j.e.X.O.X.] _ _ ( ( ^ ) ) ,.",
"f.$.6.9.9.i.k.k.j.7.5.6.O.X...) ) ~ O.O.#.9.0.0.4.8.4.~ ( ( #.#.$.q.w.w.O. ...[ _ _ ( ^ ^ ~  .,.",
"M.l.c.G.G.c.6.6.7.l.j.j.X.X.$._ ( ] ( _ (  . . .~ ~ ~ ( ^ / ( ( ~ $.$.4....... ...O.) ) ) )  .,.",
"M.l.m.S.S.c.6.6.7.l.l.j.X.....~ ^ ^ { { ( o.( o.( ( ( ( 8 8 ( ( { $.$.4.@.@.X.) ) O.O.[ [ ....,.",
"M.l.c.S.S.m.5.5.7.l.j.j.......^ ^ / { / / O.o.O.o.o.( ( ^ 8 ( ( ] $.4.4.@.@... .) O.+.O.[ ....,.",
"m.j.9.$.$.6.j.j.e.0.0.7.^ ~ ~ 7 / ^ o.O.#.6.7.5.p.i.e.( ( ( #.@.@.4.5.8.[ o.] _ _ _ O.$.X.$.X.u.",
"m.w.9.$.@.6.j.j.p.7.q.6.7 ^ _ 7 ^ ^ O. .X.8.8.9.e.e.e.( X.( #.#.%.7.$.5.) _ ) _ _ ) ) ..X.X.$.u.",
"m.w.8.@.@.6.j.j.j.7.7.7.^ _ ^ ^ ^ ( @.@.O.5.0.0.e.j.e. .( ( 4.@.%.5.7.9.o.) ) ] o.( ( ( X.4.@.a.",
"<.( ( o.o.O.6.#.#.7 8 / ^ ( ] $.X.6.M.O . . . O.0.0.0.@.4.@.O.X.O.n.n.M.e.q.q.O.~ ~ ( ^ ( ( X.t.",
",.( ( O.[ O.#.$.@.^ ] ] [ [ [ 4.$.4.v.O       [ 0.9.9.5.4.$.X.X.O.n.M.M.i.q.q.] ~ ( ^ / / ( ( f.",
"<.( ~ O.o.+.6.6.#.^ _ ( [ [ +.4.@.O O % & & & O 3 6.0.4.4.$...O.O.m.M.M.i.q.q.{ ~ ( / / / ( ( y.",
"B.8 / ( / / / ( _ ` _ ] $.4.5.H.D..   & & & & X . 7 ) X.@.X.{ { _ #.@.@.k.c.c.q.9.9.{ 7 9 / / V.",
"B.6 / / ( / ^ ( _ _ [ [ 4.@.6.H.D..   & & l z l l + O _ X.X.+.+.[ ..O.O.k.n.n.i.9.9.{ 7 / 9 9 B.",
"B.6 8 ( { / / ( ] _ [ [ $.@.6.H.D.    & & z z z z X   _ ....} +.[ O.@.O.k.n.m.i.i.9.{ 6 / / / V.",
"<.( ( O.#.O.o.o.o.@.@.6.G.F.h.4 4 % % j l z z z z l k - @ r [ _ _ [ ` ` O.#.@.k.z.x.w.0.i.( / V.",
",.( o.@.X.X.o.o. .$.@.$.H.H.h.  . & & z z z z z z z l =   6 r _ _ } } ' O.X.@.k.z.c.q.q.q.#.( y.",
",.( o.O.X... .O.O.$.O.6.h.w w % % & & * & j * * * * j =   6 ) 7 _ } } ' O.X.@.j.c.c.e.q.0. .( y.",
"b.6.5.8.0.8... .@.j.j.q.| O X & & & & & & & & & & & & X . 6 ....$.] _ ] ] _ _ O.@.$.q.e.w.4.X.t.",
"k.5.8.8.0.8.X. .@.j.j.p.| . X & & j j j j j j j j j j = . e $.$.$._ ) ] [ _ ( O.@.X.w.e.w.5.X.a.",
"k.5.8.0.0.8.X.O.@.j.j.j.|   X & & z z z z z z z z z z = . 6 ..$.$. .~ ) [ _ ^ O.@.$.q.w.w.4.4.t.",
"f.@.O.o.O.o.^ ^ { O.+.#.' . # c c N N N N T R R R B N n b w 5 ' 4.X.X.X.( ^ ^ / / ( O.@.X.X.( y.",
"u.$.O.] ] ] ^ 8 8 O.] o.' . ; W W I.I.I.I.R.R.E.E.U.I.E W < X e $.X.$.X.^ ^ ^ 7 / ^ o.o. . .( y.",
"u.@.O.o.o.] 7 8 / ] ] o.r o ; W W I.I.Y.Y.W.W.W.W.Y.Y.E W ,   e $.$.$.X.( 7 ^ 8 / / ( X. . . .t.",
"u.$.X.) ) ) 7 7 ^ [ [ o.` o ; W W I.I.~.^.^.^.^.^.^.^.Q W , o 1.v.O... .^ 7 7 7 / ^ @.@.@.X.X.u.",
"a.$.X. .) ) ^ / ^ O.o.+.`   $ I I I.I.^.^.^.^.^.^.^.^.M v ,   1.G.O. . .7 7 7 7 / ( O.X.4.$.@.u.",
"a.$.X.)  .) ^ 7 / +.+.+.` o : G H I.I.~.^.^.^.^.^.^.^.a       1.G.$. . .r e 7 _ / ^ X.$.$.$.4.a.",
"a.$.$..... . .( o.8.%.e t > i H H J.J.Y.!.^.^.^.^.^.^.a   > i w y +.@.@. . .) ) o.o.4.8.8.$.X.u.",
"a.$.@.@.X.@. . .O.w.|   : G G L K G G I.I.~.^.^.^.^.^.a   V G u . e $.$..... .O.X.O.5.9.8.4.@.a.",
"i.$.$.O.@.X... .X.w.;.. : G G C C Z Z L.L.Q.!.!.!.U.U.p   V H i O e $.$..... .O.O.X.8.8.9.4.$.a.",
",.[ { o.o.( ^ / ` %.y . : G A     < < x b P.P.P.I.s < #   D L i . y 0.0.] ( ^ ` ` / +.@.@.[ { <.",
"<./ / ( ( ^ 7 8 6 [ 6 o : P S     f f M h K.K.K.K.g f $   F ! d . y w.0.( 7 ^ 8 6 7 ( ] o.^ / V.",
"<.^ / ( ~ ( 7 6 8 o.6   , W Y   $ G G L L L L L L H G :   T.E.g   y e.0.{ ( 7 8 6 8 ~  .~ ( / V.",
",.O.O.@.X.X.( / ^ / 9 3 ; m m 0 0 C V J J G G A D A Z :   U T.M 4 r O.@.8 9 8 / ^ ( X.4.4.X.( ,.",
"t.O.@.8.5.$.( _ ^ 6 9 9 8   3 v.n.  o 1 < o o   o , 1 #     . *.v._ _ r 9 9 6 ( ( ( 5.5.8.@.@.t.",
"t.@.@.8.8.4.] ^ _ 8 6 8 / @ 3 A.c.    1 2 o       1 2 #   4 4 1.v._ ~ r 9 9 8 ^ ( o.4.8.8.$.@.t.",
"a.4.4.0.0.0.7.q.9.( ^ ^ ` / ` :.:.    b n o       x n ; O ;.%.:.%.` 8 8 ^ ^ _ q.p.j.q.e.8.$.X.t.",
"s.5.8.e.x.e.x.x.j.o.~ ( 8 8 y { / @ 3 s x 4 @ @ @ s x q O | _ ( _ r 8 8 { ]  .F.G.G.x.e.w.5.X.a.",
"s.4.8.e.e.e.x.x.j.o.( ] 8 8 8 ( / [ z.O   +.$.$.X.@   | 0.0.{ _ ^ 8 9 8 ] o. .F.H.H.e.e.w.5.X.t.",
"s.4.4.8.8.0.l.x.l.9.9.6.^ / / / / / 7.@ O [ O.X.o.3 O _ O.O.8 8 8 / / { 9.q.q.M.F.F.7.$.4.X.X.a.",
"a.4.4.4.$.7.x.A.c.x.x.e.] ( ( 6 8 8 ( o.( ( o.( ( o.( ( ( ( 8 9 8 ( ( o.x.A.A.A.A.x.O.) ....X.u.",
"i.4.4.$.$.7.x.c.x.x.x.e.] ( ^ 8 8 8 o.o.o.o.( (  .o.( ( ( ^ 6 8 8 ( o.o.l.A.A.A.F.x.O.) ) X.X.u.",
"t.@.@.O.O.4.r.i.w.x.x.x.@.@.X.^ / ^ { o.( o.o.o. .] o.( ^ ^ / / / 4.5.5.x.x.x.r.8.%...) ] ] O.t.",
"y.( o.o.O.X.@.@.6.c.c.x.8.8.8.^ / ( { ( o.O.O.o. . .( ^ ^ ^ ( ^ ( j.x.x.x.e.w.o.) ) ~ ( ( ] ) ,.",
"y.( ( @.O.O.@.@.6.c.c.j.8.8.8.~ ( ( o.o.( X.X.X.O. . .( ( ( ( ( ( j.j.x.j.e.e.o.) ( ( ( ^ ] ] ,.",
">./ ( #.O.@.6.6.6.w.i.i.4.4.4.) ~ ~  . .o.5.5.4.6.5.$.) ( ( o.O.o.w.j.j.8.5.5.O.) ( ~ ~ ( 8 _ >.",
"V.9 { #.@.$.q.9.7.4.4.4.X.@.$. .~  .O.O.O.e.e.e.e.e.e.o.( ( 4.4.4.q.w.w.O. . .] ] ~ ~  .{ 8 6 B.",
"B.=.=.r.r.r.s.s.p.r.r.r.7.r.7.%.:.:.r.:.r.x.z.z.l.z.z.:.:.:.r.r.r.j.j.j.:.:.%.-.&.&.-.;.-.=.=.Z."
};
