/* XPM */
static char *result[] = {
/* columns rows colors chars-per-pixel */
"48 48 165 2 ",
"   c #2F2F2E",
".  c #332E2E",
"X  c #392C2F",
"o  c #32312F",
"O  c #322C3B",
"+  c #323531",
"@  c #3A3531",
"#  c #323C33",
"$  c #3C3A35",
"%  c #393939",
"&  c #641F32",
"*  c #741A33",
"=  c #443D36",
"-  c #59463D",
";  c #69483A",
":  c #352943",
">  c #362A44",
",  c #3A2B4A",
"<  c #39304D",
"1  c #3B2653",
"2  c #3D2F55",
"3  c #381E62",
"4  c #3E1D6B",
"5  c #3B1E76",
"6  c #3C167E",
"7  c #3C1C7B",
"8  c #3B2162",
"9  c #3C2077",
"0  c #402F4F",
"q  c #463156",
"w  c #421E6E",
"e  c #411B7E",
"r  c #46246B",
"t  c #572D7C",
"y  c #385C41",
"u  c #3B6446",
"i  c #3E7B4E",
"p  c #68564B",
"a  c #795645",
"s  c #7F5847",
"d  c #5B6B48",
"f  c #557E51",
"g  c #60744E",
"h  c #786855",
"j  c #757C57",
"k  c #822A38",
"l  c #892A39",
"z  c #932539",
"x  c #9E293B",
"c  c #916451",
"v  c #917C75",
"b  c #C36F55",
"n  c #CF7357",
"m  c #3E8050",
"M  c #458654",
"N  c #5B8B58",
"B  c #439A5C",
"V  c #79855C",
"C  c #6C9762",
"Z  c #45A560",
"A  c #46A862",
"S  c #49AB65",
"D  c #4DB46A",
"F  c #4FBB6E",
"G  c #50BD6F",
"H  c #5FA177",
"J  c #7DB06D",
"K  c #948D5B",
"L  c #A19B62",
"P  c #BF9E79",
"I  c #CE865C",
"U  c #E49364",
"Y  c #3E0F88",
"T  c #3D1484",
"R  c #3C1981",
"E  c #3E1289",
"W  c #410F8D",
"Q  c #421486",
"!  c #451984",
"~  c #491983",
"^  c #42138C",
"/  c #4A168D",
"(  c #421889",
")  c #4A1A8C",
"_  c #450F93",
"`  c #490F95",
"'  c #4B0F9A",
"]  c #451192",
"[  c #4A1295",
"{  c #4C1A92",
"}  c #4D129B",
"|  c #4F1898",
" . c #541D94",
".. c #51139E",
"X. c #52199B",
"o. c #5A2A85",
"O. c #5A398C",
"+. c #5A2D9D",
"@. c #593596",
"#. c #5D3E94",
"$. c #5C349C",
"%. c #5F3B99",
"&. c #6E3995",
"*. c #613D9E",
"=. c #5413A2",
"-. c #5A15A6",
";. c #5619A2",
":. c #5B1AA4",
">. c #5D16A9",
",. c #5E1BA9",
"<. c #601DA5",
"1. c #6017AC",
"2. c #621BAD",
"3. c #661DB1",
"4. c #691DB3",
"5. c #5E2BA3",
"6. c #5D31A0",
"7. c #6020A0",
"8. c #612DA6",
"9. c #6621AE",
"0. c #6B25AF",
"q. c #642CA9",
"w. c #6A2EAE",
"e. c #6234A3",
"r. c #633BA2",
"t. c #6731A9",
"y. c #6A33AC",
"u. c #7736AC",
"i. c #6C23B3",
"p. c #6E2CB1",
"a. c #7125B6",
"s. c #722CB5",
"d. c #7224B9",
"f. c #752AB9",
"g. c #792BBD",
"h. c #6E32B1",
"j. c #7332B5",
"k. c #7A36B4",
"l. c #7531B8",
"z. c #7C33BC",
"x. c #5C438D",
"c. c #5C4291",
"v. c #614495",
"b. c #644C93",
"n. c #62439B",
"m. c #675391",
"M. c #7B2BC0",
"N. c #813BBE",
"B. c #967784",
"V. c #8236C2",
"C. c #863BC2",
"Z. c #893AC6",
"A. c #8B39C8",
"S. c #65B280",
"D. c #A79894",
"F. c #82B993",
"G. c #A9BA81",
"H. c #9299A4",
"J. c #A7ABB4",
"K. c #B5C889",
"L. c #F4C895",
"P. c #FFD19C",
"I. c #BFC2C7",
"U. c #C3C5CA",
"Y. c #D4D4D7",
/* pixels */
"y.t.t.h.h.h.V.z.N.y.w.w.*.e.*.*.&.$.e.e.e.l.l.l.w.w.p.%.%.#.e.w.t.l.l.z.t.%.e.v.b.v.v.v.v.#.$.r.",
"y.} } :.:.,.s.s.a.X.=...` ` ` W Y Y } [ } ,.3.3.-.=.=.E E E X.=.;.9.i.i.} _ ` / Q Q Q Q T Y W $.",
"h.X.;.2.9.2.i.p.i.;.:.-.` ` ` W Y ^ ] ] [ ,.,.,.=.=.=.Y Y T } | } 2.3.2.} _ ' ^ Q Q Y T Y W _ $.",
"N.s.d.V.V.z.;.;.:.a.a.i...' ..W E E E ^ E ] _ ] _ Y _ T 6 R E E E } =.=.' ] ` ` ` [ W W ^ W _ $.",
"N.a.f.V.V.M.:.;.-.i.d.s.} ` ` E T E E E ( ( ] ] E E E R 6 6 R E R ....=...' ` / W [ [ / / ` [ $.",
"N.i.a.z.z.l.:.-.:.i.i.i.[ ` ` T T R ( ( ( ] ] ] ] ] E E R 6 E E ^ ..=.=...' ` W W / { [ [ ` ` $.",
"z.9.2...} ..i.i.i.,.1.>.E T Y 6 R 6 _ ] { ;.-.-.9.9.9._ _ E | | ....-.-./ W W Q Q Q [ ..} } } 8.",
"z.4.2.} ..=.i.i.0.,.2.<.6 Q Y Y T T _ } } -.,.>.3.i.i.} _ E } | ..;.;.-.W Q W ^ W Q W ` ` ' ..8.",
"k.3.,.} X.X.4.i.9.:.:.:.Q Q Q Q Q Q } } ' -.>.-.3.3.3.' E _ | | | ;.,.,./ ^ / ^ ^ E E _ ] =.} 8.",
"n.E E ] ] ] X.=.X.6 R R Q Q e O O > < , 0 =.=.=.1.2.1.=.=.' [ _ [ j.z.z.4.2.2.[ W E E T E E ' 8.",
"n.E E ] / ] X.;.X.T Q ^ ^ / e   .   .   O =.=.=.1.1.1.=.=.=.' ' [ s.z.z.9.9.2.] Y E R R R E ] 6.",
"n.Y E ] ] ^ X.} } 6 W Q / / ~   X & & & & , > , 1 ,.1.=.=.=.` ` [ j.z.l.9.2.2.^ Q E R R R E E *.",
"m.7 7 E ( E 7 E T Q ( Q ..=.{ . X * * * * .       E ^ ' [ ' ] ( / ] [ [ p.f.f.2.>.1.( 6 9 R 9 c.",
"m.5 9 E ( R R ^ ^ ! ( / ..' } u.&.X X * * l l l l : O _ ` ` { { / [ } } p.l.l.9.2.,.! 6 R 9 R c.",
"m.5 7 E ( R R ^ W Q / / ;.X.=.C.k.  X * * x x x x     _ ` _ { / / ] [ [ p.l.s.9.9.2./ 7 R R R c.",
"*.E E [ } } ^ ] ^ ..} } V.Z.C.,. .  . * * x x x x k k : : ( / Q / ~ ( Q ] | } p.s.f.3.,.,.{ R $.",
"r.^ ^ ' ' ' W ] ` ..` } N.Z.C.:. .  o * * x x x x x x X X Y Y 6 Q ) ) ) [ ' [ i.s.f.4.2.2.' E $.",
"*.E ^ ` ' ' ] ] ] ..} } Z.Z.N.:. .  . * * k k * k k * & & : : 6 Q ) ) ~ [ ` [ 0.s.f.4.2.2.} E $.",
"h.-.-.1.3.1.' ' ` i.i.i.<.:.X.( 7   . * * * * * * * * * * . . ` ..^ Q W Q Q Q [ } ' 2.3.3.=.} 5.",
"j.>.-.>.3.1.' _ ` i.i.i.:.:.:.E 6   . * * z z z z z z z z X . ` ..W Y Q / Q Q [ ' ' 3.4.3.=...q.",
"h.-.-.1.1.1.' _ [ i.i.i.,.:.:.E 6   . * * x x x x x x x x X   / ..Q Q W / Q T [ } ' 2.3.3.=.=.5.",
"y.} } ^ ] _ T 7 6 ] ^ ^ [ ' ` _ e   . b b v B.B.B.B.B.n n P P 0 1 ..' ..T T T R R T ] [ ' _ E 6.",
"y.} } ^ ^ ^ R 7 7 ] ] ^ ` ' ' _ W   X U U H.H.H.H.H.H.U U P.P.=   ' =.' E R R R R R ] ] _ _ Y 6.",
"t.} } ^ ] ^ T R 7 ^ / ] ` ' ' _ Q   @ U U H.H.U.U.U.U.D.D.p p ~ Q ..' ' T T R R R R ] ] _ _ _ 6.",
"y.X.} W W W T R 7 ] { { [ [ [ ../ + @ U U H.H.Y.Y.Y.Y.H.H.+   k.M.X._ _ E R 6 7 R T ` ..} } } q.",
"y...} _ W W T R R ] { ] [ [ ^ 1 , m M J J S.S.J.J.Y.Y.U.I.$   q q ] _ ] T 7 6 6 R E [ ..=.=.} q.",
"y...' W _ Y Y 6 R ] { ] [ ' ^ . # Z A G G G G H.H.Y.Y.Y.Y.%       E _ _ T 6 6 6 R T } } ......q.",
"t.=...' ' ' _ E ] 1.1.,.<.q 2 i M D D S S G G H H Y.Y.Y.Y.%   i f 2 1 [ ` _ ^ [ [ _ =.>.-.=.} 8.",
"w.....} ' ' ' ] [ 3.2.3.+.  # A A G F Z Z F G Z Z Y.Y.Y.Y.%   B Z +   [ ` ` ` [ [ [ -.>.1.=...q.",
"w.....} ' ' _ _ ] 3.3.2.7.  # A Z u u d d V V j j v v Y.Y.% . Z D +   | ` ` _ [ [ ' -.,.>.;...q.",
"n.E ( ^ E E T R e { [ | u.  # S m   + ; ; c c c c ; ; Y.Y.%   D G + . :.Q E T 7 7 R ] ] ] ^ T #.",
"n.R R E Y E 7 9 7 ] ^ ] u.  % L K   . f f C C C C N N F.F.+   G.K.$   <.E 6 T 7 7 7 E ] ] T 7 #.",
"n.T R ^ Y Y 6 7 7 ^ ^ { u.+ = U I   + A A G G G G G G Z Z +   L.L.$ o :.( 6 6 7 7 5 Y _ Y E T c.",
"r.' } =...=.Y E Q 6 e e { 8 r a a o.o.y y d g u u u u d d o   h h 8 8 ! e 7 9 T E ^ =.=.-.' ] 6.",
"e.' } ;.>.=.Y E E 5 5 5 ^ E 6   , z.a.  + ; ;         ; ; o   o   ! T T 9 9 5 E E E =.-.-...} 5.",
"e.' } -.-.-.^ ^ ( 7 5 7 ( ^ T t o.g.a.  + s s         s s o   t t ) T T 5 5 7 ^ ^ ] =.>.-.} } 6.",
"h.=.=.1.4.4.3.i.9.] T E R R 9 { { { p.    c c         c c +   ( ) 9 9 7 ^ E ^ p.f.f.4.4.3.=.' 5.",
"h.;.>.4.4.4.d.d.d.] E E 7 5 9 ( E ^ w.t o.- - 5 w 5 4 - - r 8 T R 7 9 7 ^ ] [ g.A.A.d.4.4.=.' 5.",
"h.;.-.4.4.4.4.d.d.] ] ] R 5 7 ^ ^ T d.f.s.  + =.' ' } . . :.^ T ( 7 5 7 ^ _ ] z.A.A.a.4.3.=.' q.",
"h.=.=.=.-.-.f.d.f.3.9.2.^ T T R 7 6 X.X.{ 3 8 ] W _ ^ 3 3 ] 7 5 7 T E ^ 9.i.i.M.N.z.;.} } ' } q.",
"w.=.=.....} d.M.g.d.d.d._ E E 7 9 5 E ] E E E _ E ] E E E E 5 7 5 E ^ ^ d.M.M.g.d.g.| W W ' ' 8.",
"h.=.=...} =.f.g.d.d.d.4.W ^ Q 6 6 7 ] ] ] ] E E ] Y ] E E E 7 5 7 ^ _ ` d.M.M.g.g.d...W W ` ' 8.",
"r._ ] } } } ;.;.;.d.f.f.=.=...( T R ^ ^ E ] ] ] _ _ ] T T T R T T ,.2.2.4.d.d.X...| ^ Y E W ] $.",
"r.E ^ } ] ] ' | } g.g.g.>.>.-.^ R E ( E ] [ [ [ _ ] ] T R T T T T 3.d.d.d.4.i.] W W E E E ^ W $.",
"r.{ E [ [ [ } | } s.f.d.>.-.>.W Y Y ] ] E } ' } [ [ ` E E E E E E 9.a.i.4.4.4.[ W E E Y T ^ ^ $.",
"c.R R | [ } :.:.,.,.,.,...=.=.W _ Y _ ] ] >.>.>.>.>.>.^ Y _ [ } } 2.i.4.......[ ^ E Y E ( 6 6 c.",
"c.5 R | } } ,.2.,.X.=...' ...._ Y _ } [ } 3.4.4.4.4.4.` Y Y ....=.2.3.2.[ _ _ ^ W E Y _ ^ 7 9 x.",
"m.c.c.8.5.8.s.s.p.q.q.9.5.q.7.+.+.+.5.5.5.s.l.f.l.s.l.5.6.6.5.q.8.h.f.s.5.+.+.@.@.@.@.$.@.O.x.m."
};
