/* XPM */
static char *result[] = {
/* columns rows colors chars-per-pixel */
"48 48 148 2 ",
"   c #2F2F2E",
".  c #332E2E",
"X  c #332F2E",
"o  c #342F2E",
"O  c #362F2F",
"+  c #33312E",
"@  c #32302F",
"#  c #33312F",
"$  c #37312F",
"%  c #35322E",
"&  c #35322F",
"*  c #36322F",
"=  c #37332F",
"-  c #39302F",
";  c #3B312F",
":  c #3B332F",
">  c #3A342F",
",  c #3C362F",
"<  c #343230",
"1  c #353230",
"2  c #303631",
"3  c #393431",
"4  c #3A3531",
"5  c #3B3632",
"6  c #313832",
"7  c #363831",
"8  c #313C33",
"9  c #3B3C32",
"0  c #3C3935",
"q  c #3E3B36",
"w  c #3C3D34",
"e  c #6E1C33",
"r  c #6F1C33",
"t  c #701B33",
"y  c #731B33",
"u  c #741A33",
"i  c #751A33",
"p  c #761B33",
"a  c #771B33",
"s  c #40372F",
"d  c #443E37",
"f  c #7C2336",
"g  c #7D2438",
"h  c #334337",
"j  c #644639",
"k  c #654639",
"l  c #66473A",
"z  c #674E3C",
"x  c #674F3D",
"c  c #69483A",
"v  c #69493B",
"b  c #6B493B",
"n  c #6D4A3C",
"m  c #684F3D",
"M  c #7D5535",
"N  c #7E5635",
"B  c #6D5746",
"V  c #76594E",
"C  c #902A39",
"Z  c #94283A",
"A  c #97293A",
"S  c #942A3A",
"D  c #9B283A",
"F  c #9E293B",
"G  c #9B323E",
"H  c #A3313E",
"J  c #815835",
"K  c #825835",
"L  c #835936",
"P  c #845935",
"I  c #845936",
"U  c #855936",
"Y  c #855A36",
"T  c #865A36",
"R  c #885B36",
"E  c #9D3143",
"W  c #A03140",
"Q  c #855D4D",
"!  c #875F4D",
"~  c #885F4E",
"^  c #8B614F",
"/  c #8E6250",
"(  c #8A6851",
")  c #8D6A53",
"_  c #916451",
"`  c #469158",
"'  c #42965A",
"]  c #44975A",
"[  c #439A5B",
"{  c #449E5D",
"}  c #49995B",
"|  c #489E5D",
" . c #4E9C5D",
".. c #49A05E",
"X. c #4AA05F",
"o. c #45A560",
"O. c #45A661",
"+. c #46A661",
"@. c #46A761",
"#. c #4FA460",
"$. c #46A862",
"%. c #47A963",
"&. c #4EA867",
"*. c #4CAB67",
"=. c #4FAB67",
"-. c #53A366",
";. c #53AE68",
":. c #4DB169",
">. c #4EB36A",
",. c #4FBA6D",
"<. c #4FBB6E",
"1. c #54B56C",
"2. c #55B76D",
"3. c #50BD6F",
"4. c #54BB72",
"5. c #5BBE72",
"6. c #C38059",
"7. c #CE865C",
"8. c #DA8D60",
"9. c #DA9665",
"0. c #DC9664",
"q. c #DF9467",
"w. c #E59363",
"e. c #E19366",
"r. c #E09367",
"t. c #E79968",
"y. c #898F99",
"u. c #8B919B",
"i. c #8A9A9D",
"p. c #9C989C",
"a. c #8E9BA1",
"s. c #8E9EA0",
"d. c #9799A0",
"f. c #9299A4",
"g. c #929FA4",
"h. c #969DA7",
"j. c #DEB588",
"k. c #E5BD8E",
"l. c #F2C795",
"z. c #FFD19C",
"x. c #C0C3C4",
"c. c #C5C5C8",
"v. c #CCCACC",
"b. c #CCCDD1",
"n. c #CBD1D0",
"m. c #D0D0D4",
"M. c #D3D3D6",
"N. c #D4D4D7",
/* pixels */
"R R R R R R R R R R R R R R R R R R R R R R R R R R R R R R R R R R R R R R R R R R R R R R R R ",
"R R R R R R R R R R R R R R R R R R R R R R R R R R R R R R R R R R R R R R R R R R R R R R R R ",
"R R R R R R R R R R R R R R R R R R R R R R R R R R R R R R R R R R R R R R R R R R R R R R R R ",
"R R R R R R R R R R R R R R R R R R R R R R R R R R R R R R R R R R R R R R R R R R R R R R R R ",
"R R R R R R R R R R R R R R R R R R R R R R R R R R R R R R R R R R R R R R R R R R R R R R R R ",
"R R R R R R R R R R R R R R R R R R R R R R R R R R R R R R R R R R R R R R R R R R R R R R R R ",
"R R R R R R R R R R R R R R R R R R R R R R R R R R R R R R R R R R R R R R R R R R R R R R R R ",
"R R R R R R R R R R R R R R R R R R R R R R R R R R R R R R R R R R R R R R R R R R R R R R R R ",
"R R R R R R R R R R R R R R R R R R R R R R R R R R R R R R R R R R R R R R R R R R R R R R R R ",
"R R R R R R R R R R R R R R R           + R R R R R R R R R R R R R R R R R R R R R R R R R R R ",
"R R R R R R R R R R R R R R R     . . . o K K K K R R R R R R R R R R R R R R R R R R R R R R R ",
"R R R R R R R R R R R R R R R   . u u u t       % R R R R R R R R R R R R R R R R R R R R R R R ",
"R R R R R R R R R R R R R R R % - t t u y O O O ; K R R R R R R R R R R R R R R R R R R R R R R ",
"R R R R R R R R R R R R R R R R K   . u p F F F A   > R R R R R R R R R R R R R R R R R R R R R ",
"R R R R R R R R R R R R R R R R K   . u p F F F A X : I Y R R R R R R R R R R R R R R R R R R R ",
"R R R R R R R R R R R R R R R R K   . u p F F F F F C   = R R R R R R R R R R R R R R R R R R R ",
"R R R R R R R R R R R R R R R R K   . u i D D D D D Z . $ K K R R R R R R R R R R R R R R R R R ",
"R R R R R R R R R R R R R R R R K   . u u u u u u u u u e   % R R R R R R R R R R R R R R R R R ",
"R R R R R R R R R R R R R R R R K   . u i a a a a a a a r   % R R R R R R R R R R R R R R R R R ",
"R R R R R R R R R R R R R R R R K   . u p F F F F F F F S   % R R R R R R R R R R R R R R R R R ",
"R R R R R R R R R R R R R R R R K   . f g E E E E E W H G q d J U R R R R R R R R R R R R R R R ",
"R R R R R R R R R R R R R R R R K   4 w.e.f.f.f.f.f.p.w.t.z.l.  > R R R R R R R R R R R R R R R ",
"R R R R R R R R R R R R R R R R K   4 w.e.f.f.h.h.h.d.r.q.l.k.% > R R R R R R R R R R R R R R R ",
"R R R R R R R R R R R R R R R R K   4 w.e.f.h.N.N.N.b.f.y.  % R R R R R R R R R R R R R R R R R ",
"R R R R R R R R R R R R R R R K M 2 w 0.9.a.g.m.m.N.m.h.u.  % K R R R R R R R R R R R R R R R R ",
"R R R R R R R R R R R R R R R   2 o.+.3.3.3.4.f.h.N.N.N.c.      > R R R R R R R R R R R R R R R ",
"R R R R R R R R R R R R R N N 8 h $.%.,.<.3.4.i.s.N.N.N.c.    8 7 N L R R R R R R R R R R R R R ",
"R R R R R R R R R R R R R %   o.+.3.<.o.O.3.<.o.&.N.N.N.c.  2 o.'   > R R R R R R R R R R R R R ",
"R R R R R R R R R R R R R %   o.+.>.:.| ..2.1.X.-.v.M.N.c.  2 @.'   > R R R R R R R R R R R R R ",
"R R R R R R R R R R R R R %   o.{   # c b _ _ _ / c V N.c.  6 3.*.  > R R R R R R R R R R R R R ",
"R R R R R R R R R R R R R %   #. .  # z m ) ) ) ( x B n.x.  6 5.*.  > R R R R R R R R R R R R R ",
"R R R R R R R R R R R R R %   w.8.  2 o.O.3.3.3.3.3.,.o.[   0 z.k.  > R R R R R R R R R R R R R ",
"R R R R R R R R R R R R R s > 7.6.> 9 ' ] ;.;.*.*.*.=.} `   0 k.j.> s R R R R R R R R R R R R R ",
"R R R R R R R R R R R R R R R   % R K   @ c k       * c j       > R R R R R R R R R R R R R R R ",
"R R R R R R R R R R R R R R R = , R K   # n v       3 n l     = , R R R R R R R R R R R R R R R ",
"R R R R R R R R R R R R R R R R R R K   < _ ^       5 _ ~   % R R R R R R R R R R R R R R R R R ",
"R R R R R R R R R R R R R R R R R R K % & ^ Q % % % 1 ^ ! % > R R R R R R R R R R R R R R R R R ",
"R R R R R R R R R R R R R R R R R R R R P   % R R R M   = R R R R R R R R R R R R R R R R R R R ",
"R R R R R R R R R R R R R R R R R R R R T > s R R R K > s R R R R R R R R R R R R R R R R R R R ",
"R R R R R R R R R R R R R R R R R R R R R R R R R R R R R R R R R R R R R R R R R R R R R R R R ",
"R R R R R R R R R R R R R R R R R R R R R R R R R R R R R R R R R R R R R R R R R R R R R R R R ",
"R R R R R R R R R R R R R R R R R R R R R R R R R R R R R R R R R R R R R R R R R R R R R R R R ",
"R R R R R R R R R R R R R R R R R R R R R R R R R R R R R R R R R R R R R R R R R R R R R R R R ",
"R R R R R R R R R R R R R R R R R R R R R R R R R R R R R R R R R R R R R R R R R R R R R R R R ",
"R R R R R R R R R R R R R R R R R R R R R R R R R R R R R R R R R R R R R R R R R R R R R R R R ",
"R R R R R R R R R R R R R R R R R R R R R R R R R R R R R R R R R R R R R R R R R R R R R R R R ",
"R R R R R R R R R R R R R R R R R R R R R R R R R R R R R R R R R R R R R R R R R R R R R R R R ",
"R R R R R R R R R R R R R R R R R R R R R R R R R R R R R R R R R R R R R R R R R R R R R R R R "
};
