/* XPM */
static char *result[] = {
/* columns rows colors chars-per-pixel */
"48 48 171 2 ",
"   c #2F2F2E",
".  c #392C2F",
"X  c #2F312F",
"o  c #2F2C33",
"O  c #322E34",
"+  c #332A3D",
"@  c #363531",
"#  c #6D1C32",
"$  c #741A33",
"%  c #44292F",
"&  c #5D2131",
"*  c #522932",
"=  c #443934",
"-  c #772A36",
";  c #36523D",
":  c #5D4339",
">  c #64463A",
",  c #69483A",
"<  c #714D3E",
"1  c #36264C",
"2  c #3B2948",
"3  c #362154",
"4  c #3A2555",
"5  c #3F2B50",
"6  c #3A1C66",
"7  c #3B1B6C",
"8  c #3C1677",
"9  c #3C1D75",
"0  c #3C167E",
"q  c #3C1C7B",
"w  c #3F2165",
"e  c #3C2077",
"r  c #482D4A",
"t  c #412E51",
"y  c #42295A",
"u  c #441B76",
"i  c #421B7B",
"p  c #4A2179",
"a  c #385C42",
"s  c #3A6345",
"d  c #3B6B49",
"f  c #3D7A4E",
"g  c #555250",
"h  c #6C5545",
"j  c #6E6B4D",
"k  c #776855",
"l  c #606060",
"z  c #882137",
"x  c #8C2238",
"c  c #98273A",
"v  c #9E293B",
"b  c #825C4B",
"n  c #A55249",
"m  c #B65D56",
"M  c #8B624B",
"N  c #94664D",
"B  c #916451",
"V  c #A1735D",
"C  c #985F6D",
"Z  c #917C62",
"A  c #3E8151",
"S  c #438C58",
"D  c #508955",
"F  c #49955A",
"G  c #5E925C",
"H  c #6A865E",
"J  c #44A15E",
"K  c #45A560",
"L  c #49A062",
"P  c #48AC64",
"I  c #55A363",
"U  c #4DB76B",
"Y  c #50BD6F",
"T  c #65A166",
"R  c #9B8F65",
"E  c #A4896C",
"W  c #BB9C78",
"Q  c #AAA468",
"!  c #D2895D",
"~  c #D6926A",
"^  c #E59363",
"/  c #3F0F89",
"(  c #3D1484",
")  c #3D1981",
"_  c #3E1289",
"`  c #410F8D",
"'  c #421486",
"]  c #401B81",
"[  c #4C1B82",
"{  c #42138C",
"}  c #4A168D",
"|  c #411888",
" . c #4A198C",
".. c #551F87",
"X. c #450F93",
"o. c #4A0F96",
"O. c #4B0F9A",
"+. c #451192",
"@. c #491295",
"#. c #4D1892",
"$. c #4D129B",
"%. c #51139E",
"&. c #551C99",
"*. c #541C9C",
"=. c #5B258A",
"-. c #55388A",
";. c #56269C",
":. c #562A99",
">. c #5A3695",
",. c #5C339C",
"<. c #612B8F",
"1. c #65338C",
"2. c #623D9E",
"3. c #5513A2",
"4. c #5A15A6",
"5. c #5619A2",
"6. c #5B1AA5",
"7. c #5D15A9",
"8. c #5E1AA9",
"9. c #6017AC",
"0. c #621BAD",
"q. c #671DB1",
"w. c #691DB3",
"e. c #5C26A3",
"r. c #5E2FA2",
"t. c #5D30A1",
"y. c #612EA5",
"u. c #6422AC",
"i. c #632CA8",
"p. c #6536A6",
"a. c #633AA2",
"s. c #6A33AC",
"d. c #6C23B3",
"f. c #6E2AB1",
"g. c #7125B6",
"h. c #722BB6",
"j. c #7324BA",
"k. c #762ABA",
"l. c #7A2BBD",
"z. c #6E34B1",
"x. c #7332B5",
"c. c #7C34BB",
"v. c #5E458E",
"b. c #5C4191",
"n. c #654C95",
"m. c #62429B",
"M. c #675391",
"N. c #7B2BC1",
"B. c #7E30C0",
"V. c #823CBE",
"C. c #8336C3",
"Z. c #853AC2",
"A. c #893BC5",
"S. c #8B39C8",
"D. c #779D8C",
"F. c #74A58B",
"G. c #9E989B",
"H. c #B69B90",
"J. c #83A686",
"K. c #9CA797",
"L. c #9299A4",
"P. c #B5ACA9",
"I. c #A7ACB4",
"U. c #AEB2BA",
"Y. c #AFB8BA",
"T. c #F7BE8B",
"R. c #B4CABC",
"E. c #FFD19C",
"W. c #BABDC3",
"Q. c #C8C9CC",
"!. c #D4D4D7",
/* pixels */
"s.s.s.z.z.z.Z.V.V.z.s.s.a.2.2.2.2.2.p.p.p.x.B.c.z.s.f.2.b.b.z.z.s.c.c.c.p.a.a.n.n.n.n.n.n.2.2.2.",
"s.$.$.4.6.8.f.f.g.*.3.3.o.o.o.` ' ` #.o.@.0.0.0.7.3.7./ _ _ *.*.3.u.d.u.$.+.O.} { ' ' ' ( / ` :.",
"s.%.3.8.8.8.f.g.d.*.3.3.o.o.o.` ` ` o.#.@.0.0.0.3.7.3./ _ _ @.3.3.0.q.q.$.X.O.{ } ' / / ( ` ` ,.",
"V.f.f.C.Z.B.5.6.6.g.g.f.O.%.%.` / ' ` ' _ X.X.X._ X./ _ ) ) _ _ _ $.3.3.@.o.@.+.@.` ` ` ` ` X.,.",
"V.g.k.C.B.B.5.6.4.d.g.g.O.O.o./ ( ( _ | ) +.+.+._ _ _ ) 0 0 ) _ ( %.%.3.%.O.o.X.` @.@.} } o.o.,.",
"V.d.g.C.B.c.5.5.4.f.d.g.O.O.o./ ) ( | _ _ #._ +._ _ _ _ 0 0 _ ( ( %.%.3.O.O.o.` X.{ #.@.@.X.@.,.",
"c.u.0.$.$.3.d.d.d.0.9.8.( ' / 0 ( 0 +.@.#.5.7.4.d.q.q._ _ _ @.$.%.3.6.4.@.} ` ' ' ' o.$.$.%.O.y.",
"c.w.q.$.$.3.d.d.u.0.9.6.( ' ' 0 ( 0 X.@.@.5.7.8.q.d.d.$.O._ #.$.%.*.4.4.{ ` ' } ' ' X.o.o.$.%.y.",
"c.q.q.$.$.%.d.d.u.8.8.6.( ' ( ' ( ( $.@.$.4.7.7.q.w.q.O._ _ 3.$.%.5.5.6.@.` ` { { _ _ _ O.3.$.y.",
"m._ / +.+.+.5.*.3.) ) 0 ( ' ' 1 1 1 5 5 r $.3.3.9.9.9.%.%.O.@.@.#.h.c.c.w.9.0.#.` _ _ ( _ _ O.r.",
"b._ _ +.{ #.*.%.$.( { ' ' }  .o         X } %.3.9.8.0.3.3.3.O.O.@.x.c.c.u.0.0.{ / _ ) ) ) _ @.r.",
"2./ _ +. .+.%.5.*.( { ' } }  .o   & & & # 2 4 4 w *.0.3.3.3.X.O.$.x.c.c.u.0.0.{ / _ _ ) ) _ _ t.",
"M.) ) _ _ | ) ( ( ) ' ' %.3.*.o   $ $ $ $ . O     8 ` O.O.O.+.{ } +.$.$.x.k.k.q.8.8.' 0 ) e ) b.",
"M.e e ) | ) ) _ { '  .' 3.$.$.1.1.% % # $ - - - - r 1 ' @.@.#.#.} +.@.@.h.x.k.u.8.0.| 0 e ) e b.",
"M.9 9 _ | _ ) { { ' } } $.$.%.Z.A.O   # $ c v v c %   8 o.@.#. . .o.$.$.s.k.x.u.8.8. .q ) ) ) b.",
"m._ _ $.$.@.| +.` %.$.$.C.Z.C.8.0.O   # $ c v v v - - t 3 8  .| } ' [ ] +.%.$.f.h.k.0.8.u._ ) b.",
"a._ { @.O.O.+.@.@.O.O.$.V.A.V.6.5.O   # $ c v v v v v *   7 ' ' ' }  .[ @.O.@.d.k.k.u.q.0.O._ ,.",
",._ +.o.O.O.X.+.@.%.@.$.A.A.A.8.5.@   # $ z z z z z x & * 2 3 3 3 u  .} @.O.@.d.h.k.q.q.0.$._ ,.",
"z.8.4.7.9.7.O.+.@.w.d.w.e.0.6.{ ' O   # $ $ $ $ $ $ $ $ $ %     o 6 { } { ' ' #.%.%.9.q.q.3.O.r.",
"x.6.4.9.q.9.O.X.o.d.d.d.6.*.4.3 3 N N - $ x x x x x x x z %   B E g 3 i { ' ' @.O.%.0.q.w.3.O.i.",
"x.8.4.9.0.9.O.X.@.d.d.d.6.6.*.O   ! ^ - $ c v v v v v v v *   W E.k   6 { } ( @.O.O.0.w.q.3.3.i.",
"p.$.$.+.+.+._ ( ( #.+.@.+.u y a d M M n n C C C C C C m m V Z Z Z g   u ( ( ) ) _ _ @.@.O.O._ t.",
"s.$.$.{ +.{ ) ) q } { +.@.  X J J @   ! ^ G.L.L.L.L.L.~ ^ T.E.k       u ( ( 0 0 ) ) +.+.X./ O.t.",
"p.$.$.{ +.{ 0 q ) +.{ { @.  X J K @   ! ^ G.L.U.U.W.U.H.W E E H f @   u ( ( ( ) ) ) +.+.O._ / r.",
"s.%.O.X.` ` ( 0 ) +.#.+.#.X X J J X X ! ^ G.L.Q.!.!.!.I.L.g o S Y s   u 0 0 0 ) ) ) O.O.O.%.O.y.",
"s.%.%.` ` ` ( 0 ) +.#.} @.  X J J s s R Q J.F.Y.W.!.!.W.I.g o S Y s   7 ' 0 8 ( ) _ O.O.%.%.%.y.",
"s.%.O.` / / ( ( ) +.+.+.@.  X J P J K Y Y Y Y D.L.Q.!.!.!.l o S Y s O 7 0 i 0 i ) ( o.%.%.%.%.i.",
"s.%.%.o.O.o.X._ { 8.8.6.0.y y f A U P U Y Y Y F.D.W.!.!.!.l X A U s X u o.` ` X.+.+.3.7.7.3.%.y.",
"s.%.%.$.O.O.O.X.o.q.0.q.q.q.q.O X U U J J Y Y P J R.!.!.!.l X A K a o u o.X.X.@.@.O.4.7.8.3.$.i.",
"s.%.%.$.%.O.O.X.X.q.q.0.q.d.0.3 1 S F D D T T G G K.P.Q.!.l o d f g 3 | o.o.X.@.O.@.7.8.8.3.%.i.",
"a.{ { | _ _ ( ) ] &.$.&.c.N.B.u.d.O X > , M M M M < : P.!.l X X   p 0.9.{ ' ( ] ] ) +.#.$. .| >.",
"m.) _ _ _ ( 0 q e { { +.C.C.B.N.k.X X > j k k R k j j K.R.l X 2 2 ..w.9.{ ( ( q q ) _ _ +.) ) >.",
"m._ | ) / / 0 q q { +.#.Z.C.C.k.j.+   F J Y Y Y Y Y Y P J ;   =.g.w.0.0.{ ( 0 q q 9 / X.+.( ) b.",
"a.+.@.3.3.O./ ( ( ) ] ) ;.*.*.N.N.t t A A I I L L L L F F ;   <.k.#.@.} e q q ) _ _ O.3.3.o.+.t.",
"p.O.$.4.4.4.` ( ' q 9 e +._ _ N.N.N.l.+ X : , @     @ : , = X <.l.} ' 0 e e 9 ( _ _ 3.7.4.3.@.r.",
"p.O.$.4.4.3.` ' ' q 9 9 { _ _ l.N.N.k.+ X , < @   X X > < @ X <.l.} ' ( e e q { { +.3.7.4.$.$.r.",
"s.%.3.9.q.9.9.u.e.#._ ( ) ) ] e.*.;.g.+ X b N @       h B =   p &.q q q ( { { u.g.f.w.q.q.3.O.e.",
"z.3.7.q.w.w.j.g.j.X._ _ e e e ( | _ g.5 2 h M 2 + + + h M r + 7 ( q e q { { +.B.S.S.j.w.q.3.O.y.",
"z.4.4.q.w.w.j.j.j.X.+._ ) q q _ { _ g.h.k.2 X  .o.o.@.4 @ [ } ) ) q e e { +.+.c.S.S.g.w.w.3.O.y.",
"z.3.3.4.7.4.j.j.j.0.0.8.| ( ) ) q q 5.5.;.1 2 _ +.X.+.3 + u 0 q q ( _ { 0.u.q.l.c.l.6.$.3.$.O.y.",
"s.3.3.%.%.3.g.N.N.j.w.j.X.( _ q q q _ @._ _ @._ _ +._ _ _ ( e q 9 _ { { j.N.N.l.j.l.$.{ X.O.O.y.",
"z.3.3.%.$.3.g.k.j.j.j.j.+._ { 0 q e +._ _ @._ _ +._ +._ _ ( q q 0 _ X.X.j.N.N.l.l.j.$.X.` o.O.y.",
"y.@.@.O.@.$.8.e.6.g.k.j.%.%.%.( ) ) _ +.@._ O._ X.X.X._ ( ( ) ) ) 5.8.8.w.j.j.5.5.*.} _ { ` +.,.",
"a._ +.+.@.$.$.$.$.k.N.k.7.7.7.{ _ ) { +._ $.@.@.X.+._ ( ( ( ) _ _ u.j.j.j.w.w.@.{ { / / ( { ` ,.",
"a._ @.$.+.@.$.$.$.h.k.k.7.7.4.` _ _ +._ _ @.O.$.@.X.+._ _ _ _ _ { u.j.j.w.w.w.#./ { _ / ( { { ,.",
"b.) | #.#.$.5.6.5.0.8.8.3.3.3.` / / o.X.+.4.7.6.7.7.4.+./ _ O.O.@.0.w.w.4.3.3.+.+./ _ _ { ) i >.",
"v.e ) #.$.$.8.8.0.*.$.3.O.%.%.o./ X.@.O.$.q.w.w.w.w.w.X._ _ $.3.3.8.0.q.@.X.X.( / _ ( / { q e v.",
"n.-.-.r.e.e.f.f.f.i.u.u.e.e.e.;.;.;.e.e.e.f.h.h.k.k.k.;.:.e.e.i.e.f.h.h.;.;.;.:.>.:.:.:.>.-.-.n."
};
