/* XPM */
static char *result[] = {
/* columns rows colors chars-per-pixel */
"48 48 156 2 ",
"   c #2F2F2E",
".  c #342E2E",
"X  c #392C2F",
"o  c #33312F",
"O  c #312E33",
"+  c #323531",
"@  c #313832",
"#  c #383837",
"$  c #641F32",
"%  c #751A33",
"&  c #562331",
"*  c #5B2231",
"=  c #602032",
"-  c #7A2B37",
";  c #334136",
":  c #69483A",
">  c #372A46",
",  c #35254E",
"<  c #3A2749",
"1  c #3C2A4D",
"2  c #3B2355",
"3  c #392955",
"4  c #3B235C",
"5  c #391F61",
"6  c #3B1E76",
"7  c #3C167E",
"8  c #3C1C7B",
"9  c #3B2061",
"0  c #3C2077",
"q  c #432E4D",
"w  c #492E5E",
"e  c #421A7D",
"r  c #412266",
"t  c #482C61",
"y  c #4B266F",
"u  c #512E6F",
"i  c #4D3169",
"p  c #3E754D",
"a  c #6D5144",
"s  c #785343",
"d  c #49734E",
"f  c #57774D",
"g  c #567B4F",
"h  c #59784E",
"j  c #427F53",
"k  c #71674D",
"l  c #657555",
"z  c #777355",
"x  c #821F36",
"c  c #852036",
"v  c #8C2237",
"b  c #912438",
"n  c #9E293B",
"m  c #B45E4E",
"M  c #8A6148",
"N  c #8F6350",
"B  c #916451",
"V  c #966876",
"C  c #CF7F6C",
"Z  c #5C8656",
"A  c #6D8A5C",
"S  c #70875E",
"D  c #45A45F",
"F  c #709060",
"G  c #6C9A7E",
"H  c #45A560",
"J  c #4BA765",
"K  c #50BD6F",
"L  c #63B86D",
"P  c #A0896E",
"I  c #D58772",
"U  c #E08B60",
"Y  c #E59363",
"T  c #3E0F88",
"R  c #3D1484",
"E  c #3C1981",
"W  c #3E1289",
"Q  c #410F8D",
"!  c #421486",
"~  c #441985",
"^  c #42138B",
"/  c #49168E",
"(  c #421889",
")  c #4A1A8C",
"_  c #450F93",
"`  c #4A0F96",
"'  c #4B0F9A",
"]  c #451192",
"[  c #491295",
"{  c #4C1A93",
"}  c #4D129B",
"|  c #4F1A98",
" . c #541D94",
".. c #51139E",
"X. c #53199B",
"o. c #593E8E",
"O. c #5A2D9D",
"+. c #593596",
"@. c #5D3E94",
"#. c #5C349C",
"$. c #5F3B99",
"%. c #613D9E",
"&. c #5413A2",
"*. c #5A15A6",
"=. c #5619A2",
"-. c #5A1AA4",
";. c #5D16A9",
":. c #5E1BA9",
">. c #6017AC",
",. c #621BAD",
"<. c #661DB1",
"1. c #691DB3",
"2. c #5E2BA3",
"3. c #5D31A0",
"4. c #6321A2",
"5. c #612DA6",
"6. c #6621AE",
"7. c #6B25AD",
"8. c #642CA9",
"9. c #6A2EAE",
"0. c #6234A3",
"q. c #633BA2",
"w. c #6731A9",
"e. c #6A33AC",
"r. c #6C23B3",
"t. c #6E2BB1",
"y. c #7124B6",
"u. c #732CB4",
"i. c #7324B9",
"p. c #762AB9",
"a. c #792BBD",
"s. c #6E32B1",
"d. c #7332B5",
"f. c #7B39B4",
"g. c #7531B8",
"h. c #7C33BC",
"j. c #5C438D",
"k. c #5C4291",
"l. c #614495",
"z. c #644C93",
"x. c #62439B",
"c. c #675391",
"v. c #7B2BC0",
"b. c #823CBD",
"n. c #B97E89",
"m. c #8336C3",
"M. c #863BC2",
"N. c #893BC5",
"B. c #8B39C8",
"V. c #9F8F8A",
"C. c #BA808A",
"Z. c #8CBC9B",
"A. c #9297A2",
"S. c #FAC897",
"D. c #FFD19C",
"F. c #D3D3D6",
/* pixels */
"e.w.e.s.s.s.v.b.h.e.t.e.0.#.%.%.%.+.5.0.0.g.g.g.9.9.9.$.$.@.w.w.e.g.h.h.0.0.0.l.z.l.l.l.%.@.#.%.",
"e.} } -.*.:.t.d.u.X.&.&.[ ` ` Q Q T [ [ [ ,.<.<.*.*.*.T W W } &.&.<.r.6.} ] ` ^ ~ ! ! ! 7 Q Q #.",
"s.X.=.:.2.6.r.t.7.-.*.*.` ' ` Q T Q [ [ [ :.>.:.&.&.&.T R W | } } ,.1.,.} ` ` ^ ^ ! T T ! Q Q #.",
"b.u.i.m.m.v.=.-.-.y.r.u.} } ..^ R ^ ^ ! W _ _ _ W _ W W E E W W R } &.&.[ ` [ ` ] [ ^ Q Q Q Q O.",
"b.y.i.m.m.v.=.=.-.r.y.y.' ' ` T R R R ( W ( ] W W W W E 7 7 R R R ....&...} } Q Q [ / [ / ` [ %.",
"b.r.y.h.a.h.:.*.:.r.r.r.[ ` ` T R R ( R ( [ ] [ ] ( W W E E W W / ....&.} } ` Q Q / [ { / [ [ O.",
"h.6.,.} } X.r.r.6.;.;.:.R R T 7 E 7 _ [ [ =.:.-.6.r.1._ ] ] | } X...*.*./ Q ^ ! ! ! ` ' ' ....5.",
"h.1.<.......1.r.7.,.,.:.R ! e T R R [ ` { > > *.1.1.1.' W W } | } *.X.*.^ Q Q ^ Q ! ] ` ` ' ..5.",
"f.<.<.} } &.r.6.6.-.-.2.R ! R ! ! 7 ..[ [     ;.<.1.1.` _ ` [ | [ -.-.-.[ / ^ ^ ^ W W W ' &.} 2.",
"k.W W ] ] [ X...=.E 7 R ! ~ ! ..' ..d.q q $ $ > 3 >.>...} } [ [ [ u.b.h.1.,.,.[ Q T T R R W } 3.",
"%.W W ] / ( X.&...R T ! / / / &.....u.o . % %   O >.<.&.&.&.` ' [ d.h.h.6.6.:.Q T R E E E W | 3.",
"k.W W ] / ] } X.| R ! Q ^ / { =.&.&.u.  . % % $ * 1 3 &.&.&.` ` [ u.h.h.6.,.,.{ T ^ R E E W W 3.",
"c.E E W ( ( E R R R ! ~ &.&.&.M.B.N.X.o . % % % %     ` ` } ^ / ~ [ [ [ t.p.p.,.,.:./ 7 E 0 E k.",
"c.0 0 W E E E W ^ ! / ~ &.' ..M.b.w 1 = = b b b v     ` ` [ { ) / [ ' [ u.g.g.6.:.,.( 7 E 0 0 k.",
"c.0 0 W ( E E ( ! ! / / &.&.&.b.f.. . % % n n n b +   ` ` ` / ) / ` [ [ 9.g.u.6.6.,.( E E E E k.",
"3.W ( [ } } ] ] _ ..} } m.M.M.-. .o . % % n n n n - - , , ! / ~ / ~ ~ ! { } [ t.u.p.,.,.:.{ E +.",
"q.W W [ ' ' Q [ [ ' } } M.N.M.-. .  o % % n n n n n n o o ~ ! e ! ) ) ~ [ } } 7.p.p.,.,.,.' W $.",
"3.W ] } ' ' ] ] [ ..} } b.M.M.-. .  . % % n n n n n n c - < > ! ! ) ) ) ` } [ 7.p.p.1.,.,.' W 3.",
"d.:.*.;.>.>.' ` ` r.r.r.-.:.-.R e X X % % n n n n n n n n .   ' ..^ ! Q ! ~ ! [ } } ,.1.1.&...2.",
"d.-.;.;.<.>.` ` ` r.r.r.-.-.X., < % % v b n n n n n n n n . . ....Q T ! ! ! ! ` } ' ,.1.1.&.' 8.",
"s.*.*.:.>.>.' ` [ r.r.r.-.*. .  X % % n n n n n n n n n n .   X...! ! Q / ! R [ } ' :.1.<.&...2.",
"e.| } ] _ ^ R 8 7 ^ ] ^ [ } ~ . X % % n n x x x c n n n n & & 9 r } ' ..R R R R E R ] ' ' _ W 3.",
"w.} } ^ ^ _ R E E ^ ^ { ` ' ^   X % % n n % % % % n n n n % %     [ ..' R R E 8 E E ] ] _ _ W 3.",
"w.} } ^ ] ^ 7 8 8 ] ^ ^ ] 2 2 & = % % x x b v b b c c c c v v     4 9 ' R R R 8 E E ] ] _ _ _ 3.",
"e.X.} _ Q _ R E 7 ] ] { /     % % % % % % n n n n % % % % n n         _ R 7 8 R E R } } ..} } 8.",
"e.} ' Q Q T R 7 E { ~ 3 3 j Z l l m m v b n n V V v b x v C I j j j j 3 , 7 7 8 E R ' ....&.} 8.",
"e...' _ _ T R E E ] e   ; K K K L Y U n n n n A.A.n n n n S.D.K K K K + . 7 6 7 E R } } ....} 8.",
"e.&...' ' ' _ W ] ,.-.y i p p p d M M k k z z G G n.n.n.C.P V p p p d r 5 ` Q ` _ ] &.;.;.&.} 8.",
"w.....' ' ' ' _ ` ,.<.,.>.    .     @ H H K K D J F.F.F.F.# o o .     ' ` ` ` [ ' ] -.;.;.&...8.",
"s.....} ' ' _ _ ] <.,.<.4.y y 5 2   @ f h F F A S V.V.F.F.;   r r r r ' ` ` _ [ ' ' -.;.,.&...8.",
"q.E ( ^ W W R E e { [ [ h.m.m.y.4.  o : : B B B N : : F.F.#   7.1.1.,.>.! R R 8 8 8 ] [ ] ( R @.",
"x.E E W W R 7 8 8 ^ { / m.m.m.p.7.  o f h F F F A Z Z Z.Z.o   y.y.1.1.,.W R R 8 8 7 ( ^ ] E 7 @.",
"%.E ( W T T R 8 8 ^ ] { m.M.m.i.7.o @ H H K K K K K K D D +   i.r.<.,.,.( E E 8 8 8 T _ _ W E @.",
"q.} ' X.....T R R ~ 0 e | | | a.p.u i p p Z Z Z j j p j g +   p.v.[ ^ / e 0 6 R W W ..&.&.' _ #.",
"0.' } *.;.&.Q ! R 8 6 0 ( W ^ a.v.v.t.  o : :         : :     v.a.^ ! R 0 0 8 R W W &.;.*...} 2.",
"0.' ' ;.;.&.^ ^ ! 8 8 6 ] ( W a.v.a.y.  o s s         s s +   a.a.) e R 8 6 6 ^ ^ ] &.;.;.} ' 3.",
"s.&.&.>.<.<.,.r.6./ W W E E 0 | { | 7.  + N N         N N +   { { e 0 8 ( W ^ t.h.p.1.<.<...' 5.",
"s.=.;.<.1.1.i.i.i.] W W 8 0 0 R ( W 7.t i a a 4 3 3 2 a a t , R E 0 0 8 ^ ^ [ a.B.B.i.1.<.&.' 5.",
"s.=.;.<.1.1.y.i.i.] ] ^ 8 8 E ( W ( p.i.t.  O &.} ` `     =.( R E 8 8 7 _ ] [ h.B.N.y.1.1.&.' 5.",
"s.&.&.&.;.*.y.i.i.<.,.<.^ R E E 8 7 | X.{ 5 9 ] ] ] ] 5 5 ] 7 8 8 ( W ( ,.r.r.a.a.a.-.} } ' ' 5.",
"s.&.&.&.} &.p.p.v.i.i.i._ R W 8 0 6 W ] W W ] W ^ _ W W W W 8 6 8 W ^ ] i.v.v.a.a.p.| Q _ ` ' 8.",
"9...&.} } &.p.a.p.r.i.1._ W ^ 7 8 8 ] ] ] ] W W _ W ] W R R 8 8 8 ^ ] ] i.v.v.a.a.p...Q Q ` ' 2.",
"3.[ [ } } } =.=.-.i.p.p.&.&.&.R E W ( ] ] ] [ ] _ ^ ] R R R R E E -.<.,.1.i.y.X...} ^ W W ^ ] O.",
"3.W ] ] [ ] } } } p.v.p.;.;.*.^ R R W W W [ ] [ _ _ ] R R R R R W <.i.i.1.1.1.[ Q ! ! T W ^ ^ #.",
"%.( ] [ ] [ } } | p.p.i.;.;.;.Q T T W W ^ [ } } [ [ ` R R R W R W r.r.i.1.1.1.[ Q W W T R ^ ^ #.",
"z.( E | } } =.-.*.:.:.:...&.&.Q _ T ' ' [ ;.;.;.;.;.;.] _ W ` } [ ,.r.<.X...&.] ^ W T ^ ^ 8 8 @.",
"k.8 E | } | ,.:.:.&.&...' ...._ T _ [ } [ <.1.1.<.1.<.` _ W } &...,.,.,.` _ _ ^ Q W T Q ^ 8 8 j.",
"c.j.k.2.5.5.t.s.t.8.8.6.5.2.4.O.O.O.2.2.2.u.p.g.p.g.g.2.#.2.2.8.8.u.g.u.2.O.O.+.+.+.+.O.+.o.j.c."
};
