/* XPM */
static char *result[] = {
/* columns rows colors chars-per-pixel */
"48 48 168 2 ",
"   c #2C342A",
".  c #32362B",
"X  c #31372F",
"o  c #3D3B2C",
"O  c #353C33",
"+  c #353934",
"@  c #363934",
"#  c #363A35",
"$  c #3C3B30",
"%  c #3A3C39",
"&  c #413D2D",
"*  c #423E31",
"=  c #4D422E",
"-  c #4E432E",
";  c #4F432F",
":  c #52442F",
">  c #54452F",
",  c #4E443E",
"<  c #5A4730",
"1  c #50453B",
"2  c #57483D",
"3  c #5B4A3E",
"4  c #604A31",
"5  c #624B31",
"6  c #604A33",
"7  c #654C31",
"8  c #674D32",
"9  c #694E32",
"0  c #6B4F32",
"q  c #6D5032",
"w  c #6F5033",
"e  c #715133",
"r  c #775434",
"t  c #795434",
"y  c #7B5534",
"u  c #7C5634",
"i  c #7D5634",
"p  c #7E5735",
"a  c #73583E",
"s  c #424042",
"d  c #444144",
"f  c #454344",
"g  c #474347",
"h  c #434A43",
"j  c #494349",
"k  c #4B454C",
"l  c #4E464E",
"z  c #4F474F",
"x  c #5C4A41",
"c  c #5E554A",
"v  c #524853",
"b  c #564B57",
"n  c #574B58",
"m  c #5C4D5D",
"M  c #5C4E5D",
"N  c #5E4E5F",
"B  c #575856",
"V  c #5D5159",
"C  c #5A565A",
"Z  c #5E515F",
"A  c #5C585C",
"S  c gray37",
"D  c #615C51",
"F  c #60605F",
"G  c #64615E",
"H  c #625863",
"J  c #6C5863",
"K  c #665768",
"L  c #6B556D",
"P  c #745A77",
"I  c #755D78",
"U  c #795D7C",
"Y  c #5E6260",
"T  c #656465",
"R  c #686867",
"E  c #686967",
"W  c #656B68",
"Q  c #6A6A69",
"!  c #6D6E6C",
"~  c #6F6D6F",
"^  c #6F6170",
"/  c #726473",
"(  c #776578",
")  c #79617C",
"_  c #757375",
"`  c #747674",
"'  c #757774",
"]  c #825935",
"[  c #835935",
"{  c #885B36",
"}  c #7F6282",
"|  c #7D6480",
" . c #7D6580",
".. c #86688A",
"X. c #87688A",
"o. c #856D88",
"O. c #8A6C8D",
"+. c #8C6C8F",
"@. c #827D82",
"#. c #867189",
"$. c #89728B",
"%. c #8C798E",
"&. c #8D6E91",
"*. c #8F6F92",
"=. c #8C7090",
"-. c #8E7291",
";. c #8E7C90",
":. c #907493",
">. c #907094",
",. c #917395",
"<. c #917594",
"1. c #927595",
"2. c #917C93",
"3. c #947997",
"4. c #947F96",
"5. c #957798",
"6. c #957899",
"7. c #987E9B",
"8. c #9B7FA0",
"9. c #8E8884",
"0. c #8E898E",
"q. c #8D8D8D",
"w. c #8F8E8E",
"e. c #918193",
"r. c #928093",
"t. c #99869B",
"y. c #99879B",
"u. c #9A879C",
"i. c #988F99",
"p. c #9D8C9F",
"a. c #969196",
"s. c #9F95A0",
"d. c #A190A3",
"f. c #A298A3",
"g. c #A59CA6",
"h. c #A696A8",
"j. c #A79BA8",
"k. c #A99DAA",
"l. c #AD9DB4",
"z. c #AAA6AB",
"x. c #ADA0AE",
"c. c #AEA1AF",
"v. c #AFA7AF",
"b. c #AFA6B0",
"n. c #B0A6B1",
"m. c #B3A9B4",
"M. c #B6ADB7",
"N. c #B7ADB8",
"B. c #B4B0B4",
"V. c #B9B0BA",
"C. c #B9B1BA",
"Z. c #BAB1BB",
"A. c #BEB6BF",
"S. c #BEBABF",
"D. c #BFB7C0",
"F. c #BCB0C5",
"G. c #B8B8C0",
"H. c #C0B9C1",
"J. c #C3BBC4",
"K. c #C5C0C6",
"L. c #C0C1C8",
"P. c #C8C1CA",
"I. c #CDC6CE",
"U. c #CEC8CF",
"Y. c #D3CDD4",
"T. c #D3CBDD",
"R. c #E9E7F5",
"E. c #F1F0FD",
/* pixels */
"{ { { { { { { { { { { { { { { { { { { { { { { { { { { { { { { { { { { { { { { { { { { { { { { { ",
"{ { { { { { { { { { { { { { { { { { { { { { { { { { { { { { { { { { { { { { { { { { { { { { { { ",
"{ { { { { { { { { { { { { { { { { { { { { { { { { { { { { { { { { { { { { { { { { { { { { { { { ",
"{ { { { { { { { { { { { { { { { { { { { { { { { { { { { { { { { { { { { { { { { { { { { { { { { ",
"{ { { { { { { { { { { { { { { { { { { { { { { { { { { { { { { { { { { { { { { { { { { { { { { { ",
"{ { { { { { { { { { { { { { { { { { { { { { { { { { { { { { { { { { { { { { { { { { { { { { { { ",
"{ { { { { { { { { { { { { { { { { { { { { { { { { { { { { { { { { { { { { { { { { { { { { { { { ",
"{ { { { { { { { { { { { { { { { { { { { { { { { { { { { { { { { { { { { { { { { { { { { { { { { ",
"{ { { { { { { { { { { { { { { { { { { { { { { { { { { { { { { { { { { { { { { { { { { { { { { { ",
"{ { { { { { { { { { { { { { { { { { { { { { { { { { { { { { { { { { { { { { { { { { { { { { { { ",
"{ { { { { { { { { { { { { { { { { { { { { { { { { { { { { { { { { { { { { { { { { { { { { { { { ",
"{ { { { { { { { { { { { { { { { 9 - - - - - - - - 7 { { { { { { { { { { { { { { { { { { { { { { ",
"{ { { { { { { { { { { { { { { { :                 = { { { { { { { { { { { { { { { { { { { { { { ",
"{ { { { { { { { { { { { { { 4 o J  . . . . . .) L z o 7 { { { { { { { { { { { { { { { { { { { { ",
"{ { { { { { { { { { { { { { 4   K >.>.>.>.>.>.+.U N   > { { { { { { { { { { { { { { { { { { { { ",
"{ { { { { { { { { { { { q . V O.O.>.>.>.>.>.>.>.*...P v . 0 { { { { { { { { { { { { { { { { { { ",
"{ { { { { { { { { { [ i a h H &.&.&.8.8.8.8.&.,.5.=.| Z + 6 i { { { { { { { { { { { { { { { { { ",
"{ { { { { { { { { { u   W E.F.U U U T.E.E.R.U o.V.n.s.;.U j   e { { { { { { { { { { { { { { { { ",
"{ { { { { { { { { { u   Y T.l.U U U F.T.L.G.$.2.V.m.g.r.U j   e { { { { { { { { { { { { { { { { ",
"{ { { { { { { { { { u   s U U U U U U U @ O V.V.V.V.V.p.U j   e { { { { { { { { { { { { { { { { ",
"{ { { { { { { { { { ] ; 1 m m m m m m m _ ` J.J.J.Z.b.y.U j   e { { { { { { { { { { { { { { { { ",
"{ { { { { { { { { { { { q               S.Y.Y.Y.Y.H.s.;.U j   e { { { { { { { { { { { { { { { { ",
"{ { { { { { { { { { { { t < < < &   B T v.C.C.C.C.k.%./ v 2 < u { { { { { { { { { { { { { { { { ",
"{ { { { { { { { { { { { { { { { :   @.s.s.s.s.s.s.e.U n   7 { { { { { { { { { { { { { { { { { { ",
"{ { { { { { { { { { { { { { { { :   0.n.n.n.n.j.#.^ g x 8 u { { { { { { { { { { { { { { { { { { ",
"{ { { { { { { { { { { { { { { { :   a.V.V.V.V.x.U N   > { { { { { { { { { { { { { { { { { { { { ",
"{ { { { { { { { { { { { { { 4 o 9.B.K.U.U.P.o.( % 3 r r { { { { { { { { { { { { { { { { { { { { ",
"{ { { { { { { { { { { { { { 4   q.Y.Y.Y.Y.I.U L   = { { { { { { { { { { { { { { { { { { { { { { ",
"{ { { { { { { { { { { { q . G i.i.f.f.f.6.-.X * ] ] { { { { { { { { { { { { { { { { { { { { { { ",
"{ { { { { { { { { { { { q   F f.f.f.f.f.1.O.+ $ i i i i i i i i i { { { { { { { { { { { { { { { ",
"{ { { { { { { { { { { { q   Q V.V.V.V.V.6.*.U L                   p { { { { { { { { { { { { { { ",
"{ { { { { { { { { { { { q   ! D.D.D.D.D.7.<.} I f f f f f f f f f 8 e e e e u { { { { { { { { { ",
"{ { { { { { { { { { { { q   ' Y.Y.Y.Y.Y.d.t.>.>.>.>.>.>.>.>.>.>.>.#         - { { { { { { { { { ",
"{ { { { { { { { { { { { t : D w.z.A.A.A.c.h.3.:.X.X.X.X.X.X.X.X.X.b k k k k , 5 r { { { { { { { ",
"{ { { { { { { { { { { { { { 4   ~ s.s.s.M.N.u.4.U U U U U U U U U U U U U U M   < { { { { { { { ",
"{ { { { { { { { { { { { { { u 4 c S S S E R A C l l l l l l l l l l l l l l d   < { { { { { { { ",
"{ { { { { { { { { { { { { { { { :                                               < { { { { { { { ",
"{ { { { { { { { { { { { { { { { y w w w w w w w w w w w w w w w w w w w w w w w u { { { { { { { ",
"{ { { { { { { { { { { { { { { { { { { { { { { { { { { { { { { { { { { { { { { { { { { { { { { { ",
"{ { { { { { { { { { { { { { { { { { { { { { { { { { { { { { { { { { { { { { { { { { { { { { { { ",
"{ { { { { { { { { { { { { { { { { { { { { { { { { { { { { { { { { { { { { { { { { { { { { { { { ",
"{ { { { { { { { { { { { { { { { { { { { { { { { { { { { { { { { { { { { { { { { { { { { { { { { ",
"{ { { { { { { { { { { { { { { { { { { { { { { { { { { { { { { { { { { { { { { { { { { { { { { { ",
"{ { { { { { { { { { { { { { { { { { { { { { { { { { { { { { { { { { { { { { { { { { { { { { { { ",
"{ { { { { { { { { { { { { { { { { { { { { { { { { { { { { { { { { { { { { { { { { { { { { { { { ",
"{ { { { { { { { { { { { { { { { { { { { { { { { { { { { { { { { { { { { { { { { { { { { { { { { ",
"{ { { { { { { { { { { { { { { { { { { { { { { { { { { { { { { { { { { { { { { { { { { { { { { { ",
"{ { { { { { { { { { { { { { { { { { { { { { { { { { { { { { { { { { { { { { { { { { { { { { { { "
};
