/* XPM */
static char *result[] = {
/* columns rows colors chars-per-pixel */
"48 48 183 2 ",
"   c #2C342A",
".  c #32362B",
"X  c #33372B",
"o  c #31372F",
"O  c #36382B",
"+  c #38392B",
"@  c #3D3B2C",
"#  c #343833",
"$  c #363A35",
"%  c #363E35",
"&  c #3A3B33",
"*  c #383E36",
"=  c #3A3C39",
"-  c #3C3D3B",
";  c #3C3D3C",
":  c #3F3E3E",
">  c #3F3F3E",
",  c #433E2D",
"<  c #453F2D",
"1  c #384037",
"2  c #49402E",
"3  c #54452F",
"4  c #55452F",
"5  c #474036",
"6  c #40403F",
"7  c #45413F",
"8  c #41443C",
"9  c #44473E",
"0  c #5A4830",
"q  c #604A31",
"w  c #624B31",
"e  c #634B31",
"r  c #654C31",
"t  c #664D31",
"y  c #664D32",
"u  c #6B4F32",
"i  c #604C3A",
"p  c #6D5033",
"a  c #6C5038",
"s  c #715133",
"d  c #725233",
"f  c #765334",
"g  c #775434",
"h  c #795434",
"j  c #795534",
"k  c #7C5634",
"l  c #7E5735",
"z  c #7F5735",
"x  c #444143",
"c  c #444144",
"v  c #454344",
"b  c #474646",
"n  c #4B4340",
"m  c #494C47",
"M  c #4B444B",
"N  c #4D464E",
"B  c #4A494A",
"V  c #4E4E4E",
"C  c #54484D",
"Z  c #5A4B4B",
"A  c #4C504B",
"S  c #50524F",
"D  c #55554E",
"F  c #5A5348",
"G  c #514A52",
"H  c #574B58",
"J  c #584B59",
"K  c #584E58",
"L  c #5D4E5E",
"P  c #515550",
"I  c #525450",
"U  c #545653",
"Y  c #575856",
"T  c #585B57",
"R  c #60615F",
"E  c #6B675F",
"W  c #605061",
"Q  c #665367",
"!  c #645666",
"~  c #6B556D",
"^  c #705B72",
"/  c #745A77",
"(  c #745D76",
")  c #795D7C",
"_  c #7A5E7D",
"`  c #7A627D",
"'  c #7B607E",
"]  c #757774",
"[  c #767576",
"{  c #805835",
"}  c #825935",
"|  c #835935",
" . c #865A36",
".. c #885B36",
"X. c #7D6181",
"o. c #7D6380",
"O. c #7F6282",
"+. c #826485",
"@. c #836586",
"#. c #826884",
"$. c #826D85",
"%. c #866889",
"&. c #86688A",
"*. c #87698B",
"=. c #807A80",
"-. c #89708B",
";. c #89728B",
":. c #8C718F",
">. c #8C758E",
",. c #8D798F",
"<. c #8D7290",
"1. c #8F7994",
"2. c #907094",
"3. c #917D93",
"4. c #947A97",
"5. c #937C96",
"6. c #957A9A",
"7. c #967D98",
"8. c #967E99",
"9. c #818685",
"0. c #828686",
"q. c #87848B",
"w. c #89838A",
"e. c #8D898D",
"r. c #928794",
"t. c #918D91",
"y. c #978E97",
"u. c #98849A",
"i. c #99879B",
"p. c #99879C",
"a. c #9A879C",
"s. c #9B849E",
"d. c #9D899F",
"f. c #9C8A9E",
"g. c #9E8B9F",
"h. c #9D8C9F",
"j. c #909090",
"k. c #96919C",
"l. c #9F999F",
"z. c #9C83A2",
"x. c #9E8BA4",
"c. c #9F95A0",
"v. c #A28CA4",
"b. c #A191A3",
"n. c #A392A5",
"m. c #A596A7",
"M. c #A09EA0",
"N. c #A49AA5",
"B. c #A49BA5",
"V. c #A69BA7",
"C. c #A694AC",
"Z. c #A799A9",
"A. c #A79EA8",
"S. c #A89FA9",
"D. c #A99FAA",
"F. c #AC9EAD",
"G. c #AD9DB4",
"H. c #A5A3A6",
"J. c #AAA3AB",
"K. c #ACA0AE",
"L. c #ADA1AF",
"P. c #B1A4B3",
"I. c #B0A8B1",
"U. c #B5ABB6",
"Y. c #B5ACB6",
"T. c #B5ADB6",
"R. c #B6ADB7",
"E. c #B9B0BA",
"W. c #BBB2BC",
"Q. c #BCB0BD",
"!. c #BCB5BC",
"~. c #BEB9BF",
"^. c #BAA7C2",
"/. c #C2B8C3",
"(. c #C5BAC6",
"). c #C4BDC5",
"_. c #C6BCC8",
"`. c #C8C0C9",
"'. c #C9C2CA",
"]. c #CBC4CC",
"[. c #D3CDD4",
"{. c #DAD4E4",
"}. c #F1F0FD",
/* pixels */
"................................................................................................",
"................................................................................................",
"................................................................................................",
"................................................................................................",
"................................................................................................",
"................................................................................................",
"................................................................................................",
"................................................................................................",
"................................................................................................",
"................................................................................................",
"................................................................................................",
"................................}                   r ..........................................",
"..............................g s = - > > > > > > > 3 g ........................................",
"............................... o ) X.2.2.2.2.2.2.2.G   g ......................................",
"..........................g s 7 c O.+.2.2.2.2.2.2.2.! v a s ....................................",
"..........................,   / _ 2.2.2.2.2.2.2.2.2.2.2.>   } ..................................",
"......................t q Z N $.-.v.s.&.6.^.^.^.z.&.&.&.q.9.0 e ................................",
"......................2   Q ) u.f.E.K.) x.}.}.}.G.) ) ) {.}.1 X ................................",
"......................2   Q ) Z.L.E.U.h.r.0.k.G.1.) ) ) C.G.o X ................................",
"......................2   Q ) U.E.E.E.E.e.  M ) ) ) ) ) ) ) o X ................................",
"......................2   Q ) b.m.].].].~.M.[ x x x x x x x y p ................................",
"......................2   Q ) u.g.[.[.[.[.[.j.              } ..................................",
"......................} g 5 = ` #.D.D.D.D.D.A.w.w.w.m   u g ....................................",
"..........................,   / ' c.c.c.c.c.c.c.c.c.Y   g ......................................",
"..........................| l & # * b o.3.R.R.R.R.R.I.J.9 O } ..................................",
"..............................+ . . $ / ;.U.W.W.W.W.W.W.P % k  .................................",
"....................................f   c ) d.[.[.[.[.[.[.[.% X ................................",
"....................................k @ n ~ ,./.(._.'.'.'.'.A 8 g k ............................",
"........................................u   M ) %.2.i.c.c.c.c.y.  @ ............................",
"....................................z t 4   ; L ( *.5.p.V.S.S.B.R D t d ........................",
"....................................f           H ) *.2.P.E.E.E.E.l.  < ........................",
"..........................r q q q q i K K K K K ^ @.<.4.Q.).).).).!.] E q g ....................",
"..........................,         6 2.2.2.2.2.2.2.8.a.`.[.[.[.[.[.[.H.  3 ....................",
"......................w 3 C J J J J W @.@.@.@.@.:.7.n.F.Y.T.T.T.T.T.T.t.  3 ....................",
"......................2   Q ) ) ) ) ) ) ) ) ) ) >.a.L.E.N.c.c.c.c.c.c.=.  3 ....................",
"......................2   : c c c c c c c c c c B V U T I S S S S S S F u g ....................",
"......................2                                               < ........................",
"......................{ h h h h h h h h h h h h h h h h h h h h h h h j ........................",
"................................................................................................",
"................................................................................................",
"................................................................................................",
"................................................................................................",
"................................................................................................",
"................................................................................................",
"................................................................................................",
"................................................................................................",
"................................................................................................",
"................................................................................................"
};
