/* XPM */
static char *result[] = {
/* columns rows colors chars-per-pixel */
"48 48 168 2 ",
"   c #2C342A",
".  c #32362B",
"X  c #31362F",
"o  c #31372F",
"O  c #37392B",
"+  c #3B3A2C",
"@  c #3D3B2C",
"#  c #333931",
"$  c #333A31",
"%  c #353933",
"&  c #353C33",
"*  c #363934",
"=  c #363E35",
"-  c #3A3B39",
";  c #3F3E3E",
":  c #403C2D",
">  c #413D2D",
",  c #443E2D",
"<  c #453F2D",
"1  c #4B412E",
"2  c #4E432E",
"3  c #51442F",
"4  c #54452F",
"5  c #494237",
"6  c #45413F",
"7  c #524735",
"8  c #584730",
"9  c #5A4730",
"0  c #564936",
"q  c #5D4930",
"w  c #5B493C",
"e  c #604A31",
"r  c #644C31",
"t  c #654C31",
"y  c #664D31",
"u  c #664D32",
"i  c #694E32",
"p  c #6B4F32",
"a  c #6B4F34",
"s  c #6F5033",
"d  c #705133",
"f  c #715133",
"g  c #745333",
"h  c #775434",
"j  c #775436",
"k  c #7C5634",
"l  c #7D5635",
"z  c #7E5735",
"x  c #424640",
"c  c #444144",
"v  c #464245",
"b  c #4A444A",
"n  c #4B474B",
"m  c #4D464E",
"M  c #4E464E",
"N  c #5B4A46",
"B  c #5A4B4C",
"V  c #4F534E",
"C  c #50554F",
"Z  c #504750",
"A  c #534953",
"S  c #554C55",
"D  c #584E58",
"F  c #5C4E5D",
"G  c #505751",
"H  c #5C515D",
"J  c #675744",
"K  c #64535A",
"L  c #645666",
"P  c #68546A",
"I  c #6B556D",
"U  c #6F5C71",
"Y  c #745A77",
"T  c #775D79",
"R  c #795D7C",
"E  c #656465",
"W  c #666A68",
"Q  c #6A6A6A",
"!  c #746877",
"~  c #766078",
"^  c #776179",
"/  c #77607A",
"(  c #7C647F",
")  c #6E7370",
"_  c #727272",
"`  c #747174",
"'  c #797579",
"]  c #7B777B",
"[  c #797978",
"{  c #825835",
"}  c #825935",
"|  c #885B36",
" . c #7F807F",
".. c #7E6181",
"X. c #7D6280",
"o. c #7D6380",
"O. c #7D6580",
"+. c #806783",
"@. c #826B85",
"#. c #856D87",
"$. c #856E87",
"%. c #866889",
"&. c #87698B",
"*. c #866E88",
"=. c #8A6B8E",
"-. c #8A6C8D",
";. c #88738A",
":. c #89728B",
">. c #89708C",
",. c #8D778F",
"<. c #8C6C90",
"1. c #8F6F92",
"2. c #8E7790",
"3. c #907094",
"4. c #907892",
"5. c #917C93",
"6. c #917894",
"7. c #967D98",
"8. c #977C9B",
"9. c #9A7E9F",
"0. c #868386",
"q. c #858685",
"w. c #918991",
"e. c #97819A",
"r. c #968598",
"t. c #98829A",
"y. c #9A879C",
"u. c #9D8C9F",
"i. c #979597",
"p. c #9B9A9B",
"a. c #9E8BA4",
"s. c #9F95A0",
"d. c #A287A7",
"f. c #A191A3",
"g. c #A293A4",
"h. c #A39FA3",
"j. c #A49DA5",
"k. c #A79DA8",
"l. c #AC9EAD",
"z. c #A6A1AC",
"x. c #A9A0AA",
"c. c #AAA1AB",
"v. c #ABA2AC",
"b. c #ACA3AD",
"n. c #AFA6B0",
"m. c #B0A0B2",
"M. c #B1A6B2",
"N. c #B2A7B3",
"B. c #B2AAB3",
"V. c #B3ABB4",
"C. c #B5ABB6",
"Z. c #B6ADB7",
"A. c #B5A6BC",
"S. c #B7AFB8",
"D. c #B3B5BB",
"F. c #B9B0BA",
"G. c #BBB2BC",
"H. c #BCB1BE",
"J. c #C6BCC8",
"K. c #C7BFC8",
"L. c #C4B9CD",
"P. c #C8C0C9",
"I. c #C9C2CA",
"U. c #CBC2D5",
"Y. c #D3CDD4",
"T. c #D3CBDD",
"R. c #E2DEED",
"E. c #F1F0FD",
/* pixels */
"| | | | | | | | | | | | | | | | | | | | | | | | | | | | | | | | | | | | | | | | | | | | | | | | ",
"| | | | | | | | | | | | | | | | | | | | | | | | | | | | | | | | | | | | | | | | | | | | | | | | ",
"| | | | | | | | | | | | | | | | | | | | | | | | | | | | | | | | | | | | | | | | | | | | | | | | ",
"| | | | | | | | | | | | | | | | | | | | | | | | | | | | | | | | | | | | | | | | | | | | | | | | ",
"| | | | | | | | | | | | | | | | | | | | | | | | | | | | | | | | | | | | | | | | | | | | | | | | ",
"| | | | | | | | | | | | | | | | | | | | | | | | | | | | | | | | | | | | | | | | | | | | | | | | ",
"| | | | | | | | | | | | | | | | | | | | | | | | | | | | | | | | | | | | | | | | | | | | | | | | ",
"| | | | | | | | | | | | | | | | | | | | | | | | | | | | | | | | | | | | | | | | | | | | | | | | ",
"| | | | | | | | | | | | | | | | | | | | | | | | | | | | | | | | | | | | | | | | | | | | | | | | ",
"| | | | | | | | | | | | | | | | | | | | | | | | | | | | | | | | | | | | | | | | | | | | | | | | ",
"| | | | | | | | | | | | | | | | | | | | | | | | | | | | | | | | | | | | | | | | | | | | | | | | ",
"| | | | | | | | | | | | | | | | | | | | | | d 2 2 2 2 2 2 2 2 r | | | | | | | | | | | | | | | | ",
"| | | | | | | | | | | | | | | | | | | | | | r                 1 | | | | | | | | | | | | | | | | ",
"| | | | | | | | | | | | | | | | | | | | f @ B I / O.O.O.O.O.O.H @ t | | | | | | | | | | | | | | ",
"| | | | | | | | | | | | | | | | | | | | f   b R &.3.3.3.3.3.3.U   9 | | | | | | | | | | | | | | ",
"| | | | | | | | | | | | | | | | | | } . 6 Y X.1.1.3.3.3.3.3.3.3.-.D . s | | | | | | | | | | | | ",
"| | | | | | | | | | | | | | | | | h j - n +.>.8.<.<.d.d.d.9.<.<.<.! G 8 h | | | | | | | | | | | ",
"| | | | | | | | | | | | | | | | | O X R @.s.x.F.5.R T.E.E.R.R R R A.E.)   k | | | | | | | | | | ",
"| | | | | | | | | | | | | | | | | O X R *.k.b.F.f.,.z.D.U.L.R R R a.U.W   k | | | | | | | | | | ",
"| | | | | | | | | | | | | | | | | O X R :.F.F.F.F.F.V   R R R R R R R v   k | | | | | | | | | | ",
"| | | | | | | | | | | | | | | | | O o R #.v.S.K.K.K.i.q.Z Z Z Z Z Z Z w q } | | | | | | | | | | ",
"| | | | | | | | | | | | | | | | | O o R @.s.V.Y.Y.Y.Y.Y.              i | | | | | | | | | | | | ",
"| | | | | | | | | | | | | | | | | f a c S $.r.n.n.n.n.n.] `   > p p p z | | | | | | | | | | | | ",
"| | | | | | | | | | | | | | | | | | {   ; R ;.s.s.s.s.s.s.w.  1 | | | | | | | | | | | | | | | | ",
"| | | | | | | | | | | | | | | | | | | l u % A o.g.Z.Z.Z.Z.j.  1 | | | | | | | | | | | | | | | | ",
"| | | | | | | | | | | | | | | | | | | | h . v Y u.C.G.G.G.B.= < } | | | | | | | | | | | | | | | ",
"| | | | | | | | | | | | | | | | | | | | | | r   F R H.Y.Y.Y.Y.p.  9 | | | | | | | | | | | | | | ",
"| | | | | | | | | | | | | | | | | | | | | | s @ M I m.J.I.I.I.h.x 0 h | | | | | | | | | | | | | ",
"| | | | | | | | | | | | | | | | | | | | | | | | 2   ^ 3.s.s.s.s.s.E   i | | | | | | | | | | | | ",
"| | | | | | | | | | | | | | | y e e e e e e e e N m ( 3.c.c.c.c.c.Q   i | | | | | | | | | | | | ",
"| | | | | | | | | | | | | | | ,                 F R =.3.F.F.F.F.F._   i | | | | | | | | | | | | ",
"| | | | | | | | | } 4 4 4 4 4 K L L L L L L L L / %.6.7.P.P.P.P.P.[   i | | | | | | | | | | | | ",
"| | | | | | | | | k           ~ 3.3.3.3.3.3.3.3.3.3.e.y.Y.Y.Y.Y.Y. .  i | | | | | | | | | | | | ",
"| | | | | | | | : 5 P P P P P T ................4.t.l.N.c.c.c.0.C J g z | | | | | | | | | | | | ",
"| | | | | | | |   * R R R R R R R R R R R R R R 2.y.M.F.s.s.s.'   9 | | | | | | | | | | | | | | ",
"| | | | | | | |     o o o o o o o o o o o o o o o # # & $ $ $ 7 } } | | | | | | | | | | | | | | ",
"| | | | | | | | + + + + + + + + + + + + + + + + + + + + + + + 3 | | | | | | | | | | | | | | | | ",
"| | | | | | | | | | | | | | | | | | | | | | | | | | | | | | | | | | | | | | | | | | | | | | | | ",
"| | | | | | | | | | | | | | | | | | | | | | | | | | | | | | | | | | | | | | | | | | | | | | | | ",
"| | | | | | | | | | | | | | | | | | | | | | | | | | | | | | | | | | | | | | | | | | | | | | | | ",
"| | | | | | | | | | | | | | | | | | | | | | | | | | | | | | | | | | | | | | | | | | | | | | | | ",
"| | | | | | | | | | | | | | | | | | | | | | | | | | | | | | | | | | | | | | | | | | | | | | | | ",
"| | | | | | | | | | | | | | | | | | | | | | | | | | | | | | | | | | | | | | | | | | | | | | | | ",
"| | | | | | | | | | | | | | | | | | | | | | | | | | | | | | | | | | | | | | | | | | | | | | | | ",
"| | | | | | | | | | | | | | | | | | | | | | | | | | | | | | | | | | | | | | | | | | | | | | | | ",
"| | | | | | | | | | | | | | | | | | | | | | | | | | | | | | | | | | | | | | | | | | | | | | | | ",
"| | | | | | | | | | | | | | | | | | | | | | | | | | | | | | | | | | | | | | | | | | | | | | | | ",
"| | | | | | | | | | | | | | | | | | | | | | | | | | | | | | | | | | | | | | | | | | | | | | | | "
};
