/* XPM */
static char *result[] = {
/* columns rows colors chars-per-pixel */
"48 48 182 2 ",
"   c #2C342A",
".  c #2E352A",
"X  c #32362B",
"o  c #34372B",
"O  c #31372F",
"+  c #3D3B2C",
"@  c #353C33",
"#  c #363934",
"$  c #363A35",
"%  c #373A36",
"&  c #373D35",
"*  c #383B37",
"=  c #383E36",
"-  c #3A3C39",
";  c #3F3F3E",
":  c #433E2D",
">  c #3F423D",
",  c #47402E",
"<  c #49402E",
"1  c #54452F",
"2  c #4E4333",
"3  c #484437",
"4  c #44423F",
"5  c #5B4830",
"6  c #5D4930",
"7  c #5E4930",
"8  c #604A31",
"9  c #644C31",
"0  c #654C31",
"q  c #664D31",
"w  c #654C36",
"e  c #664E37",
"r  c #694E32",
"t  c #6B4F32",
"y  c #6C4F32",
"u  c #6D4F32",
"i  c #6B4F37",
"p  c #6D5033",
"a  c #6E5032",
"s  c #705133",
"d  c #715133",
"f  c #725133",
"g  c #705137",
"h  c #775434",
"j  c #7C5634",
"k  c #7F5735",
"l  c #7D5739",
"z  c #444143",
"x  c #444243",
"c  c #424640",
"v  c #464245",
"b  c #474246",
"n  c #464B45",
"m  c #494349",
"M  c #4B474B",
"N  c #4E4549",
"B  c #4E464E",
"V  c #4F484F",
"C  c #54484A",
"Z  c #5B564E",
"A  c #514952",
"S  c #524852",
"D  c #554A56",
"F  c #584B55",
"G  c #574B58",
"H  c #584C59",
"J  c #565B55",
"K  c #5A535A",
"L  c #5A565A",
"P  c #5B505C",
"I  c #5C585C",
"U  c gray37",
"Y  c #625749",
"T  c #60605F",
"R  c #655267",
"E  c #6B556D",
"W  c #6D596F",
"Q  c #725974",
"!  c #795D7C",
"~  c #686867",
"^  c #6D6C65",
"/  c #686069",
"(  c #6A6A69",
")  c #766179",
"_  c #7B637E",
"`  c #6E7371",
"'  c #7C777C",
"]  c #7D787D",
"[  c #825935",
"{  c #885B36",
"}  c #7D6180",
"|  c #7D6280",
" . c #7F6582",
".. c #806383",
"X. c #806783",
"o. c #816484",
"O. c #806684",
"+. c #816784",
"@. c #826685",
"#. c #836586",
"$. c #836A86",
"%. c #846B87",
"&. c #856788",
"*. c #866889",
"=. c #856D88",
"-. c #886A8C",
";. c #8A6B8E",
":. c #8A6C8D",
">. c #817C81",
",. c #867088",
"<. c #8D738F",
"1. c #8D6E91",
"2. c #8F7994",
"3. c #907094",
"4. c #927495",
"5. c #917694",
"6. c #937796",
"7. c #927C94",
"8. c #927F94",
"9. c #947998",
"0. c #957B98",
"q. c #977C9C",
"w. c #9A7F9F",
"e. c #89838A",
"r. c gray54",
"t. c #8E888F",
"y. c #8F8B8F",
"u. c #8F8C8F",
"i. c #98839A",
"p. c #98879A",
"a. c #99869B",
"s. c #9A879C",
"d. c #9A899C",
"f. c #9D8C9F",
"g. c #9C8E9E",
"h. c #8E9293",
"j. c #969196",
"k. c #969296",
"l. c #9B959F",
"z. c #9C9A9C",
"x. c #9F999F",
"c. c #9E85A1",
"v. c #9F95A0",
"b. c #9F96A5",
"n. c #A297A3",
"m. c #A595A6",
"M. c #A298A3",
"N. c #A19FA1",
"B. c #A49AA5",
"V. c #A899A9",
"C. c #A99BAB",
"Z. c #AE9FAF",
"A. c #B09BB7",
"S. c #ADA0AE",
"D. c #ABA1B2",
"F. c #AFA3B0",
"G. c #AFA6B0",
"H. c #B1A5B3",
"J. c #B0A8B1",
"K. c #B3A8B4",
"L. c #B4ABB5",
"P. c #B5A9B6",
"I. c #B5AAB7",
"U. c #B5A6BC",
"Y. c #B8AFB9",
"T. c #BAAFBC",
"R. c #B9B0BA",
"E. c #B9B1BA",
"W. c #BCB2BD",
"Q. c #BCB0C5",
"!. c #C1B9C2",
"~. c #C4BEC4",
"^. c #C7C2C8",
"/. c #C8C0C9",
"(. c #CDC4CE",
"). c #CDC6CE",
"_. c #CDC6CF",
"`. c #CEC8CF",
"'. c #CCCDD5",
"]. c #D1CBD2",
"[. c #D3CDD4",
"{. c #F1F0FD",
/* pixels */
"{ { { { { { { { { { { { { { { { { { { { { { { { { { { { { { { { { { { { { { { { { { { { { { { { ",
"{ { { { { { { { { { { { { { { { { { { { { { { { { { { { { { { { { { { { { { { { { { { { { { { { ",
"{ { { { { { { { { { { { { { { { { { { { { { { { { { { { { { { { { { { { { { { { { { { { { { { { ",
"{ { { { { { { { { { { { { { { { { { { { { { { { { { { { { { { { { { { { { { { { { { { { { { { { ",
"{ { { { { { { { { { { { { { { { { { { { { { { { { { { { { { { { { { { { { { { { { { { { { { { { ",
"{ { { { { { { { { { { { { { { { { { { { { { { { { { { { { { { { { { { { { { { { { { { { { { { { ",
"{ { { { { { { { { { { { { { { { { { { { { { { { { { { { { { { { { { { { { { { { { { { { { { { { ",
"{ { { { { { { { { { { { { { { { { { { { { { { { { { { { { { { { { { { { { { { { { { { { { { { { ",
"{ { { { { { { { { { { { { { { { { { { { { { { { { { { { { { { { { { { { { { { { { { { { { { { { ",
"{ { { { { { { { { { { { { { { { { { { { { { { { { { { { { { { { { { { { { { { { { { { { { { { { ",
"{ { { { { { { { { { { { { { { { { { { { { { { { { { { { { { { { { { { { { { { { { { { { { { { { ",
"{ { { { { { { { { { { { { { { { { { { k X X X X X X X X X a { { { { { { { { { { { { { { { { { { ",
"{ { { { { { { { { { { { { { { { { { j l * * * * * * * % # 6 j { { { { { { { { { { { { { { { { { ",
"{ { { { { { { { { { { { { { { { { { X $ 3.3.3.3.3.3.3.#.! b   h { { { { { { { { { { { { { { { { ",
"{ { { { { { { { { { { { { { { { h h 4 x 3.3.3.3.3.3.3.*.} D - 0 h { { { { { { { { { { { { { { { ",
"{ { { { { { { { { { { { { { { { +   :.3.3.3.3.3.3.3.3.3.3.o.! -   j { { { { { { { { { { { { { { ",
"{ { { { { { { { { { { { { { s r ^ ` @.-.-.q.A.A.A.w.-.9.c.<.%.A v 7 r { { { { { { { { { { { { { ",
"{ { { { { { { { { { { { { { ,   '.{.O.! ! 2.{.{.{.Q.! f.R.m.s. .! # . { { { { { { { { { { { { { ",
"{ { { { { { { { { { { { { { ,   b.U.! ! ! O.U.D.h.l.a.S.R.F.C.$.! # . { { { { { { { { { { { { { ",
"{ { { { { { { { { { { { { { ,   E ! ! ! ! ! ! R   ( R.R.R.R.R.=.! # . { { { { { { { { { { { { { ",
"{ { { { { { { { { { { { { { p 8 C B B B B B B / r.z./././.H.V.+.! # . { { { { { { { { { { { { { ",
"{ { { { { { { { { { { { { { { { +             J [.[.[.[.[.Z.s. .! # . { { { { { { { { { { { { { ",
"{ { { { { { { { { { { { { { { { f y X @ ' ' ' >.G.G.G.G.G.8.$.V z i u { { { { { { { { { { { { { ",
"{ { { { { { { { { { { { { { { { { { X = v.v.v.v.v.v.v.v.v.,.! -   j { { { { { { { { { { { { { { ",
"{ { { { { { { { { { { { { { { { < + j.x.L.L.L.L.L.p.X.K c > - g h [ { { { { { { { { { { { { { { ",
"{ { { { { { { { { { { { { { { { +   J.R.R.R.R.R.R.f.! B       h { { { { { { { { { { { { { { { { ",
"{ { { { { { { { { { { { { { { { +   ^.].].].].T.| P O w [ [ [ [ { { { { { { { { { { { { { { { { ",
"{ { { { { { { { { { { { { { k k 3 & ~.`.`._.(.I.Q F o 9 { { { { { { { { { { { { { { { { { { { { ",
"{ { { { { { { { { { { { { { ,   e.v.v.v.v.g.3.)   1 { { { { { { { { { { { { { { { { { { { { { { ",
"{ { { { { { { { { { { { j h Y n t.B.B.n.g.d.3._ - 2 h h h h h { { { { { { { { { { { { { { { { { ",
"{ { { { { { { { { { { { 1   y.R.R.R.R.P.3.3.3.;.! G           h { { { { { { { { { { { { { { { { ",
"{ { { { { { { { { { { { 1   k.!.!.!.!.W.6.4.3.1...W M M M M M e t t t t h { { { { { { { { { { { ",
"{ { { { { { { { { { { { 1   N.[.[.[.[.).s.i.3.3.3.3.3.3.3.3.3.;         + { { { { { { { { { { { ",
"{ { { { { { { { { { { { 1   u.E.E.E.E.Y.C.m.0.5.&.&.&.&.&.&.&.H S S S S N 5 q { { { { { { { { { ",
"{ { { { { { { { { { { { 1   ] v.v.v.v.M.R.K.s.7.! ! ! ! ! ! ! ! ! ! ! ! E   : { { { { { { { { { ",
"{ { { { { { { { { { { { d 8 Z U U U U T ( ~ I L B B B B B B B B B B B B m   : { { { { { { { { { ",
"{ { { { { { { { { { { { { { ,                                               : { { { { { { { { { ",
"{ { { { { { { { { { { { { { p 0 0 0 0 0 0 0 0 0 0 0 0 0 0 0 0 0 0 0 0 0 0 0 t { { { { { { { { { ",
"{ { { { { { { { { { { { { { { { { { { { { { { { { { { { { { { { { { { { { { { { { { { { { { { { ",
"{ { { { { { { { { { { { { { { { { { { { { { { { { { { { { { { { { { { { { { { { { { { { { { { { ",
"{ { { { { { { { { { { { { { { { { { { { { { { { { { { { { { { { { { { { { { { { { { { { { { { { ",
"{ { { { { { { { { { { { { { { { { { { { { { { { { { { { { { { { { { { { { { { { { { { { { { { { ",
"{ { { { { { { { { { { { { { { { { { { { { { { { { { { { { { { { { { { { { { { { { { { { { { { { ",
"{ { { { { { { { { { { { { { { { { { { { { { { { { { { { { { { { { { { { { { { { { { { { { { { { ",
"{ { { { { { { { { { { { { { { { { { { { { { { { { { { { { { { { { { { { { { { { { { { { { { { { ",
"{ { { { { { { { { { { { { { { { { { { { { { { { { { { { { { { { { { { { { { { { { { { { { { { { ",
"{ { { { { { { { { { { { { { { { { { { { { { { { { { { { { { { { { { { { { { { { { { { { { { { { ",
"{ { { { { { { { { { { { { { { { { { { { { { { { { { { { { { { { { { { { { { { { { { { { { { { { "
};
