/* XPM */
static char *result[] = {
/* columns rows colors chars-per-pixel */
"48 48 147 2 ",
"   c #2C342A",
".  c #32362B",
"X  c #33372B",
"o  c #34382B",
"O  c #39392C",
"+  c #3A3A2C",
"@  c #3D3B2C",
"#  c #3E3C2C",
"$  c #3F3C2C",
"%  c #323831",
"&  c #383A31",
"*  c #383E36",
"=  c #3C3D3B",
"-  c #3F3F3E",
";  c #433E2D",
":  c #463F2D",
">  c #49402E",
",  c #4B412E",
"<  c #4E432E",
"1  c #54452F",
"2  c #4F453A",
"3  c #574630",
"4  c #5A4730",
"5  c #5C4830",
"6  c #5D4930",
"7  c #5E4930",
"8  c #5F4A31",
"9  c #55483B",
"0  c #5E4A39",
"q  c #644C31",
"w  c #654C31",
"e  c #684E32",
"r  c #694E32",
"t  c #6B4F32",
"y  c #715133",
"u  c #755333",
"i  c #775434",
"p  c #7B5534",
"a  c #7C5634",
"s  c #424042",
"d  c #454344",
"f  c #454B43",
"g  c #4E464E",
"h  c #53484F",
"j  c #50524F",
"k  c #514851",
"l  c #514C51",
"z  c #574B58",
"x  c #5C4E5D",
"c  c #565A54",
"v  c #675744",
"b  c #62505E",
"n  c #63515E",
"m  c #615062",
"M  c #665367",
"N  c #645666",
"B  c #6A5867",
"V  c #69546B",
"C  c #6B556D",
"Z  c #685D69",
"A  c #6D586F",
"S  c #6E5770",
"D  c #6E5771",
"F  c #715D73",
"G  c #745A77",
"H  c #795D7C",
"J  c #616060",
"K  c #656564",
"L  c #6D6662",
"P  c #6D6B6C",
"I  c #6C6D6C",
"U  c #716871",
"Y  c #776179",
"T  c #7B607E",
"R  c #7C607F",
"E  c #747573",
"W  c #747174",
"Q  c #797779",
"!  c #787A78",
"~  c #7B7A7B",
"^  c #7E797E",
"/  c #825935",
"(  c #885B36",
")  c #87827C",
"_  c #7E6580",
"`  c #816784",
"'  c #836985",
"]  c #846B87",
"[  c #856888",
"{  c #8A6C8D",
"}  c #8B6C8F",
"|  c #807C80",
" . c #817F81",
".. c #877289",
"X. c #8E7B90",
"o. c #8E7C90",
"O. c #907094",
"+. c #917495",
"@. c #927596",
"#. c #907A92",
"$. c #947F96",
"%. c #828082",
"&. c #848184",
"*. c gray54",
"=. c #928294",
"-. c #958797",
";. c #918D91",
":. c #98839A",
">. c #99849B",
",. c #9A879C",
"<. c #999599",
"1. c #9E999E",
"2. c #9B87A1",
"3. c #9E8BA0",
"4. c #9E89A4",
"5. c #9F95A0",
"6. c #A190A2",
"7. c #A99BAA",
"8. c #AB9DAD",
"9. c #AA98B0",
"0. c #AAA1AB",
"q. c #ACA3AD",
"w. c #ADA1AF",
"e. c #B1A6B2",
"r. c #B0A0B7",
"t. c #B3A7B5",
"y. c #B0ADB0",
"u. c #B3A8B4",
"i. c #B4AAB6",
"p. c #B6ADB7",
"a. c #B7AEB8",
"s. c #B9B0BA",
"d. c #BBB2BC",
"f. c #BDB4BE",
"g. c #C1BBC2",
"h. c #C3BBC4",
"j. c #C8C1C9",
"k. c #C9C2CA",
"l. c #CCC5CD",
"z. c #CDC7CE",
"x. c #CDC7D6",
"c. c #C9CAD2",
"v. c #D3CDD4",
"b. c #DAD4E5",
"n. c #E3DEEE",
"m. c #E5E4F0",
"M. c #F1F0FD",
/* pixels */
"( ( ( ( ( ( ( ( ( ( ( ( ( ( ( ( ( ( ( ( ( ( ( ( ( ( ( ( ( ( ( ( ( ( ( ( ( ( ( ( ( ( ( ( ( ( ( ( ",
"( ( ( ( ( ( ( ( ( ( ( ( ( ( ( ( ( ( ( ( ( ( ( ( ( ( ( ( ( ( ( ( ( ( ( ( ( ( ( ( ( ( ( ( ( ( ( ( ",
"( ( ( ( ( ( ( ( ( ( ( ( ( ( ( ( ( ( ( ( ( ( ( ( ( ( ( ( ( ( ( ( ( ( ( ( ( ( ( ( ( ( ( ( ( ( ( ( ",
"( ( ( ( ( ( ( ( ( ( ( ( ( ( ( ( ( ( ( ( ( ( ( ( ( ( ( ( ( ( ( ( ( ( ( ( ( ( ( ( ( ( ( ( ( ( ( ( ",
"( ( ( ( ( ( ( ( ( ( ( ( ( ( ( ( ( ( ( ( ( ( ( ( ( ( ( ( ( ( ( ( ( ( ( ( ( ( ( ( ( ( ( ( ( ( ( ( ",
"( ( ( ( ( ( ( ( ( ( ( ( ( ( ( ( ( ( ( ( ( ( ( ( ( ( ( ( ( ( ( ( ( ( ( ( ( ( ( ( ( ( ( ( ( ( ( ( ",
"( ( ( ( ( ( ( ( ( ( ( ( ( ( ( ( ( ( ( ( ( ( ( ( ( ( ( ( ( ( ( ( ( ( ( ( ( ( ( ( ( ( ( ( ( ( ( ( ",
"( ( ( ( ( ( ( ( ( ( ( ( ( ( ( ( ( ( ( ( ( ( ( ( ( ( ( ( ( ( ( ( ( ( ( ( ( ( ( ( ( ( ( ( ( ( ( ( ",
"( ( ( ( ( ( ( ( ( ( ( ( ( ( ( ( ( ( ( ( ( ( ( ( ( ( ( ( ( ( ( ( ( ( ( ( ( ( ( ( ( ( ( ( ( ( ( ( ",
"( ( ( ( ( ( ( ( ( ( ( ( ( ( ( ( ( ( ( ( ( ( ( ( ( ( ( ( ( ( ( ( ( ( ( ( ( ( ( ( ( ( ( ( ( ( ( ( ",
"( ( ( ( ( ( ( ( ( ( ( ( ( ( ( ( ( ( ( ( ( ( ( ( ( ( w w w w w w w w w / ( ( ( ( ( ( ( ( ( ( ( ( ",
"( ( ( ( ( ( ( ( ( ( ( ( ( ( ( ( ( ( ( ( ( ( ( ( ( (                   y ( ( ( ( ( ( ( ( ( ( ( ( ",
"( ( ( ( ( ( ( ( ( ( ( ( ( ( ( ( ( ( ( ( ( ( ( ( 8 1 N N N N N N N N N 9 1 a ( ( ( ( ( ( ( ( ( ( ",
"( ( ( ( ( ( ( ( ( ( ( ( ( ( ( ( ( ( ( ( ( ( ( ( @   O.O.O.O.O.O.O.O.O.d   i ( ( ( ( ( ( ( ( ( ( ",
"( ( ( ( ( ( ( ( ( ( ( ( ( ( ( ( ( ( ( ( ( ( 4 > B F O.O.O.O.O.O.O.O.O.Y F 2 > ( ( ( ( ( ( ( ( ( ",
"( ( ( ( ( ( ( ( ( ( ( ( ( ( ( ( ( ( ( ( ( ( >   _ O.O.O.O.O.O.O.O.O.O.O.O.- . ( ( ( ( ( ( ( ( ( ",
"( ( ( ( ( ( ( ( ( ( ( ( ( ( ( ( ( ( ( ( 6 O n D X.>.t.8.R 4.n.n.n.9.R R R x.c.O , ( ( ( ( ( ( ( ",
"( ( ( ( ( ( ( ( ( ( ( ( ( ( ( ( ( ( ( ( 3   m H $.,.s.e.H 2.M.M.M.r.H H H b.m.  # ( ( ( ( ( ( ( ",
"( ( ( ( ( ( ( ( ( ( ( ( ( ( ( ( ( ( ( ( 3   m H w.s.s.s.s.;.  g H H H H H H G   # ( ( ( ( ( ( ( ",
"( ( ( ( ( ( ( ( ( ( ( ( ( ( ( ( ( ( ( ( 3   m H 7.i.f.f.f.1.f l S S S S S S V + : ( ( ( ( ( ( ( ",
"( ( ( ( ( ( ( ( ( ( ( ( ( ( ( ( ( ( ( ( 3   m H $.,.v.v.v.v.v.*.            . ( ( ( ( ( ( ( ( ( ",
"( ( ( ( ( ( ( ( ( ( ( ( ( ( ( ( ( ( ( ( e > h m ..#.h.h.h.h.h.<.j *   ; > > < ( ( ( ( ( ( ( ( ( ",
"( ( ( ( ( ( ( ( ( ( ( ( ( ( ( ( ( ( ( ( ( ( >   C H 5.5.5.5.5.5.5.J   y ( ( ( ( ( ( ( ( ( ( ( ( ",
"( ( ( ( ( ( ( ( ( ( ( ( ( ( ( ( ( ( ( ( ( ( t 1 h z o.=.0.0.0.0.0.K   y ( ( ( ( ( ( ( ( ( ( ( ( ",
"( ( ( ( ( ( ( ( ( ( ( ( ( ( ( ( ( ( ( ( ( ( ( ( @   H ` s.s.s.s.s.I   y ( ( ( ( ( ( ( ( ( ( ( ( ",
"( ( ( ( ( ( ( ( ( ( ( ( ( ( ( ( ( ( ( ( ( ( ( ( @   H ' k.k.k.k.k.E   y ( ( ( ( ( ( ( ( ( ( ( ( ",
"( ( ( ( ( ( ( ( ( ( ( ( ( ( ( ( ( ( ( ( ( ( ( ( @   H ] v.v.v.v.v.!   y ( ( ( ( ( ( ( ( ( ( ( ( ",
"( ( ( ( ( ( ( ( ( ( ( ( ( ( ( ( ( ( ( ( ( ( 1 ; b M -.-.q.q.q. .c v y / ( ( ( ( ( ( ( ( ( ( ( ( ",
"( ( ( ( ( ( ( ( ( ( ( ( ( ( ( ( ( ( ( ( ( ( >   C H 5.5.5.5.5.P   7 ( ( ( ( ( ( ( ( ( ( ( ( ( ( ",
"( ( ( ( ( ( ( ( ( ( ( ( ( + o o o o o o o o X   C H a.a.a.a.a.Q   7 ( ( ( ( ( ( ( ( ( ( ( ( ( ( ",
"( ( ( ( ( ( ( / / / / / / & % % % % % % % % % % A T d.d.d.d.d.~   7 ( ( ( ( ( ( ( ( ( ( ( ( ( ( ",
"( ( ( ( ( ( ( 5           { O.O.O.O.O.O.O.O.O.O.:.,.v.v.v.v.v.*.  7 ( ( ( ( ( ( ( ( ( ( ( ( ( ( ",
"( ( ( ( ( / u 0 = = = = = [ } } } } } } } } +.@.3.6.z.l.j.g.y.) $ q ( ( ( ( ( ( ( ( ( ( ( ( ( ( ",
"( ( ( ( ( t   k H H H H H H H H H H H H H H #.,.u.s.s.p.5.^   1 ( ( ( ( ( ( ( ( ( ( ( ( ( ( ( ( ",
"( ( ( ( ( t   s x x x x x x x x x x x x x x Z U | &.&.%.W L < w ( ( ( ( ( ( ( ( ( ( ( ( ( ( ( ( ",
"( ( ( ( ( t                                               : ( ( ( ( ( ( ( ( ( ( ( ( ( ( ( ( ( ( ",
"( ( ( ( ( p 7 7 7 7 7 7 7 7 7 7 7 7 7 7 7 7 7 7 7 7 7 7 7 r ( ( ( ( ( ( ( ( ( ( ( ( ( ( ( ( ( ( ",
"( ( ( ( ( ( ( ( ( ( ( ( ( ( ( ( ( ( ( ( ( ( ( ( ( ( ( ( ( ( ( ( ( ( ( ( ( ( ( ( ( ( ( ( ( ( ( ( ",
"( ( ( ( ( ( ( ( ( ( ( ( ( ( ( ( ( ( ( ( ( ( ( ( ( ( ( ( ( ( ( ( ( ( ( ( ( ( ( ( ( ( ( ( ( ( ( ( ",
"( ( ( ( ( ( ( ( ( ( ( ( ( ( ( ( ( ( ( ( ( ( ( ( ( ( ( ( ( ( ( ( ( ( ( ( ( ( ( ( ( ( ( ( ( ( ( ( ",
"( ( ( ( ( ( ( ( ( ( ( ( ( ( ( ( ( ( ( ( ( ( ( ( ( ( ( ( ( ( ( ( ( ( ( ( ( ( ( ( ( ( ( ( ( ( ( ( ",
"( ( ( ( ( ( ( ( ( ( ( ( ( ( ( ( ( ( ( ( ( ( ( ( ( ( ( ( ( ( ( ( ( ( ( ( ( ( ( ( ( ( ( ( ( ( ( ( ",
"( ( ( ( ( ( ( ( ( ( ( ( ( ( ( ( ( ( ( ( ( ( ( ( ( ( ( ( ( ( ( ( ( ( ( ( ( ( ( ( ( ( ( ( ( ( ( ( ",
"( ( ( ( ( ( ( ( ( ( ( ( ( ( ( ( ( ( ( ( ( ( ( ( ( ( ( ( ( ( ( ( ( ( ( ( ( ( ( ( ( ( ( ( ( ( ( ( ",
"( ( ( ( ( ( ( ( ( ( ( ( ( ( ( ( ( ( ( ( ( ( ( ( ( ( ( ( ( ( ( ( ( ( ( ( ( ( ( ( ( ( ( ( ( ( ( ( ",
"( ( ( ( ( ( ( ( ( ( ( ( ( ( ( ( ( ( ( ( ( ( ( ( ( ( ( ( ( ( ( ( ( ( ( ( ( ( ( ( ( ( ( ( ( ( ( ( ",
"( ( ( ( ( ( ( ( ( ( ( ( ( ( ( ( ( ( ( ( ( ( ( ( ( ( ( ( ( ( ( ( ( ( ( ( ( ( ( ( ( ( ( ( ( ( ( ( ",
"( ( ( ( ( ( ( ( ( ( ( ( ( ( ( ( ( ( ( ( ( ( ( ( ( ( ( ( ( ( ( ( ( ( ( ( ( ( ( ( ( ( ( ( ( ( ( ( "
};
