/* XPM */
static char *result[] = {
/* columns rows colors chars-per-pixel */
"48 48 180 2 ",
"   c #2C342A",
".  c #2E352C",
"X  c #30362A",
"o  c #32362B",
"O  c #31372F",
"+  c #30382F",
"@  c #393A2C",
"#  c #3D3B2C",
"$  c #353C33",
"%  c #363934",
"&  c #383B37",
"*  c #3D3C36",
"=  c #3A3B39",
"-  c #3E3F3D",
";  c #403D2D",
":  c #433E2D",
">  c #463F2D",
",  c #3F443D",
"<  c #51432F",
"1  c #54452F",
"2  c #55452F",
"3  c #5A4730",
"4  c #5A4936",
"5  c #51453C",
"6  c #51453E",
"7  c #5F503E",
"8  c #604A31",
"9  c #614B33",
"0  c #654C31",
"q  c #674D32",
"w  c #694E32",
"e  c #6B4F32",
"r  c #6C4F32",
"t  c #6B4F37",
"y  c #705133",
"u  c #745333",
"i  c #775434",
"p  c #795534",
"a  c #7B5534",
"s  c #7C5634",
"d  c #7D5635",
"f  c #7F5735",
"g  c #434043",
"h  c #444144",
"j  c #4B4340",
"k  c #434842",
"l  c #454B44",
"z  c #474D46",
"x  c #494C47",
"c  c #4D4D46",
"v  c #494549",
"b  c #4E464E",
"n  c #504641",
"m  c #51474E",
"M  c #51494C",
"N  c #594B4F",
"B  c #50524F",
"V  c #524853",
"C  c #534954",
"Z  c #574B58",
"A  c #594E5A",
"S  c #5D4D58",
"D  c #555654",
"F  c #5D5058",
"G  c #595759",
"H  c #5C525D",
"J  c #5E525F",
"K  c gray37",
"L  c #5F5F5E",
"P  c #665D51",
"I  c #5F625D",
"U  c #635165",
"Y  c #635365",
"T  c #665367",
"R  c #6B556D",
"E  c #68586A",
"W  c #745A77",
"Q  c #745F76",
"!  c #765B79",
"~  c #775D7A",
"^  c #795D7C",
"/  c #7A5E7D",
"(  c #626763",
")  c #6A636A",
"_  c #6A6A69",
"`  c #6D6B6C",
"'  c #6E686E",
"]  c #6A6F6C",
"[  c #716073",
"{  c #716E71",
"}  c #776179",
"|  c #727371",
" . c #757774",
".. c #767476",
"X. c #7B7A7B",
"o. c #815835",
"O. c #825935",
"+. c #865A36",
"@. c #885B36",
"#. c #7D6080",
"$. c #7F6282",
"%. c #7D6580",
"&. c #7F6582",
"*. c #816584",
"=. c #836A86",
"-. c #856D88",
";. c #896A8D",
":. c #8B6C8E",
">. c #8C6C8F",
",. c #807081",
"<. c #867089",
"1. c #88748A",
"2. c #89718C",
"3. c #89728C",
"4. c #8A758C",
"5. c #8B748E",
"6. c #8D6F90",
"7. c #8F6F92",
"8. c #8F6F93",
"9. c #8F7093",
"0. c #8D7790",
"q. c #907094",
"w. c #917194",
"e. c #917195",
"r. c #917395",
"t. c #927396",
"y. c #927696",
"u. c #937796",
"i. c #917C93",
"p. c #947997",
"a. c #987F9B",
"s. c #997D9D",
"d. c #8F878F",
"f. c #958197",
"g. c #948596",
"h. c #98849A",
"j. c #99859B",
"k. c #99869B",
"l. c #9A879C",
"z. c #9C939D",
"x. c #9E979E",
"c. c #9D86A0",
"v. c #9F95A0",
"b. c #A089A3",
"n. c #A08FA2",
"m. c #A38DA5",
"M. c #A291A3",
"N. c #A393A5",
"B. c #A69DA7",
"V. c #AA9FAB",
"C. c #AB9EAC",
"Z. c #AD9DB4",
"A. c #AEA2AF",
"S. c #AEA4AF",
"D. c #AFA3B0",
"F. c #AFA5B0",
"G. c #B1A3B2",
"H. c #B0A4B2",
"J. c #B1A6B2",
"K. c #B1ABB2",
"L. c #B5ABB6",
"P. c #B7ADB8",
"I. c #B4B1B5",
"U. c #B9B0BA",
"Y. c #BCB3BD",
"T. c #BCB4BD",
"R. c #BFB7C0",
"E. c #BDB0C5",
"W. c #C3B9C4",
"Q. c #C3BCC4",
"!. c #C4B9CD",
"~. c #C5C4CD",
"^. c #CBC4CC",
"/. c #CFC6D8",
"(. c #D3CDD4",
"). c #D1CFDA",
"_. c #DAD4E5",
"`. c #E6E2F1",
"'. c #E9E8F4",
"]. c #EDEBF9",
/* pixels */
"@.@.@.@.@.@.@.@.@.@.@.@.@.@.@.@.@.@.@.@.@.@.@.@.@.@.@.@.@.@.@.@.@.@.@.@.@.@.@.@.@.@.@.@.@.@.@.@.",
"@.@.@.@.@.@.@.@.@.@.@.@.@.@.@.@.@.@.@.@.@.@.@.@.@.@.@.@.@.@.@.@.@.@.@.@.@.@.@.@.@.@.@.@.@.@.@.@.",
"@.@.@.@.@.@.@.@.@.@.@.@.@.@.@.@.@.@.@.@.@.@.@.@.@.@.@.@.@.@.@.@.@.@.@.@.@.@.@.@.@.@.@.@.@.@.@.@.",
"@.@.@.@.@.@.@.@.@.@.@.@.@.@.@.@.@.@.@.@.@.@.@.@.@.@.@.@.@.@.@.@.@.@.@.@.@.@.@.@.@.@.@.@.@.@.@.@.",
"@.@.@.@.@.@.@.@.@.@.@.@.@.@.@.@.@.@.@.@.@.@.@.@.@.@.@.@.@.@.@.@.@.@.@.@.@.@.@.@.@.@.@.@.@.@.@.@.",
"@.@.@.@.@.@.@.@.@.@.@.@.@.@.@.@.@.@.@.@.@.@.@.@.@.@.@.@.@.@.@.@.@.@.@.@.@.@.@.@.@.@.@.@.@.@.@.@.",
"@.@.@.@.@.@.@.@.@.@.@.@.@.@.@.@.@.@.@.@.@.@.@.@.@.@.@.@.@.@.@.@.@.@.@.@.@.@.@.@.@.@.@.@.@.@.@.@.",
"@.@.@.@.@.@.@.@.@.@.@.@.@.@.@.@.@.@.@.@.@.@.@.@.@.@.@.@.@.@.@.@.@.@.@.@.@.@.@.@.@.@.@.@.@.@.@.@.",
"@.@.@.@.@.@.@.@.@.@.@.@.@.@.@.@.@.@.@.@.@.@.@.@.@.@.@.@.@.@.@.@.@.@.@.@.@.@.@.@.@.@.@.@.@.@.@.@.",
"@.@.@.@.@.@.@.@.@.@.@.@.@.@.@.@.@.@.@.@.@.@.@.@.@.@.@.@.@.@.@.@.@.@.@.@.@.@.@.@.@.@.@.@.@.@.@.@.",
"@.@.@.@.@.@.@.@.@.@.@.@.@.@.@.@.@.@.@.@.@.@.@.@.@.@.@.@.@.@.@.@.@.@.@.@.@.@.@.@.@.@.@.@.@.@.@.@.",
"@.@.@.@.@.@.@.@.@.@.@.@.@.@.@.@.@.@.@.q 3 3 3 3 3 3 3 3 r @.@.@.@.@.@.@.@.@.@.@.@.@.@.@.@.@.@.@.",
"@.@.@.@.@.@.@.@.@.@.@.@.@.@.@.@.@.@.@.>                 < @.@.@.@.@.@.@.@.@.@.@.@.@.@.@.@.@.@.@.",
"@.@.@.@.@.@.@.@.@.@.@.@.@.@.@.@.@.0 : S T Q } } } } } } F : e @.@.@.@.@.@.@.@.@.@.@.@.@.@.@.@.@.",
"@.@.@.@.@.@.@.@.@.@.@.@.@.@.@.@.@.3   U ^ >.q.q.q.q.q.q.E   8 @.@.@.@.@.@.@.@.@.@.@.@.@.@.@.@.@.",
"@.@.@.@.@.@.@.@.@.@.@.@.@.@.@.8 # N R *.>.7.q.q.q.q.q.q.8.%.M # i @.@.@.@.@.@.@.@.@.@.@.@.@.@.@.",
"@.@.@.@.@.@.@.@.@.@.@.@.@.+.+.9 . C / :.e.9.9.t.t.t.9.9.9.9.H + w +.@.@.@.@.@.@.@.@.@.@.@.@.@.@.",
"@.@.@.@.@.@.@.@.@.@.@.@.@.y X m ! <.j.D.P.=./ `.].]././ / / E.'.( X d @.@.@.@.@.@.@.@.@.@.@.@.@.",
"@.@.@.@.@.@.@.@.@.@.@.@.@.y   b ^ 0.n.H.U.i.-.~.)._.!.^ ^ ^ Z._.]   p @.@.@.@.@.@.@.@.@.@.@.@.@.",
"@.@.@.@.@.@.@.@.@.@.@.@.@.y   b ^ k.U.U.U.U.U.$ = ^ ^ ^ ^ ^ ^ ^ h   p @.@.@.@.@.@.@.@.@.@.@.@.@.",
"@.@.@.@.@.@.@.@.@.@.@.@.@.y   b ^ f.J.Y.R.R.R.I D T T T T T T T n : s @.@.@.@.@.@.@.@.@.@.@.@.@.",
"@.@.@.@.@.@.@.@.@.@.@.@.@.y   b ^ 3.l.W.(.(.(.(.I.              e @.@.@.@.@.@.@.@.@.@.@.@.@.@.@.",
"@.@.@.@.@.@.@.@.@.@.@.@.@.s 2 6 Z [ 5.A.T.T.T.T.K.L L L x   ; 2 u @.@.@.@.@.@.@.@.@.@.@.@.@.@.@.",
"@.@.@.@.@.@.@.@.@.@.@.@.@.@.@.8   V ^ g.v.v.v.v.v.v.v.v.{   8 @.@.@.@.@.@.@.@.@.@.@.@.@.@.@.@.@.",
"@.@.@.@.@.@.@.@.@.@.@.@.@.@.@.s 8 5 b G K ,.4.V.S.S.S.S.x.X.P 1 s @.@.@.@.@.@.@.@.@.@.@.@.@.@.@.",
"@.@.@.@.@.@.@.@.@.@.@.@.@.@.@.@.@.3       R ^ L.U.U.U.U.U.U._   e @.@.@.@.@.@.@.@.@.@.@.@.@.@.@.",
"@.@.@.@.@.@.@.@.@.@.@.@.@.@.@.@.@.i e e e j h 1.h.^.^.^.^.^.|   e @.@.@.@.@.@.@.@.@.@.@.@.@.@.@.",
"@.@.@.@.@.@.@.@.@.@.@.@.@.@.@.@.@.@.@.@.@.#   W 2.(.(.(.(.(. .  e @.@.@.@.@.@.@.@.@.@.@.@.@.@.@.",
"@.@.@.@.@.@.@.@.@.@.@.@.@.@.@.@.@.@.@.@.@.o.a * v s.c.B.B.B.z.d.c @ f @.@.@.@.@.@.@.@.@.@.@.@.@.",
"@.@.@.@.@.@.@.@.@.@.@.@.@.@.@.@.@.@.@.@.@.@.@.o - q.p.v.v.v.v.v.B   p @.@.@.@.@.@.@.@.@.@.@.@.@.",
"@.@.@.@.@.@.@.@.@.@.@.@.@.@.@.@.@.3           W #.q.q.q.b.U.U.U.U.U.k   @.@.@.@.@.@.@.@.@.@.@.@.",
"@.@.@.@.@.@.@.@.@.@.@.O.s s s s s 4 & & & & & ~ $.q.w.r.m.T.T.T.T.T.k   @.@.@.@.@.@.@.@.@.@.@.@.",
"@.@.@.@.@.@.@.@.@.@.@.s           J q.q.q.q.q.q.q.q.y.l.G.(.(.(.(.(.z   @.@.@.@.@.@.@.@.@.@.@.@.",
"@.@.@.@.@.@.@.@.@.@.r t g g g g g Y ;.;.;.;.;.;.6.u.a.N.C.Q.Q.Q.Q.Q.l   @.@.@.@.@.@.@.@.@.@.@.@.",
"@.@.@.@.@.@.@.@.@.@.  % ^ ^ ^ ^ ^ ^ ^ ^ ^ ^ ^ ^ &.l.M.U.F.v.v.v.v.v.,   @.@.@.@.@.@.@.@.@.@.@.@.",
"@.@.@.@.@.@.@.@.@.@.  O Z Z Z Z Z Z Z Z Z Z Z Z A ) ' X...` ` ` ` ` 7 1 @.@.@.@.@.@.@.@.@.@.@.@.",
"@.@.@.@.@.@.@.@.@.@.                                                p @.@.@.@.@.@.@.@.@.@.@.@.@.",
"@.@.@.@.@.@.@.@.@.@.3 3 3 3 3 3 3 3 3 3 3 3 3 3 3 3 3 3 3 3 3 3 3 3 O.@.@.@.@.@.@.@.@.@.@.@.@.@.",
"@.@.@.@.@.@.@.@.@.@.@.@.@.@.@.@.@.@.@.@.@.@.@.@.@.@.@.@.@.@.@.@.@.@.@.@.@.@.@.@.@.@.@.@.@.@.@.@.",
"@.@.@.@.@.@.@.@.@.@.@.@.@.@.@.@.@.@.@.@.@.@.@.@.@.@.@.@.@.@.@.@.@.@.@.@.@.@.@.@.@.@.@.@.@.@.@.@.",
"@.@.@.@.@.@.@.@.@.@.@.@.@.@.@.@.@.@.@.@.@.@.@.@.@.@.@.@.@.@.@.@.@.@.@.@.@.@.@.@.@.@.@.@.@.@.@.@.",
"@.@.@.@.@.@.@.@.@.@.@.@.@.@.@.@.@.@.@.@.@.@.@.@.@.@.@.@.@.@.@.@.@.@.@.@.@.@.@.@.@.@.@.@.@.@.@.@.",
"@.@.@.@.@.@.@.@.@.@.@.@.@.@.@.@.@.@.@.@.@.@.@.@.@.@.@.@.@.@.@.@.@.@.@.@.@.@.@.@.@.@.@.@.@.@.@.@.",
"@.@.@.@.@.@.@.@.@.@.@.@.@.@.@.@.@.@.@.@.@.@.@.@.@.@.@.@.@.@.@.@.@.@.@.@.@.@.@.@.@.@.@.@.@.@.@.@.",
"@.@.@.@.@.@.@.@.@.@.@.@.@.@.@.@.@.@.@.@.@.@.@.@.@.@.@.@.@.@.@.@.@.@.@.@.@.@.@.@.@.@.@.@.@.@.@.@.",
"@.@.@.@.@.@.@.@.@.@.@.@.@.@.@.@.@.@.@.@.@.@.@.@.@.@.@.@.@.@.@.@.@.@.@.@.@.@.@.@.@.@.@.@.@.@.@.@.",
"@.@.@.@.@.@.@.@.@.@.@.@.@.@.@.@.@.@.@.@.@.@.@.@.@.@.@.@.@.@.@.@.@.@.@.@.@.@.@.@.@.@.@.@.@.@.@.@.",
"@.@.@.@.@.@.@.@.@.@.@.@.@.@.@.@.@.@.@.@.@.@.@.@.@.@.@.@.@.@.@.@.@.@.@.@.@.@.@.@.@.@.@.@.@.@.@.@."
};
