/* XPM */
static char *result[] = {
/* columns rows colors chars-per-pixel */
"48 48 160 2 ",
"   c #2C342A",
".  c #2D342A",
"X  c #32362B",
"o  c #31372F",
"O  c #36382B",
"+  c #3D3B2C",
"@  c #363934",
"#  c #3D3D3C",
"$  c #3F3E3E",
"%  c #433E2D",
"&  c #3D423C",
"*  c #48402E",
"=  c #49402E",
"-  c #4E422E",
";  c #50432F",
":  c #54452F",
">  c #584730",
",  c #594730",
"<  c #5A4730",
"1  c #584734",
"2  c #5B4830",
"3  c #504438",
"4  c #57483D",
"5  c #584838",
"6  c #604A31",
"7  c #654C31",
"8  c #664C31",
"9  c #684D32",
"0  c #6B4F32",
"q  c #6D5032",
"w  c #715133",
"e  c #745233",
"r  c #775434",
"t  c #795434",
"y  c #795534",
"u  c #7C5634",
"i  c #7D5635",
"p  c #7F5735",
"a  c #444144",
"s  c #474247",
"d  c #4B4545",
"f  c #454B44",
"g  c #494349",
"h  c #484648",
"j  c #4E4E4E",
"k  c #50504A",
"l  c #514852",
"z  c #524853",
"x  c #514A52",
"c  c #544954",
"v  c #584E58",
"b  c #5D4E5E",
"n  c #525450",
"m  c #545653",
"M  c #555654",
"N  c #585B57",
"B  c #5D5159",
"V  c #575D59",
"C  c #7A5C40",
"Z  c #655D66",
"A  c #6B556D",
"S  c #6B5A6D",
"D  c #6F5872",
"F  c #6E5D70",
"G  c #795D7C",
"H  c #6F6D67",
"J  c #756177",
"K  c #746376",
"L  c #716F71",
"P  c #776179",
"I  c #7B607E",
"U  c #747174",
"Y  c #7B787B",
"T  c #7E7B7E",
"R  c #7D7E7C",
"E  c #805835",
"W  c #815835",
"Q  c #825935",
"!  c #835935",
"~  c #885B36",
"^  c #7D6280",
"/  c #7F6382",
"(  c #7D6580",
")  c #826B85",
"_  c #856788",
"`  c #856D88",
"'  c #866D8A",
"]  c #8A6C8D",
"[  c #8B6C8F",
"{  c #817F81",
"}  c #827D82",
"|  c #89728C",
" . c #8C708F",
".. c #8E7790",
"X. c #907094",
"o. c #927596",
"O. c #917C93",
"+. c #927D94",
"@. c #957B98",
"#. c #967E99",
"$. c #977C9A",
"%. c #997E9C",
"&. c #828382",
"*. c #878187",
"=. c #868786",
"-. c #928A93",
";. c #99869B",
":. c #9A879C",
">. c #9A879E",
",. c #988A99",
"<. c #9C8F9D",
"1. c #919091",
"2. c #969196",
"3. c #9E9A9E",
"4. c #9D82A2",
"5. c #9F95A0",
"6. c #A18FA3",
"7. c #A58CAB",
"8. c #A191A3",
"9. c #A197A2",
"0. c #A494A5",
"q. c #A59BA6",
"w. c #A694AC",
"e. c #A99BAA",
"r. c #AA9CAB",
"t. c #AA9FAB",
"y. c #A8A0A9",
"u. c #A9A2AA",
"i. c #A9A7A9",
"p. c #ADA0AE",
"a. c #AEA1AF",
"s. c #AEA4B0",
"d. c #B2A9B3",
"f. c #B2AAB3",
"g. c #B3A8B4",
"h. c #B5ABB6",
"j. c #B5A6BC",
"k. c #B7ADB8",
"l. c #B8ADB9",
"z. c #B7B0B8",
"x. c #B3B5BB",
"c. c #B9B0BA",
"v. c #B9B3BA",
"b. c #BAB2BB",
"n. c #BEB5C0",
"m. c #B8B8C0",
"M. c #C3BBC4",
"N. c #C6BEC7",
"B. c #C6BFC7",
"V. c #C1B6CA",
"C. c #C4B9CD",
"Z. c #C8C0C9",
"A. c #C9C3C9",
"S. c #CAC2CB",
"D. c #CCC4CD",
"F. c #CBC2D5",
"G. c #D0C9D1",
"H. c #D1CBD2",
"J. c #D3CDD4",
"K. c #F1F0FD",
/* pixels */
"~ ~ ~ ~ ~ ~ ~ ~ ~ ~ ~ ~ ~ ~ ~ ~ ~ ~ ~ ~ ~ ~ ~ ~ ~ ~ ~ ~ ~ ~ ~ ~ ~ ~ ~ ~ ~ ~ ~ ~ ~ ~ ~ ~ ~ ~ ~ ~ ",
"~ ~ ~ ~ ~ ~ ~ ~ ~ ~ ~ ~ ~ ~ ~ ~ ~ ~ ~ ~ ~ ~ ~ ~ ~ ~ ~ ~ ~ ~ ~ ~ ~ ~ ~ ~ ~ ~ ~ ~ ~ ~ ~ ~ ~ ~ ~ ~ ",
"~ ~ ~ ~ ~ ~ ~ ~ ~ ~ ~ ~ ~ ~ ~ ~ ~ ~ ~ ~ ~ ~ ~ ~ ~ ~ ~ ~ ~ ~ ~ ~ ~ ~ ~ ~ ~ ~ ~ ~ ~ ~ ~ ~ ~ ~ ~ ~ ",
"~ ~ ~ ~ ~ ~ ~ ~ ~ ~ ~ ~ ~ ~ ~ ~ ~ ~ ~ ~ ~ ~ ~ ~ ~ ~ ~ ~ ~ ~ ~ ~ ~ ~ ~ ~ ~ ~ ~ ~ ~ ~ ~ ~ ~ ~ ~ ~ ",
"~ ~ ~ ~ ~ ~ ~ ~ ~ ~ ~ ~ ~ ~ ~ ~ ~ ~ ~ ~ ~ ~ ~ ~ ~ ~ ~ ~ ~ ~ ~ ~ ~ ~ ~ ~ ~ ~ ~ ~ ~ ~ ~ ~ ~ ~ ~ ~ ",
"~ ~ ~ ~ ~ ~ ~ ~ ~ ~ ~ ~ ~ ~ ~ ~ ~ ~ ~ ~ ~ ~ ~ ~ ~ ~ ~ ~ ~ ~ ~ ~ ~ ~ ~ ~ ~ ~ ~ ~ ~ ~ ~ ~ ~ ~ ~ ~ ",
"~ ~ ~ ~ ~ ~ ~ ~ ~ ~ ~ ~ ~ ~ ~ ~ ~ ~ ~ ~ ~ ~ ~ ~ ~ ~ ~ ~ ~ ~ ~ ~ ~ ~ ~ ~ ~ ~ ~ ~ ~ ~ ~ ~ ~ ~ ~ ~ ",
"~ ~ ~ ~ ~ ~ ~ ~ ~ ~ ~ ~ ~ ~ ~ ~ ~ ~ ~ ~ ~ ~ ~ ~ ~ ~ ~ ~ ~ ~ ~ ~ ~ ~ ~ ~ ~ ~ ~ ~ ~ ~ ~ ~ ~ ~ ~ ~ ",
"~ ~ ~ ~ ~ ~ ~ ~ ~ ~ ~ ~ ~ ~ ~ ~ ~ ~ ~ ~ ~ ~ ~ ~ ~ ~ ~ ~ ~ ~ ~ ~ ~ ~ ~ ~ ~ ~ ~ ~ ~ ~ ~ ~ ~ ~ ~ ~ ",
"~ ~ ~ ~ ~ ~ ~ ~ ~ ~ ~ ~ ~ ~ ~ ~ ~ ~ ~ ~ ~ ~ ~ ~ ~ ~ ~ ~ ~ ~ ~ ~ ~ ~ ~ ~ ~ ~ ~ ~ ~ ~ ~ ~ ~ ~ ~ ~ ",
"~ ~ ~ ~ ~ ~ ~ ~ ~ ~ ~ ~ ~ ~ ~ ~ ~ ~ ~ ~ ~ ~ ~ ~ ~ ~ ~ ~ ~ ~ ~ ~ ~ ~ ~ ~ ~ ~ ~ ~ ~ ~ ~ ~ ~ ~ ~ ~ ",
"~ ~ ~ ~ ~ ~ ~ ~ ~ ~ ~ ~ 0 = = = = = = = = : ~ ~ ~ ~ ~ ~ ~ ~ ~ ~ ~ ~ ~ ~ ~ ~ ~ ~ ~ ~ ~ ~ ~ ~ ~ ~ ",
"~ ~ ~ ~ ~ ~ ~ ~ ~ ~ ~ ~ 6                 + ~ ~ ~ ~ ~ ~ ~ ~ ~ ~ ~ ~ ~ ~ ~ ~ ~ ~ ~ ~ ~ ~ ~ ~ ~ ~ ",
"~ ~ ~ ~ ~ ~ ~ ~ ~ ~ 7 X B ] ] ] ] ] ] ] ] P X : ~ ~ ~ ~ ~ ~ ~ ~ ~ ~ ~ ~ ~ ~ ~ ~ ~ ~ ~ ~ ~ ~ ~ ~ ",
"~ ~ ~ ~ ~ ~ ~ ~ ~ ~ 7   v X.X.X.X.X.X.X.X.(   - ~ ~ ~ ~ ~ ~ ~ ~ ~ ~ ~ ~ ~ ~ ~ ~ ~ ~ ~ ~ ~ ~ ~ ~ ",
"~ ~ ~ ~ ~ ~ ~ ~ u   x X.X.X.X.X.X.X.X.X.X.X.X.S   < ~ ~ ~ ~ ~ ~ ~ ~ ~ ~ ~ ~ ~ ~ ~ ~ ~ ~ ~ ~ ~ ~ ",
"~ ~ ~ ~ ~ ~ ~ e C V Z [ [ [ 4.7.7.7.[ [ %.$.o.J # 5 e W ~ ~ ~ ~ ~ ~ ~ ~ ~ ~ ~ ~ ~ ~ ~ ~ ~ ~ ~ ~ ",
"~ ~ ~ ~ ~ ~ ! . f K.C.G G G V.K.K.K.' ^ c.g.:...G z   8 ~ ~ ~ ~ ~ ~ ~ ~ ~ ~ ~ ~ ~ ~ ~ ~ ~ ~ ~ ~ ",
"~ ~ ~ ~ ~ ~ ! . & F.j.G G G w.F.m.x.>.O.c.k.0.+.G z   8 ~ ~ ~ ~ ~ ~ ~ ~ ~ ~ ~ ~ ~ ~ ~ ~ ~ ~ ~ ~ ",
"~ ~ ~ ~ ~ ~ ! . @ G G G G G G G $   u.c.c.c.c.8.G z   8 ~ ~ ~ ~ ~ ~ ~ ~ ~ ~ ~ ~ ~ ~ ~ ~ ~ ~ ~ ~ ",
"~ ~ ~ ~ ~ ~ ! , 1 c c c c c c c Y R v.N.N.n.r.;.G z   8 ~ ~ ~ ~ ~ ~ ~ ~ ~ ~ ~ ~ ~ ~ ~ ~ ~ ~ ~ ~ ",
"~ ~ ~ ~ ~ ~ ~ ~ u               i.J.J.J.J.Z.:...G z   8 ~ ~ ~ ~ ~ ~ ~ ~ ~ ~ ~ ~ ~ ~ ~ ~ ~ ~ ~ ~ ",
"~ ~ ~ ~ ~ ~ ~ ~ Q 7 7 7 =   M U y.f.f.f.f.t.` F g 4 7 u ~ ~ ~ ~ ~ ~ ~ ~ ~ ~ ~ ~ ~ ~ ~ ~ ~ ~ ~ ~ ",
"~ ~ ~ ~ ~ ~ ~ ~ ~ ~ ~ ~ 6   L 5.5.5.5.5.5.,.G b   < ~ ~ ~ ~ ~ ~ ~ ~ ~ ~ ~ ~ ~ ~ ~ ~ ~ ~ ~ ~ ~ ~ ",
"~ ~ ~ ~ ~ ~ ~ ~ ~ ~ ~ ~ 6   T d.d.d.d.s.) K $ 4 w u ~ ~ ~ ~ ~ ~ ~ ~ ~ ~ ~ ~ ~ ~ ~ ~ ~ ~ ~ ~ ~ ~ ",
"~ ~ ~ ~ ~ ~ ~ ~ ~ ~ ~ ~ 6   { c.c.c.c.h.G A   - ~ ~ ~ ~ ~ ~ ~ ~ ~ ~ ~ ~ ~ ~ ~ ~ ~ ~ ~ ~ ~ ~ ~ ~ ",
"~ ~ ~ ~ ~ ~ ~ ~ ~ ~ ~ ~ 6   1.H.H.H.H.D.G A   - ~ ~ ~ ~ ~ ~ ~ ~ ~ ~ ~ ~ ~ ~ ~ ~ ~ ~ ~ ~ ~ ~ ~ ~ ",
"~ ~ ~ ~ ~ ~ ~ ~ ~ ~ ~ ~ 7 X =.A.G.G.G.S.I D o * Q ~ ~ ~ ~ ~ ~ ~ ~ ~ ~ ~ ~ ~ ~ ~ ~ ~ ~ ~ ~ ~ ~ ~ ",
"~ ~ ~ ~ ~ ~ ~ ~ ~ ~ ~ ~ ~ ~ ;   } 5.5.5.5.,.G b   < ~ ~ ~ ~ ~ ~ ~ ~ ~ ~ ~ ~ ~ ~ ~ ~ ~ ~ ~ ~ ~ ~ ",
"~ ~ ~ ~ ~ ~ ~ ~ ~ ~ ~ ~ ~ ~ ;   *.q.q.q.q.<.G b   ; e e e e e e e e y ~ ~ ~ ~ ~ ~ ~ ~ ~ ~ ~ ~ ~ ",
"~ ~ ~ ~ ~ ~ ~ ~ ~ ~ ~ ~ ~ ~ ;   2.c.c.c.c.p.G b                     + ~ ~ ~ ~ ~ ~ ~ ~ ~ ~ ~ ~ ~ ",
"~ ~ ~ ~ ~ ~ ~ ~ ~ ~ ~ ~ ~ ~ ;   3.M.M.M.M.l.` J x x x x x x x x x x d 7 7 7 7 7 p ~ ~ ~ ~ ~ ~ ~ ",
"~ ~ ~ ~ ~ ~ ~ ~ ~ ~ ~ ~ ~ ~ ;   i.J.J.J.J.Z.:.#.X.X.X.X.X.X.X.X.X.X.(           9 ~ ~ ~ ~ ~ ~ ~ ",
"~ ~ ~ ~ ~ ~ ~ ~ ~ ~ ~ ~ ~ ~ q > H &.z.b.B.M.e.6.@. ._ _ _ _ _ _ _ _ / l l l l l 3 2 E ~ ~ ~ ~ ~ ",
"~ ~ ~ ~ ~ ~ ~ ~ ~ ~ ~ ~ ~ ~ ~ ~ %   -.9.c.c.c.a.:.| G G G G G G G G G G G G G G s   r ~ ~ ~ ~ ~ ",
"~ ~ ~ ~ ~ ~ ~ ~ ~ ~ ~ ~ ~ ~ ~ ~ w 0 k n N N N m j h a a a a a a a a a a a a a a @   r ~ ~ ~ ~ ~ ",
"~ ~ ~ ~ ~ ~ ~ ~ ~ ~ ~ ~ ~ ~ ~ ~ ~ ~ O                                               r ~ ~ ~ ~ ~ ",
"~ ~ ~ ~ ~ ~ ~ ~ ~ ~ ~ ~ ~ ~ ~ ~ ~ ~ i t t t t t t t t t t t t t t t t t t t t t t t Q ~ ~ ~ ~ ~ ",
"~ ~ ~ ~ ~ ~ ~ ~ ~ ~ ~ ~ ~ ~ ~ ~ ~ ~ ~ ~ ~ ~ ~ ~ ~ ~ ~ ~ ~ ~ ~ ~ ~ ~ ~ ~ ~ ~ ~ ~ ~ ~ ~ ~ ~ ~ ~ ~ ",
"~ ~ ~ ~ ~ ~ ~ ~ ~ ~ ~ ~ ~ ~ ~ ~ ~ ~ ~ ~ ~ ~ ~ ~ ~ ~ ~ ~ ~ ~ ~ ~ ~ ~ ~ ~ ~ ~ ~ ~ ~ ~ ~ ~ ~ ~ ~ ~ ",
"~ ~ ~ ~ ~ ~ ~ ~ ~ ~ ~ ~ ~ ~ ~ ~ ~ ~ ~ ~ ~ ~ ~ ~ ~ ~ ~ ~ ~ ~ ~ ~ ~ ~ ~ ~ ~ ~ ~ ~ ~ ~ ~ ~ ~ ~ ~ ~ ",
"~ ~ ~ ~ ~ ~ ~ ~ ~ ~ ~ ~ ~ ~ ~ ~ ~ ~ ~ ~ ~ ~ ~ ~ ~ ~ ~ ~ ~ ~ ~ ~ ~ ~ ~ ~ ~ ~ ~ ~ ~ ~ ~ ~ ~ ~ ~ ~ ",
"~ ~ ~ ~ ~ ~ ~ ~ ~ ~ ~ ~ ~ ~ ~ ~ ~ ~ ~ ~ ~ ~ ~ ~ ~ ~ ~ ~ ~ ~ ~ ~ ~ ~ ~ ~ ~ ~ ~ ~ ~ ~ ~ ~ ~ ~ ~ ~ ",
"~ ~ ~ ~ ~ ~ ~ ~ ~ ~ ~ ~ ~ ~ ~ ~ ~ ~ ~ ~ ~ ~ ~ ~ ~ ~ ~ ~ ~ ~ ~ ~ ~ ~ ~ ~ ~ ~ ~ ~ ~ ~ ~ ~ ~ ~ ~ ~ ",
"~ ~ ~ ~ ~ ~ ~ ~ ~ ~ ~ ~ ~ ~ ~ ~ ~ ~ ~ ~ ~ ~ ~ ~ ~ ~ ~ ~ ~ ~ ~ ~ ~ ~ ~ ~ ~ ~ ~ ~ ~ ~ ~ ~ ~ ~ ~ ~ ",
"~ ~ ~ ~ ~ ~ ~ ~ ~ ~ ~ ~ ~ ~ ~ ~ ~ ~ ~ ~ ~ ~ ~ ~ ~ ~ ~ ~ ~ ~ ~ ~ ~ ~ ~ ~ ~ ~ ~ ~ ~ ~ ~ ~ ~ ~ ~ ~ ",
"~ ~ ~ ~ ~ ~ ~ ~ ~ ~ ~ ~ ~ ~ ~ ~ ~ ~ ~ ~ ~ ~ ~ ~ ~ ~ ~ ~ ~ ~ ~ ~ ~ ~ ~ ~ ~ ~ ~ ~ ~ ~ ~ ~ ~ ~ ~ ~ ",
"~ ~ ~ ~ ~ ~ ~ ~ ~ ~ ~ ~ ~ ~ ~ ~ ~ ~ ~ ~ ~ ~ ~ ~ ~ ~ ~ ~ ~ ~ ~ ~ ~ ~ ~ ~ ~ ~ ~ ~ ~ ~ ~ ~ ~ ~ ~ ~ "
};
