/* XPM */
static char *result[] = {
/* columns rows colors chars-per-pixel */
"48 48 49 1 ",
"  c #478A27",
". c #488B27",
"X c #478A28",
"o c #488B29",
"O c #4D932A",
"+ c #4F9A2A",
"@ c #52962D",
"# c #529C2B",
"$ c #569E30",
"% c #599D32",
"& c #56A22D",
"* c #58A52D",
"= c #5BA82F",
"- c #56A430",
"; c #5AA531",
": c #5DAB31",
"> c #5FB135",
", c #61AE32",
"< c #65AE38",
"1 c #63B235",
"2 c #68B536",
"3 c #6CB937",
"4 c #65B638",
"5 c #6BB63A",
"6 c #67B83A",
"7 c #6AB93A",
"8 c #72BD3C",
"9 c #75C23E",
"0 c #78C43F",
"q c #73BD40",
"w c #78BD44",
"e c #75C241",
"r c #7AC542",
"t c #7CC841",
"y c #7FC849",
"u c #81CB44",
"i c #83C649",
"p c #85CB4B",
"a c #89CB4D",
"s c #8BD14C",
"d c #8DCC51",
"f c #8FD351",
"g c #93D553",
"h c #98D757",
"j c #95D856",
"k c #9ADB57",
"l c #9CDD59",
"z c #A3E25F",
"x c #A4E260",
/* pixels */
"66yxxf7q1****&*,,:++#>>:***666,,,***:,,***O.o;1>",
"66yxxf441*****;,,:@+@,:1***667,,,***:,,**%O.o;:1",
"64wgfsqq7:;,55<*;:<<,;**&&&674525:::888:**OOO;,,",
"q44:>6tee56rzzd o%zzhoo +++144rrr767lzz2,,=%*::,",
"671,>600055ezzd.o%zzh   +++>160t0776lzz7,,=**,,,",
"736,>1993228ggiOO%gga@OO&&&976999377agg,==###=:,",
"tt3>>*++#**=,,,,,,,:,1:1>66ttt***383=**O oooo#**",
"tt9>,=++@***,,,:,,,,,,1:666tt0***333***. .ooo#**",
"987:,=###===1,1532::=11144>999;**636=**+OO.OO#&*",
"ooO***,,2257449zzf++#114+++&**>>>67711,,:,**&+++",
"oo@**=,,1576449zzg++#461+++**&,,:676,,,>1,***+++",
"OO@**=2,,444468kls###666-&#&&&==:1411,,===***&+#",
"tt7**,832&*=383393=,,333ttto XXX &&*416#++=,,,,:",
"tt7&*,332**:838333,,1338ttto  XX &**144#++:,,,:1",
"uu8&*=222===223336,,1899r9rOOoOoO&**>11##+=,,,>,",
"xxi+@O  $tt5..@57773qzzl***477,,,***. .=,,,,,467",
"xxu++O..;t06  +977678zxl***667,,,=**  .=1,,,1446",
"llu#++O@;009. O454443klk***544,,>***O..*=,,,>156",
"@+#**1008,>>>6>**=,,,+++***&**444393444=**66711:",
"@+#**1u091>>6>>***,,=+++*&****144333444*&*4661:>",
"++#*&,008>1>44,*$=,,,@+@=**=**414333611=**2441>>",
":1=***=*=:1=,,:+@*tt9***676333***   :,>000*++,44",
",>;=*&**=,,>,,=++&tt0***667383***   =,10u0=++:44",
">>=*&***=>,,,1=++&tt0***677333***O  :>>90u*#+<44",
"**8zzp**100093,..O833***ttttttOoX>44***477=**#++",
"*&wxza**10u033, .+383**=ttttttooX444***466=**#++",
"**8xza**,00099: .@836**=ttttttoo.>44=&*467=**+++",
"44*@@<099111:,=++$009.oo;:;6661>>4>4>>:9rr1,>OXX",
"67;o %tt9:>,=1=++*0t9ooo***4444444441,,0tt411O o",
"67;o %tt9>,,1,=++$utqoo ***444444144,1,00t1:>O o",
"lle#&=879992OO@***214<11gjjOOO-=*===,>,,21666:;;",
"zzp**=578tt5  .***,,1746xxxooo*****==,,,:,47611>",
"zzi**:757tt7 oO***>>>663zxxoo &****&:1,,,,4771:>",
"<5522,=:5tte<,;***4>41,,9rr:>::::&++999&###&&==,",
"**,832*&1tt0661;*=444,,,666464=1>&++9tt&+#++#=,,",
"**,371*-10t0561**:>41,,,7664141,:+++9tt&++++#=,,",
"88777:oO@22ehha>>>:*-OOO1,1444,,=&++90t998@o ,21",
"0085q;oo@,,8xxj441**-XXX:,,444,,,+++0ttt0t@o.<66",
"u0054;ooO,,qxxj>6>---oXX,,,441,,,@++9ttttt@oX<66",
"$$*,:$oo@1>1<4qgfiOo@daa898545=**psattt324*#@185",
"o.O**#oo@44>++:xxfXX@xxxtte467*&*lxxu002,,***233",
"o.+**@oo+41>++<xxfXX@xxxtttq76*;*lxxutt1,,*=*233",
"553888diw&&*777rre>-<eye:::466111678993=====:%$#",
"rrtttazza++=tte46>4eq444+++44q666***>16=**:,,O..",
"ttttuazxa++=tt96>4q>4476+++667676;**116=*#=,,+..",
"2,3888083**1tt8*-->qqq64--;666;-;,:,=,==,,,,,##@",
"*$,552,,,,,2tt3#+-q>44661:>441+++>44***:,,,,,=**",
"**,522,,,,,4tt8++#>q>q77:>>444+@+444***,,,,,,***"
};
