/* XPM */
static char *result[] = {
/* columns rows colors chars-per-pixel */
"48 48 84 1 ",
"  c #3B1D77",
". c #3C167E",
"X c #3C1C7B",
"o c #3C2077",
"O c #401E7F",
"+ c #3F0F8A",
"@ c #3D1484",
"# c #3D1981",
"$ c #3F1289",
"% c #410F8E",
"& c #421485",
"* c #421A84",
"= c #42138B",
"- c #49168D",
"; c #431889",
": c #4B1A8C",
"> c #450E93",
", c #490F95",
"< c #4B0F9A",
"1 c #461192",
"2 c #4A1395",
"3 c #4C1991",
"4 c #4D119A",
"5 c #4D1898",
"6 c #511C96",
"7 c #51139E",
"8 c #541B9C",
"9 c #4F2F8B",
"0 c #4F3485",
"q c #54378D",
"w c #553A8B",
"e c #5C3E8F",
"r c #4F2791",
"t c #512694",
"y c #532C93",
"u c #54229B",
"i c #562A9A",
"p c #5A2D9D",
"a c #573493",
"s c #593496",
"d c #5A3993",
"f c #59329B",
"g c #60399E",
"h c #5413A2",
"j c #5A15A6",
"k c #5719A0",
"l c #5B1AA4",
"z c #5C15A9",
"x c #5E1AA9",
"c c #601EA5",
"v c #6117AB",
"b c #621BAD",
"n c #671CB2",
"m c #6A1EB3",
"M c #5C24A3",
"N c #5D2AA2",
"B c #6121A6",
"V c #622CA5",
"C c #6522AC",
"Z c #6924AE",
"A c #652AAA",
"S c #692AAE",
"D c #6A32AD",
"F c #6721B0",
"G c #6C22B3",
"H c #6D2AB2",
"J c #7124B6",
"K c #722BB5",
"L c #7425BA",
"P c #752ABA",
"I c #7A2CBE",
"U c #6E31B0",
"Y c #7430B5",
"T c #7631B9",
"R c #7D34BC",
"E c #5C448C",
"W c #604991",
"Q c #7B2BC0",
"! c #7F30C1",
"~ c #8239BE",
"^ c #8335C3",
"/ c #853AC2",
"( c #893DC5",
") c #8B39C8",
/* pixels */
"DVVSSK!RRAAApppsssNNNKYKAAFsaaNAVKTTVNpsdEddaaig",
"V4hjlMKHZ77722,%%%2,2nnbjzj+$$5hhbGF42,-;&&&@+%i",
"UlbZFFFSZcxj,4<%%%-21lhj<h7+@@155xbb4<21==&++&%i",
"RGP//HlllJJZ44<&@&=&$>11+>+@##@$$2hh42<>>>-%-%1i",
"RJI^!KjjxJHG,,,+@@;@;111$$$###@@@47h74,>%2--222i",
"RGGKTHxxvGGC>>>@@#@=$522552@@#$$=7hh7,,%%=24224p",
"TFx44lFFZxvj&&@..@125jxlFnn21>5h7j8j2%-&&&,7447M",
"Tnx77lGGGvc8.&@@@@,22xzzGnG<++5578lj,&&=&&%,,<4M",
"Uxk45hCCM888&&@&&=j8kzzznnn<++455ccb7-2=$$+++44M",
"s$=112hk5@&@&;-777IIIhhhvvxhhh44,URRGbb5+$@@$$<N",
"s$$1-5kk5@=&--3hhh~QIhhhvvxhhh><,KRRZCb2$$###$+N",
"d@=1=-552@&=-25xjxPPP474zzzhhh21-AYYGCb711###$$t",
"E #;##@@@&&-hhl(((7jh$$=$==,2<1;-2,4STTFxb3#o#oE",
"E ##;$@$&&--h4k(((j8k$$@$$$2><33:,,4ATTFxx-.###E",
"E #$;@@$==-:jhl/~~777@@$$@$1,13-:-22AKKGCC5####E",
"f$=2521127<l/(/kl8...#XXXo @=-&;&;;&2,2FKKGbx5$a",
"f+12<<11244l((~lll...oX#oo @@$@;&:::-,4CKKmbxh$i",
"f$2<<,114747~~~l88...##o   #@$&=&:::1,4bKKmbnh$i",
"Hzzvnj<,7GGZlj8@@@@@@$$$@@@$$=5771&%&&&-44vnnz<M",
"Hzzxvj,,7GGZjlj@%@@@@=$+##@$1$574%&&-&&147vnnz<M",
"Hzjbvz,>5GGFjl7@+@@@@+++@@@$$$4k7>%%%&&%44vFnzhM",
"N52=1=#..-=-4<41>>&++@@.152222777h<<&+O+#@+2<>+i",
"V42>1$.X@=1-2<,>>%%++.@@25222277h<7<%....#$1+<+i",
"V42=1$#.#-=14<,>>%%++@@@22524<77h<7<%...##=2<+<i",
"V7,>+%##@2-3224477-2,&&&lMlJKJR~~7>>&...#@2<<77N",
"V7,>%+@##-31222777,2>&O&clcJKJ^^^8>>&..O#@27h77M",
"A7<>++@.#2232424772,>&@&lBMKPP^^^7>>OO.O##277<7M",
"A7<,<<>+2blbbbv2>22,<,<2774JPPvjvh<7,>%><+hxzhhM",
"Nh44<<<+4bbnmnb>,,,2,4<<445JPPxhh777<,>,<2hxxj7M",
"Ah74<<><4bnbmnn>,>,,<<<2<<<JPPlhhh77<>>2><zxxj7M",
"f;;=$$@#*558RIQGmn,,<jzzbbnzxxFnmnbv-&@###122-@a",
"d@@$$@.o.-16/))LLJ,,<xvbGGGhhjmJJmnb-.#Xo $==$@q",
"d@#$+@.X.-=5/)^LLJ><>xvvmmmzhjGmJmnb-##X X$+1$#q",
"N22kh,@@@#.ru8MQQQnnmhhhzzznnnLIQ5-2*o @@$<hh41i",
"N<7zjh=$@ oo=$1QQQLQQh<<hhhmLLQQQ:@@Xoo@$+hzjh2N",
"N<7jj7=$@  X=$-QQQQLLhhhhhhLLLPPI:@@ooo@$+hzj7<N",
"A7lbnnxCx$$@#*95MuLLQ<4h<<hnnnMu8OXX@&&BKGnnnj<M",
"SjznmnJLG1$$#oo$$$LPGhh4<<<zvz$$&OX $11P))Imnj<M",
"SjznmmJLF2==XXo$$$GQQ<hh<<<zvz$@@Xo =11K))Pmnj<M",
"AhjzzxJLGxxl$#@###Mxx+44+<+<<<$# @@;lCbP^RC7h72M",
"Chhh7lLQIJLm%@@Xo#$2$$$$+1+$$$ X $==nQQILPl%%,,M",
"Ahh74xLQLJLm=$@Xo#1$$2+$1+1$$@XX $11GQQIPPh%%,4M",
"N4445hxMFJJG47<@##112$241+1@@@###hzjmLLBcl2=$>2i",
"f++22244kIQJzzz&##$$$44$>21@#@@@@CLJJmm4%%@$@==i",
"f$51,245hPPJzzj&++$$$<2<22,@@@@@$CJJGmm4%%@+$$=i",
"f#$525hklZCbhjh%++<11hjjjhj+++121bGmzjj5=$+=@&*a",
"Eo;52hbxl7hh<<<>++<24nFnmFn2+><<hxnn2>>%=+$%=. w",
"W0yMMMSHSMMlMMl8uuMuMJJLKJJuuuMMMFHGMuutt9rrrq0E"
};
